<svg width="29" height="36" viewBox="0 0 29 36" fill="none" xmlns="http://www.w3.org/2000/svg">
<path d="M2.6372 36H26.3629V33.3454V8.13563H21.0885V2.83095H2.6372H0V33.3454C0 34.8141 1.17813 36 2.6372 36ZM5.93143 32.684C4.8394 32.684 3.9558 31.7946 3.9558 30.6953C3.9558 29.5961 4.8394 28.7066 5.93143 28.7066C7.02347 28.7066 7.90707 29.5961 7.90707 30.6953C7.90707 31.79 7.02347 32.684 5.93143 32.684ZM5.93143 25.3861C4.8394 25.3861 3.9558 24.4967 3.9558 23.3974C3.9558 22.2982 4.8394 21.4087 5.93143 21.4087C7.02347 21.4087 7.90707 22.2982 7.90707 23.3974C7.90707 24.4967 7.02347 25.3861 5.93143 25.3861ZM5.93143 18.0882C4.8394 18.0882 3.9558 17.1987 3.9558 16.0995C3.9558 15.0002 4.8394 14.1108 5.93143 14.1108C7.02347 14.1108 7.90707 15.0002 7.90707 16.0995C7.90707 17.1987 7.02347 18.0882 5.93143 18.0882Z" fill="#F9ECDE"/>
<path d="M21.088 8.13563H26.3624V33.3454H28.9996V0.176331H2.63672V2.83095H21.088V8.13563Z" fill="#66CEDB"/>
<path d="M5.93169 18.0881C7.0228 18.0881 7.90732 17.1978 7.90732 16.0995C7.90732 15.0011 7.0228 14.1108 5.93169 14.1108C4.84058 14.1108 3.95605 15.0011 3.95605 16.0995C3.95605 17.1978 4.84058 18.0881 5.93169 18.0881Z" fill="#66CEDB"/>
<path d="M5.93169 25.3861C7.0228 25.3861 7.90732 24.4958 7.90732 23.3974C7.90732 22.2991 7.0228 21.4088 5.93169 21.4088C4.84058 21.4088 3.95605 22.2991 3.95605 23.3974C3.95605 24.4958 4.84058 25.3861 5.93169 25.3861Z" fill="#F6BF58"/>
<path d="M5.93169 32.6795C7.0228 32.6795 7.90732 31.7891 7.90732 30.6908C7.90732 29.5925 7.0228 28.7021 5.93169 28.7021C4.84058 28.7021 3.95605 29.5925 3.95605 30.6908C3.95605 31.7891 4.84058 32.6795 5.93169 32.6795Z" fill="#66CEDB"/>
<path d="M17.795 7.47426H3.29492V8.80157H17.795V7.47426Z" fill="#BCBEC0"/>
<path d="M17.795 10.1289H3.29492V11.4562H17.795V10.1289Z" fill="#BCBEC0"/>
<path d="M23.0648 15.4335H10.5449V16.7609H23.0648V15.4335Z" fill="#BCBEC0"/>
<path d="M23.0648 22.7315H10.5449V24.0588H23.0648V22.7315Z" fill="#BCBEC0"/>
<path d="M23.0648 30.0294H10.5449V31.3567H23.0648V30.0294Z" fill="#BCBEC0"/>
<path d="M21.0889 2.83095V8.13563H26.3633L21.0889 2.83095Z" fill="#F6BF58"/>
</svg>