<svg width="75" height="48" viewBox="0 0 75 48" fill="none" xmlns="http://www.w3.org/2000/svg">
<g clip-path="url(#clip0)">
<path d="M42.285 45.5954C41.2849 45.4901 40.5611 44.5909 40.6664 43.5908L44.0265 12.2064C44.0703 11.7809 44.452 11.4738 44.8774 11.5221L47.7286 11.8291L44.2853 43.9812C44.1844 44.9769 43.2852 45.7006 42.285 45.5954Z" fill="#F87B67"/>
<path d="M46.1268 43.9339C45.1267 43.8286 44.4029 42.9294 44.5082 41.9293L47.7323 11.8257L51.3555 12.2117L48.1315 42.3153C48.0262 43.3154 47.127 44.0392 46.1268 43.9339Z" fill="#FAA598"/>
<path d="M49.9706 42.2712C48.9705 42.1659 48.2467 41.2667 48.352 40.2666L51.3567 12.2158L54.9799 12.6018L51.9752 40.6526C51.8699 41.6527 50.9707 42.3765 49.9706 42.2712Z" fill="#F87B67"/>
<path d="M53.8124 40.609C52.8123 40.5037 52.0885 39.6045 52.1938 38.6044L54.9792 12.6021L58.6024 12.9881L55.817 38.9904C55.7073 39.9905 54.8125 40.7143 53.8124 40.609Z" fill="#FAA598"/>
<path d="M57.6561 38.9468C56.656 38.8415 55.9322 37.9423 56.0375 36.9422L58.6036 12.9883L62.2268 13.3743L59.6607 37.3282C59.5511 38.3283 58.6519 39.0521 57.6561 38.9468Z" fill="#F87B67"/>
<path d="M61.494 37.2841C60.4939 37.1788 59.7701 36.2796 59.8754 35.2795L62.2222 13.3784L65.8454 13.7644L63.4986 35.6655C63.3934 36.6656 62.4941 37.3894 61.494 37.2841Z" fill="#FAA598"/>
<path d="M65.3358 35.6219C64.3357 35.5166 63.6119 34.6174 63.7172 33.6173L65.8446 13.7646L69.4679 14.1506L67.3404 34.0033C67.2352 35.0034 66.3359 35.7272 65.3358 35.6219Z" fill="#F87B67"/>
<path d="M69.1776 33.9592C68.1775 33.8539 67.4537 32.9547 67.559 31.9547L69.4671 14.1504L72.3183 14.4574C72.7438 14.5013 73.0509 14.8829 73.007 15.3084L71.1822 32.3407C71.077 33.3407 70.1777 34.0645 69.1776 33.9592Z" fill="#FAA598"/>
<path d="M43.2189 45.4472C42.9338 45.5744 42.6179 45.627 42.2889 45.592C41.2888 45.4867 40.5651 44.5875 40.6703 43.5874L44.0304 12.2029C44.0742 11.7775 44.4559 11.4704 44.8813 11.5187L46.693 11.7117C46.2675 11.6678 45.8859 11.9748 45.842 12.3959L42.4819 43.7804C42.4074 44.4559 42.71 45.0788 43.2189 45.4472Z" fill="#F76C57"/>
<path d="M47.0626 43.7847C46.7819 43.9119 46.4617 43.9646 46.1327 43.9295C45.1326 43.8242 44.4088 42.925 44.5141 41.9249L47.7381 11.8213L49.5497 12.0143L46.3257 42.1179C46.2511 42.7934 46.5538 43.4163 47.0626 43.7847Z" fill="#FA9084"/>
<path d="M50.9005 42.1225C50.6198 42.2497 50.2996 42.3024 49.9706 42.2673C48.9705 42.162 48.2467 41.2628 48.352 40.2627L51.3567 12.2119L53.1683 12.4049L50.1636 40.4557C50.0934 41.1312 50.3961 41.7541 50.9005 42.1225Z" fill="#F76C57"/>
<path d="M54.7423 40.4642C54.4572 40.5914 54.1414 40.6441 53.8124 40.609C52.8123 40.5037 52.0885 39.6045 52.1938 38.6044L54.9792 12.6021L56.7908 12.7951L54.0054 38.7974C53.9352 39.4685 54.2335 40.0914 54.7423 40.4642Z" fill="#FA9084"/>
<path d="M58.586 38.802C58.3009 38.9292 57.9851 38.9819 57.6561 38.9468C56.656 38.8415 55.9322 37.9423 56.0375 36.9422L58.6036 12.9883L60.4152 13.1813L57.8491 37.1352C57.7746 37.8063 58.0772 38.4292 58.586 38.802Z" fill="#F76C57"/>
<path d="M62.4279 37.1394C62.1427 37.2666 61.8269 37.3192 61.4979 37.2841C60.4978 37.1788 59.774 36.2796 59.8793 35.2795L62.2261 13.3784L64.0377 13.5714L61.6909 35.4725C61.6164 36.1437 61.919 36.7665 62.4279 37.1394Z" fill="#FA9084"/>
<path d="M66.2658 35.4772C65.9806 35.6044 65.6648 35.657 65.3358 35.6219C64.3357 35.5166 63.6119 34.6174 63.7172 33.6173L65.8447 13.7646L67.6563 13.9576L65.5288 33.8103C65.4586 34.4815 65.7613 35.1043 66.2658 35.4772Z" fill="#F76C57"/>
<path d="M70.1075 33.8145C69.8224 33.9417 69.5066 33.9943 69.1776 33.9592C68.1775 33.8539 67.4537 32.9547 67.559 31.9547L69.4671 14.1504L71.2787 14.3434L69.3706 32.1477C69.3004 32.8188 69.5987 33.4416 70.1075 33.8145Z" fill="#FA9084"/>
<path d="M74.9907 20.3309L74.7802 22.3004C74.71 22.9364 74.1397 23.397 73.5081 23.3268L41.8421 19.9361C41.2061 19.866 40.7455 19.2957 40.8157 18.6641L41.0262 16.6946C41.0964 16.0586 41.6666 15.598 42.2983 15.6682L73.9643 19.0589C74.6003 19.1247 75.0609 19.6949 74.9907 20.3309Z" fill="#DA2F3C"/>
<path d="M44.2366 20.1949L41.846 19.9405C41.21 19.8703 40.7494 19.3001 40.8196 18.6685L41.0301 16.699C41.1003 16.063 41.6705 15.6024 42.3022 15.6726L44.6928 15.927C44.0568 15.8568 43.4865 16.3174 43.4207 16.9534L43.2102 18.9229C43.14 19.5545 43.6006 20.1248 44.2366 20.1949Z" fill="#C62430"/>
<path d="M45.1062 16.0231C45.0843 15.9924 45.0404 15.988 45.0097 16.0144L42.7682 17.8215C42.7375 17.8435 42.7332 17.8873 42.7595 17.918L44.5667 20.1595C44.5886 20.1902 44.6325 20.1946 44.6632 20.1682L46.9047 18.3611C46.9354 18.3391 46.9398 18.2953 46.9135 18.2646L45.1062 16.0231Z" fill="#24D3B5"/>
<path d="M49.4477 17.5896C49.3775 17.5062 49.2547 17.4931 49.1713 17.5589L48.2326 18.3177C48.1493 18.3879 48.1361 18.5107 48.2019 18.5941L48.9608 19.5327C49.031 19.6161 49.1538 19.6292 49.2371 19.5634L50.1758 18.8046C50.2592 18.7344 50.2723 18.6116 50.2066 18.5283L49.4477 17.5896Z" fill="#20B7A1"/>
<path d="M53.8172 16.9577C53.7952 16.927 53.7514 16.9226 53.7207 16.9489L51.4792 18.7561C51.4485 18.778 51.4441 18.8219 51.4704 18.8526L53.2776 21.094C53.2996 21.1247 53.3434 21.1291 53.3741 21.1028L55.6156 19.2956C55.6463 19.2737 55.6507 19.2298 55.6244 19.1991L53.8172 16.9577Z" fill="#24D3B5"/>
<path d="M58.1586 18.5193C58.0884 18.4359 57.9656 18.4228 57.8823 18.4886L56.9436 19.2474C56.8602 19.3176 56.8471 19.4404 56.9129 19.5237L57.6717 20.4624C57.7419 20.5458 57.8647 20.5589 57.9481 20.4931L58.8868 19.7343C58.9701 19.6641 58.9833 19.5413 58.9175 19.4579L58.1586 18.5193Z" fill="#20B7A1"/>
<path d="M62.532 17.8923C62.5101 17.8616 62.4662 17.8572 62.4355 17.8835L60.194 19.6907C60.1633 19.7126 60.1589 19.7565 60.1853 19.7872L61.9925 22.0286C62.0188 22.0593 62.0583 22.0637 62.089 22.0374L64.3305 20.2302C64.3612 20.2083 64.3655 20.1644 64.3392 20.1337L62.532 17.8923Z" fill="#24D3B5"/>
<path d="M66.8754 19.4538C66.8053 19.3705 66.6824 19.3573 66.5991 19.4231L65.6604 20.182C65.577 20.2522 65.5639 20.375 65.6297 20.4583L66.3885 21.397C66.4587 21.4803 66.5815 21.4935 66.6649 21.4277L67.6036 20.6689C67.6869 20.5987 67.7001 20.4759 67.6343 20.3925L66.8754 19.4538Z" fill="#20B7A1"/>
<path d="M73.056 21.0678L71.2488 18.8263C71.2269 18.7956 71.183 18.7913 71.1523 18.8176L68.9108 20.6248C68.8801 20.6467 68.8757 20.6906 68.902 20.7213L70.7093 22.9627C70.7312 22.9934 70.7751 22.9978 70.8058 22.9715L73.0473 21.1643C73.0736 21.138 73.078 21.0985 73.056 21.0678Z" fill="#24D3B5"/>
<path d="M44.3592 18.0898L45.4953 19.4978L44.6619 20.1733C44.6312 20.1952 44.5873 20.1908 44.5654 20.1645L42.7582 17.9231C42.7363 17.8924 42.7406 17.8485 42.767 17.8266L45.0084 16.0194C45.0391 15.9975 45.083 16.0019 45.1049 16.0282L45.7805 16.8616L44.3724 17.9977C44.3417 18.0196 44.3373 18.0635 44.3592 18.0898Z" fill="#20B7A1"/>
<path d="M53.076 19.0239L54.2121 20.4319L53.3787 21.1074C53.348 21.1293 53.3041 21.1249 53.2822 21.0986L51.475 18.8572C51.453 18.8265 51.4574 18.7826 51.4838 18.7607L53.7252 16.9535C53.7559 16.9316 53.7998 16.9359 53.8217 16.9623L54.4972 17.7957L53.0892 18.9317C53.0541 18.9537 53.0497 18.9932 53.076 19.0239Z" fill="#20B7A1"/>
<path d="M61.787 19.9579L62.9231 21.366L62.0896 22.0415C62.0589 22.0634 62.0151 22.059 61.9931 22.0327L60.1859 19.7913C60.164 19.7606 60.1684 19.7167 60.1947 19.6948L62.4362 17.8876C62.4669 17.8656 62.5107 17.87 62.5327 17.8964L63.2082 18.7298L61.8001 19.8658C61.7694 19.8834 61.765 19.9272 61.787 19.9579Z" fill="#20B7A1"/>
<path d="M70.5038 20.8925L71.6399 22.3005L70.8064 22.976C70.7757 22.998 70.7319 22.9936 70.7099 22.9673L68.9027 20.7258C68.8808 20.6951 68.8852 20.6513 68.9115 20.6293L71.153 18.8221C71.1837 18.8002 71.2275 18.8046 71.2495 18.8309L71.925 19.6643L70.5169 20.8004C70.4818 20.8179 70.4775 20.8618 70.5038 20.8925Z" fill="#20B7A1"/>
<path d="M57.3476 4.70641L57.931 3.28084C57.9398 3.2633 57.9442 3.24137 57.9529 3.22382C58.0407 2.96941 58.0231 2.70184 57.9003 2.46937C57.7687 2.21934 57.5274 2.0395 57.2336 1.97809L52.4435 0.986775C51.9259 0.877115 51.3644 1.171 51.1671 1.65789L49.4256 5.90828C49.18 5.72844 48.8817 5.59685 48.5483 5.53105C47.4824 5.3205 46.3814 5.80739 46.0393 6.64519C45.877 7.04435 45.8989 7.46982 46.1007 7.84705C46.2893 8.19796 46.6139 8.4743 47.0262 8.64098C47.1622 8.69801 47.3069 8.74187 47.4605 8.77257C48.522 8.98312 49.6274 8.49185 49.9695 7.65844L51.4829 3.96512L56.0097 4.9038L55.5842 5.94337C55.3386 5.76353 55.0403 5.63194 54.7069 5.56614C53.6454 5.3556 52.5444 5.84687 52.1979 6.68028C52.0356 7.07505 52.0575 7.50491 52.2593 7.88214C52.4479 8.23305 52.7725 8.50939 53.1804 8.67607C53.3164 8.7331 53.4612 8.77696 53.6147 8.80767C54.6806 9.01821 55.7816 8.52694 56.1238 7.69353L57.3476 4.70641Z" fill="#FFDE2E"/>
<path d="M73.7876 0.908146C73.6429 0.658123 73.3841 0.491441 73.0814 0.451964L69.6424 0.00894127C69.116 -0.0568542 68.5677 0.267737 68.3659 0.763396L66.7561 4.69358C66.5455 4.47865 66.2867 4.29881 65.9841 4.17599C64.9225 3.74174 63.747 4.15844 63.3566 5.1059C62.9706 6.05335 63.5145 7.17626 64.576 7.61051C65.6375 8.04476 66.8131 7.62806 67.2035 6.6806C67.2123 6.65429 67.2211 6.63235 67.2298 6.60604C67.2342 6.59288 67.243 6.57972 67.2474 6.56656L68.6335 3.18028L72.1032 3.62769C72.6296 3.69349 73.1779 3.3689 73.3797 2.87324L73.8315 1.77226C73.9543 1.47837 73.9367 1.16694 73.7876 0.908146Z" fill="#FFDE2E"/>
<path d="M35.3851 32.9414C35.2622 27.6602 35.1745 22.379 34.6569 17.1198C34.442 14.9354 33.9112 9.9744 33.9112 9.9744C33.9112 9.9744 31.6741 9.81649 30.4678 9.79894C28.279 9.76824 25.9366 9.97879 23.7083 10.0226C17.8391 10.1455 1.50391 10.7332 1.50391 10.7332C1.50391 10.7332 1.8636 17.7427 1.82851 19.7999C1.78025 22.6773 1.73639 25.5285 1.88553 28.4059C2.03028 31.1825 2.03028 33.9678 2.03906 36.7488C2.04344 38.1085 2.38559 43.3722 2.41191 44.5697C2.42068 45.0609 2.45577 46.118 2.45577 46.118C2.45577 46.118 3.67083 46.1751 4.12702 46.2146C11.6981 46.8418 18.9577 46.5128 26.5112 46.1531C28.9808 46.0347 35.4552 45.7189 35.4552 45.7189C35.4552 45.7189 36.043 43.2888 35.8413 41.508C35.7228 40.4728 35.4289 34.7881 35.3851 32.9414Z" fill="white"/>
<path d="M29.1701 9.80789C29.6043 9.79912 30.0386 9.79473 30.4641 9.8035C31.666 9.82105 33.9075 9.97896 33.9075 9.97896C33.9075 9.97896 34.4382 14.9399 34.6532 17.1243C35.1752 22.3836 35.2585 27.6648 35.3813 32.946C35.4252 34.7926 35.7191 40.4774 35.8375 41.5082C36.0437 43.289 35.4515 45.7191 35.4515 45.7191C35.4515 45.7191 28.9771 46.0349 26.5075 46.1533C23.1957 46.3112 19.9453 46.4648 16.6949 46.5305C12.5322 46.6183 8.37379 46.5656 4.1189 46.2147C3.65832 46.1753 2.44765 46.1182 2.44765 46.1182C2.44765 46.1182 2.41695 45.0611 2.40379 44.5698C2.37747 43.3724 2.03533 38.1087 2.03094 36.7489C2.03094 33.968 2.03094 31.187 1.88619 28.4061C1.73705 25.5286 1.78091 22.6775 1.82916 19.8044C1.85987 17.7472 1.50456 10.6238 1.50456 10.6238C1.50456 10.6238 17.7608 10.15 23.665 10.0272C22.7658 10.615 23.6914 10.0272 23.7045 10.0272C23.7089 10.0272 23.7133 10.0272 23.7133 10.0272C25.5118 9.98773 27.3716 9.84298 29.1701 9.80789ZM29.1438 8.37793C28.2226 8.39548 27.2795 8.44373 26.3715 8.48759C25.4854 8.53146 24.5643 8.57532 23.6914 8.59287H23.6826H23.6607H23.6387C17.7916 8.71568 1.61861 9.29907 1.45631 9.30346L0 9.36048L0.0745701 10.8124C0.0789566 10.8825 0.429875 17.7955 0.399169 19.7825C0.350918 22.6161 0.307053 25.5506 0.456194 28.4807C0.592174 31.0774 0.600947 33.7443 0.60972 36.3191V36.7577C0.614107 37.5736 0.723769 39.5738 0.829044 41.5082C0.903614 42.8504 0.973798 44.118 0.982571 44.6049C0.991344 45.0962 1.02205 46.1226 1.02644 46.1665L1.06591 47.4912L2.38624 47.5526C2.71523 47.5701 3.65394 47.614 4.00924 47.6447C7.86934 47.9649 11.9093 48.0658 16.73 47.9649C19.8795 47.8991 22.9281 47.7587 26.5821 47.5833C29.0253 47.4648 35.4603 47.1534 35.5261 47.149L36.592 47.0964L36.842 46.0568C36.8683 45.9472 37.4868 43.3548 37.2587 41.3459C37.1535 40.416 36.8552 34.8189 36.8113 32.9109C36.8025 32.5029 36.7938 32.095 36.785 31.6871C36.6753 26.8709 36.5613 21.8923 36.0788 16.984C35.8638 14.8171 35.3331 9.87807 35.3287 9.82982L35.2015 8.64112L34.0084 8.55777C33.9162 8.549 31.7142 8.39548 30.486 8.37793C30.0693 8.36477 29.6263 8.36916 29.1438 8.37793Z" fill="#F9F1DC"/>
<path d="M34.184 32.6083C34.0699 27.7087 33.991 22.8091 33.5085 17.9271C33.3067 15.9006 32.8154 11.2993 32.8154 11.2993C32.8154 11.2993 30.7406 11.1502 29.622 11.137C27.5911 11.1063 25.4198 11.3037 23.3494 11.3432C17.9014 11.4572 2.74609 12.0055 2.74609 12.0055C2.74609 12.0055 3.07947 18.5105 3.04876 20.4186C3.0049 23.0855 2.96542 25.7305 3.1014 28.4018C3.23738 30.9809 3.23738 33.5645 3.24615 36.1437C3.24615 37.4026 3.56637 42.2846 3.5883 43.3944C3.59707 43.8505 3.62778 44.8331 3.62778 44.8331C3.62778 44.8331 4.7551 44.8857 5.18059 44.9208C12.2077 45.5042 18.9454 45.1971 25.955 44.8638C28.2447 44.7541 34.2542 44.4602 34.2542 44.4602C34.2542 44.4602 34.8025 42.2056 34.6095 40.552C34.4998 39.5958 34.2278 34.319 34.184 32.6083Z" fill="#19121A"/>
<path d="M32.7713 34.0118C32.7713 34.0118 30.3456 33.9372 29.7447 33.9591C28.6393 34.003 27.569 34.1126 26.4592 34.0512C24.8406 33.9635 5.68484 34.2618 5.32954 34.2749C5.27252 34.2749 5.21988 34.2793 5.16285 34.2793C4.96985 34.2881 4.54436 34.3013 4.54436 34.3013C4.54436 34.3013 4.46979 35.468 4.55313 35.5601C4.55313 36.0075 4.55752 36.4506 4.61016 36.898C4.6935 37.613 4.91721 43.9907 4.91721 43.9907C4.91721 43.9907 6.10595 43.9907 6.36475 43.9864C7.36925 43.9688 29.9026 43.7188 32.0432 43.4644C32.3941 43.4249 33.4074 43.3109 33.4074 43.3109C33.4074 43.3109 33.4162 42.6617 33.4118 42.302C33.3811 40.9115 32.7713 34.0118 32.7713 34.0118Z" fill="black"/>
<path d="M12.4755 37.8896C11.9579 37.6483 11.3613 37.7492 10.7955 37.7536C10.2033 37.758 9.6155 37.7492 9.02771 37.7536C7.84336 37.758 6.65901 37.7405 5.47905 37.8633C4.7816 37.9335 4.80353 38.859 5.50098 38.9029C6.37389 38.9599 7.24241 38.973 8.11532 38.9906C8.08023 39.2055 8.04075 39.4161 7.99689 39.6354C7.91354 40.0521 7.97057 40.5214 7.97934 40.9469C7.99689 41.7803 8.00127 42.6576 8.14603 43.4778C8.28201 44.2367 9.6462 44.2104 9.7427 43.4427C9.83921 42.6707 9.74709 41.868 9.69884 41.0916C9.67252 40.6662 9.65059 40.2407 9.62866 39.8152C9.6155 39.5564 9.5497 39.2845 9.47952 39.0169C9.92694 39.0213 10.37 39.0257 10.8174 39.0257C11.3832 39.0257 11.9798 39.1046 12.4886 38.8458C12.8659 38.6484 12.8527 38.0607 12.4755 37.8896Z" fill="#DE2EFF"/>
<path d="M26.3583 37.4552C25.8407 37.214 25.2441 37.3149 24.6783 37.3149C24.0905 37.3193 23.4983 37.3105 22.9105 37.3149C21.7262 37.3193 20.5418 37.3017 19.3619 37.4245C18.6644 37.4991 18.6863 38.4202 19.3838 38.4641C20.2567 38.5211 21.1252 38.5343 21.9981 38.5518C21.963 38.7668 21.9236 38.9773 21.8797 39.1966C21.7964 39.6133 21.8534 40.0871 21.8622 40.5081C21.8797 41.3416 21.8841 42.2188 22.0288 43.0391C22.1648 43.7979 23.5246 43.7716 23.6255 43.004C23.722 42.232 23.6299 41.4293 23.5817 40.6529C23.5553 40.2274 23.529 39.8019 23.5115 39.3765C23.4983 39.1177 23.4325 38.8457 23.3623 38.5781C23.8098 38.5825 24.2528 38.5869 24.7002 38.5869C25.2661 38.5869 25.8626 38.6659 26.3715 38.4071C26.7487 38.2141 26.7355 37.6263 26.3583 37.4552Z" fill="#DE2EFF"/>
<path d="M18.6503 39.3105C18.1897 39.2798 17.7247 39.2798 17.2598 39.2885C17.2466 39.0341 17.2466 38.7841 17.2686 38.5209C17.308 38.0911 17.251 37.591 17.1194 37.1743C16.9834 36.7401 16.9352 36.2927 16.8913 35.8496C16.8475 35.4154 17.0185 35.0206 16.8518 34.5995C16.6895 34.1872 15.9921 34.332 15.9921 34.7136H15.9877C15.9307 35.1083 15.7596 35.4724 15.7421 35.876C15.7245 36.3234 15.7026 36.762 15.7421 37.205C15.7947 37.8542 15.6631 38.4815 15.5754 39.1175C15.3911 39.135 15.2069 39.1526 15.0183 39.1613C14.5402 39.1833 14.062 39.1745 13.5839 39.1833C12.3689 39.2008 12.404 40.7273 13.6146 40.7185C15.3078 40.7097 16.9834 40.9115 18.6766 40.7185C19.7908 40.6001 19.7645 39.3894 18.6503 39.3105Z" fill="#DE2EFF"/>
<path d="M31.5253 38.8984C31.0647 38.8633 30.5997 38.8677 30.1348 38.8764C30.1216 38.622 30.1216 38.372 30.1436 38.1088C30.183 37.679 30.126 37.1789 29.9944 36.7622C29.8584 36.328 29.8102 35.8805 29.7663 35.4375C29.7225 35.0033 29.8935 34.6085 29.7268 34.1874C29.5645 33.7751 28.8671 33.9198 28.8671 34.3015H28.8627C28.8057 34.6962 28.6346 35.0603 28.6171 35.4638C28.5995 35.9113 28.5776 36.3499 28.6171 36.7929C28.6697 37.4421 28.5381 38.0693 28.4504 38.7054C28.2661 38.7229 28.0819 38.7405 27.8933 38.7492C27.4152 38.7712 26.9327 38.7624 26.4589 38.7712C25.2439 38.7887 25.279 40.3152 26.4896 40.3064C28.1828 40.2976 29.8584 40.4994 31.5516 40.3064C32.6658 40.1836 32.6395 38.9773 31.5253 38.8984Z" fill="#DE2EFF"/>
<path d="M31.8592 12.7731C31.8592 12.7731 29.4335 12.6985 28.8326 12.7249C27.7272 12.7687 26.6569 12.8784 25.5471 12.817C23.9285 12.7292 4.77273 13.0275 4.41743 13.0407C4.36041 13.0407 4.30777 13.0451 4.25074 13.0451C4.05774 13.0538 3.63225 13.067 3.63225 13.067C3.63225 13.067 3.55768 14.2338 3.64102 14.3259C3.64102 14.7733 3.64541 15.2163 3.69805 15.6637C3.777 16.3787 4.0051 22.7565 4.0051 22.7565C4.0051 22.7565 5.19384 22.7565 5.45264 22.7565C6.45714 22.7389 28.9905 22.4889 31.1311 22.2345C31.482 22.195 32.4953 22.081 32.4953 22.081C32.4953 22.081 32.504 21.4318 32.4997 21.0721C32.469 19.6729 31.8592 12.7731 31.8592 12.7731Z" fill="black"/>
<path d="M11.5673 16.6508C11.0497 16.4139 10.4531 16.5104 9.88726 16.5148C9.29947 16.5192 8.70729 16.5104 8.11951 16.5148C6.93516 16.5192 5.75081 16.5017 4.57084 16.6245C3.87339 16.6947 3.89533 17.6202 4.59278 17.664C5.46569 17.7211 6.33421 17.7342 7.20712 17.7474C7.17203 17.9623 7.13255 18.1729 7.08868 18.3922C7.00534 18.8089 7.06236 19.2826 7.07114 19.7037C7.08868 20.5371 7.09307 21.4144 7.23782 22.2346C7.3738 22.9935 8.738 22.9672 8.8345 22.1995C8.931 21.4275 8.83889 20.6248 8.79064 19.8485C8.76432 19.423 8.74239 18.9975 8.72045 18.572C8.70729 18.3132 8.6415 18.0413 8.57131 17.7737C9.01873 17.7781 9.46177 17.7825 9.90919 17.7825C10.475 17.7825 11.0716 17.8614 11.5804 17.6026C11.9577 17.4096 11.9401 16.8219 11.5673 16.6508Z" fill="#5BE1FF"/>
<path d="M25.4501 16.2123C24.9325 15.9755 24.3359 16.072 23.7701 16.0763C23.1823 16.0807 22.5901 16.072 22.0023 16.0763C20.818 16.0807 19.6336 16.0632 18.4537 16.186C17.7562 16.2562 17.7781 17.1817 18.4756 17.2256C19.3485 17.2826 20.217 17.2958 21.0899 17.3089C21.0548 17.5238 21.0154 17.7344 20.9715 17.9537C20.8882 18.3704 20.9452 18.8398 20.954 19.2652C20.9715 20.0986 20.9759 20.9759 21.1206 21.7918C21.2566 22.5506 22.6208 22.5243 22.7173 21.7567C22.8138 20.9847 22.7217 20.182 22.6735 19.4056C22.6471 18.9801 22.6208 18.5546 22.6033 18.1292C22.5901 17.8704 22.5243 17.5984 22.4541 17.3308C22.9015 17.3352 23.3446 17.3396 23.792 17.3396C24.3579 17.3396 24.9544 17.4186 25.4633 17.1598C25.8405 16.9755 25.8229 16.3878 25.4501 16.2123Z" fill="#5BE1FF"/>
<path d="M17.7382 18.0718C17.2776 18.0367 16.8126 18.0411 16.3477 18.0499C16.3345 17.7955 16.3345 17.5454 16.3564 17.2823C16.3959 16.8524 16.3389 16.3523 16.2073 15.9356C16.0713 15.5014 16.0231 15.054 15.9792 14.611C15.9353 14.1767 16.1064 13.7819 15.9397 13.3608C15.7774 12.9529 15.08 13.0933 15.08 13.4749H15.0756C15.0186 13.8697 14.8475 14.2337 14.83 14.6373C14.8124 15.0803 14.7905 15.5233 14.83 15.9663C14.8826 16.6155 14.751 17.2428 14.6633 17.8788C14.479 17.8963 14.2948 17.9139 14.1062 17.9227C13.6281 17.9446 13.1455 17.9358 12.6718 17.9446C11.4567 17.9621 11.4918 19.4886 12.7025 19.4798C14.3957 19.4711 16.0713 19.6728 17.7645 19.4798C18.8787 19.3614 18.8567 18.1508 17.7382 18.0718Z" fill="#5BE1FF"/>
<path d="M30.6132 17.6592C30.1526 17.6241 29.6876 17.6285 29.2227 17.6373C29.2095 17.3829 29.2095 17.1328 29.2314 16.8697C29.2709 16.4398 29.2139 15.9397 29.0823 15.523C28.9463 15.0888 28.8981 14.6414 28.8542 14.1984C28.8103 13.7641 28.9814 13.3693 28.8147 12.9482C28.6524 12.5403 27.955 12.6807 27.955 13.0623H27.9506C27.8936 13.4571 27.7225 13.8211 27.7049 14.2247C27.6874 14.6677 27.6655 15.1107 27.7049 15.5537C27.7576 16.2029 27.626 16.8302 27.5383 17.4662C27.354 17.4837 27.1698 17.5013 26.9812 17.5101C26.5031 17.532 26.0205 17.5232 25.5468 17.532C24.3318 17.5495 24.3668 19.076 25.5775 19.0672C27.2707 19.0585 28.9463 19.2602 30.6395 19.0672C31.7537 18.9444 31.7273 17.7382 30.6132 17.6592Z" fill="#5BE1FF"/>
<path d="M4.47417 33.2265C4.47417 33.2265 6.89989 33.3011 7.50084 33.2792C8.60623 33.2353 9.67653 33.1257 10.7863 33.1871C12.4049 33.2748 31.5607 32.9765 31.9116 32.9634C31.9686 32.9634 32.0212 32.959 32.0783 32.959C32.2713 32.9502 32.6968 32.937 32.6968 32.937C32.6968 32.937 32.7713 31.7703 32.688 31.6782C32.688 31.2307 32.6836 30.7877 32.631 30.3403C32.552 29.6253 32.3239 23.2476 32.3239 23.2476C32.3239 23.2476 31.1352 23.2476 30.8764 23.2519C29.8719 23.2695 7.33854 23.5195 5.19793 23.7739C4.84702 23.8134 3.83374 23.9274 3.83374 23.9274C3.83374 23.9274 3.82497 24.5766 3.82935 24.9363C3.86006 26.3268 4.47417 33.2265 4.47417 33.2265Z" fill="#BC2828"/>
<path d="M24.7662 29.3494C25.2838 29.5907 25.8803 29.4898 26.4462 29.4854C27.034 29.481 27.6261 29.4898 28.2139 29.4854C29.3983 29.481 30.5826 29.4985 31.7626 29.3757C32.46 29.3012 32.4381 28.38 31.7407 28.3362C30.8678 28.2791 29.9992 28.266 29.1263 28.2528C29.1614 28.0379 29.2009 27.8273 29.2448 27.608C29.3281 27.1913 29.2711 26.7176 29.2623 26.2965C29.2448 25.4675 29.2404 24.5858 29.0956 23.77C28.9596 23.0111 27.5954 23.0374 27.4989 23.805C27.4024 24.577 27.4945 25.3797 27.5428 26.1561C27.5691 26.5816 27.5911 27.0071 27.613 27.4326C27.6261 27.6914 27.6919 27.9633 27.7621 28.2309C27.3147 28.2265 26.8717 28.2221 26.4242 28.2221C25.8584 28.2221 25.2618 28.1432 24.753 28.402C24.3758 28.5906 24.3889 29.1783 24.7662 29.3494Z" fill="#2EFFC7"/>
<path d="M10.8833 29.7835C11.4009 30.0247 11.9975 29.9238 12.5634 29.9194C13.1512 29.9151 13.7433 29.9238 14.3311 29.9194C15.5155 29.9151 16.6998 29.9326 17.8798 29.8098C18.5772 29.7396 18.5553 28.8141 17.8578 28.7702C16.9849 28.7132 16.1164 28.7 15.2435 28.6825C15.2786 28.4676 15.3181 28.257 15.3619 28.0377C15.4453 27.621 15.3883 27.1473 15.3795 26.7262C15.3619 25.8972 15.3576 25.0155 15.2128 24.1952C15.0768 23.4364 13.717 23.4627 13.6161 24.2303C13.5196 25.0023 13.6117 25.805 13.66 26.5814C13.6863 27.0069 13.7126 27.4324 13.7302 27.8579C13.7433 28.1167 13.8091 28.3886 13.8793 28.6562C13.4319 28.6518 12.9889 28.6474 12.5414 28.6474C11.9756 28.6474 11.379 28.5684 10.8702 28.8272C10.4929 29.0246 10.5061 29.6124 10.8833 29.7835Z" fill="#2EFFC7"/>
<path d="M18.5891 27.9279C19.0497 27.963 19.5147 27.9586 19.9796 27.9499C19.9928 28.2043 19.9928 28.4543 19.9709 28.7175C19.9314 29.1473 19.9884 29.6474 20.12 30.0641C20.256 30.4983 20.3042 30.9457 20.3481 31.3888C20.392 31.823 20.2209 32.2178 20.3876 32.6389C20.5499 33.0468 21.2473 32.9064 21.2473 32.5248H21.2517C21.3088 32.1301 21.4798 31.766 21.4974 31.3624C21.5149 30.915 21.5368 30.4764 21.4974 30.0334C21.4447 29.3842 21.5763 28.7569 21.6641 28.1209C21.8483 28.1034 22.0325 28.0858 22.2211 28.0771C22.6993 28.0551 23.1818 28.0639 23.6555 28.0551C24.8706 28.0376 24.8355 26.5111 23.6248 26.5199C21.9316 26.5287 20.256 26.3269 18.5628 26.5199C17.4486 26.6383 17.475 27.849 18.5891 27.9279Z" fill="#2EFFC7"/>
<path d="M5.71967 28.34C6.18025 28.3707 6.64521 28.3707 7.11018 28.362C7.12334 28.6164 7.12334 28.8664 7.10141 29.1296C7.06193 29.5594 7.11895 30.0595 7.25055 30.4762C7.38653 30.9104 7.43478 31.3578 7.47864 31.8009C7.52251 32.2351 7.35144 32.6299 7.51812 33.051C7.68042 33.4633 8.37787 33.3186 8.37787 32.9369H8.38226C8.43928 32.5422 8.61036 32.1781 8.6279 31.7746C8.64545 31.3315 8.66738 30.8885 8.6279 30.4455C8.57526 29.7963 8.70686 29.1691 8.79459 28.533C8.97882 28.5155 9.16305 28.4979 9.35167 28.4892C9.8298 28.4672 10.3123 28.476 10.786 28.4672C12.0011 28.4497 11.966 26.9232 10.7553 26.932C9.06216 26.9408 7.38653 26.739 5.69335 26.932C4.57918 27.0548 4.60112 28.2611 5.71967 28.34Z" fill="#2EFFC7"/>
</g>
<defs>
<clipPath id="clip0">
<rect width="75" height="48" fill="white"/>
</clipPath>
</defs>
</svg>