<svg width="35" height="35" viewBox="0 0 35 35" fill="none" xmlns="http://www.w3.org/2000/svg">
<g clip-path="url(#clip0)">
<path d="M9.28252 7.9379H3.07617C1.37402 7.9379 0 9.31192 0 11.0141V23.99C0 25.6922 1.37402 27.0662 3.07617 27.0662H9.28252C9.85674 27.0662 10.3079 26.615 10.3079 26.0408V8.96329C10.3079 8.38838 9.85742 7.9379 9.28252 7.9379Z" fill="#0D70B2"/>
<path d="M0 17.3503H10.3079V26.0401C10.3079 26.6143 9.85674 27.0655 9.28252 27.0655H3.07617C1.37402 27.0655 0 25.6915 0 23.9893V17.3503Z" fill="#0059AA"/>
<path d="M26.7771 17.3503C26.7566 18.6013 26.367 19.8522 25.6492 20.9186C25.3211 21.3903 24.6853 21.5134 24.2137 21.2058C23.742 20.8981 23.6189 20.2624 23.9265 19.7907C24.4187 19.0524 24.6853 18.1911 24.7058 17.3503C24.7674 16.3864 24.5008 15.402 23.9265 14.5407C23.6189 14.069 23.742 13.4333 24.2137 13.1257C24.6853 12.8181 25.3211 12.9411 25.6492 13.4128C26.4483 14.6029 26.8182 15.9763 26.7771 17.3503Z" fill="#1DE8F1"/>
<path d="M30.8787 17.3503C30.8582 19.4216 30.1609 21.5749 28.6023 23.8923C28.2742 24.364 27.6385 24.487 27.1668 24.1794C26.6951 23.8513 26.5721 23.2155 26.8797 22.7438L27.3514 22.0671C28.3152 20.6315 28.8484 19.0319 28.8484 17.3503C28.8484 15.5251 28.2332 13.5974 26.8797 11.5876C26.5721 11.1159 26.6951 10.4802 27.1668 10.152C27.6385 9.84443 28.2742 9.96747 28.6023 10.4392C30.0994 12.6752 30.9402 14.9509 30.8787 17.3503Z" fill="#1DE8F1"/>
<path d="M35.001 17.3503C34.96 20.3649 33.9141 23.3181 32.0069 26.1686C31.6993 26.6403 31.0635 26.7634 30.5918 26.4352C30.1202 26.1276 29.9766 25.4919 30.3047 25.0202C31.9864 22.5183 32.9092 19.9548 32.9502 17.3503C32.9912 14.7253 32.1299 12.0388 30.3047 9.31123C29.9766 8.83955 30.1202 8.2038 30.5918 7.89619C31.043 7.56806 31.6993 7.69111 32.0069 8.16279C34.0788 11.2602 35.0215 14.3363 35.001 17.3503Z" fill="#1DE8F1"/>
<path d="M20.8281 0.287806C19.7207 -0.224889 18.4902 -0.0403187 17.5674 0.738978L8.97461 7.8962V27.086C8.97461 27.086 8.97461 27.086 8.97461 27.1066L17.5674 34.2638C18.3939 34.998 19.586 35.2468 20.8281 34.715C21.9356 34.2023 22.6123 33.1153 22.6123 31.9054V3.09806C22.6123 1.88742 21.9356 0.800502 20.8281 0.287806Z" fill="#17ACE8"/>
<path d="M26.7771 17.3503C26.7566 18.6013 26.367 19.8522 25.6492 20.9186C25.3211 21.3903 24.6853 21.5134 24.2137 21.2057C23.742 20.8981 23.6189 20.2624 23.9265 19.7907C24.4187 19.0524 24.6853 18.1911 24.7058 17.3503H26.7771Z" fill="#1BD9DE"/>
<path d="M30.8787 17.3503C30.8582 19.4216 30.1609 21.5749 28.6023 23.8923C28.2742 24.3639 27.6385 24.487 27.1668 24.1794C26.6951 23.8512 26.5721 23.2155 26.8797 22.7438L27.3514 22.0671C28.3152 20.6315 28.8484 19.0319 28.8484 17.3503H30.8787Z" fill="#1BD9DE"/>
<path d="M35.001 17.3503C34.96 20.3649 33.9141 23.3181 32.0069 26.1686C31.6993 26.6403 31.0635 26.7634 30.5918 26.4352C30.1202 26.1276 29.9766 25.4919 30.3047 25.0202C31.9864 22.5182 32.9092 19.9548 32.9502 17.3503H35.001Z" fill="#1BD9DE"/>
<path d="M22.6123 17.3503V31.9054C22.6123 33.1153 21.9356 34.2022 20.8281 34.7149C19.586 35.2468 18.3939 34.9979 17.5674 34.2638L8.97461 27.1065C8.97461 27.086 8.97461 27.086 8.97461 27.086V17.3503H22.6123Z" fill="#1689FC"/>
</g>
<defs>
<clipPath id="clip0">
<rect width="35" height="35" fill="white"/>
</clipPath>
</defs>
</svg>
