<svg width="201" height="188" viewBox="0 0 201 188" fill="none" xmlns="http://www.w3.org/2000/svg">
<path d="M11.9499 103.58C6.06701 48.7728 95.6098 -15.0003 147.241 6.02447C200.729 27.8001 220.323 140.47 174.397 175.197C127.327 210.793 18.1967 161.777 11.9499 103.58Z" fill="#E3E3E3"/>
<path d="M1.27604 102.666C-4.60682 47.851 84.936 -15.9148 136.567 5.11002C190.055 26.8857 209.65 139.556 163.723 174.282C116.645 209.878 7.51544 160.863 1.27604 102.666Z" fill="white" stroke="#D1D3D4" stroke-width="2" stroke-miterlimit="10"/>
<g clip-path="url(#clip0)">
<g opacity="0.8">
<g opacity="0.8">
<path opacity="0.8" d="M86.7534 153.275C87.2018 153.298 91.4695 154.025 93.4842 155.827C95.164 157.328 94.3922 158.681 89.5683 158.226C84.7444 157.777 77.0034 156.276 78.513 158.374C80.0226 160.477 71.9809 162.427 68.7631 157.021C65.5509 151.626 80.4256 152.974 86.7534 153.275Z" fill="#E3E3E3"/>
</g>
</g>
<path d="M90.5267 83.2377C89.9818 81.8734 89.1816 81.089 89.1816 81.089C89.1816 81.089 89.5108 80.1283 90.6288 80.0942C90.7139 80.5205 91.2134 81.1288 91.4971 81.8393C91.0204 81.0321 90.3394 82.0724 90.5267 83.2377Z" fill="#A47141"/>
<path d="M82.1454 151.16L82.1113 152.718L83.5812 152.707L83.5755 151.041L82.1454 151.16Z" fill="#B27A47"/>
<path d="M81.7661 154.241C81.5447 154.372 81.5163 155.117 81.8171 155.367C82.2314 155.714 84.7398 157.265 87.3164 157.442C89.7056 157.606 90.2221 156.703 90.2902 156.265C90.3867 155.645 89.8816 155.1 89.8816 155.1L81.7661 154.241Z" fill="#DCD9DA"/>
<path d="M82.1284 152.115C81.8332 152.172 81.4133 153.184 81.6857 154.281C83.0648 155.549 85.874 156.288 87.4857 156.509C89.0975 156.731 90.3063 156.049 90.0112 155.026C89.7785 154.224 87.5084 153.826 86.4699 153.093C85.437 152.36 85.0908 151.763 84.5687 151.666C84.0466 151.57 83.411 151.888 83.1896 152.496C82.6845 152.394 82.1284 152.115 82.1284 152.115Z" fill="#964745"/>
<path d="M82.3969 152.314C82.3969 152.314 82.4139 152.292 82.4366 152.257C82.6069 152.326 82.8339 152.411 83.0552 152.473C82.9417 152.877 82.8963 153.417 83.0382 153.98C84.4172 155.247 87.2265 155.986 88.8382 156.208C89.0482 156.236 89.2468 156.248 89.4398 156.248C88.9744 156.509 88.2764 156.617 87.4875 156.509C86.0403 156.31 83.7532 155.736 82.1699 154.651C82.0961 154.594 82.0223 154.537 81.9599 154.474C81.6875 153.383 82.1018 152.371 82.3969 152.314Z" fill="#964745"/>
<path d="M74.0522 151.45L74.0352 153.843L75.454 153.718L75.6242 151.325L74.0522 151.45Z" fill="#B27A47"/>
<path d="M72.4633 156.742C72.3327 156.93 72.1171 157.635 72.469 158.181C72.8208 158.721 73.8196 159.045 74.6369 159.045C75.4087 159.045 76.3281 158.715 76.6345 158.203C76.9467 157.686 76.5381 156.703 76.5381 156.703L72.4633 156.742Z" fill="#DCD9DA"/>
<path d="M73.1274 153.445C73.1955 153.286 73.343 153.121 73.5417 152.979C73.7006 152.286 74.2681 152.121 74.7108 152.104C75.1478 152.081 75.8231 152.292 75.9934 153.019C76.1182 153.127 76.2374 153.258 76.3452 153.417C76.5892 153.929 77.0319 156.748 76.3906 157.515C75.7153 158.323 73.099 158.425 72.5315 156.93C72.1285 155.895 72.7812 154.264 73.1274 153.445Z" fill="#964745"/>
<path d="M76.5777 154.406C76.6515 154.855 76.7082 155.395 76.7139 155.907C76.6855 156.418 76.5947 156.867 76.3904 157.112C75.7151 157.919 73.0988 158.021 72.5313 156.532C72.4575 156.333 72.4235 156.117 72.4121 155.89C72.4235 155.782 72.4348 155.668 72.4518 155.56C73.1215 156.907 75.5902 156.794 76.2429 156.015C76.5039 155.696 76.5834 155.077 76.5777 154.406Z" fill="#964745"/>
<path d="M71.2715 101.877C71.2715 101.877 72.3781 148.364 72.9173 152.917C73.8991 154.071 76.4132 153.463 76.7424 152.905C78.0079 133.823 79.3927 108.289 79.5232 107.914C79.6537 107.538 80.908 150.086 81.3052 152.365C82.3608 153.019 84.7444 152.917 85.2041 152.11C86.5718 128.178 87.599 104.168 87.7182 101.212C84.0293 99.9327 71.2715 101.877 71.2715 101.877Z" fill="#122C39"/>
<path d="M79.7324 107.357C80.1921 106.748 80.4021 106.498 80.6802 106.203L82.6154 152.405C82.3544 152.411 82.099 152.354 81.5825 152.132C81.3499 149.751 80.8504 128.059 80.6178 122.022C80.3226 114.593 79.7324 108.925 79.7324 107.357Z" fill="#0C222C"/>
<path d="M69.1662 74.8873C67.3728 76.081 65.3638 86.5972 55.9316 98.9891C56.0962 99.9157 57.8158 101.377 59.49 101.757C66.6464 96.5164 70.9993 82.4589 70.9993 82.4589L69.1662 74.8873Z" fill="#634D3C"/>
<path d="M100.846 106.237C100.846 106.237 101.93 106.942 102.253 107.641C102.577 108.34 102.588 110.256 102.191 110.551C102.151 111.211 101.913 111.705 101.651 111.637C101.612 112.2 101.294 112.643 100.8 112.671C100.306 112.7 100.465 111.324 100.465 111.324C100.465 111.324 99.7276 108.999 99.4666 108.965C99.4268 109.892 99.3644 110.807 98.7061 110.932C98.0421 111.057 98.0024 110.204 97.8832 109.215C97.7583 108.221 97.8775 106.237 97.8775 106.237H100.846Z" fill="#B27A47"/>
<path d="M101.645 111.665C101.628 111.665 101.611 111.648 101.611 111.631C101.628 110.136 100.828 108.942 100.816 108.931C100.805 108.914 100.811 108.897 100.828 108.886C100.845 108.874 100.862 108.88 100.873 108.897C100.879 108.908 101.69 110.119 101.679 111.637C101.679 111.654 101.662 111.671 101.645 111.665Z" fill="#8E6338"/>
<path d="M102.184 110.58C102.167 110.58 102.15 110.562 102.15 110.545C102.105 108.698 101.435 108.09 101.43 108.084C101.413 108.073 101.413 108.05 101.424 108.033C101.435 108.022 101.458 108.016 101.469 108.027C101.498 108.05 102.167 108.658 102.218 110.54C102.218 110.568 102.207 110.58 102.184 110.58Z" fill="#8E6338"/>
<path d="M75.6973 70.5729C75.6973 70.5729 76.7585 70.1863 77.8255 69.9874C77.8255 69.0779 77.7574 68.2366 77.7574 68.2366L79.3634 68.1968L79.3748 69.9476C79.3748 69.9476 80.3623 70.0272 81.0887 70.2091C80.5439 72.8751 76.9061 73.057 75.6973 70.5729Z" fill="#B27A47"/>
<path d="M75.6974 70.5729C75.6974 70.5729 76.7587 70.1864 77.8256 69.9874C77.8256 69.0779 77.7972 69.2086 77.7972 69.2086C77.7972 69.2086 78.5861 69.4303 79.3806 69.2086C79.3579 69.6065 79.3749 69.9476 79.3749 69.9476C79.3749 69.9476 80.3624 70.0272 81.0889 70.2091C82.065 74.9556 75.5612 75.1886 75.6974 70.5729Z" fill="#B27A47"/>
<path d="M78.0755 72.1304C77.9563 72.1702 76.248 73.4549 76.248 73.4549L79.1594 77.6158L81.6849 73.8414L79.4716 72.1304H78.0755Z" fill="white"/>
<path d="M76.9121 72.6761L78.9155 71.8462L80.408 72.4771L79.3978 74.461C79.3978 74.461 81.5317 77.4566 79.1652 79.4405C76.6 77.576 78.6601 74.5406 78.6601 74.5406L76.9121 72.6761Z" fill="#3E3933"/>
<path d="M65.5505 105.435C65.3348 95.9252 65.4767 74.7338 75.0054 72.3237C75.8453 73.0569 79.1199 77.576 79.1199 77.576C79.1199 77.576 82.0483 72.1361 82.4626 71.6245C87.5418 73.0172 92.7573 85.1874 92.5417 105.435C77.4684 110.977 65.5505 105.435 65.5505 105.435Z" fill="#51715C"/>
<path d="M82.5431 106.316L83.1333 105.867C80.1765 101.979 75.5796 97.6078 75.5342 97.568L75.0234 98.108C75.0688 98.1478 79.6203 102.474 82.5431 106.316Z" fill="#5B8069"/>
<path d="M75.0234 105.242L75.5342 104.702C75.5569 104.725 76.9644 106.06 78.7123 107.897C78.3604 107.897 78.0086 107.891 77.6681 107.879C76.1755 106.339 75.0461 105.265 75.0234 105.242Z" fill="#5B8069"/>
<path d="M82.5431 92.6567L83.1333 92.2076C80.1765 88.3195 75.5796 83.9482 75.5342 83.9084L75.0234 84.4485C75.0688 84.4883 79.6203 88.8141 82.5431 92.6567Z" fill="#5B8069"/>
<path d="M82.6225 90.1101L83.1333 90.6501C83.0879 90.6956 78.5364 95.0214 75.6137 98.8641L75.0234 98.415C77.9802 94.5212 82.5771 90.1556 82.6225 90.1101Z" fill="#3B5744"/>
<path d="M82.6226 103.77L83.1333 104.31C83.105 104.332 81.5046 105.856 79.5977 107.891C79.2515 107.897 78.911 107.897 78.5762 107.897C80.7044 105.594 82.5942 103.798 82.6226 103.77Z" fill="#3B5744"/>
<path d="M82.6225 96.9427L83.1333 97.4827C83.0879 97.5282 78.5364 101.854 75.6137 105.697L75.0234 105.248C77.9802 101.354 82.5771 96.9825 82.6225 96.9427Z" fill="#3B5744"/>
<path d="M82.6225 77.2634L83.1333 77.8034C83.0879 77.8489 78.5364 82.1747 75.6137 86.0173L75.0234 85.5683C77.9802 81.6745 82.5771 77.3032 82.6225 77.2634Z" fill="#3B5744"/>
<path d="M82.6225 83.2832L83.1333 83.8232C83.0879 83.8687 78.5364 88.1945 75.6137 92.0371L75.0234 91.5881C77.9802 87.6943 82.5771 83.3286 82.6225 83.2832Z" fill="#3B5744"/>
<path d="M82.5431 85.8297L83.1333 85.3807C80.1765 81.4926 75.5796 77.1213 75.5342 77.0815L75.0234 77.6215C75.0688 77.6613 79.6203 81.9871 82.5431 85.8297Z" fill="#5B8069"/>
<path d="M82.5431 99.4836L83.1333 99.0346C80.1765 95.1465 75.5796 90.7752 75.5342 90.7354L75.0234 91.2754C75.0688 91.3152 79.6203 95.6467 82.5431 99.4836Z" fill="#5B8069"/>
<path d="M79.2171 78.5878L81.7993 73.3525C81.402 73.2275 80.897 73.0342 80.897 73.0342L79.1376 76.82C79.1376 76.82 77.3159 74.0347 76.3795 73.2104C76.1355 73.273 75.8006 73.5742 75.6758 73.6936C76.72 74.9783 79.2171 78.5878 79.2171 78.5878Z" fill="white"/>
<path d="M77.843 69.7202L75.5332 70.5672L76.0156 74.0005L78.9156 71.8462L77.843 69.7202Z" fill="white"/>
<path d="M79.3587 69.6008L78.916 71.8462L82.0374 73.7845L81.7252 70.2261L79.3587 69.6008Z" fill="white"/>
<path d="M75.9025 70.4592C75.9025 70.4592 77.344 109.363 75.3179 110.335C71.1012 110.773 65.829 109.033 64.5975 107.533C63.9846 100.228 66.3454 78.7811 69.3363 74.4667C73.1046 71.8689 75.9025 70.4592 75.9025 70.4592Z" fill="#7F6A5C"/>
<path d="M81.885 70.4933C81.885 70.4933 80.33 96.0105 81.9644 109.59C86.1811 110.028 91.4533 108.596 92.6848 107.101C93.2978 99.7963 91.9527 79.1506 88.9676 74.8362C85.7895 71.4937 81.885 70.4933 81.885 70.4933Z" fill="#7F6A5C"/>
<path d="M75.9025 70.067C74.7788 70.7661 73.3032 71.6984 72.0547 72.4771C72.3668 73.1365 73.5075 77.1838 73.7629 77.4567C74.8526 77.7693 75.9365 78.1956 75.9365 78.1956C75.9365 78.1956 74.9263 78.7413 74.0353 79.4007C74.0353 79.8384 76.4019 98.8129 76.4019 98.8129C76.4019 98.8129 78.1839 74.8191 75.9025 70.067Z" fill="#634D3C"/>
<path d="M81.6401 70.067C82.5425 70.3284 83.9442 71.1584 85.1871 71.9314C84.875 72.5908 84.1883 77.1838 83.9329 77.4567C82.8432 77.7693 81.7593 78.1956 81.7593 78.1956C81.7593 78.1956 82.7695 78.7413 83.6605 79.4007C83.6605 79.8384 81.2939 98.8129 81.2939 98.8129C81.2939 98.8129 79.353 74.8191 81.6401 70.067Z" fill="#634D3C"/>
<path d="M88.457 74.5576C88.457 74.5576 93.6669 75.416 96.0334 87.0178C96.215 87.6146 96.4023 88.2058 96.7882 88.4105C97.1741 88.6151 97.072 89.6155 96.862 90.0021C96.6577 90.3886 97.35 90.815 97.4011 91.1617C97.4579 91.5084 101.289 103.002 101.703 106.146C100.193 107.277 98.3148 107.493 96.8677 107.368C95.3978 104.304 93.315 93.5491 90.8917 85.7445L88.457 74.5576Z" fill="#634D3C"/>
<path d="M83.6557 97.153C83.6557 97.6249 83.2754 98.0057 82.8044 98.0057C82.3334 98.0057 81.9531 97.6249 81.9531 97.153C81.9531 96.6812 82.3334 96.3004 82.8044 96.3004C83.2754 96.3061 83.6557 96.6869 83.6557 97.153Z" fill="#534132"/>
<path d="M84.0405 103.559C84.0405 104.031 83.6602 104.412 83.1892 104.412C82.7181 104.412 82.3379 104.031 82.3379 103.559C82.3379 103.088 82.7181 102.707 83.1892 102.707C83.6602 102.707 84.0405 103.088 84.0405 103.559Z" fill="#534132"/>
<path d="M55.9304 90.1158L50.2949 100.649L67.9448 110.136L73.3192 98.9834L55.9304 90.1158Z" fill="#D7A83D"/>
<path d="M65.9414 109.062L67.9447 110.136L73.3248 98.9834L66.787 95.6467C66.5714 99.8759 66.2876 104.361 65.9414 109.062Z" fill="#C09120"/>
<path d="M56.1534 90.6729L51.3125 99.9043L68.0373 108.897L72.5888 98.972C72.5888 98.972 68.758 107.743 60.0466 103.991C52.7994 100.871 56.1534 90.6729 56.1534 90.6729Z" fill="#C09120"/>
<path d="M72.5605 99.0403C72.5832 98.9948 72.5946 98.9721 72.5946 98.9721L72.5605 99.0403Z" fill="#A3741B"/>
<path d="M66.2545 104.662C66.1864 105.702 66.1127 106.754 66.0332 107.823L68.0365 108.897L72.5597 99.0403C72.2873 99.6087 70.2953 103.593 66.2545 104.662Z" fill="#A3741B"/>
<path d="M67.5427 110.426C67.4122 110.426 67.2817 110.386 67.1682 110.307L50.2618 101.485C49.9837 101.28 49.9213 100.888 50.1199 100.609C50.3242 100.331 50.7101 100.262 50.9939 100.467L67.9003 109.289C68.1783 109.494 68.2408 109.886 68.0421 110.165C67.923 110.335 67.73 110.426 67.5427 110.426Z" fill="#A3741B"/>
<path d="M58.32 106.43C58.8705 106.294 59.4607 105.81 59.6593 105.196C59.8636 104.583 59.5345 104.031 59.2393 104.537C58.9499 105.037 58.5583 105.276 58.5583 105.276C58.5583 105.276 59.5742 103.758 58.9953 103.286C58.4164 102.815 58.4448 104.247 57.6049 104.651C58.2462 103.849 58.2519 102.678 57.7695 102.61C57.1566 102.525 57.4971 103.832 56.7309 104.253C57.1622 103.309 56.9295 102.36 56.5096 102.53C56.0896 102.701 56.2599 103.781 55.4597 104.185C55.3064 104.122 55.0851 104.014 54.8978 103.912C54.7219 104.105 54.7276 104.85 55.3121 105.469C56.2372 106.43 57.4403 106.652 58.32 106.43Z" fill="#B27A47"/>
<path d="M65.3366 46.3858C65.3366 46.3858 64.6272 44.8453 65.6941 42.9581C66.7611 41.0709 68.2536 40.2467 68.5828 37.99C68.912 35.7333 70.3988 34.5168 73.5032 35.1705C76.6132 35.8299 78.9457 36.3927 80.7788 39.2462C82.6119 42.0998 84.8933 42.6512 84.8933 42.6512L65.3366 46.3858Z" fill="#51715C"/>
<path d="M67.2871 45.0557C67.8092 43.0491 71.0271 40.9174 75.3175 40.0989C79.6079 39.2746 82.6385 41.9349 82.6385 41.9349L67.2871 45.0557Z" fill="#3E5745"/>
<path d="M63.9336 46.886C65.307 45.7094 67.089 44.8056 69.5634 43.7653C72.0378 42.7194 79.9774 41.2756 82.5142 41.5257C85.051 41.7758 89.262 43.015 90.2721 44.8169C91.2823 46.6189 63.9336 46.886 63.9336 46.886Z" fill="#6EA181"/>
<path d="M69.1153 59.9715C65.5343 58.6925 60.3528 58.1866 60.3869 51.7689C60.4153 45.3569 72.0437 44.3565 79.359 43.0036C86.6744 41.6507 95.1815 43.6516 89.7163 53.1332C84.2511 62.6261 73.542 61.5517 69.1153 59.9715Z" fill="#3E5745"/>
<path d="M68.5427 61.205C65.7278 60.1989 63.9912 58.2093 64.0139 53.173C64.0366 48.1366 70.302 45.6923 76.0453 44.6293C81.7886 43.5664 92.9176 45.8856 88.6272 53.3378C84.3311 60.79 72.0159 62.4499 68.5427 61.205Z" fill="#2E3C30"/>
<path d="M86.9863 47.5681C87.8092 47.6705 90.2098 47.5966 89.6366 48.904C90.9476 48.9438 91.6457 50.5866 90.1304 51.2403C91.5322 53.0252 90.5163 54.4633 88.9726 54.8726C87.429 55.2875 86.9863 47.5681 86.9863 47.5681Z" fill="#3C3C3B"/>
<path d="M67.209 49.8533C68.4746 49.9556 71.2327 47.0623 77.8273 46.5393C82.7477 46.1471 84.9383 46.6814 87.1289 47.7785C82.969 43.1628 70.9149 44.2655 67.209 49.8533Z" fill="#EDB389"/>
<path d="M88.23 49.5975C85.8521 42.9354 71.1931 43.6289 67.1467 49.9499C66.9253 50.3422 66.7097 50.7912 66.511 51.3028C66.511 51.3028 66.511 51.3028 66.511 51.2971V51.3028C65.6257 53.5766 65.1263 56.9531 66.5621 60.773C67.8674 65.9458 73.798 71.2664 81.8624 69.1859C82.1178 69.1177 82.3618 69.0494 82.6002 68.9642C90.3128 66.3607 90.5341 56.0606 88.23 49.5975Z" fill="#B27A47"/>
<path d="M67.0107 57.152C67.0107 57.152 66.3581 55.4524 64.4796 55.6457C62.4989 55.8503 62.3968 58.7096 63.8667 60.2159C65.3365 61.7166 67.5498 61.5006 67.8677 59.9658L67.0107 57.152Z" fill="#B27A47"/>
<path d="M64.2988 56.504C65.4849 55.9583 67.1194 58.2946 65.746 60.0227C66.0241 58.0388 65.2182 57.567 64.5315 58.6414C64.401 58.0445 64.6166 57.6011 65.3885 57.4931C65.1388 56.72 64.2988 56.504 64.2988 56.504Z" fill="#8E6338"/>
<path d="M70.7212 46.869C70.7325 46.7837 70.7269 46.7212 70.7098 46.6757C70.5339 46.2267 69.5124 45.4536 68.576 46.778C66.6975 46.221 65.3638 47.8865 66.3626 48.7562C63.7748 47.6648 61.7544 51.0129 64.4501 51.9679C62.5149 52.4226 62.1744 54.9863 64.2288 55.0261C63.8826 55.4013 64.2401 55.9242 65.2163 55.7423C65.2673 55.7935 65.3184 55.8446 65.3638 55.8901C65.5795 56.487 65.9824 57.027 66.7145 57.4192C67.5147 57.2146 67.946 56.612 68.0141 55.0602C71.9527 53.8096 71.4363 48.148 70.7212 46.869Z" fill="#3C3C3B"/>
<path d="M70.2165 47.2839C70.2222 47.2044 70.2222 47.1475 70.2052 47.1077C70.1881 47.0679 70.1654 47.0225 70.1371 46.9827C70.1541 48.904 69.5241 51.2857 67.2314 52.019C67.1689 53.4288 66.7774 53.9801 66.0509 54.162C65.3813 53.8039 65.018 53.3094 64.8194 52.7694C64.774 52.7296 64.7286 52.6841 64.6832 52.6329C64.0816 52.7466 63.7354 52.559 63.6787 52.326C62.7139 53.1275 62.7934 54.6679 64.3143 54.7021C64.0022 55.0431 64.3257 55.5206 65.2167 55.3558C65.2621 55.4069 65.3075 55.4524 65.3529 55.4922C65.5515 56.0322 65.9147 56.5267 66.5844 56.8849C67.3108 56.703 67.7081 56.1516 67.7705 54.7418C71.3402 53.5936 70.8692 48.4436 70.2165 47.2839Z" fill="#3C3C3B"/>
<path d="M71.9355 47.9036C75.5223 46.1869 80.2554 45.2603 85.3233 47.4374C79.2225 45.2035 71.9355 47.9036 71.9355 47.9036Z" fill="#8E6338"/>
<path d="M74.502 50.7287C77.1693 49.4554 80.6879 48.7619 84.4619 50.3819C79.9218 48.7221 74.502 50.7287 74.502 50.7287Z" fill="#8E6338"/>
<path d="M74.7168 49.1598C77.5998 47.7842 81.3965 47.0395 85.4656 48.7846C80.5622 46.994 74.7168 49.1598 74.7168 49.1598Z" fill="#8E6338"/>
<path d="M70.7044 55.4638C70.4206 55.2591 70.0291 55.316 70.1028 55.6173C70.1766 55.9185 70.5114 56.1175 70.659 56.0208C70.8066 55.9242 70.8917 55.6002 70.7044 55.4638Z" fill="#C89377"/>
<path d="M72.2201 48.2219C71.8626 48.6198 71.8853 49.228 72.3563 49.1598C72.8217 49.0916 73.1792 48.6141 73.0543 48.3753C72.9352 48.1366 72.4528 47.9604 72.2201 48.2219Z" fill="#C89377"/>
<path d="M74.8012 46.3233C74.682 46.4597 74.6877 46.67 74.8466 46.6416C75.0055 46.6189 75.1247 46.454 75.085 46.3745C75.0452 46.2949 74.8807 46.2323 74.8012 46.3233Z" fill="#C89377"/>
<path d="M73.9847 48.0059C73.7123 48.0229 73.5079 48.256 73.7009 48.3981C73.8939 48.5402 74.1947 48.489 74.2344 48.364C74.2741 48.2276 74.1606 47.9945 73.9847 48.0059Z" fill="#C89377"/>
<path d="M80.1819 45.3285C79.9095 45.3456 79.7052 45.5786 79.8982 45.7207C80.0911 45.8629 80.3919 45.8117 80.4316 45.6866C80.4714 45.5502 80.3579 45.3172 80.1819 45.3285Z" fill="#C89377"/>
<path d="M71.8733 50.2057C71.703 50.308 71.6463 50.5297 71.8222 50.5525C71.9982 50.5809 72.1741 50.4445 72.1514 50.3478C72.1344 50.2512 71.9868 50.1375 71.8733 50.2057Z" fill="#C89377"/>
<path d="M80.9534 52.0247C80.7831 52.127 80.7264 52.3487 80.9023 52.3715C81.0782 52.3999 81.2542 52.2635 81.2371 52.1668C81.2144 52.0702 81.0612 51.9565 80.9534 52.0247Z" fill="#C89377"/>
<path d="M87.9006 57.1179C87.7304 57.2202 87.6736 57.4419 87.8496 57.4647C88.0255 57.4931 88.2014 57.3567 88.1787 57.26C88.1617 57.1634 88.0141 57.0497 87.9006 57.1179Z" fill="#C89377"/>
<path d="M71.1987 53.0308C70.966 52.9456 70.7106 53.0593 70.8184 53.2525C70.9262 53.4401 71.193 53.514 71.2781 53.4174C71.3576 53.3264 71.3519 53.0877 71.1987 53.0308Z" fill="#C89377"/>
<path d="M71.7477 56.3448C71.7704 56.1629 71.6512 55.9981 71.532 56.1061C71.4128 56.2141 71.4072 56.4187 71.4866 56.4585C71.5661 56.504 71.7363 56.4642 71.7477 56.3448Z" fill="#C89377"/>
<path d="M70.552 37.3476C70.745 36.1312 72.1354 34.9772 73.9572 35.8754C75.7789 36.7678 77.4587 36.5689 78.293 37.1203C79.1216 37.6716 80.9603 39.5532 80.4723 39.8544C79.9842 40.1557 78.2079 38.547 76.0229 38.8199C73.838 39.0927 70.1775 39.7237 70.552 37.3476Z" fill="#6EA181"/>
<path d="M75.2791 42.7705C76.8909 42.3954 81.8623 41.7246 83.1449 41.8781C84.4275 42.0316 84.5467 42.1396 83.2811 42.2533C82.0099 42.3669 75.6253 43.2594 72.8218 43.8165C70.0182 44.3792 72.8785 43.3333 75.2791 42.7705Z" fill="#B8C5BB"/>
<path d="M79.7227 58.3401C81.4706 57.2941 83.2924 59.1472 80.8634 60.2898C81.6749 59.386 81.1642 58.1127 79.7227 58.3401Z" fill="#8E6338"/>
<path d="M77.9063 64.2063C77.9063 64.2063 80.392 64.2063 83.6155 64.2518C82.8323 65.9344 81.981 66.6904 80.0344 66.6222C78.5532 66.571 77.6736 65.0419 77.9063 64.2063Z" fill="#53251D"/>
<path d="M80.0346 66.6222C80.4148 66.6336 80.7553 66.6165 81.0561 66.5653C81.0675 65.9287 80.8859 65.2523 80.4035 64.6895C80.2559 64.5133 80.1084 64.3598 79.9665 64.2177C78.6953 64.212 77.9007 64.2063 77.9007 64.2063C77.6737 65.0419 78.5534 66.571 80.0346 66.6222Z" fill="#EC6661"/>
<path d="M80.3573 65.0362C81.5264 65.076 82.2982 64.8202 82.8998 64.2461C81.1064 64.2234 79.5968 64.2177 78.7285 64.212C79.1031 64.6611 79.6649 65.0135 80.3573 65.0362Z" fill="white"/>
<path d="M72.9355 51.4619C73.7698 51.0754 75.0126 51.9622 75.058 52.4169C75.1034 52.8717 71.9026 53.4287 70.3703 55.4353C69.9731 54.5884 71.1478 52.2919 72.9355 51.4619Z" fill="#3C3C3B"/>
<path d="M84.4157 51.0925C83.5815 50.9788 82.7245 52.0929 82.804 52.5022C82.8891 52.9115 85.8459 52.542 87.7357 53.8892C87.8605 53.0422 86.2091 51.3426 84.4157 51.0925Z" fill="#3C3C3B"/>
<path d="M80.0062 61.4494C78.4115 61.5233 76.8451 62.2907 76.6465 64.2689C78.3263 64.3257 83.7859 64.3598 84.5009 64.2007C84.4896 62.4612 83.854 61.9326 82.2763 61.5802C81.5725 61.4153 80.4602 61.4267 80.0062 61.4494Z" fill="#3C3C3B"/>
<path d="M71.9207 57.1748C71.5348 58.5845 72.2952 60.0283 73.6289 60.3978C74.9626 60.7673 76.353 59.9203 76.7446 58.5049C77.1362 57.0895 76.37 55.6514 75.0363 55.2819C73.7084 54.9124 72.3123 55.7594 71.9207 57.1748Z" fill="white"/>
<path d="M75.9551 58.2491C75.7962 59.1984 74.9449 59.8521 74.0425 59.6986C73.1459 59.5508 72.5443 58.6584 72.7032 57.7091C72.8621 56.7598 73.7191 56.1118 74.6157 56.2596C75.5124 56.4074 76.114 57.2998 75.9551 58.2491Z" fill="#1D1D1B"/>
<path d="M75.2809 58.2093C75.1844 58.7778 74.6736 59.1643 74.1345 59.079C73.601 58.9881 73.2435 58.4537 73.3399 57.8853C73.4364 57.3169 73.9472 56.9303 74.4807 57.0156C75.0198 57.1065 75.3773 57.6352 75.2809 58.2093Z" fill="#1D1D1B"/>
<path d="M74.2764 57.4192C74.2367 57.6579 74.0211 57.8285 73.794 57.7887C73.567 57.7489 73.4138 57.5272 73.4535 57.2828C73.4933 57.044 73.7089 56.8792 73.9359 56.9133C74.1686 56.9531 74.3162 57.1804 74.2764 57.4192Z" fill="white"/>
<path d="M73.4187 54.8726C73.0441 55.0715 72.6979 55.3103 72.4085 55.6002C72.1247 55.8901 71.875 56.2198 71.7275 56.595C71.5742 56.9644 71.4778 57.3624 71.4607 57.7716C71.4267 58.1809 71.4778 58.5959 71.5232 59.0222C71.4494 58.8232 71.387 58.6186 71.3245 58.414C71.2962 58.2036 71.2394 57.9876 71.2451 57.7716C71.211 57.3339 71.3075 56.8905 71.4721 56.4813C71.8183 55.657 72.5901 55.0545 73.4187 54.8726Z" fill="#8E6338"/>
<path d="M82.68 55.8503C82.3111 57.1975 83.0375 58.5731 84.3088 58.9255C85.58 59.278 86.9137 58.4708 87.2826 57.1179C87.6571 55.765 86.925 54.3894 85.6538 54.037C84.3825 53.6902 83.0489 54.4974 82.68 55.8503Z" fill="white"/>
<path d="M86.1977 56.9758C86.0444 57.8853 85.2329 58.5049 84.3759 58.3628C83.519 58.2207 82.9458 57.368 83.099 56.4642C83.2522 55.5547 84.0695 54.9351 84.9207 55.0772C85.7777 55.2193 86.3509 56.072 86.1977 56.9758Z" fill="#1D1D1B"/>
<path d="M85.5521 56.936C85.4613 57.4817 84.9732 57.8512 84.4568 57.7659C83.946 57.6807 83.6055 57.1691 83.6963 56.6234C83.7871 56.0834 84.2752 55.7082 84.7859 55.7935C85.3024 55.8844 85.6429 56.3903 85.5521 56.936Z" fill="#1D1D1B"/>
<path d="M84.5924 56.1857C84.5583 56.4131 84.3484 56.5722 84.1327 56.5381C83.917 56.4983 83.7695 56.288 83.8092 56.0549C83.8489 55.8276 84.0532 55.6684 84.2746 55.7025C84.4902 55.7366 84.6321 55.9526 84.5924 56.1857Z" fill="white"/>
<g opacity="0.8">
<g opacity="0.8">
<path opacity="0.8" d="M125.748 151.581C125.282 151.609 120.884 152.559 118.807 154.901C117.076 156.85 117.871 158.607 122.842 158.021C127.819 157.436 135.799 155.486 134.244 158.215C132.689 160.943 140.98 163.484 144.294 156.458C147.614 149.438 132.28 151.194 125.748 151.581Z" fill="#E3E3E3"/>
</g>
</g>
<path d="M150.895 97.6703C151.406 98.6821 152.155 99.711 153.205 100.74C153.613 100.552 155.168 100.296 155.361 100.814C155.565 101.354 154.118 101.422 154.118 101.422C154.118 101.422 157.268 102.906 156.99 103.502C156.706 104.094 154.743 102.951 154.743 102.951C154.743 102.951 156.871 104.526 156.587 105.117C156.303 105.708 154.175 103.753 154.175 103.753C154.175 103.753 155.605 105.35 155.219 105.799C154.833 106.248 153.284 104.19 153.284 104.19C153.284 104.19 154.175 105.395 153.744 105.714C153.312 106.026 151.956 103.923 151.786 101.956C150.883 101.007 149.981 99.8872 149.249 98.6253C147.002 94.7599 147.751 91.4686 150.895 97.6703Z" fill="#EBA376"/>
<path d="M131.083 143.27C131.083 143.27 131.02 151.177 131.134 151.547C131.247 151.922 130.833 153.053 129.159 153.752C127.49 154.452 127.729 152.593 128.103 151.939C128.313 151.57 128.841 150.791 129.301 150.404C129.323 149.705 129.335 143.077 129.335 143.077L131.083 143.27Z" fill="#EBA376"/>
<path d="M129.073 150.615C128.143 151.865 127.598 152.559 128.472 152.712C129.97 152.979 131.082 150.558 131.082 150.558C131.082 150.558 131.36 151.496 131.116 152.377C130.861 153.298 127.297 157.038 125.884 155.924C124.811 155.077 127.172 152.257 129.073 150.615Z" fill="#1D1D1B"/>
<path d="M111.384 80.6285C110.63 79.7815 109.949 78.7072 109.375 77.3543C109.705 77.0417 110.505 75.6888 110.091 75.3136C109.665 74.9271 109.075 76.2515 109.075 76.2515C109.075 76.2515 108.842 72.7727 108.189 72.8182C107.537 72.8636 107.883 75.1147 107.883 75.1147C107.883 75.1147 107.196 72.5567 106.544 72.6022C105.891 72.6476 106.929 75.3477 106.929 75.3477C106.929 75.3477 105.965 73.4321 105.409 73.6253C104.847 73.8243 106.197 76.0185 106.197 76.0185C106.197 76.0185 105.397 74.7452 104.949 75.0351C104.5 75.3193 105.965 77.3543 107.724 78.2354C108.28 79.4234 108.99 80.674 109.892 81.8165C112.673 85.3181 116.004 85.824 111.384 80.6285Z" fill="#EBA376"/>
<path d="M134.375 143.27C134.375 143.27 134.438 151.177 134.324 151.547C134.211 151.922 134.625 153.053 136.299 153.752C137.973 154.452 137.729 152.593 137.355 151.939C137.145 151.57 136.617 150.791 136.157 150.404C136.135 149.705 136.123 143.077 136.123 143.077L134.375 143.27Z" fill="#EBA376"/>
<path d="M140.458 99.4495C140.464 101.496 137.376 139.53 137.07 145.197C136.519 145.988 134.408 146.056 133.835 145.197C133.421 137.586 132.961 105.89 132.961 105.89C132.961 105.89 131.985 142.981 131.741 145.197C131.003 146.289 129.057 146.101 128.319 145.197C128.381 137.808 125.441 99.0857 125.441 99.0857L140.458 99.4495Z" fill="#122C39"/>
<path d="M139.931 101.075C139.931 101.075 139.369 104.531 139.153 106.583C135.839 102.843 130.203 101.57 126.753 106.441C126.543 102.985 126.117 100.655 126.117 100.655L139.931 101.075Z" fill="#0C222C"/>
<path d="M134.001 68.6231C134.001 68.6231 133.768 71.8803 134.012 72.2895C135.647 72.9432 136.43 73.5969 136.43 73.5969C136.43 73.5969 135.8 80.583 133.263 80.4978C130.726 80.4182 129.631 73.2104 129.631 73.2104C129.631 73.2104 131.021 72.6988 131.759 72.2895C131.924 70.5672 131.839 68.4526 131.839 68.4526L134.001 68.6231Z" fill="#EBA376"/>
<path d="M132.037 68.7368L133.796 68.8732C133.796 68.8732 133.688 70.3682 133.722 71.2607C133.722 71.0446 133.251 70.5103 132.945 70.5046C132.627 70.4933 132.252 70.7718 132.02 71.1924C132.082 69.9646 132.037 68.7368 132.037 68.7368Z" fill="#DA9967"/>
<path d="M110.414 78.2695C117.06 85.1931 123.093 78.5594 125.516 75.1545C126.231 74.6144 127.621 73.722 130.311 72.7954C130.862 73.9892 132.269 78.0478 132.792 78.963C133.223 78.3889 135.135 73.3582 135.147 72.6476C137.195 73.4491 140.532 74.893 140.68 75.0635C142.49 77.1269 145.243 87.4782 152.694 99.3756C152.564 100.126 151.837 101.013 150.481 101.325C146.997 98.7731 141.605 87.3531 139.744 83.2092C139.851 87.859 142.258 112.529 142.428 115.678C135.703 118.589 123.314 116.139 123.314 116.139C123.314 116.139 124.812 91.7472 125.584 83.2092C119.739 88.1887 111.572 87.103 108.133 80.151C108.536 79.2074 110.045 78.224 110.414 78.2695Z" fill="#E85021"/>
<path d="M141.622 115.224C140.816 110.921 140.391 107.038 140.147 104.725C138.671 113.598 129.54 117.765 125.516 104.725C124.977 109.835 124.443 115.224 124.443 115.224C124.443 115.224 132.36 117.509 141.622 115.224Z" fill="#CE4017"/>
<path d="M135.05 72.5624C134.988 72.6476 132.99 77.2179 132.695 77.9284C131.452 75.1772 130.345 72.6931 130.345 72.6931C130.345 72.6931 129.562 72.966 129.068 73.182C129.925 74.8532 132.632 81.0037 132.632 81.0037L136.253 73.0342L135.05 72.5624Z" fill="white"/>
<path d="M136.378 150.615C137.314 151.865 137.853 152.553 136.979 152.712C135.481 152.979 134.369 150.581 134.369 150.581C134.369 150.581 134.091 151.496 134.335 152.382C134.59 153.303 138.154 157.044 139.567 155.93C140.645 155.077 138.279 152.257 136.378 150.615Z" fill="#1D1D1B"/>
<path d="M129.472 123.278C129.103 123.222 128.91 123.062 128.899 123.051C128.876 123.028 128.871 122.994 128.893 122.971C128.91 122.949 128.95 122.943 128.973 122.966C128.978 122.971 129.62 123.489 130.8 122.909C130.829 122.898 130.863 122.909 130.874 122.937C130.885 122.966 130.874 123 130.851 123.011C130.261 123.301 129.796 123.33 129.472 123.278Z" fill="#0C222C"/>
<path d="M135.691 123.278C135.322 123.222 135.129 123.062 135.118 123.051C135.095 123.028 135.089 122.994 135.112 122.971C135.129 122.949 135.169 122.943 135.192 122.966C135.197 122.971 135.833 123.494 137.019 122.915C137.047 122.903 137.081 122.915 137.093 122.937C137.11 122.966 137.098 123 137.07 123.011C136.474 123.296 136.014 123.33 135.691 123.278Z" fill="#0C222C"/>
<path d="M145.503 57.5727C145.503 57.5727 146.291 62.7625 144.538 64.0017C145.236 64.9283 144.788 66.446 144.016 66.4858C144.975 67.2475 144.453 68.6629 143.885 69.0551C143.295 69.3621 142.421 69.021 142.421 69.021C142.421 69.021 141.082 67.3668 142.466 66.3209C141.939 65.4228 141.706 64.5133 142.319 63.8425C141.655 62.6261 140.588 61.1368 140.588 61.1368L145.503 57.5727Z" fill="#1D1D1B"/>
<path d="M144.538 63.9562C144.538 63.9562 143.664 63.5185 142.324 63.8482C142.767 63.9733 144.538 63.9562 144.538 63.9562Z" fill="#1D1D1B"/>
<path d="M144.004 69.7486C144.957 70.2943 145.434 71.8007 144.367 73.5856C143.3 75.3704 144.027 76.4277 144.027 76.4277C144.027 76.4277 140.888 73.8016 142.546 69.7486C143.3 69.6974 144.004 69.7486 144.004 69.7486Z" fill="#1D1D1B"/>
<path d="M144.079 68.8846C144.413 69.0153 144.453 69.7259 144.26 69.9305C144.016 70.1295 142.773 70.2204 142.472 69.9874C141.803 69.4814 142.291 68.8391 142.291 68.8391C142.291 68.8391 143.397 68.9869 144.079 68.8846Z" fill="#FDCA00"/>
<path d="M144.016 66.4915C142.989 66.0424 142.603 66.1731 142.473 66.3266C142.807 66.4517 144.016 66.4915 144.016 66.4915Z" fill="#1D1D1B"/>
<path d="M127.162 56.9815C127.162 56.9815 127.542 62.2168 125.692 63.3139C126.316 64.2916 125.749 65.7695 124.977 65.7525C125.874 66.5881 125.238 67.958 124.642 68.3048C124.029 68.5663 123.184 68.1513 123.184 68.1513C123.184 68.1513 121.975 66.3948 123.445 65.4683C122.991 64.5303 122.832 63.6038 123.496 62.9842C122.928 61.7166 121.98 60.1477 121.98 60.1477L127.162 56.9815Z" fill="#1D1D1B"/>
<path d="M125.692 63.2627C125.692 63.2627 124.858 62.7568 123.496 62.9842C123.922 63.1434 125.692 63.2627 125.692 63.2627Z" fill="#1D1D1B"/>
<path d="M124.704 68.9926C125.612 69.6122 125.97 71.1527 124.761 72.8466C123.558 74.5405 124.193 75.6547 124.193 75.6547C124.193 75.6547 121.271 72.7841 123.246 68.8789C124.006 68.8903 124.704 68.9926 124.704 68.9926Z" fill="#1D1D1B"/>
<path d="M124.846 68.1399C125.169 68.2934 125.152 69.0096 124.942 69.1972C124.681 69.3734 123.438 69.3677 123.155 69.1119C122.53 68.5549 123.064 67.9523 123.064 67.9523C123.064 67.9523 124.159 68.1854 124.846 68.1399Z" fill="#FDCA00"/>
<path d="M124.972 65.7468C123.979 65.2181 123.593 65.3148 123.445 65.4626C123.769 65.616 124.972 65.7468 124.972 65.7468Z" fill="#1D1D1B"/>
<path d="M126.213 67.4749C125.81 64.7066 121.86 59.7441 121.304 56.0663C120.799 52.7125 121.826 46.3517 127.212 42.9922C130.441 40.9743 139.578 44.1007 146.411 45.1978C152.534 51.5245 148.108 59.818 148.108 59.818C146.604 62.2509 138.102 65.0817 138.619 67.8785" fill="#1D1D1B"/>
<path d="M123.302 58.2889C123.302 58.2889 123.092 56.7768 121.793 56.6859C120.419 56.5893 119.96 58.971 120.748 60.4319C121.537 61.8871 123.07 62.0008 123.495 60.7616L123.302 58.2889Z" fill="#EBA376"/>
<path d="M121.928 56.828C122.257 56.8507 122.513 56.9758 122.711 57.1406C122.552 57.0213 122.365 56.936 122.144 56.936C120.85 56.9133 120.691 58.7721 121.117 59.8635C121.695 61.3414 122.91 61.4721 123.54 60.6308C123.143 61.7905 121.701 61.6768 120.958 60.3182C120.214 58.954 120.645 56.737 121.928 56.828Z" fill="#DA9967"/>
<path d="M121.549 57.3851C122.428 57.0838 123.217 59.2609 122.048 60.5285C122.508 58.9085 122.025 58.4026 121.413 59.2097C121.401 58.6925 121.611 58.3514 122.15 58.3628C122.088 57.6806 121.549 57.3851 121.549 57.3851Z" fill="#DA9967"/>
<path d="M122.768 62.9217C124.613 67.2304 127.791 70.5444 131.854 70.9594C135.991 71.38 141.888 68.7254 144.249 63.9392C147.404 57.5386 145.401 46.3119 134.397 46.0732C123.398 45.8344 119.579 55.4694 122.768 62.9217Z" fill="#EBA376"/>
<path d="M138.217 48.2446C138.217 48.2446 134.177 50.5979 128.882 51.3767C122.656 52.2976 121.163 56.089 122.491 61.2618C120.715 58.9653 120.125 52.8035 121.952 48.2105C125.074 40.3547 134.148 37.7399 140.726 42.6C144.608 42.6512 147.349 45.2376 148.319 47.4772C150.01 51.3937 148.149 58.1809 145.039 61.8246C145.153 58.2264 144.244 56.0663 141.878 54.2018C139.5 52.343 138.598 51.138 138.217 48.2446Z" fill="#1D1D1B"/>
<path d="M138.393 47.4772C138.785 50.4672 139.721 51.7178 142.173 53.6448C144.227 55.2591 145.215 57.0895 145.413 59.8237L146.18 59.6645C146.18 59.6645 146.605 55.1682 144.341 53.2298C142.076 51.2914 139.511 48.813 139.08 46.1414C136.56 48.3867 126.135 49.3985 123.212 51.1039C120.88 52.4624 121.016 56.612 121.51 59.2439C121.657 59.71 121.827 60.1306 122.02 60.5001C120.846 55.3785 122.48 51.6439 128.74 50.7173C134.211 49.9101 138.393 47.4772 138.393 47.4772Z" fill="#1D1D1B"/>
<path d="M144.333 60.2102C144.333 60.2102 144.991 58.3514 146.665 58.5731C148.43 58.8119 148.396 61.9496 147.017 63.5924C145.638 65.2352 143.663 64.9794 143.447 63.2911L144.333 60.2102Z" fill="#EBA376"/>
<path d="M146.451 58.7095C146.025 58.6527 145.673 58.7436 145.378 58.8971C145.611 58.7834 145.866 58.7323 146.15 58.7834C147.79 59.0904 147.518 61.4892 146.695 62.7625C145.582 64.4905 144.005 64.3314 143.426 63.1092C143.63 64.6781 145.48 64.9112 146.774 63.3821C148.074 61.853 148.102 58.9312 146.451 58.7095Z" fill="#DA9967"/>
<path d="M146.791 59.5167C145.752 58.9085 144.191 61.4665 145.343 63.3707C145.179 61.1936 145.922 60.682 146.49 61.8644C146.632 61.2107 146.456 60.7218 145.769 60.5968C146.03 59.7498 146.791 59.5167 146.791 59.5167Z" fill="#DA9967"/>
<path d="M128.393 53.0763C129.834 53.1786 129.584 54.7191 128.716 54.4065C127.785 54.0711 126.889 54.1279 126.804 53.9972C126.622 53.7073 127.587 53.0195 128.393 53.0763Z" fill="#1D1D1B"/>
<path d="M140.198 55.2705C138.853 54.7418 138.416 56.2311 139.33 56.3278C140.312 56.4301 141.101 56.8678 141.231 56.7882C141.526 56.6063 140.953 55.5661 140.198 55.2705Z" fill="#1D1D1B"/>
<path d="M131.912 61.853C131.895 61.8587 131.878 61.8587 131.861 61.853C131.385 61.6484 131.135 61.2505 131.192 60.7843C131.243 60.358 131.549 59.9828 131.907 59.9203C132.128 59.8805 132.559 59.926 132.928 60.665C132.945 60.6991 132.928 60.7389 132.9 60.7559C132.866 60.7787 132.826 60.7616 132.809 60.7275C132.565 60.233 132.253 59.9942 131.935 60.0511C131.629 60.1022 131.373 60.4262 131.328 60.7957C131.305 60.989 131.316 61.4665 131.918 61.7223C131.952 61.7393 131.969 61.7734 131.952 61.8132C131.941 61.836 131.929 61.8473 131.912 61.853Z" fill="#D2754E"/>
<path d="M136.945 57.7659C135.952 58.6527 135.822 60.1363 136.662 61.0742C137.496 62.0122 138.983 62.052 139.976 61.1652C140.969 60.2728 141.094 58.7948 140.26 57.8569C139.42 56.919 137.939 56.8792 136.945 57.7659Z" fill="white"/>
<path d="M137.417 59.1416C137.263 59.8464 137.678 60.5342 138.342 60.682C139.006 60.8241 139.67 60.3751 139.823 59.6645C139.976 58.954 139.562 58.2662 138.898 58.124C138.24 57.9819 137.576 58.4367 137.417 59.1416Z" fill="#1D1D1B"/>
<path d="M138.036 59.2041C137.94 59.6418 138.195 60.0681 138.609 60.159C139.018 60.25 139.432 59.9658 139.529 59.5281C139.619 59.0904 139.364 58.6641 138.955 58.5731C138.541 58.4878 138.132 58.7721 138.036 59.2041Z" fill="#1D1D1B"/>
<path d="M138.411 58.5447C138.371 58.7266 138.479 58.8971 138.643 58.9369C138.814 58.971 138.984 58.8573 139.024 58.6811C139.063 58.4992 138.955 58.3287 138.785 58.2889C138.621 58.2491 138.45 58.3628 138.411 58.5447Z" fill="white"/>
<path d="M138.712 60.034C138.689 60.142 138.751 60.25 138.854 60.2727C138.956 60.2898 139.058 60.2216 139.086 60.1136C139.109 60.0056 139.047 59.8976 138.944 59.8748C138.837 59.8578 138.734 59.926 138.712 60.034Z" fill="white"/>
<path d="M130.232 57.3453C130.448 58.63 129.648 59.8407 128.439 60.0454C127.224 60.2557 126.067 59.3803 125.845 58.0956C125.624 56.811 126.43 55.6059 127.639 55.3956C128.859 55.1852 130.016 56.0606 130.232 57.3453Z" fill="white"/>
<path d="M129.614 57.8341C129.461 58.522 128.814 58.9653 128.167 58.8232C127.514 58.6811 127.111 58.0104 127.259 57.3169C127.407 56.6291 128.059 56.1857 128.706 56.3278C129.353 56.4699 129.762 57.1406 129.614 57.8341Z" fill="#1D1D1B"/>
<path d="M129.313 57.6863C129.222 58.0956 128.836 58.3628 128.445 58.2775C128.053 58.1922 127.815 57.7887 127.9 57.3737C127.991 56.9587 128.377 56.6916 128.768 56.7825C129.154 56.8678 129.398 57.2714 129.313 57.6863Z" fill="#1D1D1B"/>
<path d="M128.915 56.8394C128.875 57.0156 128.71 57.1293 128.546 57.0895C128.381 57.0554 128.279 56.8849 128.313 56.7087C128.353 56.5324 128.517 56.4244 128.682 56.4585C128.852 56.4926 128.954 56.6632 128.915 56.8394Z" fill="white"/>
<path d="M128.95 58.306C128.927 58.4083 128.825 58.4765 128.723 58.4594C128.626 58.4367 128.564 58.3344 128.587 58.2264C128.609 58.1241 128.712 58.0558 128.808 58.0729C128.91 58.0956 128.978 58.198 128.95 58.306Z" fill="white"/>
<path d="M135.647 64.6042C135.579 64.5758 135.471 64.6213 135.448 64.6952C135.425 64.7804 135.454 64.8146 135.454 64.8146C135.454 64.8146 134.109 65.4626 131.998 65.4569C130.17 65.4512 128.536 64.4849 128.536 64.4849C128.536 64.4849 128.564 64.4508 128.558 64.411C128.553 64.3769 128.53 64.3257 128.485 64.3257C128.286 64.3086 128.314 64.536 128.365 64.9396C128.399 64.735 128.473 64.6099 128.473 64.6099L128.541 64.6327C128.541 64.6327 129.518 68.6231 131.856 68.5378C134.194 68.4469 135.459 64.9396 135.459 64.9396L135.522 64.9169C135.522 64.9169 135.613 65.0078 135.624 65.275C135.794 64.8884 135.868 64.7009 135.647 64.6042Z" fill="black"/>
<path d="M132.134 67.1054C132.231 66.986 132.378 66.8609 132.378 66.8609C131.096 66.2641 130.296 66.9746 129.955 67.435C130.369 67.8614 131.033 68.7197 132.361 68.39C133.644 68.0717 134.558 66.5085 134.558 66.5085C133.337 65.9173 132.407 66.8723 132.134 67.1054Z" fill="#EA0000"/>
<path d="M128.854 64.7918C128.854 64.7918 128.922 65.2636 128.99 65.383C129.739 66.7586 131.629 66.5255 134.971 65.6899C135.096 65.6558 135.238 65.0362 135.238 65.0362C132.741 65.7866 130.908 65.7866 128.854 64.7918Z" fill="white"/>
<path d="M136.191 63.9562C136.491 64.2348 136.622 64.6668 136.611 65.0874C136.588 65.2921 136.554 65.5024 136.463 65.69C136.378 65.8776 136.253 66.0424 136.105 66.1845C136.247 65.8093 136.384 65.4512 136.384 65.0761C136.418 64.7009 136.327 64.3314 136.191 63.9562Z" fill="#D2754E"/>
<path d="M131.009 69.1404C130.606 69.2086 130.18 69.0494 129.857 68.7936C129.704 68.6515 129.562 68.498 129.471 68.3105C129.374 68.1286 129.318 67.9296 129.295 67.7307C129.505 68.0717 129.709 68.3957 130.004 68.6231C130.282 68.8675 130.629 69.021 131.009 69.1404Z" fill="#D2754E"/>
<path d="M137.967 53.4344C135.754 53.2298 133.552 52.9456 131.361 52.5931C133.569 52.7978 135.771 53.082 137.967 53.4344Z" fill="#D2754E"/>
<path d="M136.86 54.1905C135.237 54.0597 133.62 53.8494 132.014 53.5652C133.642 53.6959 135.26 53.9062 136.86 54.1905Z" fill="#D2754E"/>
</g>
<defs>
<clipPath id="clip0">
<rect x="50" y="35" width="107" height="126" fill="white"/>
</clipPath>
</defs>
</svg>