<?xml version="1.0" encoding="UTF-8"?>
<svg width="329px" height="307px" viewBox="0 0 329 307" version="1.1" xmlns="http://www.w3.org/2000/svg" xmlns:xlink="http://www.w3.org/1999/xlink">
    <!-- Generator: Sketch 64 (93537) - https://sketch.com -->
    <title>Group 360</title>
    <desc>Created with Sketch.</desc>
    <defs>
        <polygon id="path-1" points="0.206423871 0.648837757 90.5030412 0.648837757 90.5030412 29.943 0.206423871 29.943"/>
        <polygon id="path-3" points="0.523 0.274 64.347 0.274 64.347 18.9568654 0.523 18.9568654"/>
    </defs>
    <g id="Page-1" stroke="none" stroke-width="1" fill="none" fill-rule="evenodd">
        <g id="Group-360" transform="translate(1.000000, 0.000000)">
            <g id="Group-7" transform="translate(0.000000, 0.115000)">
                <path d="M18.5713,168.9313 C8.9293,79.1433 155.7413,-25.3227 240.4013,9.1153 C328.0993,44.7883 360.2253,229.3603 284.9233,286.2493 C207.7373,344.5623 28.8073,264.2683 18.5713,168.9313" id="Fill-1" fill="#E3E3E3"/>
                <g id="Group-6">
                    <path d="M1.0605,167.4317 C-8.5805,77.6427 138.2315,-26.8223 222.8915,7.6157 C310.5875,43.2877 342.7135,227.8597 267.4125,284.7487 C190.2275,343.0617 11.2965,262.7667 1.0605,167.4317" id="Fill-3" fill="#FFFFFF"/>
                    <path d="M1.0605,167.4317 C-8.5805,77.6427 138.2315,-26.8223 222.8915,7.6157 C310.5875,43.2877 342.7135,227.8597 267.4125,284.7487 C190.2275,343.0617 11.2965,262.7667 1.0605,167.4317" id="Stroke-5" stroke="#D1D3D4" stroke-width="2"/>
                </g>
            </g>
            <g id="Group-10" transform="translate(94.000000, 223.115000)">
                <mask id="mask-2" fill="white">
                    <use xlink:href="#path-1"/>
                </mask>
                <g id="Clip-9"/>
                <path d="M64.3056,2.0685 C65.8656,2.1525 80.6976,4.9575 87.6976,11.8865 C93.5296,17.6505 90.8576,22.8545 74.0876,21.1195 C57.3186,19.3935 30.4166,13.6175 35.6576,21.6975 C40.9006,29.7825 12.9506,37.2895 1.7696,16.5035 C-9.4104,-4.2805 42.2926,0.9155 64.3056,2.0685" id="Fill-8" fill="#E3E3E3" mask="url(#mask-2)"/>
            </g>
            <g id="Group-13" transform="translate(184.000000, 226.115000)">
                <mask id="mask-4" fill="white">
                    <use xlink:href="#path-3"/>
                </mask>
                <g id="Clip-12"/>
                <path d="M19.041,1.1788 C17.937,1.2328 7.454,3.0208 2.507,7.4398 C-1.617,11.1158 0.272,14.4348 12.125,13.3288 C23.98,12.2268 42.996,8.5448 39.291,13.6978 C35.585,18.8538 55.342,23.6408 63.245,10.3858 C71.146,-2.8702 34.6,0.4428 19.041,1.1788" id="Fill-11" fill="#E3E3E3" mask="url(#mask-4)"/>
            </g>
            <path d="M151.7764,228.1385 C143.8504,229.1485 136.2484,220.7305 134.7944,209.3335 C133.3394,197.9355 138.5854,187.8765 146.5094,186.8655 C154.4354,185.8545 162.0404,194.2735 163.4944,205.6705 C164.9494,217.0685 159.7024,227.1275 151.7764,228.1385 M166.3574,205.3305 C164.7144,192.4575 155.8834,182.9815 146.6324,184.1605 C137.3814,185.3415 131.2144,196.7335 132.8574,209.6055 C134.5004,222.4775 143.3314,231.9545 152.5824,230.7735 C161.8324,229.5945 168.0004,218.2025 166.3574,205.3305" id="Fill-14" fill="#5F6062"/>
            <path d="M136.4795,209.1107 C135.0405,197.8277 140.2045,187.8667 148.0275,186.7867 C147.5235,186.7757 147.0175,186.7997 146.5095,186.8647 C138.5845,187.8767 133.3385,197.9357 134.7935,209.3337 C136.2485,220.7307 143.8505,229.1487 151.7775,228.1387 C152.3065,228.0707 152.8245,227.9597 153.3295,227.8127 C145.4615,228.7877 137.9235,220.4267 136.4795,209.1107" id="Fill-16" fill="#363638"/>
            <path d="M147.9941,191.2709 C147.7231,191.2709 147.4501,191.2889 147.1811,191.3229 C144.5531,191.6569 142.2651,193.5969 140.7361,196.7829 C139.1541,200.0829 138.5881,204.2899 139.1411,208.6289 C140.2001,216.9189 145.1691,223.4119 150.4561,223.4119 C150.7261,223.4119 151.0001,223.3949 151.2681,223.3599 C153.8961,223.0249 156.1851,221.0859 157.7141,217.9009 C159.2971,214.6009 159.8621,210.3949 159.3081,206.0559 C158.2521,197.7649 153.2821,191.2709 147.9941,191.2709 M150.4561,224.9919 C144.2881,224.9919 138.7501,218.0429 137.5751,208.8299 C136.9821,204.1919 137.6001,199.6709 139.3121,196.0999 C141.0801,192.4139 143.8041,190.1609 146.9811,189.7549 C147.3151,189.7129 147.6571,189.6909 147.9941,189.6909 C154.1621,189.6909 159.7011,196.6399 160.8771,205.8549 C161.4681,210.4919 160.8501,215.0129 159.1371,218.5839 C157.3701,222.2689 154.6461,224.5219 151.4691,224.9269 C151.1341,224.9699 150.7931,224.9919 150.4561,224.9919" id="Fill-18" fill="#909092"/>
            <polygon id="Fill-20" fill="#909092" points="152.4053 223.9208 145.5613 190.9158 145.9473 190.8358 152.7933 223.8408"/>
            <polygon id="Fill-22" fill="#909092" points="140.4287 215.83 140.1547 215.545 157.8547 198.5 158.1277 198.785"/>
            <polygon id="Fill-24" fill="#909092" points="159.8125 213.098 138.4225 201.891 138.6075 201.541 159.9965 212.748"/>
            <polygon id="Fill-26" fill="#909092" points="145.2217 221.9056 144.8377 221.8086 152.4087 191.9886 152.7897 192.0846"/>
            <polygon id="Fill-28" fill="#909092" points="157.8301 219.6346 140.5261 195.2016 140.8481 194.9736 158.1521 219.4066"/>
            <polygon id="Fill-30" fill="#909092" points="138.5498 209.3007 138.4788 208.9117 160.1328 204.9627 160.2028 205.3517"/>
            <path d="M151.293,206.8866 C151.477,208.5746 150.64,210.0516 149.426,210.1836 C148.212,210.3146 147.079,209.0526 146.897,207.3636 C146.713,205.6746 147.549,204.1976 148.763,204.0656 C149.977,203.9346 151.11,205.1976 151.293,206.8866" id="Fill-32" fill="#909092"/>
            <path d="M150.0234,207.0052 C150.1144,207.8422 149.6994,208.5752 149.0964,208.6392 C148.4964,208.7052 147.9334,208.0792 147.8424,207.2412 C147.7524,206.4032 148.1674,205.6712 148.7694,205.6062 C149.3714,205.5422 149.9324,206.1672 150.0234,207.0052" id="Fill-34" fill="#5F6062"/>
            <path d="M137.2392,176.4593 C134.8712,176.1193 134.0642,178.8443 136.6682,179.4623 C139.2692,180.0793 159.1982,185.3413 162.0112,185.8823 C165.3252,186.5213 166.3632,182.2503 162.7152,181.3453 C159.0662,180.4403 137.2392,176.4593 137.2392,176.4593" id="Fill-36" fill="#3E3E3F"/>
            <path d="M140.9365,156.6766 C140.9195,156.5056 140.8325,156.3486 140.6945,156.2456 C140.5565,156.1436 140.3815,156.1036 140.2135,156.1366 L109.2025,162.2086 C108.8905,162.2696 108.6775,162.5596 108.7135,162.8756 L112.0105,191.8516 C112.0305,192.0236 112.1215,192.1796 112.2635,192.2806 C112.3675,192.3536 112.4905,192.3926 112.6155,192.3926 C112.6605,192.3926 112.7055,192.3866 112.7495,192.3776 L143.1685,185.4716 C143.4685,185.4036 143.6695,185.1246 143.6405,184.8196 L140.9365,156.6766 Z" id="Fill-38" fill="#1375BB"/>
            <path d="M128.3066,187.5643 L117.6746,160.7163 C115.7426,161.5753 108.8156,167.5893 110.2646,172.7983 C111.5536,175.3213 116.0106,175.6973 116.0106,175.6973 C116.0106,175.6973 117.5646,188.1793 117.7176,191.2493 L124.5536,189.6973 C126.5976,188.6103 128.3066,187.5643 128.3066,187.5643" id="Fill-40" fill="#005B9B"/>
            <path d="M112.8994,200.0956 C112.3404,200.0956 111.8804,199.6686 111.8314,199.1216 C111.7774,198.6596 110.4834,188.1346 109.3404,178.8386 C107.2754,162.0536 107.2754,162.0536 107.2744,161.9696 C107.2444,160.8046 106.8954,159.8696 106.2954,159.3416 C105.9494,159.0366 105.5344,158.8826 105.1644,158.9206 C103.7284,159.0646 95.0414,159.6166 94.6714,159.6406 C94.0824,159.6786 93.5694,159.2286 93.5324,158.6366 C93.4954,158.0456 93.9444,157.5346 94.5374,157.4966 C94.6264,157.4916 103.5534,156.9236 104.9494,156.7836 C105.9194,156.6896 106.9234,157.0326 107.7154,157.7296 C108.4554,158.3816 109.3484,159.6276 109.4204,161.8656 C109.4974,162.5146 110.5014,170.6766 111.4724,178.5766 C113.9734,198.9186 113.9734,198.9186 113.9734,199.0216 C113.9734,199.6156 113.4924,200.0956 112.8994,200.0956" id="Fill-42" fill="#434345"/>
            <path d="M92.8125,160.5013 C91.9175,160.5013 91.1635,159.8083 91.0995,158.9023 C91.0335,157.9553 91.7495,157.1343 92.6955,157.0693 C95.4925,156.8753 97.0865,156.7453 98.4925,156.6303 C99.5805,156.5423 100.5885,156.4593 101.9905,156.3603 C102.9305,156.2893 103.7585,157.0053 103.8255,157.9523 C103.8925,158.8983 103.1805,159.7203 102.2335,159.7883 C100.8465,159.8863 99.8475,159.9683 98.7725,160.0563 C97.3555,160.1713 95.7515,160.3023 92.9325,160.4973 C92.8925,160.5003 92.8525,160.5013 92.8125,160.5013" id="Fill-44" fill="#1375BB"/>
            <path d="M144.4267,195.753956 C143.8677,195.7448 143.4157,195.3088 143.3737,194.7628 C143.3277,194.2988 142.2087,183.7538 141.2197,174.4408 C139.4347,157.6238 139.4347,157.6238 139.4337,157.5388 C139.4207,156.3748 139.0887,155.4348 138.4967,154.8958 C138.1567,154.5858 137.7447,154.4238 137.3727,154.4568 C135.9367,154.5768 127.2407,154.9848 126.8707,155.0028 C126.2807,155.0318 125.7767,154.5728 125.7477,153.9808 C125.7197,153.3878 126.1777,152.8848 126.7717,152.8578 C126.8617,152.8528 135.7957,152.4328 137.1947,152.3158 C138.1647,152.2368 139.1637,152.5978 139.9447,153.3078 C140.6727,153.9718 141.5457,155.2328 141.5797,157.4708 C141.6467,158.1208 142.5147,166.2988 143.3557,174.2138 C145.5207,194.5948 145.5207,194.5948 145.519742,194.6978 C145.5077,195.2908 145.0207,195.7638 144.4267,195.753956" id="Fill-46" fill="#434345"/>
            <path d="M124.998,155.8329 C124.102,155.8179 123.359,155.1129 123.311,154.2049 C123.262,153.2579 123.99,152.4489 124.936,152.3989 C127.736,152.2519 129.333,152.1479 130.742,152.0559 C131.83,151.9859 132.84,151.9199 134.243,151.8439 C135.184,151.7889 136,152.5189 136.052,153.4659 C136.102,154.4139 135.377,155.2239 134.429,155.2749 C133.041,155.3509 132.041,155.4159 130.964,155.4859 C129.546,155.5779 127.938,155.6829 125.118,155.8309 C125.078,155.8329 125.038,155.8329 124.998,155.8329" id="Fill-48" fill="#1375BB"/>
            <path d="M133.8398,230.1263 C133.6428,230.1263 133.4648,229.9893 133.4208,229.7883 C133.3688,229.5573 133.5168,229.3273 133.7478,229.2763 L138.4938,228.2393 C138.7288,228.1893 138.9548,228.3353 139.0058,228.5663 C139.0568,228.7993 138.9088,229.0273 138.6788,229.0783 L133.9328,230.1163 C133.9018,230.1233 133.8688,230.1263 133.8398,230.1263" id="Fill-50" fill="#3E3E3F"/>
            <path d="M138.75,235.2103 C138.514,235.2103 138.32,235.0183 138.32,234.7793 L138.32,228.6593 C138.32,228.4213 138.514,228.2303 138.75,228.2303 C138.988,228.2303 139.181,228.4213 139.181,228.6593 L139.181,234.7793 C139.181,235.0183 138.988,235.2103 138.75,235.2103" id="Fill-52" fill="#3E3E3F"/>
            <path d="M139.6894,235.7924 C139.9974,238.8634 138.1724,241.5614 135.6144,241.8164 C133.0564,242.0744 130.7324,239.7934 130.4244,236.7214 C130.1164,233.6504 131.9404,230.9534 134.5004,230.6974 C137.0584,230.4404 139.3824,232.7214 139.6894,235.7924" id="Fill-54" fill="#BABBBD"/>
            <path d="M137.4599,235.9398 C137.6619,237.9518 136.4659,239.7168 134.7909,239.8858 C133.1139,240.0538 131.5929,238.5598 131.3919,236.5488 C131.1889,234.5378 132.3849,232.7708 134.0609,232.6028 C135.7349,232.4338 137.2579,233.9288 137.4599,235.9398" id="Fill-56" fill="#96979B"/>
            <path d="M135.6523,236.1215 C135.7333,236.9345 135.2513,237.6485 134.5733,237.7165 C133.8963,237.7845 133.2803,237.1805 133.1993,236.3665 C133.1173,235.5545 133.6003,234.8405 134.2783,234.7725 C134.9553,234.7035 135.5703,235.3085 135.6523,236.1215" id="Fill-58" fill="#6F7074"/>
            <path d="M134.1055,236.5521 C133.8775,236.5521 133.6895,236.3741 133.6755,236.1451 L133.3515,229.8351 C133.3385,229.5991 133.5215,229.3971 133.7575,229.3841 C133.9905,229.3671 134.1975,229.5541 134.2095,229.7911 L134.5355,236.1001 C134.5465,236.3371 134.3645,236.5391 134.1265,236.5511 C134.1205,236.5521 134.1125,236.5521 134.1055,236.5521" id="Fill-60" fill="#3E3E3F"/>
            <path d="M143.2158,229.9115 C142.7808,229.9115 142.3718,229.6455 142.2098,229.2155 L133.4838,205.9645 C133.2758,205.4105 133.5558,204.7905 134.1118,204.5815 C134.6668,204.3735 135.2848,204.6545 135.4938,205.2105 L144.2208,228.4605 C144.4298,229.0155 144.1488,229.6345 143.5928,229.8435 C143.4688,229.8905 143.3408,229.9115 143.2158,229.9115" id="Fill-62" fill="#3E3E3F"/>
            <path d="M166.9844,221.4139 C166.5284,221.4139 166.1044,221.1209 165.9614,220.6619 L159.3404,199.6019 C159.1644,199.0369 159.4774,198.4339 160.0444,198.2559 C160.6084,198.0789 161.2124,198.3919 161.3894,198.9579 L168.0094,220.0179 C168.1874,220.5839 167.8734,221.1859 167.3074,221.3649 C167.2004,221.3979 167.0914,221.4139 166.9844,221.4139" id="Fill-64" fill="#3E3E3F"/>
            <path d="M136.2119,229.5463 C135.6639,229.5463 135.1959,229.1293 135.1439,228.5723 L132.9899,205.6883 C132.9349,205.0983 133.3679,204.5743 133.9589,204.5183 C134.5549,204.4673 135.0729,204.8973 135.1279,205.4873 L137.2819,228.3713 C137.3379,228.9623 136.9049,229.4853 136.3139,229.5413 C136.2799,229.5443 136.2459,229.5463 136.2119,229.5463" id="Fill-66" fill="#434345"/>
            <path d="M161.0185,197.682 L144.2475,193.038 C144.1335,193.007 144.0135,193.007 143.9015,193.038 L117.8305,200.36 C117.5585,200.435 117.3695,200.678 117.3605,200.959 C117.3495,201.24 117.5235,201.494 117.7895,201.588 L134.2735,207.431 C134.3425,207.455 134.4155,207.468 134.4895,207.468 C134.5545,207.468 134.6225,207.457 134.6855,207.436 L161.0445,198.916 C161.3165,198.828 161.4975,198.574 161.491645,198.289 C161.4855,198.004 161.2925,197.758 161.0185,197.682" id="Fill-68" fill="#1375BB"/>
            <path d="M145.1025,203.4618 L134.0405,198.2128 L124.9885,198.6598 L122.8845,199.2508 C122.1285,199.8428 122.0845,200.6718 124.2735,201.1388 C127.1495,201.7518 136.2955,202.4118 139.3195,205.3308 L145.1025,203.4618 Z" id="Fill-70" fill="#005B9B"/>
            <path d="M180.0644,224.5941 L168.3524,219.8331 C168.1954,219.7701 168.0204,219.7651 167.8604,219.8231 L142.4454,228.9081 C142.1794,229.0041 141.9994,229.2521 141.9894,229.5341 C141.9794,229.8181 142.1434,230.0761 142.4034,230.1901 L154.9114,235.6241 C154.9994,235.6621 155.0924,235.6821 155.1854,235.6821 C155.2724,235.6821 155.3584,235.6661 155.4394,235.6331 L180.0584,225.8731 C180.3204,225.7701 180.4924,225.5171 180.494404,225.2361 C180.4954,224.9541 180.3254,224.6991 180.0644,224.5941" id="Fill-72" fill="#1375BB"/>
            <path d="M149.2295,227.514 C148.3715,228.014 148.3715,229.733 151.4495,231.738 C154.5285,233.742 162.8335,233.455 164.1215,229.876 C169.2405,229.733 173.7145,226.977 171.3165,225.581 C168.9175,224.185 149.2295,227.514 149.2295,227.514" id="Fill-74" fill="#005B9B"/>
            <path d="M180.206,224.9921 L155.587,234.7521 C155.505,234.7841 155.419,234.8001 155.332,234.8001 C155.239,234.8001 155.145,234.7831 155.059,234.7441 L142.551,229.3091 C142.417,229.2501 142.31,229.1541 142.238,229.0341 C142.091,229.1581 141.996,229.3361 141.989,229.5341 C141.979,229.8181 142.143,230.0761 142.403,230.1901 L154.912,235.6241 C154.998,235.6621 155.092,235.6821 155.185,235.6821 C155.271,235.6821 155.358,235.6661 155.439,235.6331 L180.059,225.8731 C180.32,225.7701 180.493,225.5171 180.494019,225.2361 C180.495,225.1061 180.456,224.9861 180.392,224.8801 C180.337,224.9261 180.275,224.9651 180.206,224.9921" id="Fill-76" fill="#434345"/>
            <path d="M132.0976,157.2406 C131.0766,157.1326 130.2856,157.0786 129.2116,156.8906 C129.0636,155.7226 128.8886,154.1526 128.8886,154.1526 L125.5066,154.3676 C125.5066,154.3676 125.8796,156.5766 125.8016,157.1056 C125.1306,157.3876 122.5246,158.2826 122.5246,158.2826 C122.5246,158.2826 123.2616,161.1906 130.0806,160.9266 C134.4546,160.7576 134.5526,157.4986 132.0976,157.2406" id="Fill-78" fill="#EBA376"/>
            <path d="M136.5889,95.0507 C133.8819,94.2107 135.5039,91.3747 139.3209,91.6307 C134.0349,79.9687 145.7669,83.4257 147.4349,88.2117 C149.7239,79.6437 159.9139,84.4777 155.5589,90.7337 C161.0569,90.9567 155.9199,97.3407 150.7359,96.1037 C150.1069,98.1347 144.2119,100.3867 144.2119,100.3867 L136.5889,95.0507 Z" id="Fill-80" fill="#000000"/>
            <path d="M97.627,103.3202 C99.748,101.4382 97.1,99.5232 93.728,101.3292 C93.74,88.5252 84.476,96.5082 84.927,101.5572 C79.311,94.6942 72.018,103.2972 78.564,107.2032 C73.645,109.6712 80.957,113.3712 85.169,110.1082 C86.58,111.6992 92.879,111.3222 92.879,111.3222 L97.627,103.3202 Z" id="Fill-82" fill="#000000"/>
            <path d="M93.8525,99.245 C91.5295,99.106 84.2315,106.202 85.1685,110.108 C86.1875,112.68 88.1885,112.8 88.1885,112.8 L96.4515,100.572 C96.4515,100.572 96.8545,99.425 93.8525,99.245" id="Fill-84" fill="#E6944D"/>
            <path d="M149.4082,97.8202 C149.6462,95.5052 142.8762,87.9042 138.9312,88.6722 C136.3182,89.5772 136.1112,91.5712 136.1112,91.5712 L147.9692,100.3582 C147.9692,100.3582 149.0962,100.8112 149.4082,97.8202" id="Fill-86" fill="#E6944D"/>
            <path d="M152.623,117.2152 C155.411,125.0402 156.483,148.7752 134.65,154.7472 C112.936,160.6842 100.66,145.8272 97.03,130.7222 C92.652,112.5002 106.773,100.7972 119.574,98.7242 C139.553,95.4882 148.889,106.7332 152.623,117.2152" id="Fill-88" fill="#EBA376"/>
            <path d="M142.8935,116.3636 C139.8215,115.2686 138.9355,118.6696 141.0125,118.8146 C143.2405,118.9686 145.0505,119.9066 145.3445,119.7096 C145.9885,119.2796 144.6185,116.9776 142.8935,116.3636" id="Fill-90" fill="#000000"/>
            <path d="M113.7031,119.0629 C116.4661,117.3269 118.0651,120.4539 116.0731,121.0469 C113.9311,121.6819 112.3681,122.9899 112.0381,122.8609 C111.3131,122.5799 112.1531,120.0379 113.7031,119.0629" id="Fill-92" fill="#000000"/>
            <path d="M132.0137,134.9637 C132.0487,134.9777 132.0877,134.9767 132.1257,134.9627 C133.1977,134.5017 133.7677,133.6007 133.6437,132.5527 C133.5317,131.5837 132.8377,130.7477 132.0267,130.6037 C131.5247,130.5157 130.5587,130.6177 129.7237,132.2927 C129.6867,132.3677 129.7167,132.4587 129.7907,132.4967 C129.8747,132.5397 129.9597,132.5027 129.9937,132.4277 C130.5487,131.3177 131.2507,130.7767 131.9747,130.9027 C132.6607,131.0197 133.2437,131.7467 133.3437,132.5877 C133.3947,133.0237 133.3647,134.0987 132.0047,134.6817 C131.9277,134.7147 131.8927,134.8047 131.9267,134.8817 C131.9427,134.9217 131.9747,134.9497 132.0137,134.9637" id="Fill-94" fill="#CE7754"/>
            <path d="M121.1387,124.6654 C123.0717,126.7864 123.0157,129.9884 121.0127,131.8144 C119.0127,133.6394 115.8197,133.3984 113.8817,131.2764 C111.9507,129.1544 112.0067,125.9544 114.0107,124.1304 C116.0127,122.3034 119.2047,122.5434 121.1387,124.6654" id="Fill-96" fill="#FFFFFF"/>
            <path d="M119.7227,128.3988 C119.8967,129.9458 118.8537,131.3308 117.3927,131.4938 C115.9347,131.6558 114.6117,130.5348 114.4377,128.9888 C114.2657,127.4438 115.3077,126.0578 116.7687,125.8948 C118.2287,125.7328 119.5507,126.8538 119.7227,128.3988" id="Fill-98" fill="#896F68"/>
            <path d="M118.666,128.5756 C118.773,129.5326 118.127,130.3886 117.223,130.4926 C116.319,130.5936 115.502,129.8976 115.395,128.9416 C115.287,127.9846 115.934,127.1256 116.837,127.0266 C117.738,126.9256 118.558,127.6186 118.666,128.5756" id="Fill-100" fill="#231F20"/>
            <path d="M118.6348,127.5726 C118.6768,127.9656 118.4138,128.3176 118.0428,128.3576 C117.6718,128.3966 117.3358,128.1156 117.2918,127.7226 C117.2488,127.3286 117.5108,126.9776 117.8838,126.9366 C118.2538,126.8956 118.5898,127.1796 118.6348,127.5726" id="Fill-102" fill="#FFFFFF"/>
            <path d="M116.6084,130.1151 C116.6314,130.3531 116.4744,130.5671 116.2494,130.5921 C116.0244,130.6151 115.8224,130.4431 115.7964,130.2051 C115.7684,129.9691 115.9294,129.7571 116.1544,129.7321 C116.3764,129.7061 116.5824,129.8761 116.6084,130.1151" id="Fill-104" fill="#FFFFFF"/>
            <path d="M137.4453,124.6068 C136.6933,127.3088 138.1473,130.0798 140.6973,130.7948 C143.2513,131.5078 145.9353,129.8958 146.6903,127.1918 C147.4443,124.4838 145.9873,121.7158 143.4383,121.0018 C140.8823,120.2898 138.2013,121.9038 137.4453,124.6068" id="Fill-106" fill="#FFFFFF"/>
            <path d="M138.6572,126.6966 C138.8262,128.2076 140.1202,129.3026 141.5472,129.1436 C142.9752,128.9836 143.9942,127.6296 143.8252,126.1196 C143.6572,124.6056 142.3622,123.5116 140.9382,123.6716 C139.5112,123.8306 138.4892,125.1846 138.6572,126.6966" id="Fill-108" fill="#896F68"/>
            <path d="M139.7246,126.6893 C139.8286,127.5933 140.6006,128.2473 141.4536,128.1533 C142.3076,128.0573 142.9186,127.2473 142.8156,126.3413 C142.7146,125.4373 141.9406,124.7823 141.0886,124.8773 C140.2336,124.9723 139.6226,125.7833 139.7246,126.6893" id="Fill-110" fill="#231F20"/>
            <path d="M141.375,125.5292 C141.418,125.9122 141.747,126.1882 142.106,126.1482 C142.467,126.1082 142.726,125.7672 142.683,125.3832 C142.638,125.0012 142.312,124.7242 141.953,124.7602 C141.594,124.8042 141.331,125.1462 141.375,125.5292" id="Fill-112" fill="#FFFFFF"/>
            <path d="M139.8545,127.7137 C139.8785,127.9467 140.0785,128.1127 140.2975,128.0887 C140.5165,128.0657 140.6735,127.8577 140.6475,127.6247 C140.6205,127.3937 140.4225,127.2247 140.2035,127.2497 C139.9845,127.2757 139.8275,127.4827 139.8545,127.7137" id="Fill-114" fill="#FFFFFF"/>
            <path d="M132.3828,141.4115 C137.5718,140.2975 139.1618,138.4535 141.1998,136.9275 L141.2418,137.0485 C140.6028,137.5965 139.7918,138.2685 138.5868,139.2775 C138.5868,139.2775 139.6938,147.6705 134.0858,148.6655 C128.4798,149.6615 126.4718,143.3095 125.5178,140.7155 C125.5178,140.7155 128.8288,142.1745 132.3828,141.4115" id="Fill-116" fill="#000000"/>
            <path d="M134.0322,144.9642 C133.7372,144.7092 133.2612,144.4872 133.2612,144.4872 C135.2942,142.6662 137.0352,143.3202 138.3602,143.2552 C138.1432,144.3742 137.6992,147.4932 134.4022,148.4272 C133.1222,148.7902 131.3862,148.5852 130.1672,147.8022 C128.6372,146.8222 127.8412,145.5252 127.5842,145.0472 C129.9842,142.7712 133.2282,144.5102 134.0322,144.9642" id="Fill-118" fill="#EA0000"/>
            <path d="M125.5176,140.7157 C125.5176,140.7157 129.7286,142.1387 132.3826,141.4117 C135.0386,140.6847 137.1526,139.9287 138.2866,139.1267 C138.6696,140.5267 138.4026,140.5467 138.4026,141.0787 C138.4026,141.6097 133.3096,144.4987 126.2356,142.6277 C125.8376,141.5937 125.5176,140.7157 125.5176,140.7157" id="Fill-120" fill="#FFFFFF"/>
            <path d="M132.3828,141.4115 C137.5718,140.2975 139.1618,138.4535 141.1998,136.9275 L141.2418,137.0485 C140.6028,137.5965 139.7918,138.2685 138.5868,139.2775 C138.5868,139.2775 139.6938,147.6705 134.0858,148.6655 C128.4798,149.6615 126.4718,143.3095 125.5178,140.7155 C125.5178,140.7155 128.8288,142.1745 132.3828,141.4115 Z" id="Stroke-122" stroke="#000000" stroke-width="0.15"/>
            <path d="M127.7021,87.7093 C107.6241,86.3033 100.7611,98.2393 100.7611,98.2393 C100.7611,98.2393 93.3981,98.7083 89.1401,109.6133 C84.1981,122.2723 90.1821,130.9193 95.8421,138.9953 C112.1551,132.5083 109.7711,111.4653 109.7711,111.4653 C115.3601,123.5173 133.3251,115.1683 137.2001,111.5803 C144.8861,104.4673 152.9691,114.9683 153.6681,122.3043 C159.7851,108.5383 146.9241,89.0553 127.7021,87.7093" id="Fill-124" fill="#000000"/>
            <path d="M100.3174,103.2323 C98.2924,101.9573 88.8154,111.9493 91.6964,121.3163 C93.2804,114.0463 96.2374,111.4353 96.2374,111.4353 C96.2374,111.4353 92.5214,116.5393 94.3134,127.2003 C97.7734,115.2293 102.7694,111.6723 102.7694,111.6723 C102.7694,111.6723 99.5884,120.3583 97.1204,124.9953 C104.9654,117.8633 107.2354,107.4583 105.2884,105.2063 C103.3304,103.4113 97.7034,112.8953 97.7034,112.8953 C97.7034,112.8953 102.0694,104.3353 100.3174,103.2323" id="Fill-126" fill="#000000"/>
            <path d="M106.9248,97.8016 C112.2588,92.0596 121.9038,85.8946 139.5698,93.1316 C130.3508,90.9876 123.8368,93.2216 123.8368,93.2216 C123.8368,93.2216 144.6908,94.6986 151.3948,106.2346 C145.1018,99.4666 130.5658,94.6066 117.7018,98.2076 C125.3028,100.9916 136.5128,102.3246 136.5128,102.3246 C136.5128,102.3246 119.0958,105.3366 112.7088,100.0736 C117.4248,106.1106 124.4608,107.9156 124.4608,107.9156 C124.4608,107.9156 111.6108,106.4436 107.7978,99.1996 C111.5318,96.5646 116.2028,94.7346 123.8328,94.9126 C117.4458,91.3426 106.9248,97.8016 106.9248,97.8016" id="Fill-128" fill="#000000"/>
            <path d="M107.8525,108.2992 C107.7895,108.8912 111.2225,130.0122 94.2375,138.5692 C88.4485,131.6792 89.5805,123.3122 89.5805,123.3122 C89.5805,123.3122 92.0985,130.9382 95.9495,129.3412 C107.3805,124.5992 107.8525,108.2992 107.8525,108.2992" id="Fill-130" fill="#000000"/>
            <path d="M110.0127,107.8597 C114.9867,114.4527 124.9107,115.9307 133.1227,110.3187 C141.3327,104.7057 145.3787,107.1097 147.1767,109.7687 C143.9457,107.6627 141.2357,106.9287 136.3207,110.4117 C125.2137,118.2827 112.8677,118.1397 110.0127,107.8597" id="Fill-132" fill="#000000"/>
            <path d="M101.5088,134.7162 C101.5088,134.7162 99.5578,131.4492 95.7468,132.5162 C91.7278,133.6432 92.5418,139.5702 96.1068,142.1512 C99.6728,144.7252 104.1708,143.4862 104.2818,140.2082 L101.5088,134.7162 Z" id="Fill-134" fill="#EBA376"/>
            <path d="M95.6748,134.3475 C97.9328,132.7975 102.1318,137.0325 99.9188,141.0805 C99.7818,136.8975 97.9528,136.2125 96.9168,138.6715 C96.4278,137.4925 96.7288,136.4965 98.2748,135.9965 C97.4908,134.4985 95.6748,134.3475 95.6748,134.3475" id="Fill-136" fill="#D5956A"/>
            <path d="M103.1924,119.6288 C102.5534,120.9598 97.4124,117.8958 97.5164,117.3588 C97.5874,117.0058 99.7434,117.4378 100.8394,117.8388 C102.3014,118.3748 103.4774,119.0308 103.1924,119.6288 M103.8034,118.0448 C100.9234,116.1158 96.0814,115.5238 95.4634,116.3088 C95.1724,117.4268 99.1474,121.2128 103.0344,121.2788 C105.7984,121.3258 105.4354,119.1408 103.8034,118.0448" id="Fill-138" fill="#E6944D"/>
            <path d="M151.2217,110.266 C149.9917,110.402 149.8047,105.098 150.2317,104.93 C150.5127,104.819 151.1917,106.646 151.4097,107.662 C151.7007,109.014 151.7717,110.206 151.2217,110.266 M152.6167,109.995 C152.6637,106.926 150.8717,102.995 150.0357,102.891 C149.1157,103.191 148.2577,107.947 149.9837,110.912 C151.2127,113.021 152.5887,111.734 152.6167,109.995" id="Fill-140" fill="#E6944D"/>
            <path d="M157.7314,217.0072 C157.7314,217.1682 159.2344,222.6452 159.2344,222.6452 L162.1884,222.1082 C162.1884,222.1082 161.2754,217.8122 160.5774,216.5772 C159.6104,216.4702 157.7314,217.0072 157.7314,217.0072" id="Fill-142" fill="#EBA376"/>
            <path d="M158.9512,223.7694 C158.7082,224.0474 158.7432,225.2234 159.0292,225.5974 C160.2572,227.0454 163.0512,229.0404 166.2742,229.0134 C168.6312,228.9904 170.9212,227.9674 171.3272,226.8514 C171.4482,226.5214 171.6002,225.6554 170.9962,225.0834 C167.5392,223.6044 158.9512,223.7694 158.9512,223.7694" id="Fill-144" fill="#F0F1F2"/>
            <path d="M158.9512,223.7694 C158.9512,223.7694 159.4822,223.7594 160.3302,223.7664 C161.0892,224.2974 161.7412,224.9084 160.5322,225.1944 C158.6852,225.6334 162.2362,228.2574 166.5122,228.1134 C168.6882,228.0394 170.8082,227.2084 171.4372,226.2024 C171.4362,226.4724 171.3802,226.7104 171.3272,226.8514 C170.9212,227.9674 168.6312,228.9904 166.2742,229.0134 C163.0512,229.0404 160.2572,227.0454 159.0292,225.5974 C158.7432,225.2234 158.7082,224.0474 158.9512,223.7694" id="Fill-146" fill="#D0D1D3"/>
            <path d="M159.0713,220.8807 C159.0713,220.8807 160.4503,222.6267 161.1663,222.2307 C160.6013,221.5677 160.6303,220.0377 161.7513,219.7907 C162.8703,219.5457 162.9823,221.2827 162.9823,221.2827 C162.9823,221.2827 164.3903,220.1017 167.2593,220.6137 C170.1273,221.1247 171.2903,224.2357 170.9963,225.0837 C170.4803,225.9017 168.0703,227.0627 164.9593,226.8717 C161.8483,226.6817 159.7053,224.5927 159.2943,224.3147 C158.8833,224.0357 158.5283,223.2757 158.7923,222.6457 C159.0583,222.0167 158.3333,220.9287 159.0713,220.8807" id="Fill-148" fill="#E76BA7"/>
            <path d="M158.792,222.6459 C159.059,222.0169 158.333,220.9289 159.071,220.8809 C159.071,220.8809 159.527,221.4579 160.052,221.8729 C160.029,221.8889 159.998,221.8949 159.957,221.8939 C159.202,221.8449 159.178,222.9819 159.497,223.3639 C160.064,224.0469 162.099,225.4529 165.208,225.6429 C167.769,225.8019 170.059,225.0679 170.925,224.0509 C171.049,224.4909 171.073,224.8629 170.996,225.0839 C170.48,225.9019 168.069,227.0629 164.959,226.8719 C161.848,226.6819 159.705,224.5929 159.293,224.3139 C158.883,224.0359 158.528,223.2749 158.792,222.6459" id="Fill-150" fill="#BE4A86"/>
            <path d="M166.7051,221.1288 C167.7701,220.7538 170.5111,222.6288 169.4141,223.8778 C168.3181,225.1278 164.6671,224.7078 164.6671,224.7078 C164.6671,224.7078 167.6981,224.2998 167.2571,222.9268 C167.0951,222.4128 165.7971,221.4468 166.7051,221.1288" id="Fill-152" fill="#EBA8CB"/>
            <path d="M163.2812,222.1805 C163.3522,222.1755 163.4192,222.1385 163.4602,222.0755 C164.3152,220.7795 165.3442,221.3915 165.3872,221.4185 C165.4932,221.4855 165.6382,221.4525 165.7052,221.3435 C165.7722,221.2325 165.7392,221.0905 165.6282,221.0225 C165.6142,221.0145 164.1732,220.1525 163.0722,221.8215 C163.0022,221.9275 163.0312,222.0705 163.1382,222.1415 C163.1832,222.1695 163.2312,222.1835 163.2812,222.1805" id="Fill-154" fill="#FFFFFF"/>
            <path d="M165.5469,222.4774 C165.6169,222.4734 165.6839,222.4354 165.7249,222.3754 C166.5809,221.0774 167.6089,221.6904 167.6509,221.7174 C167.7609,221.7854 167.9039,221.7504 167.9699,221.6404 C168.0389,221.5314 168.0039,221.3884 167.8949,221.3214 C167.8809,221.3114 166.4369,220.4524 165.3379,222.1194 C165.2669,222.2264 165.2969,222.3714 165.4039,222.4394 C165.4469,222.4694 165.4979,222.4804 165.5469,222.4774" id="Fill-156" fill="#FFFFFF"/>
            <path d="M141.1396,186.7767 C141.1396,186.7767 153.4906,189.5687 156.5536,194.3847 C158.4036,197.2917 163.4646,210.7807 163.9076,215.9327 C162.4566,217.7047 158.5186,218.4027 156.7646,217.8657 C151.1086,203.0467 148.8656,202.1787 146.5086,199.2337 C144.1546,196.2897 128.2526,189.2117 128.2526,189.2117 C128.2526,189.2117 135.1036,185.1577 141.1396,186.7767" id="Fill-158" fill="#9FB7C6"/>
            <path d="M155.5303,215.6141 C155.5303,215.6141 159.7793,215.9251 163.6653,213.0751 C164.2343,214.6301 164.3893,215.8221 164.3893,215.8221 C164.3893,215.8221 161.2813,218.9821 156.4633,218.2041 C155.8923,216.4951 155.5303,215.6141 155.5303,215.6141" id="Fill-160" fill="#688191"/>
            <path d="M139.0996,186.347 C139.0996,186.347 143.3416,187.582 145.3286,188.28 C140.5486,188.119 139.3146,190.052 144.3616,193.81 C149.4086,197.57 149.6776,201.435 149.6776,201.435 L129.5406,189.354 L139.0996,186.347 Z" id="Fill-162" fill="#8CA6B6"/>
            <path d="M142.8457,158.723 C142.8457,158.723 152.9087,154.346 154.6677,141.788 C154.1487,141.369 153.1507,140.119 153.5867,139.536 C154.0267,138.952 155.2327,139.941 155.5297,140.407 C155.9947,139.761 155.8477,136.395 156.8357,136.518 C157.5817,136.612 157.3547,139.352 157.3547,139.352 C157.3547,139.352 158.0307,136.635 158.9107,136.648 C159.7687,136.661 158.5447,139.883 158.5447,139.883 C158.5447,139.883 159.6787,137.487 160.4847,137.946 C161.0477,138.266 159.8227,139.976 159.3967,140.497 C159.7687,140.542 160.7827,139.228 161.1447,139.499 C161.9087,140.07 159.3717,142.945 157.7007,143.549 C156.9637,146.612 153.6777,157.928 143.2947,162.275 C140.7767,161.975 142.8457,158.723 142.8457,158.723" id="Fill-164" fill="#EBA376"/>
            <path d="M133.9629,164.787 C133.1219,163.295 129.5829,157.751 133.8879,157.703 C138.3109,158.677 143.1089,158.227 143.1089,158.227 C143.1089,158.227 145.9719,162.254 143.4829,165.246 C139.5839,166.483 135.1549,166.903 133.9629,164.787" id="Fill-166" fill="#B33C7A"/>
            <path d="M134.9258,158.0438 C136.0418,157.9738 140.4098,165.1988 143.4078,159.8768 C144.7948,161.9008 143.3138,164.8528 143.3138,164.8528 L136.2858,166.0898 C136.2858,166.0898 132.4048,158.2028 134.9258,158.0438" id="Fill-168" fill="#9E2D68"/>
            <path d="M148.8183,220.4974 C148.8183,220.6584 150.3223,226.1354 150.3223,226.1354 L153.2753,225.5984 C153.2753,225.5984 152.3623,221.3024 151.6643,220.0674 C150.6973,219.9604 148.8183,220.4974 148.8183,220.4974" id="Fill-170" fill="#EBA376"/>
            <path d="M150.0381,227.2596 C149.7951,227.5376 149.8311,228.7136 150.1161,229.0876 C151.3451,230.5356 154.1371,232.5306 157.3611,232.5026 C159.7181,232.4806 162.0081,231.4586 162.4141,230.3426 C162.5341,230.0116 162.6861,229.1446 162.0831,228.5736 C158.6271,227.0946 150.0381,227.2596 150.0381,227.2596" id="Fill-172" fill="#F0F1F2"/>
            <path d="M150.0381,227.2596 C150.0381,227.2596 150.5681,227.2496 151.4171,227.2566 C152.1771,227.7866 152.8281,228.3986 151.6181,228.6846 C149.7721,229.1236 153.3231,231.7476 157.5981,231.6036 C159.7741,231.5296 161.8941,230.6996 162.5231,229.6916 C162.5231,229.9626 162.4681,230.2006 162.4141,230.3426 C162.0081,231.4586 159.7181,232.4806 157.3611,232.5026 C154.1371,232.5306 151.3451,230.5356 150.1161,229.0876 C149.8311,228.7136 149.7951,227.5376 150.0381,227.2596" id="Fill-174" fill="#D0D1D3"/>
            <path d="M150.1582,224.371 C150.1582,224.371 151.5362,226.116 152.2532,225.721 C151.6862,225.058 151.7172,223.528 152.8382,223.281 C153.9562,223.036 154.0692,224.774 154.0692,224.774 C154.0692,224.774 155.4762,223.592 158.3452,224.104 C161.2142,224.615 162.3762,227.726 162.0822,228.574 C161.5682,229.392 159.1562,230.553 156.0462,230.362 C152.9332,230.171 150.7912,228.083 150.3812,227.805 C149.9692,227.526 149.6142,226.766 149.8792,226.136 C150.1442,225.507 149.4202,224.419 150.1582,224.371" id="Fill-176" fill="#E76BA7"/>
            <path d="M149.8789,226.1361 C150.1459,225.5071 149.4199,224.4191 150.1579,224.3711 C150.1579,224.3711 150.6139,224.9481 151.1379,225.3631 C151.1159,225.3791 151.0849,225.3851 151.0439,225.3841 C150.2889,225.3351 150.2639,226.4731 150.5839,226.8541 C151.1509,227.5371 153.1849,228.9431 156.2949,229.1331 C158.8559,229.2911 161.1439,228.5581 162.0099,227.5411 C162.1349,227.9801 162.1589,228.3531 162.0819,228.5741 C161.5669,229.3921 159.1559,230.5531 156.0459,230.3621 C152.9339,230.1711 150.7909,228.0831 150.3809,227.8051 C149.9689,227.5261 149.6139,226.7651 149.8789,226.1361" id="Fill-178" fill="#BE4A86"/>
            <path d="M157.792,224.619 C158.857,224.244 161.598,226.119 160.501,227.367 C159.404,228.618 155.753,228.198 155.753,228.198 C155.753,228.198 158.784,227.79 158.344,226.416 C158.181,225.903 156.883,224.937 157.792,224.619" id="Fill-180" fill="#EBA8CB"/>
            <path d="M154.3681,225.6708 C154.4391,225.6658 154.5051,225.6288 154.5471,225.5658 C155.4011,224.2698 156.4311,224.8818 156.4731,224.9088 C156.5801,224.9758 156.7251,224.9428 156.7921,224.8338 C156.8591,224.7228 156.8261,224.5808 156.7151,224.5128 C156.7011,224.5048 155.2601,223.6428 154.1591,225.3118 C154.0881,225.4178 154.1181,225.5608 154.2251,225.6318 C154.2691,225.6588 154.3181,225.6738 154.3681,225.6708" id="Fill-182" fill="#FFFFFF"/>
            <path d="M156.6338,225.9672 C156.7038,225.9632 156.7698,225.9262 156.8118,225.8652 C157.6678,224.5672 158.6958,225.1812 158.7378,225.2072 C158.8468,225.2752 158.9898,225.2402 159.0568,225.1312 C159.1258,225.0222 159.0908,224.8792 158.9818,224.8112 C158.9678,224.8022 157.5228,223.9422 156.4238,225.6092 C156.3538,225.7172 156.3838,225.8612 156.4908,225.9292 C156.5338,225.9592 156.5838,225.9712 156.6338,225.9672" id="Fill-184" fill="#FFFFFF"/>
            <path d="M131.9756,188.9247 C131.9756,188.9247 143.8606,191.5017 148.8996,199.2417 C151.8206,203.7287 154.2326,214.3647 155.3156,218.9937 C151.9866,222.5917 147.5826,221.2487 147.5826,221.2487 C147.5826,221.2487 142.7466,208.3387 141.5696,205.2477 C140.3916,202.1567 132.7176,201.7127 126.5346,200.0927 C120.3526,198.4737 120.5216,191.3597 120.5216,191.3597 L131.9756,188.9247 Z" id="Fill-186" fill="#C0D0DD"/>
            <path d="M121.3799,193.7211 C121.3799,193.7211 122.2929,198.4821 127.4479,199.7701 C123.2059,195.2071 126.3189,190.6421 134.9829,190.3561 C133.2469,189.7831 130.7229,188.9251 130.7229,188.9251 L121.3799,193.7211 Z" id="Fill-188" fill="#A6BAC9"/>
            <path d="M146.3476,218.8866 C146.3476,218.8866 150.7506,219.2086 154.7796,216.2556 C155.3686,217.8656 155.5306,219.1016 155.5306,219.1016 C155.5306,219.1016 152.3076,222.3766 147.3146,221.5716 C146.7236,219.7996 146.3476,218.8866 146.3476,218.8866" id="Fill-190" fill="#8096A5"/>
            <path d="M137.6416,160.7577 C135.4936,157.5357 132.9706,157.2667 131.4126,157.1057 C131.4666,158.9857 126.0596,160.3357 123.9576,157.6737 C119.8306,159.1897 115.4376,161.7187 114.7936,163.4377 C113.6956,165.8307 118.8486,173.6447 118.4186,181.6987 C118.2926,184.0667 119.6816,194.1677 119.9846,194.1867 C125.1386,194.5087 131.7966,186.1327 143.0766,187.2897 C143.5856,186.4147 142.0176,185.7737 141.4656,184.6047 C139.1256,179.6567 139.7776,163.9607 137.6416,160.7577" id="Fill-192" fill="#E76BA7"/>
            <path d="M132.4765,165.0121 C133.2175,161.9221 137.0575,162.4341 137.6315,165.1551 C138.2045,167.8761 138.2765,178.6151 139.2795,180.7621 C135.9145,177.3261 131.1875,170.3811 132.4765,165.0121" id="Fill-194" fill="#EE8FBB"/>
            <path d="M119.2324,174.9637 C119.2324,174.9637 122.0964,187.1337 127.6804,187.5647 C133.2644,187.9937 135.9854,184.9157 142.0704,186.3467 C138.6324,186.4897 131.9764,187.7787 128.8974,189.8557 C125.8194,191.9317 120.5924,193.3627 120.5924,193.3627 L119.2324,174.9637 Z" id="Fill-196" fill="#C44784"/>
            <path d="M139.8437,176.2782 C133.3657,179.1262 122.5657,180.1462 118.4387,180.4432 C118.4457,180.8612 118.4417,181.2792 118.4187,181.6982 C118.3887,182.2632 118.4457,183.2692 118.5527,184.4702 C129.9457,184.0782 138.1737,181.5342 140.4137,180.7672 C140.1817,179.4092 139.9987,177.8782 139.8437,176.2782 M139.6347,173.9662 C137.4287,174.8612 131.4317,176.7102 118.1987,177.5612 C118.0137,176.3062 117.7397,175.0812 117.4227,173.9072 C121.1647,173.5822 133.5987,172.3762 139.3307,170.2282 C139.4327,171.4532 139.5297,172.7152 139.6347,173.9662" id="Fill-198" fill="#EBA8CB"/>
            <path d="M138.5732,176.7938 C137.9192,177.0398 137.2352,177.2698 136.5272,177.4848 C137.4502,178.7528 138.4102,179.8758 139.2782,180.7628 C138.9682,180.0988 138.7472,178.6108 138.5732,176.7938" id="Fill-200" fill="#F8C9DD"/>
            <path d="M133.3154,171.805 C133.7954,173.017 134.4124,174.209 135.0954,175.338 C136.4734,175.013 137.5524,174.7 138.3784,174.425 C138.2894,173.171 138.2114,171.868 138.1334,170.634 C136.7384,171.067 135.0824,171.456 133.3154,171.805" id="Fill-202" fill="#F8C9DD"/>
            <path d="M123.0723,184.1952 C122.2423,182.9762 121.5453,181.5732 120.9833,180.2312 C120.4993,180.2772 120.0463,180.3172 119.6303,180.3512 L119.9303,184.4102 C121.0093,184.3562 122.0573,184.2832 123.0723,184.1952 M119.9483,177.4382 C119.7713,177.4512 119.5973,177.4652 119.4183,177.4782 L119.2323,174.9642 C119.2323,174.9642 119.4723,175.9832 119.9483,177.4382" id="Fill-204" fill="#E293BB"/>
            <path d="M124.3867,157.4051 C124.3867,157.4051 126.3207,158.9621 128.5217,158.5861 C130.7227,158.2111 130.8837,156.9221 130.8837,156.9221 L132.8167,157.2441 C132.8167,157.2441 133.3537,159.4991 128.7897,160.1971 C124.2257,160.8951 122.1847,158.1571 122.1847,158.1571 L124.3867,157.4051 Z" id="Fill-206" fill="#FCEAF2"/>
            <path d="M135.5674,225.08 C135.4524,225.08 135.3364,225.061 135.2204,225.022 L111.9574,217.083 C111.5094,216.93 111.2134,216.501 111.2304,216.029 L111.8264,198.984 C111.8384,198.638 112.0174,198.318 112.3064,198.126 C112.5964,197.934 112.9614,197.894 113.2844,198.019 L127.3714,203.425 L126.4674,193.664 C126.4124,193.074 126.8474,192.55 127.4374,192.496 C128.0254,192.435 128.5504,192.875 128.6064,193.466 L129.6714,204.948 C129.7044,205.317 129.5454,205.678 129.2494,205.902 C128.9524,206.127 128.5614,206.182 128.2164,206.049 L113.9214,200.563 L113.4054,215.307 L135.9144,222.989 C136.4754,223.181 136.7754,223.791 136.5844,224.352 C136.4314,224.799 136.0144,225.08 135.5674,225.08" id="Fill-208" fill="#434345"/>
            <path d="M106.9902,183.3758 C104.5192,182.7318 103.3392,185.5238 106.0222,186.4898 C108.7082,187.4568 129.2022,195.4228 132.1192,196.3338 C135.5542,197.4088 137.1672,193.0048 133.4082,191.6088 C129.6482,190.2128 106.9902,183.3758 106.9902,183.3758" id="Fill-210" fill="#3E3E3F"/>
            <path d="M114.4004,238.5521 C105.7794,239.6521 97.5064,230.4941 95.9244,218.0961 C94.3424,205.6971 100.0494,194.7541 108.6714,193.6541 C117.2924,192.5551 125.5654,201.7131 127.1464,214.1131 C128.7284,226.5101 123.0214,237.4521 114.4004,238.5521 M130.2604,213.7411 C128.4754,199.7391 118.8684,189.4291 108.8044,190.7131 C98.7424,191.9971 92.0334,204.3891 93.8194,218.3911 C95.6064,232.3951 105.2124,242.7031 115.2754,241.4191 C125.3374,240.1361 132.0474,227.7431 130.2604,213.7411" id="Fill-212" fill="#5F6062"/>
            <path d="M97.7598,217.8539 C96.1938,205.5799 101.8118,194.7439 110.3218,193.5689 C109.7738,193.5569 109.2238,193.5839 108.6718,193.6539 C100.0498,194.7539 94.3438,205.6969 95.9258,218.0959 C97.5078,230.4949 105.7788,239.6519 114.4008,238.5519 C114.9768,238.4789 115.5398,238.3579 116.0898,238.1989 C107.5308,239.2579 99.3308,230.1639 97.7598,217.8539" id="Fill-214" fill="#363638"/>
            <path d="M110.2852,198.4471 C109.9902,198.4471 109.6932,198.4661 109.4012,198.5031 C106.5422,198.8681 104.0532,200.9771 102.3912,204.4431 C100.6692,208.0331 100.0542,212.6091 100.6562,217.3301 C101.8062,226.3471 107.2122,233.4091 112.9632,233.4091 C113.2582,233.4091 113.5562,233.3921 113.8482,233.3551 C116.7072,232.9891 119.1962,230.8811 120.8582,227.4151 C122.5802,223.8261 123.1972,219.2501 122.5952,214.5301 C121.4442,205.5111 116.0372,198.4471 110.2852,198.4471 M112.9632,235.1281 C106.2542,235.1281 100.2302,227.5711 98.9512,217.5471 C98.3072,212.5031 98.9792,207.5851 100.8422,203.7001 C102.7642,199.6901 105.7272,197.2391 109.1832,196.7981 C109.5482,196.7521 109.9182,196.7291 110.2852,196.7291 C116.9952,196.7291 123.0202,204.2881 124.2992,214.3131 C124.9432,219.3571 124.2712,224.2741 122.4072,228.1581 C120.4852,232.1671 117.5222,234.6171 114.0652,235.0591 C113.7012,235.1061 113.3302,235.1281 112.9632,235.1281" id="Fill-216" fill="#909092"/>
            <polygon id="Fill-218" fill="#909092" points="115.085 233.9642 107.639 198.0602 108.06 197.9732 115.505 233.8772"/>
            <polygon id="Fill-220" fill="#909092" points="102.0557 225.163 101.7577 224.853 121.0117 206.31 121.3097 206.621"/>
            <polygon id="Fill-222" fill="#909092" points="123.1426 222.1918 99.8736 210.0008 100.0746 209.6198 123.3406 221.8108"/>
            <polygon id="Fill-224" fill="#909092" points="107.2695 231.7728 106.8535 231.6668 115.0865 199.2278 115.5035 199.3328"/>
            <polygon id="Fill-226" fill="#909092" points="120.9854 229.3021 102.1614 202.7231 102.5114 202.4751 121.3354 229.0541"/>
            <polygon id="Fill-228" fill="#909092" points="100.0127 218.0599 99.9357 217.6379 123.4907 213.3419 123.5667 213.7649"/>
            <path d="M113.874,215.4344 C114.073,217.2714 113.164,218.8774 111.843,219.0204 C110.523,219.1634 109.29,217.7904 109.091,215.9524 C108.893,214.1154 109.801,212.5094 111.122,212.3664 C112.442,212.2234 113.675,213.5974 113.874,215.4344" id="Fill-230" fill="#909092"/>
            <path d="M112.4932,215.5638 C112.5922,216.4738 112.1402,217.2708 111.4852,217.3408 C110.8322,217.4118 110.2202,216.7308 110.1222,215.8198 C110.0222,214.9088 110.4732,214.1128 111.1292,214.0418 C111.7822,213.9708 112.3942,214.6518 112.4932,215.5638" id="Fill-232" fill="#5F6062"/>
            <path d="M116.2256,171.7421 C111.7866,187.5641 113.4066,194.4511 115.0086,196.0131 C115.8226,196.8051 118.9766,197.6341 118.6756,199.1581 C118.5356,199.4441 117.5056,198.4931 117.5056,198.4931 C117.5056,198.4931 118.7736,199.6321 118.9386,200.9801 C119.0236,201.6701 118.7256,201.9411 118.3546,201.7931 C118.1216,201.7001 117.4966,199.9851 117.1436,199.3841 C117.5486,200.5431 117.7136,202.5671 117.0666,202.6551 C116.3856,202.7481 116.5516,200.3231 116.1496,199.6941 C116.1296,200.4671 116.5616,202.5801 115.6136,202.5261 C115.0106,202.4911 115.2986,200.5631 114.9586,199.8001 C114.8996,201.5411 114.8456,202.2151 114.5506,202.2281 C114.2036,202.2441 113.9856,202.0411 113.9596,200.8121 C113.9276,199.2281 112.9056,197.9961 112.2876,197.4441 C109.7276,195.1541 109.9256,182.2661 113.2186,171.3121 C113.7346,171.1381 115.3966,171.3191 116.2256,171.7421" id="Fill-234" fill="#EBA376"/>
            <path d="M116.3682,162.0765 C117.9572,161.4405 119.4472,163.7945 119.3752,167.5185 C119.3282,169.9665 118.5162,174.3195 118.5162,174.3195 C118.5162,174.3195 113.4922,175.1045 110.8552,172.2435 C111.8582,166.3725 114.1122,162.9795 116.3682,162.0765" id="Fill-236" fill="#B33C7A"/>
            <path d="M118.0869,164.1527 C118.3729,167.5187 117.5859,172.9587 112.5729,172.8157 C114.1489,173.7467 117.8719,173.8897 117.8719,173.8897 C117.8719,173.8897 119.8049,165.6567 118.0869,164.1527" id="Fill-238" fill="#9E2D68"/>
            <path d="M255.0713,107.9691 C253.4873,116.0151 238.9683,119.9321 222.6413,116.7181 C206.3153,113.5041 194.3633,104.3761 195.9473,96.3301 C197.5313,88.2841 212.0503,84.3671 228.3783,87.5811 C244.7053,90.7951 256.6553,99.9231 255.0713,107.9691" id="Fill-240" fill="#181414"/>
            <path d="M230.9297,157.2333 C234.3397,158.0113 237.9797,159.6043 238.9277,164.2573 C239.8777,168.9103 235.9537,174.5293 237.7947,178.4693 C239.6347,182.4053 242.5057,191.7993 237.2327,197.1483 C231.9567,202.4933 209.9197,200.9833 206.2427,197.4813 C202.5697,193.9793 200.3567,191.2183 202.5657,182.6633 C204.7707,174.1103 202.0517,168.7953 201.5747,165.0393 C200.9477,160.1233 203.6837,157.7323 208.0277,156.7343 C212.3717,155.7363 219.9477,154.7373 230.9297,157.2333" id="Fill-242" fill="#1C8F66"/>
            <path d="M236.5185,161.1195 C235.3945,158.8125 227.6145,156.2105 226.3395,156.8455 C225.0655,157.4865 231.5615,158.0405 233.4045,160.7425 C235.2495,163.4445 238.1165,164.3985 236.5185,161.1195" id="Fill-244" fill="#62AA80"/>
            <path d="M227.8926,158.6136 C231.0406,159.3566 232.8906,159.8956 233.7746,164.3396 C234.6586,168.7866 232.1216,174.7726 233.8266,178.5366 C235.5296,182.3016 239.2596,191.3146 234.4056,196.4116 C229.5476,201.5076 208.1706,199.3716 204.7736,196.0196 C201.3736,192.6686 200.6446,191.3146 202.6636,183.1476 C204.6846,174.9876 203.0716,169.2466 202.6206,165.6606 C202.0326,160.9636 203.3726,158.7096 207.3786,157.7626 C211.3856,156.8196 217.7526,156.2086 227.8926,158.6136" id="Fill-246" fill="#176545"/>
            <polygon id="Fill-248" fill="#EBA376" points="209.6123 231.7777 208.4813 236.4337 204.6653 235.2527 205.9143 230.9647"/>
            <path d="M235.7978,215.6097 C235.9688,215.8427 238.5408,220.1607 236.5498,224.3477 C234.5618,228.5357 229.2078,228.4517 228.4028,225.6237 C227.5998,222.7977 232.3308,210.9447 235.7978,215.6097" id="Fill-250" fill="#E5BD37"/>
            <path d="M228.3154,224.8993 C228.2604,221.2083 232.5774,211.2733 235.7974,215.6093 C235.8574,215.6913 236.2074,216.2733 236.5544,217.1663 C236.9434,218.7783 237.0564,220.8413 236.0884,222.8763 C234.2944,226.6513 229.7814,226.9463 228.3154,224.8993" id="Fill-252" fill="#CB9F2A"/>
            <path d="M232.164,193.8534 C232.164,193.8534 232.223,203.6614 232.353,210.6784 C233.584,210.8884 235.117,213.5914 235.799,215.6094 C236.479,217.6314 236.975,223.9904 232.06,224.8414 C227.146,225.6914 218.494,221.8874 218.382,207.1914 C218.178,206.9224 216.296,206.7504 216.296,206.7504 C216.296,206.7504 217.681,220.8134 210.376,233.6074 C206.901,230.2494 202.153,230.7404 202.153,230.7404 C202.153,230.7404 206.06,209.9254 203.147,193.8004 C209.126,193.5414 232.164,193.8534 232.164,193.8534" id="Fill-254" fill="#464646"/>
            <path d="M231.4463,194.8094 C231.4783,195.3714 231.6603,200.8384 231.5773,204.2164 C226.0933,199.3374 210.4693,196.4634 204.7293,201.5734 C204.9833,196.3634 204.0883,193.0424 204.0883,193.0424 L231.4463,194.8094 Z" id="Fill-256" fill="#353535"/>
            <path d="M232.5547,215.6766 L232.5587,215.6766 C232.6367,215.6706 232.6917,215.6036 232.6857,215.5246 C232.4587,213.2346 232.4947,210.7086 232.4947,210.6806 C232.4957,210.6026 232.4347,210.5396 232.3557,210.5396 C232.2657,210.5276 232.2147,210.6006 232.2127,210.6786 C232.2127,210.7016 232.1787,213.2436 232.4067,215.5536 C232.4137,215.6286 232.4787,215.6826 232.5547,215.6766" id="Fill-258" fill="#4C4E4E"/>
            <path d="M208.915,232.4545 C213.596,222.9935 213.659,206.5295 213.659,206.5295 C213.659,206.5295 214.868,206.3695 215.729,206.6905 C215.338,221.1975 210.951,231.1065 209.934,233.2185 C209.6,232.9315 209.262,232.6765 208.915,232.4545" id="Fill-260" fill="#353535"/>
            <path d="M220.9599,207.3094 C221.0349,207.3084 221.0949,207.2424 221.0909,207.1654 C221.0889,207.0894 221.0229,207.0294 220.9439,207.0294 C220.9059,207.0334 216.8169,207.1634 213.4459,206.0734 C213.3689,206.0554 213.2919,206.0904 213.2699,206.1634 C213.2429,206.2394 213.2829,206.3184 213.3599,206.3414 C216.7799,207.4474 220.9149,207.3114 220.9569,207.3094 L220.9599,207.3094 Z" id="Fill-262" fill="#4C4E4E"/>
            <path d="M209.0029,234.142 C204.2929,230.496 196.5639,226.606 195.7719,233.71 C197.0469,236.555 201.7029,238.603 206.9349,238.398 C207.9579,238.355 209.3649,237.398 209.0029,234.142" id="Fill-264" fill="#E5BD37"/>
            <path d="M206.206,237.1761 C201.714,237.3531 197.646,235.8661 195.782,233.6371 C195.923,232.4601 196.259,231.5951 196.738,230.9811 C198.853,232.1491 201.752,232.8331 204.866,232.7121 C205.269,232.6971 205.728,232.5331 206.116,232.1511 C206.886,232.6211 207.631,233.1221 208.324,233.6331 C208.417,236.3181 207.149,237.1401 206.206,237.1761" id="Fill-266" fill="#CB9F2A"/>
            <path d="M195.4385,234.434 C195.4585,234.266 195.2965,233.648 195.8185,232.916 C198.7175,230.088 207.6135,235.548 208.6655,237.17 C208.6265,238.11 208.0555,238.81 207.4995,238.834 C202.2695,239.037 196.7145,237.285 195.4385,234.434" id="Fill-268" fill="#E4E0EA"/>
            <path d="M195.457,234.7123 C195.475,234.5423 195.5,234.3863 195.529,234.2293 C198.43,231.4053 207.234,236.6653 208.287,238.2853 C207.848,239.0763 207.177,239.3773 206.618,239.3993 C201.39,239.6063 196.731,237.5613 195.457,234.7123" id="Fill-270" fill="#C7C4CD"/>
            <path d="M255.8613,181.621 C253.7553,187.128 250.5233,195.66 248.0013,201.865 C246.8593,204.456 245.1253,202.553 245.7293,201.002 C246.3383,199.454 252.6623,181.885 253.2653,180.38 C254.1323,178.211 256.8103,179.146 255.8613,181.621" id="Fill-272" fill="#464646"/>
            <path d="M247.2969,202.7894 C245.8879,206.4144 242.5639,215.4694 240.9009,219.5564 C240.1489,221.2664 239.0059,220.0134 239.4049,218.9914 C239.8029,217.9694 245.2609,203.1134 245.6879,202.1374 C246.0419,201.3344 247.6479,201.8854 247.2969,202.7894" id="Fill-274" fill="#828282"/>
            <path d="M240.4629,220.0853 C239.5499,222.4293 233.5899,238.6453 232.5149,241.2933 C232.0269,242.3973 231.2889,241.5863 231.5469,240.9243 C231.8039,240.2643 239.1449,220.2973 239.4209,219.6643 C239.6499,219.1423 240.6899,219.5003 240.4629,220.0853" id="Fill-276" fill="#464646"/>
            <path d="M194.0049,189.3925 C194.0049,189.3925 193.0629,191.1355 193.7129,192.6215 C194.2209,193.7835 194.7339,194.9725 194.0419,195.4945 C193.0419,196.2495 192.0979,193.8405 192.0979,193.8405 C192.0979,193.8405 190.4109,195.3895 190.8389,197.2095 C191.2679,199.0345 190.1479,200.3005 189.3729,198.0175 C188.3119,199.1235 187.5219,197.9665 187.5259,196.6795 C186.8849,198.0835 185.7139,197.2665 186.2609,195.6275 C185.5869,196.4685 185.1569,195.5575 185.6169,194.4275 C186.5189,192.2235 189.5569,188.8505 191.7769,188.3995 C192.5299,188.9175 194.0049,189.3925 194.0049,189.3925" id="Fill-278" fill="#EBA376"/>
            <path d="M189.3769,198.1576 C189.3949,198.1536 189.4069,198.1516 189.4209,198.1516 C189.4929,198.1206 189.5299,198.0366 189.5039,197.9666 C189.1229,196.9686 189.8429,195.1776 189.8539,195.1566 C189.8819,195.0836 189.8479,195.0036 189.7769,194.9716 C189.7039,194.9466 189.6209,194.9786 189.5919,195.0516 C189.5619,195.1296 188.8219,196.9666 189.2409,198.0686 C189.2639,198.1246 189.3209,198.1596 189.3769,198.1576" id="Fill-280" fill="#CE7754"/>
            <path d="M187.5351,196.8197 C187.6111,196.8157 187.6711,196.7467 187.6661,196.6717 C187.6031,195.5957 188.6211,194.1887 188.6311,194.1737 C188.6761,194.1117 188.6641,194.0227 188.6011,193.9797 C188.5391,193.9307 188.4511,193.9457 188.4081,194.0087 C188.3591,194.0707 187.3141,195.5077 187.3871,196.6897 C187.3911,196.7657 187.4561,196.8217 187.5351,196.8197" id="Fill-282" fill="#CE7754"/>
            <path d="M186.2676,195.7665 C186.3296,195.7655 186.3846,195.7205 186.3976,195.6555 C186.6206,194.5085 187.5476,193.3495 187.5536,193.3395 C187.6046,193.2795 187.5936,193.1915 187.5356,193.1415 C187.4746,193.0945 187.3846,193.1015 187.3356,193.1635 C187.2966,193.2125 186.3576,194.3825 186.1236,195.6025 C186.1086,195.6785 186.1556,195.7525 186.2346,195.7665 C186.2466,195.7665 186.2556,195.7705 186.2676,195.7665" id="Fill-284" fill="#CE7754"/>
            <path d="M223.8232,157.8339 C228.7382,159.5409 232.2192,161.2549 232.9292,168.5899 C233.6962,176.4799 230.8332,186.4479 232.9962,194.5389 C227.3192,198.3869 210.2152,196.8959 202.8492,193.5369 C199.8512,172.3569 205.0052,166.7839 205.4062,161.6359 C208.9962,157.2659 217.9432,155.7879 223.8232,157.8339" id="Fill-286" fill="#009FD0"/>
            <path d="M206.5996,160.4408 C204.6646,162.1688 204.8706,160.2498 197.4466,176.2078 C193.7486,184.1538 190.5946,188.2818 190.5946,188.2818 C190.5946,188.2818 193.0486,189.4028 194.9616,190.8368 C197.0786,188.6048 201.0976,180.4348 202.9716,175.1948 C204.4576,164.6388 206.5996,160.4408 206.5996,160.4408" id="Fill-288" fill="#009FD0"/>
            <path d="M216.082,153.6644 L216.199,156.4424 C216.199,156.4424 214.579,156.8074 213.222,157.1954 C211.867,157.5904 214.317,160.3144 217.331,160.2324 C221.211,160.1234 221.693,156.5634 221.693,156.5634 L218.846,156.3144 L218.353,153.3674 L216.082,153.6644 Z" id="Fill-290" fill="#EBA376"/>
            <path d="M218.6445,156.3578 C217.9755,155.6468 216.5245,156.1428 216.4335,156.1428 L216.3485,154.1568 L218.2345,153.9138 L218.6445,156.3578 Z" id="Fill-292" fill="#EAAD85"/>
            <path d="M245.4521,180.2801 C245.4521,180.2801 248.8171,184.9201 249.7511,186.6551 C248.7291,187.4841 248.0411,190.2361 249.1311,190.5321 C250.2201,190.8231 250.0851,188.7711 250.9971,188.6051 C251.3791,188.5301 251.8511,188.5081 252.0991,189.6821 C252.3481,190.8611 251.5921,191.6361 252.0451,192.3391 C252.6821,193.3321 253.6251,192.3321 253.6621,191.9731 C254.2341,192.5931 255.6201,191.8571 255.5091,190.9721 C256.4501,191.8101 256.7671,190.7821 256.9391,189.9961 C257.6341,189.6571 257.3591,188.4351 256.4651,187.4151 C255.5741,186.3961 254.3381,185.7311 252.8111,185.0441 C251.7911,183.8541 248.1781,179.0251 248.1781,179.0251 L245.4521,180.2801 Z" id="Fill-294" fill="#EBA376"/>
            <path d="M253.6699,192.1136 C253.7209,192.1116 253.7649,192.0806 253.7869,192.0326 C254.5029,190.5746 253.9039,189.5006 253.8789,189.4536 C253.8389,189.3886 253.7549,189.3656 253.6879,189.4036 C253.6209,189.4436 253.5969,189.5296 253.6359,189.5946 C253.6579,189.6336 254.1859,190.5896 253.5359,191.9116 C253.5029,191.9806 253.5319,192.0636 253.6019,192.0996 C253.6239,192.1116 253.6459,192.1136 253.6699,192.1136" id="Fill-296" fill="#CE7754"/>
            <path d="M255.5166,191.1132 C255.5786,191.1092 255.6326,191.0622 255.6456,190.9982 C255.9366,189.5442 255.0946,188.8922 255.0586,188.8692 C254.9986,188.8202 254.9096,188.8332 254.8646,188.8922 C254.8166,188.9572 254.8296,189.0412 254.8906,189.0892 C254.9186,189.1142 255.6256,189.6702 255.3706,190.9452 C255.3566,191.0192 255.4066,191.0942 255.4826,191.1092 C255.4936,191.1132 255.5056,191.1132 255.5166,191.1132" id="Fill-298" fill="#CE7754"/>
            <path d="M256.9482,190.1341 C256.9552,190.1341 256.9602,190.1321 256.9682,190.1321 C257.0432,190.1181 257.0932,190.0431 257.0772,189.9671 C256.8132,188.6251 256.1082,188.2161 256.0772,188.1971 C256.0102,188.1651 255.9252,188.1851 255.8862,188.2541 C255.8482,188.3221 255.8742,188.4061 255.9392,188.4461 C255.9452,188.4501 256.5642,188.8151 256.8002,190.0221 C256.8162,190.0911 256.8782,190.1401 256.9482,190.1341" id="Fill-300" fill="#CE7754"/>
            <path d="M229.4394,160.576 C231.1984,161.81 242.3154,170.258 251.7934,183.144 C250.5874,182.943 248.7664,184.116 247.8734,186.414 C244.2914,181.636 236.7124,174.409 233.0784,171.11 C228.9004,166.931 229.4394,160.576 229.4394,160.576" id="Fill-302" fill="#009FD0"/>
            <path d="M228.3574,158.036 C228.3574,158.036 224.7254,170.098 227.6744,177.32 C230.6224,184.536 236.9384,189.828 236.9384,189.828 L236.6014,184.082 C236.6014,184.082 232.5904,181.675 230.6414,175.204 C228.3634,167.632 231.3374,159.283 231.3374,159.283 L228.3574,158.036 Z" id="Fill-304" fill="#1C8F66"/>
            <path d="M220.0849,156.4159 C220.7729,157.4769 219.7209,159.5889 216.9479,160.3189 C216.8529,162.7569 220.5399,163.0129 222.7419,161.4919 C224.9449,159.9699 224.8889,158.3249 223.7689,157.3029 C221.9379,155.9239 220.0849,156.4159 220.0849,156.4159" id="Fill-306" fill="#FFFFFF"/>
            <path d="M214.8955,156.6761 C214.2455,157.7861 214.5955,159.5781 216.9665,160.3351 C216.3135,162.5421 214.0305,162.9021 212.4395,161.7411 C210.8495,160.5801 210.2505,158.7221 211.4995,157.5451 C212.5605,156.5421 214.8955,156.6761 214.8955,156.6761" id="Fill-308" fill="#FFFFFF"/>
            <path d="M207.8047,157.618 C207.8047,157.618 203.8277,166.71 201.9757,178.407 C201.1467,181.051 201.6967,183.062 201.6967,183.062 C201.6967,183.062 208.2437,161.527 211.3297,156.941 C209.2497,156.594 207.8047,157.618 207.8047,157.618" id="Fill-310" fill="#1C8F66"/>
            <path d="M191.4033,113.2806 C187.8973,121.3306 190.0803,146.0726 211.0113,153.2126 C229.6413,159.5666 248.4123,144.0696 251.8763,128.0176 C255.3403,111.9656 237.5843,102.1786 224.3043,98.7836 C202.8583,93.2996 191.4033,113.2806 191.4033,113.2806" id="Fill-312" fill="#EBA376"/>
            <path d="M191.4033,113.2806 C191.4033,113.2806 195.0663,92.3456 224.3043,98.7836 C237.6903,101.7316 255.3403,111.9656 251.8763,128.0176 C251.5503,129.5076 251.0993,130.9906 250.5273,132.4546 C249.9023,133.0026 249.5583,133.9266 249.3863,135.0106 C248.6823,136.4376 247.8693,137.8306 246.9453,139.1766 C246.5933,138.2876 245.6233,137.4376 245.9733,136.3076 C244.7253,138.6676 241.6803,142.8396 236.9533,139.9156 C241.3943,140.4706 244.1693,136.0306 245.6843,131.8216 C240.2733,136.9526 236.4253,131.2656 236.4253,131.2656 C236.4253,131.2656 242.9673,133.2716 245.6733,126.7536 C248.3803,120.2366 241.2023,115.8526 241.5393,114.5136 C233.4953,116.4906 225.9843,112.1066 220.8113,107.8976 C219.9673,109.9006 219.3513,114.3536 227.3633,119.5786 C224.6833,119.8976 219.9673,117.6456 215.3093,111.2696 C214.9393,118.1246 215.8933,119.5226 219.7333,122.3836 C208.7063,117.8126 210.8003,111.8036 212.3343,105.6176 C203.0883,114.6226 199.3613,113.3296 196.1933,110.6396 C188.2543,119.7966 197.1323,124.9296 197.1323,124.9296 C197.1323,124.9296 193.6213,125.1946 192.6233,123.6836 C192.8333,126.2516 192.1323,127.1216 191.2073,128.5816 C189.8733,122.0886 189.9713,116.5526 191.4033,113.2806" id="Fill-314" fill="#EAAD85"/>
            <path d="M245.6836,131.8212 C245.6836,131.8212 247.7556,128.3712 251.7826,129.5112 C256.0266,130.7202 255.1496,136.9772 251.3696,139.6932 C247.5906,142.4042 243.6636,141.0382 242.8746,138.6432 L245.6836,131.8212 Z" id="Fill-316" fill="#EBA376"/>
            <path d="M251.6084,131.4593 C251.6084,131.4593 251.5734,131.4493 251.5044,131.4333 C251.4384,131.4073 251.3454,131.3893 251.2134,131.3753 C251.0854,131.3643 250.9294,131.3613 250.7454,131.3813 C250.5674,131.4033 250.3654,131.4583 250.1624,131.5543 C249.7534,131.7363 249.3294,132.0613 248.9684,132.4853 C248.6014,132.9063 248.2974,133.4233 248.0534,133.9593 C247.9414,134.2343 247.8284,134.5063 247.7424,134.7853 C247.6514,135.0573 247.5834,135.3343 247.5234,135.6013 C247.4034,136.1433 247.3514,136.6543 247.3214,137.0953 C247.3034,137.3123 247.3014,137.5143 247.3034,137.6873 C247.3014,137.8693 247.3094,138.0233 247.3124,138.1493 C247.3314,138.4053 247.3444,138.5523 247.3444,138.5523 C247.3444,138.5523 247.3514,138.4033 247.3664,138.1493 C247.3824,137.8973 247.4134,137.5343 247.4664,137.1073 C247.5214,136.6743 247.6204,136.1783 247.7484,135.6613 C247.8174,135.3983 247.8984,135.1323 247.9874,134.8613 C248.0804,134.5923 248.1834,134.3343 248.2974,134.0703 C248.5284,133.5493 248.8154,133.0483 249.1454,132.6313 C249.3164,132.4303 249.4894,132.2353 249.6674,132.0743 C249.8514,131.9183 250.0404,131.7833 250.2284,131.6863 C250.4184,131.5853 250.5974,131.5183 250.7654,131.4783 C250.9364,131.4413 251.0854,131.4263 251.2124,131.4263 C251.3364,131.4263 251.4374,131.4333 251.5024,131.4413 C251.5684,131.4583 251.6084,131.4593 251.6084,131.4593" id="Fill-318" fill="#DE9173"/>
            <path d="M248.1201,134.556 C248.1221,134.552 248.1641,134.519 248.2591,134.465 C248.3521,134.414 248.4871,134.343 248.6591,134.286 C248.7491,134.257 248.8481,134.23 248.9491,134.207 C249.0511,134.181 249.1601,134.179 249.2751,134.171 C249.3901,134.171 249.5091,134.174 249.6241,134.202 C249.7501,134.215 249.8611,134.267 249.9751,134.31 C250.0831,134.368 250.1961,134.43 250.2911,134.5 C250.3821,134.583 250.4841,134.655 250.5581,134.747 C250.6351,134.837 250.7121,134.921 250.7761,135.011 C250.8371,135.103 250.8891,135.191 250.9371,135.273 C251.0411,135.433 251.0941,135.588 251.1461,135.687 C251.1911,135.79 251.2191,135.843 251.2191,135.843 C251.2191,135.843 251.1941,135.785 251.1541,135.681 C251.1101,135.579 251.0741,135.421 250.9741,135.254 C250.9301,135.168 250.8801,135.074 250.8271,134.978 C250.7661,134.877 250.6921,134.787 250.6211,134.688 C250.5531,134.59 250.4491,134.51 250.3611,134.418 C250.2611,134.337 250.1511,134.261 250.0351,134.192 C249.9121,134.141 249.7951,134.075 249.6621,134.048 C249.5341,134.009 249.4021,134 249.2791,133.987 C249.1531,133.991 249.0281,133.987 248.9161,134.009 C248.8041,134.024 248.6931,134.044 248.5971,134.073 C248.4061,134.124 248.2481,134.188 248.1411,134.244 C248.0911,134.267 248.0461,134.292 248.0161,134.304 C247.9901,134.318 247.9771,134.33 247.9771,134.33 C247.9151,134.361 247.8911,134.447 247.9271,134.506 C247.9541,134.564 248.0241,134.585 248.0891,134.564 L248.1201,134.556 Z" id="Fill-320" fill="#DE9173"/>
            <path d="M203.2334,111.58 C206.6124,110.678 207.2594,114.387 205.0254,114.358 C202.6384,114.328 200.6224,115.167 200.3264,114.928 C199.6744,114.417 201.3414,112.079 203.2334,111.58" id="Fill-322" fill="#181414"/>
            <path d="M233.9805,117.5507 C231.1865,115.4557 229.2025,118.6557 231.2765,119.4647 C233.5115,120.3277 235.0635,121.8617 235.4245,121.7517 C236.2255,121.5187 235.5505,118.7327 233.9805,117.5507" id="Fill-324" fill="#181414"/>
            <path d="M213.2168,132.3876 C213.1758,132.3986 213.1318,132.3946 213.0938,132.3696 C211.9878,131.7846 211.4618,130.7756 211.6868,129.6746 C211.8918,128.6466 212.7048,127.8116 213.5848,127.7276 C214.1238,127.6846 215.1508,127.8796 215.8958,129.7356 C215.9268,129.8166 215.8868,129.9176 215.8048,129.9476 C215.7148,129.9856 215.6238,129.9406 215.5918,129.8526 C215.1018,128.6226 214.3928,127.9796 213.6128,128.0596 C212.8678,128.1196 212.1838,128.8426 212.0018,129.7316 C211.9118,130.1906 211.8428,131.3446 213.2478,132.0846 C213.3258,132.1336 213.3588,132.2246 213.3198,132.3026 C213.2928,132.3476 213.2578,132.3786 213.2168,132.3876" id="Fill-326" fill="#CE7754"/>
            <path d="M231.9014,128.7035 C231.8694,128.7165 231.8334,128.7185 231.7994,128.7205 C231.6064,128.7165 231.4554,128.5555 231.4584,128.3645 C231.5314,125.2565 229.3774,123.0975 227.3314,123.0235 C225.7304,122.9675 224.7194,124.2065 224.6174,126.3335 C224.6144,126.5285 224.4504,126.6775 224.2524,126.6625 C224.0584,126.6565 223.9124,126.4975 223.9224,126.2995 C224.0644,123.2945 225.7864,122.2735 227.3494,122.3275 C229.7344,122.4105 232.2344,124.8625 232.1584,128.3795 C232.1584,128.5355 232.0464,128.6655 231.9014,128.7035" id="Fill-328" fill="#181414"/>
            <path d="M208.581,123.8568 C208.55,123.8628 208.514,123.8668 208.477,123.8668 C208.286,123.8628 208.136,123.7088 208.143,123.5118 C208.201,120.5708 206.168,118.5238 204.231,118.4598 C202.727,118.4088 201.77,119.5788 201.678,121.5838 C201.671,121.7738 201.507,121.9278 201.316,121.9178 C201.121,121.9068 200.972,121.7478 200.98,121.5508 C201.116,118.6798 202.763,117.7118 204.258,117.7658 C206.526,117.8468 208.906,120.1788 208.832,123.5228 C208.831,123.6858 208.727,123.8138 208.581,123.8568" id="Fill-330" fill="#181414"/>
            <path d="M223.2793,138.7997 C223.1003,138.7147 222.8203,138.8207 222.7593,139.0007 C222.6923,139.2067 222.7693,139.2917 222.7693,139.2917 C222.7693,139.2917 219.2353,140.6877 213.8003,140.3737 C209.0933,140.1017 204.9833,137.4787 204.9833,137.4787 C204.9833,137.4787 205.0653,137.3967 205.0513,137.3007 C205.0413,137.2217 204.9933,137.0927 204.8703,137.0767 C204.3663,137.0097 204.4083,137.5767 204.5043,138.5737 C204.6173,138.0777 204.8223,137.7777 204.8223,137.7777 L204.9963,137.8457 C204.9963,137.8457 207.1053,147.8357 213.1303,147.9557 C219.1543,148.0767 222.7763,139.5967 222.7763,139.5967 L222.9333,139.5527 C222.9333,139.5527 223.1583,139.7867 223.1593,140.4547 C223.6323,139.5167 223.8443,139.0707 223.2793,138.7997" id="Fill-332" fill="#000000"/>
            <path d="M213.9824,144.4574 C214.2504,144.1754 214.6404,143.8854 214.6404,143.8854 C211.3974,142.2234 209.2594,143.8734 208.3354,144.9554 C209.3524,146.0594 210.9754,148.2724 214.4394,147.6584 C217.7804,147.0644 220.2914,143.3304 220.2914,143.3304 C217.1944,141.7054 214.7004,143.9154 213.9824,144.4574" id="Fill-334" fill="#EA0000"/>
            <path d="M205.7646,138.2723 C205.7646,138.2723 205.8906,139.4453 206.0496,139.7563 C207.8386,143.2623 212.7276,142.9543 221.4146,141.3833 C221.7456,141.3233 222.1636,139.8083 222.1636,139.8083 C215.6756,141.2933 210.9636,141.0283 205.7646,138.2723" id="Fill-336" fill="#FFFFFF"/>
            <path d="M211.8379,104.8383 C210.2129,111.4153 211.0909,116.9273 222.8069,121.7803 C218.7259,118.7393 213.9739,116.4513 214.3629,109.1663 C219.3129,115.9463 227.4419,118.4223 230.2919,118.0793 C221.7819,112.5313 219.3119,107.7153 220.2079,105.5873 C225.6989,110.0543 233.6839,114.7123 242.2339,112.6153 C241.8679,114.0403 249.4949,118.6923 246.6199,125.6153 C243.7479,132.5413 236.8259,128.5983 236.8259,128.5983 C236.8259,128.5983 240.7089,136.0823 247.8499,128.9983 C243.9119,135.3833 240.8029,139.7663 237.0729,138.3243 C242.9339,140.8433 244.4259,140.0133 247.8199,135.5753 C246.5619,139.6673 251.3229,139.1153 251.3229,139.1153 C251.3229,139.1153 247.1609,134.6103 252.2849,131.3343 C256.7399,129.0413 262.4869,115.5463 254.1859,103.5963 C245.8789,91.6503 218.6919,86.5493 205.3409,89.8743 C191.9899,93.1933 183.9019,111.8363 187.5839,124.3003 C187.7489,126.9653 187.1709,129.2553 184.5079,128.5283 C187.8799,129.7913 190.7689,128.5823 190.2609,122.3553 C191.8599,126.0383 195.0439,126.6433 195.0439,126.6433 C195.0439,126.6433 189.5509,122.7093 194.0569,108.4973 C196.8269,110.4853 203.6929,112.1073 211.8379,104.8383" id="Fill-338" fill="#181414"/>
            <path d="M235.7246,123.4877 C235.7246,123.4877 229.1326,119.6907 217.9876,118.0347 C217.2006,120.6767 216.0166,128.1487 217.7346,130.0047 C219.6506,132.0757 226.8936,134.6087 230.9266,133.4237 C234.0376,132.5017 235.7246,123.4877 235.7246,123.4877" id="Fill-340" fill="#464646"/>
            <path d="M234.1142,123.8968 C234.1142,123.8968 228.5392,120.6858 219.1132,119.2848 C218.4472,121.5188 217.3952,127.6918 218.9722,129.1388 C220.5492,130.5908 227.4642,132.9208 230.0422,131.9878 C232.6192,131.0578 234.1142,123.8968 234.1142,123.8968" id="Fill-342" fill="#1B1B1B"/>
            <path d="M195.9678,115.9423 C195.9678,115.9423 203.1548,114.8293 213.6618,117.2013 C213.4518,119.8283 212.0218,127.0543 209.7698,127.9383 C207.5198,128.8213 199.9908,128.8663 196.9898,126.3843 C194.6048,124.4113 195.9678,115.9423 195.9678,115.9423" id="Fill-344" fill="#464646"/>
            <path d="M197.2666,116.8641 C197.2666,116.8641 203.3406,115.9231 212.2266,117.9261 C212.0476,120.1451 210.8576,126.0111 208.9546,126.7601 C207.0476,127.5121 200.0786,127.2001 198.1056,125.4791 C196.1266,123.7561 197.2666,116.8641 197.2666,116.8641" id="Fill-346" fill="#1B1B1B"/>
            <path d="M218.2041,120.0741 C218.4971,120.0741 218.7591,119.8651 218.8121,119.5621 C218.8741,119.2251 218.5381,118.9451 218.2021,118.8841 L213.1391,117.9121 C212.7981,117.8511 212.4781,118.0731 212.4161,118.4111 C212.3581,118.7481 212.2771,120.2201 212.6151,120.2791 L217.7861,121.213123 C217.8261,121.2191 218.1661,120.0741 218.2041,120.0741" id="Fill-348" fill="#464646"/>
            <path d="M227.2676,132.118 L223.2306,120.053 C222.7806,119.95 222.3136,119.853 221.8386,119.758 L225.1296,131.722 C225.8616,131.899 226.5876,132.038 227.2676,132.118 L227.2676,132.118 Z M232.8546,128.097 C232.3856,129.282 231.7976,130.452 231.1036,131.216 L225.5496,120.629 C226.5456,120.899 227.4576,121.178 228.2926,121.458 L232.8546,128.097 Z" id="Fill-350" fill="#373838"/>
            <path d="M201.8633,116.6508 L206.3403,127.1368 C205.9093,127.1458 205.4533,127.1458 204.9853,127.1328 L200.5353,116.6488 C200.9423,116.6398 201.3873,116.6398 201.8633,116.6508" id="Fill-352" fill="#373838"/>
            <path d="M211.4287,122.225 C211.1257,123.346 210.7417,124.446 210.2867,125.294 L205.3077,116.837 C206.1787,116.914 207.1047,117.021 208.0817,117.162 L211.4287,122.225 Z" id="Fill-354" fill="#373838"/>
            <path d="M235.4805,123.4877 L248.5685,128.4557 C248.5685,128.4557 249.2425,129.6477 248.0515,129.4367 C241.4805,128.1957 234.5475,126.6437 234.5475,126.6437 L235.4805,123.4877 Z" id="Fill-356" fill="#464646"/>
            <path d="M196.2139,116.1952 L191.8689,116.9172 C191.8689,116.9172 190.8339,117.7452 191.7649,118.1102 C193.6279,118.2122 195.9039,118.6262 195.9039,118.6262 L196.2139,116.1952 Z" id="Fill-358" fill="#464646"/>
        </g>
    </g>
</svg>