<svg width="39" height="39" viewBox="0 0 39 39" fill="none" xmlns="http://www.w3.org/2000/svg">
<path d="M37.1257 36.8336H8.10779C4.98803 36.8336 2.45898 34.3045 2.45898 31.1848V30.1014C2.45898 26.9817 4.98803 24.4526 8.10779 24.4526H37.1257V36.8336Z" fill="#FFEBB7"/>
<path d="M6.7925 25.6904H3.69727V35.5952H6.7925V25.6904Z" fill="#5C546A"/>
<path d="M34.185 22.5954H1.2207V13.9287H34.185C35.1252 13.9287 35.8874 14.6909 35.8874 15.6311V20.893C35.8874 21.8332 35.1252 22.5954 34.185 22.5954Z" fill="#FFEBB7"/>
<path d="M37.1261 2.78564H5.55469V12.0714H37.1261V2.78564Z" fill="#FFEBB7"/>
<path d="M37.143 38.0715H8.66685C4.57077 38.0715 1.23828 34.7393 1.23828 30.6429C1.23828 26.5465 4.57077 23.2144 8.66685 23.2144H37.143C37.8268 23.2144 38.3811 23.7687 38.3811 24.4525C38.3811 25.1362 37.8268 25.6905 37.143 25.6905H8.66685C5.93616 25.6905 3.71447 27.9122 3.71447 30.6429C3.71447 33.3736 5.93616 35.5953 8.66685 35.5953H37.143C37.8268 35.5953 38.3811 36.1497 38.3811 36.8334C38.3811 37.5171 37.8268 38.0715 37.143 38.0715Z" fill="#00C37A"/>
<path d="M33.4286 23.2143H0.619048C0.276869 23.2143 0 22.9375 0 22.5953C0 22.2531 0.276869 21.9762 0.619048 21.9762H33.4286C34.4526 21.9762 35.2857 21.1431 35.2857 20.1191V16.4048C35.2857 15.3807 34.4526 14.5477 33.4286 14.5477H0.619048C0.276869 14.5477 0 14.2708 0 13.9286C0 13.5864 0.276869 13.3096 0.619048 13.3096H33.4286C35.1352 13.3096 36.5238 14.6982 36.5238 16.4048V20.1191C36.5238 21.8257 35.1352 23.2143 33.4286 23.2143Z" fill="#009BCA"/>
<path d="M37.1265 5.88116H8.6503C8.30843 5.88116 8.03125 5.60398 8.03125 5.26211C8.03125 4.92024 8.30843 4.64307 8.6503 4.64307H37.1265V5.88116Z" fill="#E6BE94"/>
<path d="M37.1265 8.35723H8.6503C8.30843 8.35723 8.03125 8.08006 8.03125 7.73819C8.03125 7.39632 8.30843 7.11914 8.6503 7.11914H37.1265V8.35723Z" fill="#E6BE94"/>
<path d="M37.1265 10.8333H8.6503C8.30843 10.8333 8.03125 10.5561 8.03125 10.2143C8.03125 9.87239 8.30843 9.59521 8.6503 9.59521H37.1265V10.8333Z" fill="#E6BE94"/>
<path d="M1.2207 15.7856H33.4112C33.7531 15.7856 34.0302 16.0628 34.0302 16.4047C34.0302 16.7466 33.7531 17.0237 33.4112 17.0237H1.2207C1.2207 17.0237 1.2207 15.7856 1.2207 15.7856Z" fill="#E6BE94"/>
<path d="M1.2207 18.2622H33.4112C33.7531 18.2622 34.0302 18.5394 34.0302 18.8813C34.0302 19.2231 33.7531 19.5003 33.4112 19.5003H1.2207C1.2207 19.5003 1.2207 18.2622 1.2207 18.2622Z" fill="#E6BE94"/>
<path d="M1.2207 20.7383H33.4112C33.7531 20.7383 34.0302 21.0155 34.0302 21.3573C34.0302 21.6992 33.7531 21.9764 33.4112 21.9764H1.2207C1.2207 21.9764 1.2207 20.7383 1.2207 20.7383Z" fill="#E6BE94"/>
<path d="M37.7626 13.3097H8.04827C6.00007 13.3097 4.33398 11.6436 4.33398 9.59538V4.643C4.33398 2.5948 6.00007 0.928711 8.04827 0.928711H37.7626C38.4463 0.928711 39.0006 1.48307 39.0006 2.16681C39.0006 2.85054 38.4463 3.4049 37.7626 3.4049H8.04827C7.36546 3.4049 6.81017 3.96019 6.81017 4.643V9.59538C6.81017 10.2779 7.36546 10.8335 8.04827 10.8335H37.7626C38.4463 10.8335 39.0006 11.3878 39.0006 12.0716C39.0006 12.7553 38.4463 13.3097 37.7626 13.3097Z" fill="#FF4F19"/>
<path d="M8.6503 34.3574C8.30812 34.3574 8.03125 34.6343 8.03125 34.9765C8.03125 35.3186 8.30812 35.5955 8.6503 35.5955H37.1265V34.3574H8.6503Z" fill="#E6BE94"/>
<path d="M8.6503 31.8809C8.30812 31.8809 8.03125 32.1577 8.03125 32.4999C8.03125 32.8421 8.30812 33.119 8.6503 33.119H37.1265V31.8809H8.6503Z" fill="#E6BE94"/>
<path d="M8.6503 29.4048C8.30812 29.4048 8.03125 29.6816 8.03125 30.0238C8.03125 30.366 8.30812 30.6429 8.6503 30.6429H37.1265V29.4048H8.6503Z" fill="#E6BE94"/>
<path d="M8.6503 26.9287C8.30812 26.9287 8.03125 27.2056 8.03125 27.5478C8.03125 27.8899 8.30812 28.1668 8.6503 28.1668H37.1265V26.9287H8.6503Z" fill="#E6BE94"/>
</svg>
