<svg width="52" height="49" viewBox="0 0 52 49" fill="none" xmlns="http://www.w3.org/2000/svg">
<g clip-path="url(#clip0)">
<path d="M30.4234 35.8956H21.2285V37.6712H30.4234V35.8956Z" fill="#FFDA2D"/>
<path d="M30.4236 35.8956H25.8262V37.6712H30.4236V35.8956Z" fill="#EEBF00"/>
<path d="M29.7528 27.0155H21.8965V28.7912H29.7528V27.0155Z" fill="#FFDA2D"/>
<path d="M29.7543 27.0155H25.8262V28.7912H29.7543V27.0155Z" fill="#EEBF00"/>
<path d="M31.1103 23.4624H20.541V25.2381H31.1103V23.4624Z" fill="#FFDA2D"/>
<path d="M31.1108 23.4624H25.8262V25.2381H31.1108V23.4624Z" fill="#EEBF00"/>
<path d="M29.7528 19.9093H21.8965V21.685H29.7528V19.9093Z" fill="#FFDA2D"/>
<path d="M29.7543 19.9093H25.8262V21.685H29.7543V19.9093Z" fill="#EEBF00"/>
<path d="M30.4234 11.0292H21.2285V12.8049H30.4234V11.0292Z" fill="#FFDA2D"/>
<path d="M30.4236 11.0292H25.8262V12.8049H30.4236V11.0292Z" fill="#EEBF00"/>
<path d="M31.9906 24.3502C31.9906 27.6002 28.7675 30.6372 25.8254 33.3205C25.7556 33.3909 25.6841 33.445 25.6143 33.5154C23.66 35.3091 21.4231 37.3518 21.4231 38.559V39.5064H19.6621V38.559C19.6621 36.5704 21.8812 34.5458 24.4349 32.1999C24.8931 31.774 25.3691 31.3482 25.8272 30.9042C28.1179 28.7551 30.2314 26.4633 30.2314 24.3502C30.2314 22.2371 28.1179 19.9454 25.8272 17.7962C25.3691 17.3523 24.8931 16.9264 24.4349 16.4987C21.8812 14.1547 19.6621 12.13 19.6621 10.1396V9.19223H21.4231V10.1396C21.4231 11.3468 23.66 13.3895 25.6143 15.1832C25.6841 15.2536 25.7556 15.3078 25.8254 15.3781C28.7675 18.0633 31.9906 21.1003 31.9906 24.3502Z" fill="#FA5E97"/>
<path d="M31.9913 24.3502C31.9913 27.6002 28.7683 30.6372 25.8262 33.3205V30.9042C28.1168 28.755 30.2303 26.4633 30.2303 24.3502C30.2303 22.2371 28.1168 19.9454 25.8262 17.7962V15.3817C28.7683 18.0633 31.9913 21.1003 31.9913 24.3502Z" fill="#D94F88"/>
<path d="M21.4213 24.3505C21.4213 26.4636 23.5348 28.7554 25.8254 30.9046C26.2836 31.3485 26.7596 31.7743 27.2177 32.2002C29.7715 34.5443 31.9906 36.569 31.9906 38.5593V39.5067H30.2296V38.5593C30.2296 37.3521 27.9926 35.3094 26.0384 33.5157C25.9686 33.4453 25.897 33.3912 25.8272 33.3208C22.8852 30.6393 19.6621 27.6023 19.6621 24.3505C19.6621 21.1006 22.8852 18.0636 25.8272 15.3803C25.897 15.3099 25.9686 15.2558 26.0384 15.1854C27.9926 13.3917 30.2296 11.349 30.2296 10.1417V9.19437H31.9906V10.1417C31.9906 12.1303 29.7715 14.155 27.2177 16.5009C26.7596 16.9267 26.2836 17.3544 25.8254 17.7983C23.5366 19.9457 21.4213 22.2374 21.4213 24.3505Z" fill="#25D9F8"/>
<path d="M31.9913 9.19354V10.1409C31.9913 12.1295 29.7722 14.1542 27.2185 16.5001C26.7603 16.9259 26.2843 17.3536 25.8262 17.7975V15.3812C25.896 15.3109 25.9675 15.2567 26.0373 15.1864C27.9916 13.3927 30.2286 11.3499 30.2286 10.1427V9.19535H31.9913V9.19354Z" fill="#00C0F1"/>
<path d="M31.9915 38.559V39.5064H30.2305V38.559C30.2305 37.3518 27.9935 35.3091 26.0393 33.5154C25.9695 33.445 25.8979 33.3909 25.8281 33.3205V30.9042C26.2863 31.3481 26.7623 31.774 27.2204 32.1999C29.7724 34.5458 31.9915 36.5704 31.9915 38.559Z" fill="#00C0F1"/>
<path d="M42.0076 11.594C41.2076 6.32122 37.2741 2.26827 32.3653 1.13683C31.9465 1.03939 31.9716 0.427655 32.3993 0.37352C32.4064 0.37352 32.4136 0.371715 32.4225 0.369911C39.2086 -0.470996 45.3952 4.29835 46.4117 11.0707C46.4421 11.2692 46.6229 11.4082 46.8215 11.3847L49.3431 11.0725C49.6706 11.0328 49.8817 11.41 49.6795 11.6716L45.2252 17.4208C45.1 17.5832 44.8673 17.6121 44.7063 17.4858L39.0046 12.9943C38.7451 12.7904 38.8597 12.3718 39.1872 12.3321L41.6872 12.0217C41.8948 11.9964 42.0398 11.8034 42.0076 11.594Z" fill="white"/>
<path d="M49.3404 11.0747L46.8189 11.3869C46.6203 11.4121 46.4395 11.2732 46.4091 11.0729C45.3926 4.29869 39.206 -0.468861 32.4199 0.372046C32.3376 0.382873 32.2534 0.391896 32.1711 0.455054C31.8222 0.71671 31.9098 1.03611 32.334 1.13175C33.0087 1.28513 33.6636 1.49446 34.2972 1.75431C38.9787 2.7883 42.7959 6.47494 43.8876 11.3526C44.0468 12.0635 44.7072 12.5435 45.423 12.4533L46.3858 12.3342C46.9334 12.2675 47.2896 12.9008 46.9495 13.3393L44.1023 17.0134L44.7018 17.4843C44.8629 17.6106 45.0955 17.5818 45.2208 17.4212L49.6751 11.672C49.8791 11.4121 49.6679 11.0332 49.3404 11.0747Z" fill="#F6F6F6"/>
<path d="M38.671 41.068C43.9001 40.2614 47.9195 36.295 49.0416 31.3452C49.1383 30.923 49.7449 30.95 49.7986 31.3795C49.7986 31.3867 49.8004 31.3939 49.8022 31.403C50.6361 38.2457 45.9063 44.4839 39.19 45.5089C38.9931 45.5396 38.8553 45.7218 38.8786 45.9221L39.1882 48.4647C39.2293 48.7949 38.8535 49.0079 38.594 48.804L32.8924 44.3125C32.7313 44.1862 32.7027 43.9516 32.828 43.7892L37.2823 38.04C37.4845 37.7783 37.8997 37.8938 37.9408 38.2241L38.2486 40.745C38.2737 40.9525 38.4652 41.0987 38.671 41.068Z" fill="white"/>
<path d="M39.1873 45.5064C45.9054 44.4815 50.6335 38.2432 49.7996 31.4005C49.7996 31.3933 49.7978 31.386 49.796 31.377C49.7423 30.9457 49.1356 30.9169 49.039 31.3409C48.6274 33.1563 47.8256 34.8417 46.7161 36.2853C45.2433 40.1759 41.911 43.2147 37.6858 44.1603C37.0076 44.3118 36.5494 44.9542 36.6353 45.6508L36.8322 47.2767C36.8376 47.3236 36.834 47.3687 36.825 47.4102L38.5914 48.8015C38.8508 49.0054 39.2249 48.7925 39.1855 48.4622L38.8759 45.9197C38.8526 45.7194 38.9904 45.5371 39.1873 45.5064Z" fill="#F6F6F6"/>
<path d="M9.46424 37.6802C10.2642 42.953 14.1977 47.006 19.1065 48.1374C19.5253 48.2349 19.5002 48.8466 19.0725 48.9007C19.0654 48.9007 19.0582 48.9025 19.0493 48.9044C12.2632 49.7453 6.07656 44.9759 5.06008 38.2035C5.02965 38.005 4.8489 37.8661 4.65026 37.8896L2.13053 38.2017C1.80303 38.2432 1.59186 37.8643 1.79408 37.6026L6.24836 31.8534C6.37363 31.691 6.60628 31.6622 6.76734 31.7885L12.469 36.2799C12.7284 36.4838 12.6139 36.9025 12.2864 36.944L9.78637 37.2544C9.57878 37.2796 9.43203 37.4727 9.46424 37.6802Z" fill="white"/>
<path d="M19.1351 48.1442C14.2137 47.0218 10.2659 42.9634 9.46417 37.6816C9.43195 37.4741 9.5787 37.281 9.7845 37.2557L12.2846 36.9453C12.612 36.9038 12.7266 36.487 12.4671 36.2813L6.76547 31.7898C6.60441 31.6635 6.37355 31.6924 6.24649 31.8548L5.28906 33.0909L7.98955 35.2184C8.48705 35.61 8.26693 36.4148 7.63879 36.4924L7.3614 36.5267C6.35029 36.653 5.68277 37.6563 5.95837 38.6452C7.21645 43.1673 10.8511 46.5634 15.275 47.5848C15.6937 47.6822 15.6687 48.294 15.241 48.3481C15.2338 48.3481 15.2266 48.3499 15.2177 48.3499C14.7488 48.4076 14.2835 48.4383 13.8236 48.4437C15.4646 48.9508 17.2346 49.1276 19.0474 48.9021C19.1297 48.8912 19.2138 48.8822 19.2962 48.8191C19.6487 48.5592 19.5592 48.2398 19.1351 48.1442Z" fill="#F6F6F6"/>
<path d="M13.0953 7.81372C7.86616 8.62034 3.84675 12.5867 2.72467 17.5365C2.62804 17.9588 2.02137 17.9317 1.96768 17.5022C1.96589 17.495 1.96589 17.4878 1.9641 17.4788C1.13194 10.6378 5.86003 4.39956 12.5763 3.37459C12.7732 3.34392 12.911 3.16166 12.8877 2.96136L12.5781 0.418785C12.5388 0.0885575 12.9128 -0.124376 13.1723 0.0795348L18.8739 4.57099C19.035 4.69731 19.0636 4.9319 18.9365 5.09431L14.4823 10.8435C14.28 11.1052 13.8648 10.9897 13.8255 10.6595L13.5177 8.13854C13.4926 7.92921 13.3011 7.78304 13.0953 7.81372Z" fill="white"/>
<path d="M7.47986 8.78443C4.81875 10.2515 2.99695 12.2166 2.11647 13.4076C1.8534 14.7141 1.79256 16.0837 1.96257 17.4786C1.96257 17.4858 1.96436 17.4931 1.96615 17.5021C2.01984 17.9316 2.62829 17.9586 2.72314 17.5364C3.29044 15.0353 4.59863 12.7851 6.42758 11.0671C8.60193 9.00458 11.2094 8.14021 12.5515 7.91104C12.7305 7.87495 12.9112 7.84247 13.0938 7.81359C13.1349 7.80638 13.1761 7.80999 13.2155 7.8172C13.2155 7.8172 13.2155 7.8172 13.2173 7.8154C11.306 7.21991 8.61446 8.15826 7.47986 8.78443Z" fill="#F6F6F6"/>
<path d="M18.8729 4.57099L13.1712 0.0795348C12.9117 -0.124376 12.5377 0.0885574 12.5771 0.418785L12.7185 1.57548L16.5213 4.57099C16.6824 4.69731 16.711 4.9319 16.584 5.0943L13.6133 8.92891L13.8244 10.6594C13.8656 10.9897 14.2808 11.1052 14.483 10.8435L18.9373 5.0943C19.0626 4.9319 19.0339 4.69911 18.8729 4.57099Z" fill="#F6F6F6"/>
<path d="M5.3017 18.7327C5.77236 18.7291 6.08733 19.164 5.92984 19.5755C5.51108 20.6672 5.04579 21.7463 4.59302 22.8236C4.56618 22.8886 4.58587 22.9156 4.63955 22.9481C5.48782 23.4426 6.3325 23.9388 7.18255 24.4314C7.59953 24.6732 7.66753 25.1677 7.31856 25.5015C5.78131 26.9722 4.24226 28.4393 2.70322 29.9082C2.44552 30.1554 2.1914 30.2095 1.92654 30.0814C1.63842 29.9406 1.49704 29.6104 1.61515 29.3036C1.77621 28.885 1.95159 28.4736 2.12161 28.0585C2.3972 27.389 2.6728 26.7214 2.95197 26.0555C2.98061 25.9869 2.95734 25.9635 2.90365 25.9328C2.04465 25.4347 1.17849 24.9475 0.33023 24.4314C-0.065269 24.1914 -0.111798 23.7024 0.224644 23.3812C1.76369 21.9123 3.30452 20.447 4.83999 18.9746C4.98315 18.8356 5.13885 18.7382 5.3017 18.7327Z" fill="#FEDF30"/>
<path d="M7.1811 24.4309C6.33284 23.9383 5.48636 23.4421 4.6381 22.9494C4.58441 22.9187 4.56473 22.8917 4.59157 22.8249C5.04433 21.7458 5.50963 20.6685 5.92839 19.5768C6.08587 19.1653 5.7727 18.7305 5.30025 18.7341C5.1356 18.7395 4.9817 18.8369 4.83853 18.9723C4.5182 19.2808 4.19607 19.5876 3.87395 19.8944C3.7612 20.2769 3.10084 21.7981 2.82704 22.547C2.74472 22.7726 2.8342 23.0234 3.04 23.1443C3.77552 23.5738 4.51104 24.0051 5.24835 24.4327C5.66711 24.6745 5.73333 25.169 5.38436 25.5028C4.16923 26.6667 2.95052 27.827 1.7336 28.9892C1.69065 29.0938 1.64949 29.1985 1.61012 29.3049C1.49201 29.6117 1.63338 29.9419 1.92151 30.0827C2.18637 30.2126 2.44049 30.1567 2.69819 29.9095C4.23723 28.4406 5.77628 26.9735 7.31353 25.5028C7.66608 25.1672 7.59986 24.6727 7.1811 24.4309Z" fill="#FAC600"/>
<path d="M49.7607 18.7327C50.2313 18.7291 50.5463 19.164 50.3888 19.5755C49.9701 20.6672 49.5048 21.7463 49.052 22.8236C49.0252 22.8886 49.0448 22.9156 49.0985 22.9481C49.9468 23.4426 50.7915 23.9388 51.6415 24.4314C52.0585 24.6732 52.1265 25.1677 51.7775 25.5015C50.2403 26.9722 48.7012 28.4393 47.1622 29.9082C46.9045 30.1554 46.6504 30.2095 46.3855 30.0814C46.0974 29.9406 45.956 29.6104 46.0741 29.3036C46.2352 28.885 46.4106 28.4736 46.5806 28.0585C46.8562 27.389 47.1318 26.7214 47.411 26.0555C47.4396 25.9869 47.4163 25.9635 47.3626 25.9328C46.5036 25.4347 45.6375 24.9475 44.7892 24.4314C44.3937 24.1914 44.3472 23.7024 44.6836 23.3812C46.2227 21.9123 47.7635 20.447 49.299 18.9746C49.4421 18.8356 49.5978 18.7382 49.7607 18.7327Z" fill="#FEDF30"/>
<path d="M51.642 24.4309C50.7938 23.9383 49.9473 23.4421 49.099 22.9494C49.0454 22.9187 49.0257 22.8917 49.0525 22.8249C49.5053 21.7458 49.9706 20.6685 50.3893 19.5768C50.5468 19.1653 50.2336 18.7305 49.7612 18.7341C49.5965 18.7395 49.4426 18.8369 49.2995 18.9723C48.9791 19.2808 48.657 19.5876 48.3349 19.8944C48.2221 20.2769 47.5618 21.7981 47.288 22.547C47.2057 22.7726 47.2951 23.0234 47.5009 23.1443C48.2365 23.5738 48.972 24.0051 49.7093 24.4327C50.1281 24.6745 50.1943 25.169 49.8453 25.5028C48.6302 26.6667 47.4115 27.827 46.1945 28.9892C46.1516 29.0938 46.1104 29.1985 46.0711 29.3049C45.9529 29.6117 46.0943 29.9419 46.3824 30.0827C46.6473 30.2126 46.9014 30.1567 47.1591 29.9095C48.6982 28.4406 50.2372 26.9735 51.7745 25.5028C52.127 25.1672 52.059 24.6727 51.642 24.4309Z" fill="#FAC600"/>
</g>
<defs>
<clipPath id="clip0">
<rect width="52" height="49" fill="white"/>
</clipPath>
</defs>
</svg>
