<?xml version="1.0" encoding="UTF-8"?>
<svg width="116px" height="108px" viewBox="0 0 116 108" version="1.1" xmlns="http://www.w3.org/2000/svg" xmlns:xlink="http://www.w3.org/1999/xlink">
    <!-- Generator: Sketch 63.1 (92452) - https://sketch.com -->
    <title>Group 48</title>
    <desc>Created with Sketch.</desc>
    <defs>
        <polygon id="path-1" points="0.9261 0.122 20.9041 0.122 20.9041 46.0689 0.9261 46.0689"/>
    </defs>
    <g id="Page-1" stroke="none" stroke-width="1" fill="none" fill-rule="evenodd">
        <g id="Group-48" transform="translate(0.000000, -1.000000)">
            <path d="M7.991,16.9811 L107.879,16.9811 C112.305,16.9811 115.87,20.5451 115.87,24.9731 L115.87,100.8871 C115.87,105.3151 112.305,108.8771 107.879,108.8771 L7.991,108.8771 C3.564,108.8771 0,105.3151 0,100.8871 L0,24.9731 C0,20.5451 3.564,16.9811 7.991,16.9811" id="Fill-1" fill="#FFD85C"/>
            <path d="M101.8855,4.99479666 L85.9045,4.99479666 L65.9265,5.6938 C61.1505,7.3968 57.9545,11.9108 57.9355,16.9808 C57.9445,14.6278 57.2485,12.3238 55.9375,10.3688 C53.7235,7.0118 49.9705,4.9918 45.9485,4.99479666 L13.9845,4.99479666 C10.6745,4.99479666 7.9905,7.6788 7.9905,10.9878 L7.9905,94.8938 C7.9905,98.2038 10.6745,100.8878 13.9845,100.8878 L101.8855,100.8878 C105.1965,100.8878 107.8785,98.2038 107.8785,94.8938 L107.8785,10.9878 C107.8785,7.6788 105.1965,4.99479666 101.8855,4.99479666" id="Fill-3" fill="#ECF0F1"/>
            <path d="M57.9353,100.8874 L13.9843,100.8874 C10.6743,100.8874 7.9913,98.2034 7.9913,94.8944 L7.9913,82.9084 C7.9913,86.2174 10.6743,88.9004 13.9843,88.9004 L45.9493,88.9004 C52.5653,88.9104 57.9253,94.2724 57.9353,100.8874" id="Fill-5" fill="#BDC3C7"/>
            <path d="M107.8787,82.9079 L107.8787,94.8939 C107.8787,98.2039 105.1957,100.8869 101.8857,100.8869 L57.9357,100.8869 C57.9437,94.2719 63.3057,88.9109 69.9207,88.8999 L101.8857,88.8999 C105.1957,88.8999 107.8787,86.2179 107.8787,82.9079" id="Fill-7" fill="#BDC3C7"/>
            <g id="Group-11" transform="translate(65.000000, 0.878000)">
                <mask id="mask-2" fill="white">
                    <use xlink:href="#path-1"/>
                </mask>
                <g id="Clip-10"/>
                <path d="M20.9041,46.0689 L10.9151,38.0789 L0.9261,46.0689 L0.9261,4.1169 C0.9261,1.9099 2.7151,0.1219 4.9211,0.1219 L16.9081,0.1219 C19.1151,0.1219 20.9041,1.9099 20.9041,4.1169 L20.9041,46.0689 Z" id="Fill-9" fill="#E64C3C" mask="url(#mask-2)"/>
            </g>
            <path d="M59.9324,10.3893 L59.9324,94.2753 C58.6204,96.2293 57.9254,98.5333 57.9354,100.8873 C57.9444,98.5333 57.2484,96.2293 55.9374,94.2753 L55.9374,10.3683 C57.2484,12.3243 57.9444,14.6273 57.9354,16.9813 C57.9354,14.6343 58.6304,12.3403 59.9324,10.3893" id="Fill-12" fill="#D1D4D1"/>
            <path d="M45.949,18.9792 L17.979,18.9792 C16.877,18.9792 15.982,18.0842 15.982,16.9812 C15.982,15.8782 16.877,14.9842 17.979,14.9842 L45.949,14.9842 C47.053,14.9842 47.947,15.8782 47.947,16.9812 C47.947,18.0842 47.053,18.9792 45.949,18.9792" id="Fill-14" fill="#547580"/>
            <path d="M45.949,28.9674 L17.979,28.9674 C16.877,28.9674 15.982,28.0734 15.982,26.9694 C15.982,25.8654 16.877,24.9734 17.979,24.9734 L45.949,24.9734 C47.053,24.9734 47.947,25.8654 47.947,26.9694 C47.947,28.0734 47.053,28.9674 45.949,28.9674" id="Fill-16" fill="#547580"/>
            <path d="M45.949,38.9567 L17.979,38.9567 C16.877,38.9567 15.982,38.0617 15.982,36.9587 C15.982,35.8557 16.877,34.9617 17.979,34.9617 L45.949,34.9617 C47.053,34.9617 47.947,35.8557 47.947,36.9587 C47.947,38.0617 47.053,38.9567 45.949,38.9567" id="Fill-18" fill="#547580"/>
            <path d="M25.9715,48.945 L17.9795,48.945 C16.8765,48.945 15.9825,48.05 15.9825,46.947 C15.9825,45.844 16.8765,44.951 17.9795,44.951 L25.9715,44.951 C27.0755,44.951 27.9685,45.844 27.9685,46.947 C27.9685,48.05 27.0755,48.945 25.9715,48.945" id="Fill-20" fill="#547580"/>
            <path d="M45.949,48.945 L33.962,48.945 C32.858,48.945 31.964,48.05 31.964,46.947 C31.964,45.844 32.858,44.951 33.962,44.951 L45.949,44.951 C47.053,44.951 47.947,45.844 47.947,46.947 C47.947,48.05 47.053,48.945 45.949,48.945" id="Fill-22" fill="#547580"/>
            <path d="M45.949,58.9342 L17.979,58.9342 C16.877,58.9342 15.982,58.0392 15.982,56.9362 C15.982,55.8332 16.877,54.9392 17.979,54.9392 L45.949,54.9392 C47.053,54.9392 47.947,55.8332 47.947,56.9362 C47.947,58.0392 47.053,58.9342 45.949,58.9342" id="Fill-24" fill="#547580"/>
            <path d="M45.949,68.9225 L17.979,68.9225 C16.877,68.9225 15.982,68.0275 15.982,66.9255 C15.982,65.8215 16.877,64.9275 17.979,64.9275 L45.949,64.9275 C47.053,64.9275 47.947,65.8215 47.947,66.9255 C47.947,68.0275 47.053,68.9225 45.949,68.9225" id="Fill-26" fill="#547580"/>
            <path d="M27.9685,78.9118 L17.9795,78.9118 C16.8765,78.9118 15.9825,78.0168 15.9825,76.9138 C15.9825,75.8108 16.8765,74.9168 17.9795,74.9168 L27.9685,74.9168 C29.0725,74.9168 29.9655,75.8108 29.9655,76.9138 C29.9655,78.0168 29.0725,78.9118 27.9685,78.9118" id="Fill-28" fill="#547580"/>
            <path d="M45.949,78.9118 L35.96,78.9118 C34.856,78.9118 33.962,78.0168 33.962,76.9138 C33.962,75.8108 34.856,74.9168 35.96,74.9168 L45.949,74.9168 C47.053,74.9168 47.947,75.8108 47.947,76.9138 C47.947,78.0168 47.053,78.9118 45.949,78.9118" id="Fill-30" fill="#547580"/>
            <path d="M97.8904,18.9792 L93.8944,18.9792 C92.7904,18.9792 91.8964,18.0842 91.8964,16.9812 C91.8964,15.8782 92.7904,14.9842 93.8944,14.9842 L97.8904,14.9842 C98.9934,14.9842 99.8884,15.8782 99.8884,16.9812 C99.8884,18.0842 98.9934,18.9792 97.8904,18.9792" id="Fill-32" fill="#547580"/>
            <path d="M97.8904,28.9674 L93.8944,28.9674 C92.7904,28.9674 91.8964,28.0734 91.8964,26.9694 C91.8964,25.8654 92.7904,24.9734 93.8944,24.9734 L97.8904,24.9734 C98.9934,24.9734 99.8884,25.8654 99.8884,26.9694 C99.8884,28.0734 98.9934,28.9674 97.8904,28.9674" id="Fill-34" fill="#547580"/>
            <path d="M97.8904,38.9567 L93.8944,38.9567 C92.7904,38.9567 91.8964,38.0617 91.8964,36.9587 C91.8964,35.8557 92.7904,34.9617 93.8944,34.9617 L97.8904,34.9617 C98.9934,34.9617 99.8884,35.8557 99.8884,36.9587 C99.8884,38.0617 98.9934,38.9567 97.8904,38.9567" id="Fill-36" fill="#547580"/>
            <path d="M97.8904,48.945 L93.8944,48.945 C92.7904,48.945 91.8964,48.05 91.8964,46.947 C91.8964,45.844 92.7904,44.951 93.8944,44.951 L97.8904,44.951 C98.9934,44.951 99.8884,45.844 99.8884,46.947 C99.8884,48.05 98.9934,48.945 97.8904,48.945" id="Fill-38" fill="#547580"/>
            <path d="M97.8904,58.9342 L69.9204,58.9342 C68.8174,58.9342 67.9234,58.0392 67.9234,56.9362 C67.9234,55.8332 68.8174,54.9392 69.9204,54.9392 L97.8904,54.9392 C98.9934,54.9392 99.8884,55.8332 99.8884,56.9362 C99.8884,58.0392 98.9934,58.9342 97.8904,58.9342" id="Fill-40" fill="#547580"/>
            <path d="M97.8904,68.9225 L69.9204,68.9225 C68.8174,68.9225 67.9234,68.0275 67.9234,66.9255 C67.9234,65.8215 68.8174,64.9275 69.9204,64.9275 L97.8904,64.9275 C98.9934,64.9275 99.8884,65.8215 99.8884,66.9255 C99.8884,68.0275 98.9934,68.9225 97.8904,68.9225" id="Fill-42" fill="#547580"/>
            <path d="M79.9099,78.9118 L69.9209,78.9118 C68.8169,78.9118 67.9239,78.0168 67.9239,76.9138 C67.9239,75.8108 68.8169,74.9168 69.9209,74.9168 L79.9099,74.9168 C81.0139,74.9168 81.9079,75.8108 81.9079,76.9138 C81.9079,78.0168 81.0139,78.9118 79.9099,78.9118" id="Fill-44" fill="#547580"/>
            <path d="M97.8904,78.9118 L87.9014,78.9118 C86.7974,78.9118 85.9044,78.0168 85.9044,76.9138 C85.9044,75.8108 86.7974,74.9168 87.9014,74.9168 L97.8904,74.9168 C98.9934,74.9168 99.8884,75.8108 99.8884,76.9138 C99.8884,78.0168 98.9934,78.9118 97.8904,78.9118" id="Fill-46" fill="#547580"/>
        </g>
    </g>
</svg>