<svg width="46" height="46" viewBox="0 0 46 46" fill="none" xmlns="http://www.w3.org/2000/svg">
<g clip-path="url(#clip0)">
<path fill-rule="evenodd" clip-rule="evenodd" d="M0.133459 6.55623C-0.318156 8.93889 0.376636 11.5 2.21424 13.334C4.51664 15.6316 7.96304 16.1384 10.7674 14.8518L13.8149 17.8921H17.8734L17.7153 13.6659L14.8367 10.7909C16.1256 7.99253 15.6189 4.55331 13.3153 2.25571C11.4777 0.4217 8.91059 -0.270696 6.52434 0.179721C4.0183 0.6517 5.91461 1.96821 6.18414 2.23774L9.40773 5.45535C10.535 6.58019 10.5829 8.39024 9.54789 9.57378C8.36195 10.6076 6.5483 10.5597 5.42106 9.43482L2.19627 6.21602C1.92674 5.94769 0.606636 4.05498 0.133459 6.55623Z" fill="#C1EAF4"/>
<path fill-rule="evenodd" clip-rule="evenodd" d="M19.6777 23.7415L21.3548 28.6841L28.8885 32.9343L31.1645 35.2056C29.8756 38.0039 30.3823 41.4431 32.6859 43.7407C34.5235 45.5747 37.0906 46.2671 39.4769 45.8167C41.9829 45.3447 40.0866 44.0282 39.8171 43.7587L36.5935 40.5411C35.4663 39.4162 35.4183 37.6062 36.4533 36.4226C37.6393 35.39 39.4529 35.4368 40.5802 36.5628L43.8038 39.7804C44.0733 40.0487 45.3934 41.9414 45.8654 39.4402C46.317 37.0575 45.6222 34.4964 43.7846 32.6624C41.4822 30.3648 38.0358 29.8593 35.2327 31.1446L32.8883 28.8051C32.1516 29.0004 31.3359 28.8099 30.7632 28.2385C29.9067 27.3856 29.9067 25.9888 30.7632 25.1347L32.1444 23.7547C31.1669 24.7298 29.5665 24.7298 28.5902 23.7547C27.8008 22.9665 27.6475 21.7733 28.1362 20.827C27.2438 21.9866 22.948 17.7891 22.7624 17.6046C20.8972 16.1096 15.8121 19.5356 19.6777 23.7415Z" fill="#C1EAF4"/>
<path fill-rule="evenodd" clip-rule="evenodd" d="M30.7645 25.1347C29.9092 25.9888 29.9092 27.3844 30.7645 28.2385C31.3371 28.8099 32.1529 29.0004 32.8896 28.8051C33.2514 28.7105 33.5928 28.52 33.8743 28.2385L37.2009 24.9179C38.0563 24.0638 38.0563 22.667 37.2009 21.8129C36.3456 20.9588 34.9465 20.9588 34.0876 21.8129L34.0372 21.8632L32.1445 23.7523L30.7645 25.1347Z" fill="#FED1A3"/>
<path fill-rule="evenodd" clip-rule="evenodd" d="M25.752 15.9467L25.0285 16.669L24.5768 17.3255C23.5682 18.7845 25.9676 21.6763 28.2185 20.682L30.2418 20.1657L30.5353 18.2682L31.2001 17.6034C32.1776 16.6283 32.1776 15.0315 31.2001 14.0564C30.2226 13.0813 28.6234 13.0813 27.6459 14.0564L26.3366 15.3633L25.752 15.9467Z" fill="#FED1A3"/>
<path fill-rule="evenodd" clip-rule="evenodd" d="M24.0908 10.5105L21.4745 13.122C19.6656 14.9272 22.4676 17.8909 25.0287 16.669L27.1299 16.0413L27.645 14.0576C28.6225 13.0824 28.6225 11.4856 27.645 10.5105C26.6687 9.53541 25.0683 9.53541 24.0908 10.5105Z" fill="#FED1A3"/>
<path fill-rule="evenodd" clip-rule="evenodd" d="M13.3054 20.4137C13.424 22.3735 12.5099 24.356 9.80146 27.0562L6.85938 29.991L8.48615 36.455L16.638 39.7493L21.3542 35.0427C23.1211 33.2805 23.4637 33.6591 25.5493 33.9573C26.4837 34.0927 27.8181 33.5944 28.8891 32.9343L19.6795 23.7403C20.8067 21.9614 20.9205 19.9118 19.864 18.6276C19.8508 18.612 19.8616 18.6036 19.8723 18.6144C20.3455 19.0864 21.4704 20.2089 21.5063 20.246C23.072 21.7554 26.4357 23.0359 28.1368 20.8258C28.1631 20.7779 28.1895 20.7276 28.2182 20.6808C28.4746 19.9932 27.2515 18.8888 25.9973 17.6345L25.0282 16.6678L21.474 13.1208L20.8199 12.4667C20.2976 11.9444 19.4363 11.9444 18.9104 12.4691L17.7149 13.6622L14.6363 16.7349C14.2984 17.0727 14.0241 17.4644 13.8145 17.8885C13.4252 18.6815 13.2551 19.5776 13.3054 20.4137Z" fill="#FED1A3"/>
<path fill-rule="evenodd" clip-rule="evenodd" d="M11.5158 3.75427C13.7044 5.93927 13.9739 8.86099 12.9149 11.5803C12.7245 12.063 13.0024 12.2583 13.3737 12.6296L15.9145 15.162L15.9253 15.4519L17.715 13.6658L14.8376 10.7908C16.1253 7.9925 15.6186 4.55328 13.3162 2.25568C11.4786 0.42047 8.91149 -0.271926 6.52524 0.178491C4.98112 0.468387 5.1069 1.08172 5.49862 1.57167C7.65248 1.38719 9.87342 2.11792 11.5158 3.75427Z" fill="#99CFE0"/>
<path fill-rule="evenodd" clip-rule="evenodd" d="M23.748 15.3908L25.0286 16.669L25.7522 15.9467L26.3356 15.3645L27.6449 14.0575C28.6212 13.0824 28.6212 11.4856 27.6449 10.5105C27.2436 10.1128 26.7416 9.87802 26.2194 9.80495C26.9896 10.7872 26.9213 12.2211 26.0181 13.1244L24.7088 14.4289L23.748 15.3908Z" fill="#FFBC85"/>
<path fill-rule="evenodd" clip-rule="evenodd" d="M29.4996 16.5109L27.1816 18.8241C27.8992 19.5752 28.3903 20.2232 28.219 20.682C28.3221 20.5131 28.4466 20.3526 28.5916 20.2077L31.2007 17.6046C32.1782 16.6295 32.1782 15.0327 31.2007 14.0575C30.8125 13.673 30.3262 13.4382 29.8219 13.3592C30.4603 14.3283 30.3549 15.6568 29.4996 16.5109Z" fill="#FFBC85"/>
<path fill-rule="evenodd" clip-rule="evenodd" d="M30.2988 27.5569C30.4042 27.8049 30.56 28.0361 30.7636 28.2385C31.3362 28.8111 32.152 29.0004 32.8887 28.8051C33.2505 28.7105 33.5919 28.52 33.8734 28.2385L37.2 24.9191C38.0553 24.065 38.0553 22.6682 37.2 21.8141C36.891 21.5062 36.5136 21.3085 36.1147 21.2235C36.4585 22.0249 36.3052 22.994 35.6499 23.6457L32.3233 26.9651C32.043 27.2478 31.7004 27.4371 31.3386 27.5317C30.9984 27.6228 30.6414 27.6312 30.2988 27.5569Z" fill="#FFBC85"/>
<path fill-rule="evenodd" clip-rule="evenodd" d="M35.4582 33.3404C40.4247 31.9724 43.8496 34.6258 45.8669 39.4402C46.3185 37.0587 45.6237 34.4964 43.7861 32.6636C41.4837 30.366 38.0373 29.8593 35.2341 31.1458L32.8898 28.8063C32.1531 29.0016 31.3373 28.8123 30.7647 28.2397C30.5611 28.036 30.4053 27.8048 30.2999 27.5569C29.9561 26.7555 30.1095 25.7864 30.7647 25.1359L32.1459 23.7547C31.1684 24.7298 29.5692 24.7298 28.5917 23.7547C28.4599 23.6229 28.3461 23.4828 28.2515 23.333C27.7675 22.5771 27.7316 21.6152 28.1377 20.827C26.4366 23.0371 20.011 18.6707 21.5072 20.2472L33.0803 32.4072C34.3249 33.7178 33.8865 33.7729 35.4582 33.3404Z" fill="#99CFE0"/>
<path fill-rule="evenodd" clip-rule="evenodd" d="M1.08274 35.7578L10.8601 45.516C11.1057 45.7604 11.4148 45.909 11.7346 45.9557H12.2234C12.5456 45.9078 12.8523 45.7604 13.0978 45.516L16.6389 41.9822C17.2546 41.3677 17.2546 40.3638 16.6389 39.7505L6.86149 29.9922C6.24696 29.3777 5.24071 29.3777 4.62498 29.9922L1.08394 33.5261C0.467012 34.1394 0.467012 35.1433 1.08274 35.7578Z" fill="#6BD9E7"/>
<path fill-rule="evenodd" clip-rule="evenodd" d="M8.04883 42.7081L10.8603 45.5148C11.1059 45.7592 11.415 45.9078 11.7348 45.9545H12.2236C12.5458 45.9066 12.8525 45.7592 13.098 45.5148L16.6391 41.981C17.2548 41.3665 17.2548 40.3626 16.6391 39.7493L13.824 36.9402C14.4385 37.5547 14.4385 38.5585 13.824 39.1719L10.2829 42.7057C10.0374 42.9501 9.7307 43.0986 9.41086 43.1478H8.91971C8.59987 43.0986 8.2932 42.9513 8.04883 42.7081Z" fill="#00C7DD"/>
<path fill-rule="evenodd" clip-rule="evenodd" d="M19.183 32.8792L14.4668 37.5858L16.6374 39.7493L21.3536 35.0427C23.1205 33.2793 23.4631 33.6591 25.5487 33.9573C26.4831 34.0915 27.8176 33.5932 28.8885 32.9343L26.7215 30.7685C26.4496 30.9338 26.1609 31.0919 25.8686 31.2297C25.0001 31.6382 24.0777 31.8909 23.3781 31.7915C21.2949 31.4932 20.9487 31.1171 19.183 32.8792Z" fill="#FED1A3"/>
<path fill-rule="evenodd" clip-rule="evenodd" d="M27.4734 21.4906C26.9846 22.4346 27.1356 23.6277 27.9274 24.4159C28.9049 25.3934 30.5053 25.3934 31.4816 24.4159L33.2928 23.8014L34.087 21.8141C35.0669 20.839 35.0669 19.2421 34.087 18.2682C33.1095 17.2931 31.5103 17.2931 30.5328 18.2682L27.9262 20.8689C27.7788 21.0162 27.6542 21.1744 27.5512 21.3457C27.5345 21.396 27.5081 21.4427 27.4734 21.4906Z" fill="#FED1A3"/>
<path fill-rule="evenodd" clip-rule="evenodd" d="M32.5497 17.5459C33.1702 18.515 33.0564 19.8255 32.2094 20.6712L29.6028 23.2743C29.0541 23.8206 28.309 24.0625 27.5879 23.9931C27.6825 24.144 27.7963 24.2865 27.9281 24.4147C28.9056 25.3922 30.506 25.3922 31.4823 24.4147L34.0878 21.8129C35.0677 20.8378 35.0677 19.2409 34.0878 18.267C33.6613 17.8382 33.1151 17.5986 32.5497 17.5459Z" fill="#FFBC85"/>
<path d="M27.1812 18.8241C26.5451 19.3667 25.7605 19.5668 24.9495 19.538C24.9148 19.5356 24.8836 19.5356 24.8489 19.5332C23.4102 19.4458 21.8996 18.6468 20.994 17.7723C20.9832 17.7615 20.8466 17.6249 20.6538 17.4321C20.4214 17.2033 20.389 17.1661 20.1075 16.887C19.9362 16.6738 19.6439 16.8762 19.5529 16.9553C19.2989 17.1769 18.9839 17.698 19.0473 18.0957C18.9144 18.3569 18.9575 18.6839 19.1755 18.9019C19.6499 19.3739 19.9003 20.0375 19.9003 20.8174C19.9003 22.0452 19.2738 23.4037 18.2232 24.4519C17.9524 24.7226 17.9513 25.1622 18.222 25.4341C18.3573 25.5695 18.5358 25.6378 18.7131 25.6378C18.8904 25.6378 19.0677 25.5707 19.2031 25.4353C20.528 24.1128 21.2887 22.4298 21.2887 20.8186C21.2887 20.5179 21.2611 20.228 21.2096 19.9489C21.3809 20.1202 21.4971 20.2376 21.5067 20.2484C23.0724 21.7577 26.4361 23.0383 28.1372 20.8282C28.1635 20.7802 28.1899 20.7299 28.2186 20.6832C28.3899 20.2232 27.8988 19.5751 27.1812 18.8241Z" fill="#FED1A3"/>
</g>
<defs>
<clipPath id="clip0">
<rect width="46" height="46" fill="white"/>
</clipPath>
</defs>
</svg>
