<svg width="46" height="46" viewBox="0 0 46 46" fill="none" xmlns="http://www.w3.org/2000/svg">
<g clip-path="url(#clip0)">
<path d="M39.6542 7.14002L37.2751 8.7271L33.3094 7.93356L30.9303 7.14002L27.758 7.93356L25.3789 7.14002L26.9655 3.96677H30.1379L33.2474 2.41205C35.6435 3.59741 37.8124 5.19887 39.6542 7.14002Z" fill="#03AA6F"/>
<path d="M21.4118 3.96677L20.6185 6.34648L18.2395 7.14002L15.8604 11.1068L11.8947 13.4865L6.34234 14.2801V16.6598L7.92899 18.2468V21.4201L5.54813 19.8339L3.16906 18.2468L1.78906 14.0976C4.16453 8.43592 8.70524 3.95958 14.3995 1.66614L16.6519 3.17323L21.4118 3.96677Z" fill="#03AA6F"/>
<path d="M22.9979 26.1813L22.2046 30.1481L19.0322 33.3214V35.702L15.8598 38.0817V42.0485L13.4799 41.2549L11.8941 37.2881V29.3546L7.92844 28.561L6.3418 25.3878V23.0072L7.92844 21.421L10.3075 19.0404L11.8941 22.2145H17.4456L19.8255 26.1813H22.9979Z" fill="#03AA6F"/>
<path d="M43.0638 11.7655C47.3934 19.4924 46.9001 29.0203 41.7943 36.2574L39.6524 34.1149V30.9416L38.0658 27.7684L36.4792 24.5951V21.4219L34.1001 19.8348L30.9277 20.6284L25.3754 18.2486L24.582 12.6948L26.9611 10.3151H31.7201L33.3068 12.6948L38.0658 13.4883L42.8248 11.9012L43.0638 11.7655Z" fill="#03AA6F"/>
<path d="M27.757 7.93434L30.9293 7.1408L33.3084 7.93434L37.2741 8.72788L39.6532 7.1408C40.982 8.53197 42.1275 10.0858 43.0636 11.7663L42.8255 11.9011L38.0665 13.4882L33.3075 12.6947L31.7209 10.315H26.9618L24.5828 12.6947L25.3761 18.2485L30.9284 20.6282L34.1008 19.8347L36.4799 21.4218V24.595L38.0665 27.7683L39.6532 30.9415V34.1148L41.795 36.2572C34.471 46.6397 20.1193 49.1156 9.74058 41.7895C0.926014 35.5662 -2.38024 24.0522 1.78941 14.0993L3.16941 18.2485L5.54847 19.8356L7.92754 21.4227L6.3409 23.0098V25.3895L7.92754 28.5627L11.8932 29.3563V37.2898L13.4799 41.2566L15.8589 42.0502V38.0834L19.0313 35.7037V33.3239L22.2037 30.1507L22.997 26.1839H19.8246L17.4456 22.2171H11.8932L10.3066 19.0439L7.92754 21.4236V18.2503L6.3409 16.6633V14.2808L11.8932 13.4873L15.8589 11.1076L18.238 7.1408L20.6171 6.34727L21.4104 3.96755L16.6514 3.17402L14.399 1.66692C20.4985 -0.790076 27.358 -0.518673 33.2446 2.41283L30.1351 3.96755H26.9627L25.3761 7.1408L27.757 7.93434Z" fill="#86DAF1"/>
</g>
<defs>
<clipPath id="clip0">
<rect width="46" height="46" fill="white"/>
</clipPath>
</defs>
</svg>
