<?xml version="1.0" encoding="UTF-8"?>
<svg width="328px" height="307px" viewBox="0 0 328 307" version="1.1" xmlns="http://www.w3.org/2000/svg" xmlns:xlink="http://www.w3.org/1999/xlink">
    <!-- Generator: Sketch 64 (93537) - https://sketch.com -->
    <title>Group 355</title>
    <desc>Created with Sketch.</desc>
    <defs>
        <polygon id="path-1" points="0.661911353 0.384464491 309.628 0.384464491 309.628 304 0.661911353 304"/>
        <polygon id="path-3" points="0.636 0.309089749 49.735 0.309089749 49.735 14.6816762 0.636 14.6816762"/>
        <polygon id="path-5" points="0.611 0.466 49.711 0.466 49.711 14.8382359 0.611 14.8382359"/>
    </defs>
    <g id="Page-1" stroke="none" stroke-width="1" fill="none" fill-rule="evenodd">
        <g id="Group-355" transform="translate(1.000000, 0.000000)">
            <g id="Group-8" transform="translate(0.000000, 0.115000)">
                <g id="Group-3" transform="translate(17.000000, 2.000000)">
                    <mask id="mask-2" fill="white">
                        <use xlink:href="#path-1"/>
                    </mask>
                    <g id="Clip-2"/>
                    <path d="M1.1141,166.9316 C-8.5269,77.1436 138.2841,-27.3224 222.9441,7.1156 C310.6421,42.7886 342.7671,227.3606 267.4661,284.2496 C190.2801,342.5626 11.3501,262.2686 1.1141,166.9316" id="Fill-1" fill="#E3E3E3" mask="url(#mask-2)"/>
                </g>
                <g id="Group-7">
                    <path d="M0.6033,167.4321 C-9.0367,77.6431 137.7743,-26.8219 222.4343,7.6161 C310.1323,43.2881 342.2573,227.8601 266.9553,284.7491 C189.7703,343.0621 10.8403,262.7661 0.6033,167.4321" id="Fill-4" fill="#FFFFFF"/>
                    <path d="M0.6033,167.4321 C-9.0367,77.6431 137.7743,-26.8219 222.4343,7.6161 C310.1323,43.2881 342.2573,227.8601 266.9553,284.7491 C189.7703,343.0621 10.8403,262.7661 0.6033,167.4321" id="Stroke-6" stroke="#D1D3D4" stroke-width="2"/>
                </g>
            </g>
            <g id="Group-11" transform="translate(204.000000, 208.115000)">
                <mask id="mask-4" fill="white">
                    <use xlink:href="#path-3"/>
                </mask>
                <g id="Clip-10"/>
                <path d="M35.491,1.0048 C36.339,1.0468 44.405,2.4218 48.211,5.8208 C51.382,8.6508 49.929,11.2018 40.811,10.3528 C31.691,9.5038 17.064,6.6708 19.913,10.6368 C22.764,14.6028 7.566,18.2848 1.485,8.0868 C-4.592,-2.1082 23.521,0.4398 35.491,1.0048" id="Fill-9" fill="#E3E3E3" mask="url(#mask-4)"/>
            </g>
            <path d="M165.577,180.0915 C165.043,179.7375 178.926,173.5045 187.336,171.7735 C195.835,172.4405 211.942,176.2655 211.365,176.9785 C205.49,179.7795 194.41,185.3875 192.942,185.5205 C191.474,185.6535 166.338,180.6005 165.577,180.0915" id="Fill-12" fill="#9AC21C"/>
            <path d="M165.577,180.0915 C165.577,180.0915 165.13,208.3035 166.554,209.7285 C167.976,211.1535 191.743,215.6915 192.988,215.6025 C193.164,204.7435 193.074,186.7665 192.942,185.5205 C187.559,183.5635 165.577,180.0915 165.577,180.0915" id="Fill-14" fill="#68AF2E"/>
            <path d="M211.365,176.9772 C211.855,177.3332 212.655,206.3462 212.211,207.0582 C211.766,207.7692 193.738,215.7002 192.988,215.6022 C192.238,215.5042 192.719,186.1432 192.941,185.5202 C193.163,184.8992 211.365,176.9772 211.365,176.9772" id="Fill-16" fill="#14943A"/>
            <path d="M192.9417,185.5202 C193.4367,183.9652 193.5227,215.0682 192.9877,215.6022 C192.4547,216.1362 192.0057,188.4582 192.9417,185.5202" id="Fill-18" fill="#85BB25"/>
            <path d="M165.577,180.0915 C165.577,180.0915 181.239,181.2485 192.942,185.5205 C187.025,184.8995 165.577,180.0915 165.577,180.0915" id="Fill-20" fill="#C0D678"/>
            <path d="M211.365,176.9772 C210.698,177.8692 194.409,185.1642 192.941,185.5202 C195.211,183.3852 211.365,176.9772 211.365,176.9772" id="Fill-22" fill="#C0D678"/>
            <path d="M184.2415,196.068 C184.7965,196.809 185.2325,197.63 185.5615,198.53 C185.8865,199.428 186.0475,200.314 186.044541,201.185 C186.0415,202.38 185.7325,203.384 185.1175,204.202 C184.5065,205.019 183.6515,205.573 182.5595,205.86 C181.4645,206.149 180.2415,206.135 178.8835,205.819 C177.5705,205.514 176.4575,204.991 175.5445,204.246 C174.6325,203.501 173.8575,202.482 173.2205,201.189 L175.6115,198.134 C176.0225,198.94 176.4975,199.589 177.0375,200.088 C177.5785,200.585 178.1615,200.905 178.7865,201.051 C179.4405,201.202 179.9765,201.121 180.3895,200.805 C180.8025,200.488 181.0115,200.008 181.0135,199.362 C181.0155,198.768 180.8255,198.215 180.4435,197.705 C180.0635,197.198 179.6005,196.88 179.0525,196.754 C178.6565,196.661 178.2915,196.632 177.9635,196.669 C177.6355,196.708 177.2715,196.817 176.8745,197 L175.7195,193.558 L179.0705,191.43 L173.6925,190.255 L173.7055,186.068 L185.4445,188.768 L185.5245,192.83 L182.4045,194.336 C183.0725,194.749 183.6865,195.325 184.2415,196.068" id="Fill-24" fill="#E53212"/>
            <path d="M229.3895,211.7663 C229.1465,212.0113 229.1065,213.1123 229.3505,213.4793 C230.4105,214.9073 232.9025,216.9433 235.9195,217.1113 C238.1255,217.2323 240.3255,216.4143 240.7735,215.3983 C240.9055,215.0963 241.1005,214.2943 240.5675,213.7253 C237.4275,212.1363 229.3895,211.7663 229.3895,211.7663" id="Fill-26" fill="#F5F6F8"/>
            <path d="M229.3895,211.7663 C229.3895,211.7663 229.8885,211.7893 230.6795,211.8463 C231.3565,212.3913 231.9295,213.0013 230.7785,213.1933 C229.0275,213.4943 232.1905,216.1623 236.1925,216.2873 C238.2315,216.3473 240.2645,215.6983 240.9165,214.7963 C240.8995,215.0493 240.8285,215.2673 240.7735,215.3983 C240.3255,216.4143 238.1255,217.2323 235.9195,217.1113 C232.9025,216.9433 230.4105,214.9073 229.3505,213.4793 C229.1065,213.1123 229.1465,212.0113 229.3895,211.7663" id="Fill-28" fill="#D9D9DB"/>
            <path d="M229.2322,185.5846 C229.2322,185.5846 229.9922,209.3226 230.0912,211.7066 C231.3732,213.1326 233.1612,211.4216 233.1612,211.4216 C233.1612,211.4216 232.7202,187.2896 232.4682,185.5846 C231.0132,185.4356 229.2322,185.5846 229.2322,185.5846" id="Fill-30" fill="#EBA376"/>
            <path d="M229.678,209.0749 C229.678,209.0749 230.86,210.7899 231.555,210.4639 C231.064,209.8109 231.186,208.3789 232.248,208.2139 C233.309,208.0539 233.309,209.6869 233.309,209.6869 C233.309,209.6869 234.695,208.6659 237.35,209.3199 C239.998,209.9709 240.895,212.9519 240.568,213.7249 C240.038,214.4579 237.711,215.3979 234.817,215.0329 C231.921,214.6649 230.044,212.5799 229.678,212.2939 C229.311,212.0119 229.024,211.2799 229.311,210.7089 C229.597,210.1349 228.984,209.0749 229.678,209.0749" id="Fill-32" fill="#69C1E4"/>
            <path d="M229.3113,210.7087 C229.5973,210.1347 228.9843,209.0747 229.6783,209.0747 C229.6783,209.0747 230.0703,209.6387 230.5333,210.0607 C230.5123,210.0727 230.4823,210.0797 230.4443,210.0727 C229.7393,209.9797 229.6493,211.0437 229.9253,211.4207 C230.4133,212.0937 232.2303,213.5317 235.1243,213.8967 C237.5103,214.2007 239.6913,213.6517 240.5633,212.7547 C240.6573,213.1777 240.6573,213.5227 240.5683,213.7257 C240.0383,214.4587 237.7113,215.3967 234.8163,215.0327 C231.9213,214.6657 230.0433,212.5807 229.6783,212.2937 C229.3113,212.0117 229.0233,211.2797 229.3113,210.7087" id="Fill-34" fill="#3FA1C4"/>
            <path d="M236.7981,209.7663 C237.8181,209.4823 240.2641,211.3993 239.1631,212.5003 C238.0641,213.6013 234.6761,212.9893 234.6761,212.9893 C234.6761,212.9893 237.5341,212.7893 237.2051,211.4833 C237.0841,210.9913 235.9291,210.0113 236.7981,209.7663" id="Fill-36" fill="#99D6F3"/>
            <path d="M233.5345,210.5446 C233.5985,210.5446 233.6635,210.5106 233.7075,210.4556 C234.5875,209.2946 235.5105,209.9306 235.5475,209.9596 C235.6435,210.0256 235.7825,210.0066 235.8515,209.9096 C235.9205,209.8126 235.8995,209.6726 235.7985,209.6036 C235.7855,209.5936 234.4915,208.7026 233.3615,210.1936 C233.2875,210.2906 233.3095,210.4256 233.4015,210.4986 C233.4425,210.5276 233.4885,210.5446 233.5345,210.5446" id="Fill-38" fill="#FFFFFF"/>
            <path d="M235.6346,210.9577 C235.6996,210.9577 235.7636,210.9267 235.8086,210.8737 C236.6856,209.7117 237.6076,210.3497 237.6466,210.3747 C237.7446,210.4447 237.8806,210.4227 237.9486,210.3227 C238.0206,210.2257 237.9976,210.0907 237.8986,210.0197 C237.8876,210.0117 236.5876,209.1207 235.4606,210.6077 C235.3876,210.7087 235.4056,210.8407 235.5036,210.9147 C235.5436,210.9447 235.5856,210.9577 235.6346,210.9577" id="Fill-40" fill="#FFFFFF"/>
            <path d="M223.5984,211.7663 C223.8434,212.0113 223.8854,213.1123 223.6364,213.4793 C222.5754,214.9073 220.0864,216.9433 217.0694,217.1113 C214.8664,217.2323 212.6624,216.4143 212.2164,215.3983 C212.0834,215.0963 211.8894,214.2943 212.4184,213.7253 C215.5604,212.1363 223.5984,211.7663 223.5984,211.7663" id="Fill-42" fill="#F5F6F8"/>
            <path d="M223.5984,211.7663 C223.5984,211.7663 223.1004,211.7893 222.3084,211.8463 C221.6324,212.3913 221.0614,213.0013 222.2054,213.1933 C223.9624,213.4943 220.8004,216.1623 216.7964,216.2873 C214.7584,216.3473 212.7244,215.6983 212.0744,214.7963 C212.0914,215.0493 212.1594,215.2673 212.2164,215.3983 C212.6624,216.4143 214.8664,217.2323 217.0694,217.1113 C220.0864,216.9433 222.5754,214.9073 223.6364,213.4793 C223.8854,213.1123 223.8434,212.0113 223.5984,211.7663" id="Fill-44" fill="#D9D9DB"/>
            <path d="M223.7552,185.5846 C223.7552,185.5846 222.9972,209.3226 222.8982,211.7066 C221.6192,213.1326 219.8262,211.4216 219.8262,211.4216 C219.8262,211.4216 220.2702,187.2896 220.5222,185.5846 C221.9752,185.4356 223.7552,185.5846 223.7552,185.5846" id="Fill-46" fill="#EBA376"/>
            <path d="M223.3128,209.0749 C223.3128,209.0749 222.1308,210.7899 221.4358,210.4639 C221.9278,209.8109 221.8028,208.3789 220.7418,208.2139 C219.6808,208.0539 219.6808,209.6869 219.6808,209.6869 C219.6808,209.6869 218.2958,208.6659 215.6418,209.3199 C212.9898,209.9709 212.0938,212.9519 212.4188,213.7249 C212.9508,214.4579 215.2778,215.3979 218.1728,215.0329 C221.0668,214.6649 222.9448,212.5799 223.3128,212.2939 C223.6778,212.0119 223.9648,211.2799 223.6778,210.7089 C223.3948,210.1349 224.0048,209.0749 223.3128,209.0749" id="Fill-48" fill="#69C1E4"/>
            <path d="M223.678,210.7087 C223.395,210.1347 224.005,209.0747 223.313,209.0747 C223.313,209.0747 222.922,209.6387 222.459,210.0607 C222.478,210.0727 222.508,210.0797 222.545,210.0727 C223.249,209.9797 223.339,211.0437 223.065,211.4207 C222.576,212.0937 220.759,213.5317 217.863,213.8967 C215.48,214.2007 213.296,213.6517 212.425,212.7547 C212.333,213.1777 212.336,213.5227 212.418,213.7257 C212.951,214.4587 215.277,215.3967 218.172,215.0327 C221.067,214.6657 222.945,212.5807 223.313,212.2937 C223.678,212.0117 223.965,211.2797 223.678,210.7087" id="Fill-50" fill="#3FA1C4"/>
            <path d="M216.1912,209.7663 C215.1742,209.4823 212.7242,211.3993 213.8252,212.5003 C214.9252,213.6013 218.3142,212.9893 218.3142,212.9893 C218.3142,212.9893 215.4542,212.7893 215.7852,211.4833 C215.9042,210.9913 217.0612,210.0113 216.1912,209.7663" id="Fill-52" fill="#99D6F3"/>
            <path d="M219.4539,210.5446 C219.3899,210.5446 219.3239,210.5106 219.2819,210.4556 C218.4049,209.2946 217.4799,209.9306 217.4409,209.9596 C217.3459,210.0256 217.2079,210.0066 217.1379,209.9096 C217.0699,209.8126 217.0919,209.6726 217.1909,209.6036 C217.2039,209.5936 218.4989,208.7026 219.6279,210.1936 C219.7029,210.2906 219.6829,210.4256 219.5879,210.4986 C219.5459,210.5276 219.5009,210.5446 219.4539,210.5446" id="Fill-54" fill="#FFFFFF"/>
            <path d="M217.3553,210.9577 C217.2893,210.9577 217.2213,210.9267 217.1813,210.8737 C216.3023,209.7117 215.3803,210.3497 215.3423,210.3747 C215.2433,210.4447 215.1083,210.4227 215.0393,210.3227 C214.9683,210.2257 214.9933,210.0907 215.0883,210.0197 C215.1023,210.0117 216.4013,209.1207 217.5263,210.6077 C217.6023,210.7087 217.5833,210.8407 217.4863,210.9147 C217.4493,210.9447 217.4013,210.9577 217.3553,210.9577" id="Fill-56" fill="#FFFFFF"/>
            <path d="M236.907,171.1598 C236.907,171.1598 237.341,183.4578 235.878,194.1348 C228.755,195.7768 227.934,193.8618 227.934,193.8618 L226.516,180.0808 C226.516,180.0808 225.414,191.4558 225.058,193.9988 C224.179,194.2928 217.57,194.0938 216.84,192.6248 C216.721,184.6938 218.181,170.2808 218.181,170.2808 L236.907,171.1598 Z" id="Fill-58" fill="#54504F"/>
            <path d="M236.2093,176.1208 L236.3313,181.7468 C236.3313,181.7468 224.8293,177.2378 217.9173,181.7048 C218.4643,176.9118 218.6533,174.1638 218.6533,174.1638 L236.2093,176.1208 Z" id="Fill-60" fill="#474442"/>
            <path d="M220.7122,148.9772 C220.7122,148.9772 207.5622,155.6082 200.4672,155.5682 C200.1512,155.0312 199.1302,153.9372 198.5302,154.2592 C197.9292,154.5842 198.6812,155.8402 199.0702,156.1782 C198.1122,156.7352 194.9712,156.5862 195.0712,157.4772 C195.1372,158.0392 197.8452,157.7262 197.8452,157.7262 C197.8452,157.7262 195.0482,158.3702 195.1802,158.9632 C195.3532,159.7462 198.1722,158.9002 198.1722,158.9002 C198.1722,158.9002 195.5302,159.5742 195.6772,160.2452 C195.8122,160.8372 198.0842,160.0962 198.6242,159.7772 C198.7112,159.8802 196.3122,160.7452 196.8162,161.2282 C197.4622,161.8502 200.8972,160.0872 201.6862,158.6212 C204.6012,158.1532 213.2812,156.2232 219.0852,152.8392 C220.1142,151.8252 220.7122,148.9772 220.7122,148.9772" id="Fill-62" fill="#EBA376"/>
            <path d="M220.7898,149.0959 C220.7898,149.0959 218.6968,150.3299 217.0748,150.9319 C218.2418,150.7979 218.7178,152.4339 216.9648,153.5629 C218.8778,152.7019 219.8888,152.3609 219.8888,152.3609 L220.7898,149.0959 Z" id="Fill-64" fill="#EDB389"/>
            <path d="M227.1053,143.2072 C227.1053,143.2072 226.6263,145.7632 226.6043,147.1372 C229.5993,148.2792 236.0143,150.0992 236.2833,157.5762 C236.5573,165.1202 236.3433,165.1692 237.1083,170.1992 C237.1083,170.1992 226.3603,172.7882 216.4803,171.8482 C216.3083,168.2922 216.9953,159.3322 216.9953,159.3322 C216.9953,159.3322 218.7933,151.1912 220.5363,149.0482 C221.7833,148.3412 222.6553,147.6732 224.1603,147.1222 C224.4003,145.0702 224.9673,142.7402 224.9673,142.7402 L227.1053,143.2072 Z" id="Fill-66" fill="#EBA376"/>
            <path d="M224.9676,142.7394 L227.1056,143.2064 C227.1056,143.2064 226.7406,145.1594 226.6326,146.5714 C226.1646,146.9544 224.9326,146.8904 224.2446,146.4884 C224.5116,144.6144 224.9676,142.7394 224.9676,142.7394" id="Fill-68" fill="#EDB389"/>
            <path d="M232.1145,149.4172 C232.1145,149.4172 230.0975,158.1742 236.4755,160.7692 C236.6095,161.4102 237.1045,170.5292 239.6045,176.1362 C235.4425,178.8232 220.4805,180.4992 216.0755,177.4372 C215.9605,168.7492 216.6965,160.8572 216.6965,160.8572 C216.6965,160.8572 217.1475,157.2562 218.7205,150.1272 C220.1365,148.8912 221.9355,148.1522 221.9355,148.1522 C221.9355,148.1522 220.1675,153.4272 222.3925,153.8912 C224.4675,154.3262 228.9805,153.1662 229.5825,148.0942 C230.5565,147.9732 232.1145,149.4172 232.1145,149.4172" id="Fill-70" fill="#A9C108"/>
            <path d="M216.1092,176.2897 C220.5402,179.3007 229.8002,176.5237 233.9412,173.8457 C235.2742,171.5717 235.2672,164.6437 235.9422,160.5037 C236.0782,161.1437 235.9482,169.8847 238.4472,175.4927 C234.2912,178.1787 220.5242,180.0357 216.1162,176.9717 C216.1132,176.7407 216.1112,176.5157 216.1092,176.2897" id="Fill-72" fill="#7FA22B"/>
            <path d="M201.8943,109.8483 C199.3263,116.9733 198.2763,138.6183 218.1703,144.1313 C237.9503,149.6153 249.1983,136.1013 252.5503,122.3353 C256.5993,105.7283 243.7623,95.0133 232.0933,93.0873 C213.8823,90.0723 205.3313,100.2973 201.8943,109.8483" id="Fill-74" fill="#EBA376"/>
            <path d="M211.1463,109.1037 C214.1113,108.8707 214.0823,112.0827 212.2203,111.7087 C210.2233,111.3157 208.4033,111.7087 208.1943,111.4687 C207.7283,110.9327 209.4793,109.2347 211.1463,109.1037" id="Fill-76" fill="#3A2919"/>
            <path d="M237.0145,112.0334 C234.2725,110.8794 233.2955,113.9294 235.1735,114.1684 C237.1915,114.4224 238.7955,115.3724 239.0755,115.2034 C239.6815,114.8514 238.5495,112.6864 237.0145,112.0334" id="Fill-78" fill="#3A2919"/>
            <path d="M220.5818,126.11 C220.6378,126.114 220.6958,126.077 220.7128,126.024 C220.7488,125.956 220.7128,125.873 220.6428,125.836 C219.4058,125.305 219.3778,124.326 219.4268,123.924 C219.5248,123.157 220.0588,122.501 220.6808,122.391 C221.3438,122.283 221.9808,122.777 222.4868,123.789 C222.5178,123.856 222.6028,123.885 222.6708,123.855 C222.7338,123.819 222.7668,123.736 222.7318,123.668 C221.9778,122.139 221.0898,122.04 220.6348,122.123 C219.8948,122.245 219.2608,123.009 219.1528,123.891 C219.0398,124.85 219.5598,125.672 220.5318,126.095 C220.5518,126.099 220.5658,126.105 220.5818,126.11" id="Fill-80" fill="#C58B64"/>
            <path d="M215.3103,117.0451 C215.9883,119.5061 214.6543,122.0251 212.3253,122.6711 C209.9943,123.3171 207.5543,121.8371 206.8763,119.3671 C206.1903,116.8931 207.5333,114.3781 209.8563,113.7311 C212.1883,113.0931 214.6303,114.5731 215.3103,117.0451" id="Fill-82" fill="#FFFFFF"/>
            <path d="M208.8572,119.1037 C209.1402,120.7657 210.6292,121.9007 212.1982,121.6377 C213.7712,121.3747 214.8162,119.8187 214.5412,118.1617 C214.2632,116.4977 212.7682,115.3657 211.1992,115.6257 C209.6322,115.8887 208.5802,117.4437 208.8572,119.1037" id="Fill-84" fill="#1D1D1B"/>
            <path d="M210.0413,119.0295 C210.2053,120.0245 211.0983,120.7005 212.0443,120.5505 C212.9773,120.3905 213.6003,119.4585 213.4363,118.4655 C213.2713,117.4745 212.3763,116.7955 211.4413,116.9465 C210.5003,117.1065 209.8733,118.0355 210.0413,119.0295" id="Fill-86" fill="#1D1D1B"/>
            <path d="M211.7991,117.654 C211.8641,118.073 212.2431,118.363 212.6391,118.295 C213.0331,118.225 213.3031,117.834 213.2331,117.411 C213.1621,116.992 212.7851,116.704 212.3851,116.767 C211.9921,116.837 211.7251,117.233 211.7991,117.654" id="Fill-88" fill="#FFFFFF"/>
            <path d="M210.2425,120.1569 C210.2855,120.4149 210.5135,120.5859 210.7555,120.5479 C210.9945,120.5039 211.1555,120.2679 211.1145,120.0129 C211.0685,119.7619 210.8425,119.5819 210.6005,119.6229 C210.3635,119.6659 210.1975,119.9049 210.2425,120.1569" id="Fill-90" fill="#FFFFFF"/>
            <path d="M237.9466,119.9426 C238.6226,122.4066 237.2896,124.9256 234.9606,125.5736 C232.6286,126.2166 230.1896,124.7416 229.5096,122.2666 C228.8236,119.7956 230.1666,117.2796 232.4936,116.6326 C234.8246,115.9916 237.2626,117.4756 237.9466,119.9426" id="Fill-92" fill="#FFFFFF"/>
            <path d="M230.8846,121.8195 C231.1666,123.4815 232.6566,124.6165 234.2256,124.3525 C235.7976,124.0915 236.8436,122.5345 236.5686,120.8765 C236.2896,119.2145 234.7956,118.0825 233.2256,118.3415 C231.6596,118.6045 230.6076,120.1605 230.8846,121.8195" id="Fill-94" fill="#1D1D1B"/>
            <path d="M232.0686,121.7453 C232.2326,122.7403 233.1256,123.4163 234.0716,123.2663 C235.0046,123.1063 235.6276,122.1743 235.4636,121.1813 C235.2976,120.1893 234.4036,119.5113 233.4686,119.6633 C232.5276,119.8223 231.9006,120.7513 232.0686,121.7453" id="Fill-96" fill="#1D1D1B"/>
            <path d="M233.826,120.3688 C233.891,120.7898 234.271,121.0788 234.667,121.0098 C235.06,120.9418 235.331,120.5508 235.261,120.1268 C235.19,119.7088 234.813,119.4198 234.412,119.4818 C234.019,119.5528 233.752,119.9498 233.826,120.3688" id="Fill-98" fill="#FFFFFF"/>
            <path d="M232.2703,122.8732 C232.3123,123.1312 232.5403,123.3022 232.7833,123.2642 C233.0223,123.2202 233.1833,122.9832 233.1423,122.7292 C233.0963,122.4772 232.8703,122.2982 232.6283,122.3382 C232.3913,122.3822 232.2253,122.6202 232.2703,122.8732" id="Fill-100" fill="#FFFFFF"/>
            <path d="M250.907,131.6208 C249.359,133.0988 246.675,129.7418 249.152,128.1248 C245.05,127.4898 245.104,122.1488 247.932,120.7468 C245.416,120.2088 245.725,117.4748 248.224,116.9938 C244.351,115.6228 241.12,111.1768 243.847,108.0798 C240.576,110.7308 238.789,107.3288 238.982,104.9358 C237.197,107.6848 225.664,103.6168 226.64,99.3988 C224.323,105.3398 220.41,101.8628 219.366,99.5998 C219.874,104.5988 212.026,104.0038 210.631,101.5268 C210.232,106.0718 206.935,106.0008 206.003,104.0788 C205.584,107.4948 203.5,107.5978 203.041,107.2658 C201.724,110.4018 201.224,114.6748 200.646,117.5968 C197.927,118.3088 194.788,113.0068 196.951,110.2578 C193.491,107.3378 195.786,104.0368 196.565,102.7768 C194.156,101.4848 194.77,95.5048 197.648,95.4688 C194.12,90.7098 199.177,81.3158 206.462,82.4678 C203.88,75.7898 211.583,76.2708 212.77,80.8058 C216.998,72.7978 227.821,75.0528 229.124,79.1238 C231.536,71.5968 235.237,76.7848 234.571,78.4918 C237.771,70.6128 246.046,77.3348 241.988,80.7948 C247.761,78.3338 255.34,84.5008 256.194,89.4958 C260.122,84.6698 263.374,90.6608 257.592,92.3178 C266.703,93.4578 268.234,104.2808 263.588,105.1328 C269.535,108.3558 267.887,119.4038 260.845,116.6918 C262.341,118.1458 261.716,120.0098 259.216,119.8168 C262.571,122.2968 260.092,126.9638 257.939,127.2218 C258.468,132.5798 252.991,131.4298 252.991,131.4298 C252.991,131.4298 252.59,130.0158 250.907,131.6208" id="Fill-102" fill="#50361E"/>
            <path d="M197.6653,107.2888 C199.1433,106.7758 200.2393,102.8918 198.6123,99.9058 C199.9553,102.6678 205.1823,99.8578 205.7553,93.3158 C207.7573,96.8908 216.1753,98.5608 215.4383,91.3828 C216.9443,94.6278 224.2363,99.7308 227.5683,91.2028 C226.1653,97.2608 238.6993,99.5758 241.2613,95.6248 C240.9733,99.0598 246.6303,104.2408 251.3243,100.4298 C246.8123,108.9588 253.0183,115.5278 255.4373,115.3478 C251.8573,116.0408 250.9163,119.5518 254.5193,120.3288 C251.8093,121.6638 257.5093,126.3528 258.6993,121.1068 C258.0973,124.9828 257.7423,126.6548 256.2923,126.2178 C256.6853,130.7628 253.8853,130.9438 253.8853,130.9438 C253.8853,130.9438 252.6933,130.0938 251.0383,131.5118 C250.8863,130.7018 251.1313,129.8078 252.1333,129.1588 C247.4763,128.4438 247.5333,122.3808 250.7433,120.7918 C247.8923,120.1858 247.5503,116.9828 250.3803,116.4338 C245.2633,113.2358 244.4103,108.8798 246.8213,105.7588 C243.1213,108.7638 240.3713,105.5758 240.5963,102.8658 C238.5733,105.9858 225.4913,101.3678 226.5993,96.5868 C223.9693,103.3218 219.5393,99.3748 218.3513,96.8138 C218.9293,102.4768 210.0273,101.8108 208.4503,98.9958 C207.9913,104.1588 204.2563,104.0738 203.1923,101.8978 C202.7203,105.7698 201.6343,106.6038 201.1113,106.2248 C201.4273,107.9498 200.3653,110.7288 199.5873,116.0968 C198.4763,116.3058 196.7723,112.3338 198.7033,111.9758 C197.8633,111.3528 197.6993,110.1708 197.6653,107.2888" id="Fill-104" fill="#3A2919"/>
            <path d="M246.9886,89.718 C248.9846,85.6 245.6286,80.75 240.3436,85.475 C246.4566,83.583 246.9886,89.718 246.9886,89.718" id="Fill-106" fill="#3A2919"/>
            <path d="M206.4485,87.6164 C204.3355,82.0484 199.6795,84.1264 201.3705,91.0114 C202.5745,84.7204 206.4485,87.6164 206.4485,87.6164" id="Fill-108" fill="#3A2919"/>
            <path d="M257.722,104.654 C265.386,103.516 262.238,96.96 256.475,100.099 C262.681,101.686 257.722,104.654 257.722,104.654" id="Fill-110" fill="#3A2919"/>
            <path d="M220.3738,82.9172 C219.9378,75.1852 213.1248,77.7232 215.7248,83.7462 C217.8708,77.7122 220.3738,82.9172 220.3738,82.9172" id="Fill-112" fill="#3A2919"/>
            <path d="M248.0882,125.6799 C248.0882,125.6799 249.8782,122.7039 253.3522,123.6919 C257.0152,124.7349 256.2512,130.1359 252.9922,132.4739 C249.7302,134.8149 245.6372,133.6659 245.5422,130.6809 L248.0882,125.6799 Z" id="Fill-114" fill="#EBA376"/>
            <path d="M252.867,123.86 C251.978,123.613 251.218,123.634 250.572,123.801 C251.083,123.69 251.636,123.686 252.218,123.883 C255.607,125 254.508,129.035 252.495,130.938 C249.776,133.516 246.487,132.683 245.546,130.363 C245.627,133.144 249.463,134.211 252.528,132.034 C255.585,129.849 256.299,124.824 252.867,123.86" id="Fill-116" fill="#C58B64"/>
            <path d="M253.4105,125.3586 C251.3555,123.9416 247.5095,127.7876 249.5245,131.4876 C249.6545,127.6786 251.3295,127.0526 252.2645,129.2996 C252.7135,128.2286 252.4425,127.3156 251.0335,126.8526 C251.7565,125.4896 253.4105,125.3586 253.4105,125.3586" id="Fill-118" fill="#C58B64"/>
            <path d="M183.3055,145.2541 C183.0115,144.8601 194.6245,143.9561 201.1335,144.8791 C207.0875,147.5551 217.7055,154.4721 217.1025,154.8361 C212.1475,155.3401 202.7145,156.5171 201.6235,156.2341 C200.5285,155.9521 183.7215,145.8171 183.3055,145.2541" id="Fill-120" fill="#EA5E2C"/>
            <path d="M183.3055,145.2541 C183.3055,145.2541 175.8955,164.3091 176.5535,165.7041 C177.2115,167.0971 192.9645,177.6661 193.8865,177.9241 C196.8165,170.1441 201.3965,157.1661 201.6235,156.2341 C198.2485,153.4341 183.3055,145.2541 183.3055,145.2541" id="Fill-122" fill="#E53212"/>
            <path d="M189.701,161.7267 L190.087,158.4107 L188.016,160.7057 L189.701,161.7267 Z M189.28,165.4137 L185.706,163.2717 L183.864,165.3087 L181.53,162.3087 L190.107,154.2297 L192.913,155.9357 L192.031,169.3877 L188.928,168.4917 L189.28,165.4137 Z" id="Fill-124" fill="#F8B500"/>
            <path d="M217.1028,154.8361 C217.3658,155.2191 211.0928,174.5411 210.5898,174.9381 C210.0848,175.3351 194.3998,178.1861 193.8868,177.9241 C193.3698,177.6601 201.3008,156.6251 201.6238,156.2351 C201.9448,155.8431 217.1028,154.8361 217.1028,154.8361" id="Fill-126" fill="#BF1D12"/>
            <path d="M201.6233,156.2346 C202.3823,155.2416 194.4073,177.6776 193.8863,177.9246 C193.3603,178.1706 200.1893,158.1096 201.6233,156.2346" id="Fill-128" fill="#EA5E2C"/>
            <path d="M183.3055,145.2541 C183.3055,145.2541 194.2915,150.1331 201.6235,156.2341 C197.5175,154.2571 183.3055,145.2541 183.3055,145.2541" id="Fill-130" fill="#F19B66"/>
            <path d="M217.1028,154.8361 C216.3928,155.3061 202.7718,156.3571 201.6238,156.2351 C203.8108,155.2821 217.1028,154.8361 217.1028,154.8361" id="Fill-132" fill="#F19B66"/>
            <path d="M232.0042,155.3288 C226.3852,163.8768 216.2242,162.0798 215.3592,161.6258 C214.1052,159.7048 212.4542,159.5198 212.1362,159.5078 C211.9832,160.2078 211.9482,160.3938 211.9482,160.3938 C211.9482,160.3938 210.8452,160.3988 210.0252,160.4818 C208.8532,160.5988 209.0182,161.0788 209.1042,161.4108 C209.2892,162.1238 210.2022,161.6008 210.2022,161.6008 C210.2022,161.6008 208.6512,161.9018 208.8262,162.5658 C208.9832,163.1598 210.0622,162.9328 210.0622,162.9328 C210.0622,162.9328 208.8342,163.1138 209.1392,163.8178 C209.3252,164.2628 210.5742,164.0748 210.5742,164.0748 C210.5742,164.0748 209.1242,164.4098 209.2282,164.6488 C209.4292,165.1078 210.8862,165.1348 211.9682,164.9288 C212.6712,164.7948 214.0532,164.5348 215.2182,163.6388 C220.3382,165.0208 231.6812,164.1748 234.9982,155.4198 C235.2602,154.3138 232.4292,154.4568 232.0042,155.3288" id="Fill-134" fill="#EBA376"/>
            <g id="Group-138" transform="translate(89.000000, 204.115000)">
                <mask id="mask-6" fill="white">
                    <use xlink:href="#path-5"/>
                </mask>
                <g id="Clip-137"/>
                <path d="M35.4661,1.161 C36.3151,1.204 44.3801,2.579 48.1861,5.978 C51.3571,8.807 49.9041,11.359 40.7861,10.509 C31.6661,9.661 17.0391,6.827 19.8881,10.793 C22.7391,14.76 7.5411,18.441 1.4601,8.243 C-4.6169,-1.952 23.4961,0.597 35.4661,1.161" id="Fill-136" fill="#E3E3E3" mask="url(#mask-6)"/>
            </g>
            <path d="M93.8719,112.6755 C90.7169,110.5335 78.4029,112.9525 75.8199,118.4335 C73.2659,123.8525 74.4549,120.6845 70.8039,126.4825 C67.3319,131.9985 73.1919,144.6985 79.1769,150.3545 C85.3749,156.2135 82.1119,162.8645 79.9599,167.5005 C77.8079,172.1405 83.7179,173.8805 88.5759,174.7635 C93.4349,175.6515 96.7729,181.6025 95.9689,189.3205 C95.4559,194.2485 96.3169,196.0365 98.3799,192.1945 C100.5269,188.1915 103.8729,193.0855 104.9139,195.2095 C105.9539,197.3345 114.5269,183.6525 114.9919,178.5725 C115.4579,173.5035 119.0419,175.0105 122.2109,175.6735 C125.3789,176.3335 119.9179,171.2125 122.0749,166.3605 C124.2299,161.5125 123.6299,149.3975 127.7249,145.9675 C132.7299,141.7765 133.7949,133.0275 133.3859,127.8045 C132.4929,116.3725 117.6329,104.6855 103.6549,106.6875 C98.1639,107.4745 95.5539,109.7275 93.8719,112.6755" id="Fill-139" fill="#000000"/>
            <path d="M121.3211,162.0431 C121.3211,162.0431 119.7361,166.6811 119.3021,173.0061 C113.6801,168.2371 97.5281,179.6351 99.4461,185.6431 C97.1701,175.6291 98.2901,167.5531 91.3191,163.7031 C84.3481,159.8541 82.9531,156.3561 85.4481,154.3611 C87.9431,152.3641 121.3211,162.0431 121.3211,162.0431" id="Fill-141" fill="#000000"/>
            <path d="M122.532,170.5905 C122.532,170.5905 128.121,171.1595 134.795,167.3525 C135.445,166.1015 135.467,165.4845 135.772,164.4445 C136.078,163.4015 136.914,163.6855 136.961,164.6115 C138.156,163.3085 139.676,162.0545 140.147,162.5565 C140.622,163.0555 138.598,164.4145 138.598,164.4145 C138.598,164.4145 141.206,162.9365 141.549,163.5935 C141.834,164.1415 139.38,165.1805 139.38,165.1805 C139.38,165.1805 141.779,164.7245 141.788001,165.4115 C141.79,166.1025 139.435,166.5605 139.435,166.5605 C139.435,166.5605 141.503,166.6065 141.242,167.2985 C140.982,167.9915 138.725,167.8915 138.725,167.8915 C138.725,167.8915 137.726,169.0685 136.144,169.0065 C131.798,171.9435 128.834,172.9475 122.065,173.3315 C122.191,172.0595 122.532,170.5905 122.532,170.5905" id="Fill-143" fill="#EBA376"/>
            <path d="M122.4554,172.956716 C122.4554,172.956716 123.4664,172.9597 123.9584,172.8847 C123.0984,172.4067 122.9594,171.3997 124.0124,170.8937 C123.0094,170.9257 122.3004,170.8217 122.3004,170.8217 L122.4554,172.956716 Z" id="Fill-145" fill="#EDB389"/>
            <path d="M114.9949,168.6481 C114.9949,168.6481 118.8469,169.7311 122.1369,169.5041 C122.9139,170.8451 122.3609,174.1321 122.0579,175.1831 C119.4079,176.1801 115.4069,174.7721 115.4069,174.7721 L114.9949,168.6481 Z" id="Fill-147" fill="#DC5391"/>
            <path d="M121.0721,169.3669 C121.0721,169.3669 121.5461,173.8629 121.2051,175.4549 C121.8001,175.6529 122.7501,175.2179 122.7501,175.2179 C122.7501,175.2179 123.1761,171.1049 122.4541,169.4079 C121.6891,169.3399 121.0721,169.3669 121.0721,169.3669" id="Fill-149" fill="#F5CFE2"/>
            <path d="M109.7508,171.6257 C112.1968,170.7427 115.2108,171.4787 117.3478,171.1067 C120.3398,176.7067 120.7668,169.8847 120.7668,169.8847 C120.7668,169.8847 121.1518,173.4187 120.7688,175.1497 C118.6608,175.7467 116.9138,174.6627 116.9138,174.6627 C116.9138,174.6627 109.0148,173.9667 109.7508,171.6257" id="Fill-151" fill="#B2316A"/>
            <path d="M115.4993,203.9919 C114.8923,205.3309 116.7123,204.6169 118.1933,204.0999 C119.9143,203.4959 127.6023,200.4299 126.8763,198.9389 C126.0483,197.2379 123.9693,198.0849 121.0063,199.3019 C118.0373,200.5189 115.4993,203.9919 115.4993,203.9919" id="Fill-153" fill="#4E4B4A"/>
            <path d="M123.639,198.8376 C123.639,198.8376 128.756,209.5726 124.111,212.0636 C120.775,213.8536 108.736,204.3646 108.736,204.3646 L110.971,201.9226 C110.971,201.9226 118.833,207.3956 121.595,208.0996 C123.383,207.7816 119.632,200.2306 119.632,200.2306 L123.639,198.8376 Z" id="Fill-155" fill="#EDB389"/>
            <path d="M120.3885,200.5465 C120.3885,200.5465 121.0345,202.2565 121.3885,203.1125 C121.8755,201.3405 123.1685,200.6085 124.5575,202.2945 C124.0515,200.4875 123.4845,199.4265 123.4845,199.4265 L120.3885,200.5465 Z" id="Fill-157" fill="#DFA174"/>
            <path d="M109.5813,190.6276 C109.5813,190.6276 106.8733,195.3246 115.3883,204.6176 C116.6573,202.7506 126.4863,198.4886 126.8763,198.9386 C125.0313,194.2726 121.7103,190.7116 121.7103,190.7116 L109.5813,190.6276 Z" id="Fill-159" fill="#81807E"/>
            <path d="M110.5213,191.0163 C110.5213,191.0163 113.4883,193.3923 120.9953,201.0053 C121.4713,197.3093 118.5233,196.1323 120.7933,194.4073 C122.6693,192.9743 123.3093,192.4903 122.9443,191.9863 C115.9283,191.1713 110.5213,191.0163 110.5213,191.0163" id="Fill-161" fill="#666463"/>
            <path d="M112.1341,202.6491 C111.7491,201.4941 109.8951,200.2991 108.3901,200.6071 C106.2371,201.5831 103.2771,205.5741 103.9101,208.9201 C104.4991,212.0351 106.9941,211.9781 108.2311,210.7521 C109.2281,209.7611 108.9581,207.0251 111.3581,206.1351 C112.2561,206.0751 112.3761,204.7181 110.7021,204.6191 C110.2301,203.2281 112.1341,202.6491 112.1341,202.6491" id="Fill-163" fill="#DD521C"/>
            <path d="M112.0057,205.527 C111.9617,205.614 111.9347,205.714 111.9167,205.819 C111.9677,205.73 111.9987,205.631 112.0057,205.527" id="Fill-165" fill="#3C3C3B"/>
            <path d="M110.0887,203.3337 C110.3877,203.2747 110.6967,203.2797 111.0057,203.3217 C111.3387,202.9767 111.8047,202.7717 112.0187,202.6887 C111.2617,201.8887 109.9447,201.2777 108.8227,201.5097 C106.6677,202.4837 103.7107,206.4757 104.3417,209.8207 C104.3887,210.0637 104.4497,210.2807 104.5167,210.4887 C104.8157,210.9307 105.1807,211.2187 105.5767,211.3757 C105.1437,208.0917 107.9867,204.2847 110.0887,203.3337" id="Fill-167" fill="#B94018"/>
            <path d="M108.7669,200.5133 C108.7669,200.5133 107.9249,199.8763 107.0789,200.1743 C105.0069,201.3843 103.1199,204.8413 102.8679,207.3253 C102.6149,209.8003 103.7699,210.9763 104.7569,210.7383 C104.2099,208.2033 104.0679,203.9863 108.7669,200.5133" id="Fill-169" fill="#F3F2F3"/>
            <path d="M104.5169,210.7624 C104.5989,210.7634 104.6779,210.7574 104.7559,210.7384 C104.5989,209.9914 104.4709,209.0914 104.4949,208.1104 C104.3739,209.0664 104.4089,209.9694 104.5169,210.7624" id="Fill-171" fill="#BDBDBD"/>
            <path d="M107.0052,201.151 C107.3482,201.03 107.6862,201.062 107.9732,201.147 C108.2202,200.929 108.4852,200.72 108.7662,200.513 C108.7662,200.513 107.9242,199.877 107.0782,200.173 C105.0062,201.383 103.1202,204.841 102.8682,207.326 C102.8422,207.563 102.8342,207.778 102.8332,207.992 C103.2022,205.543 105.0162,202.315 107.0052,201.151" id="Fill-173" fill="#CBCBCB"/>
            <path d="M110.2796,204.6706 C109.6646,203.8616 108.4166,205.3616 108.5766,205.8186 C108.8316,206.5686 109.3306,207.5816 109.4126,208.1716 C109.7206,208.2896 110.8426,207.2906 110.8696,206.6346 C110.8906,205.9806 110.6006,205.0876 110.2796,204.6706" id="Fill-175" fill="#F3F2F3"/>
            <path d="M109.3811,206.1637 C109.3761,205.7897 109.8571,205.0497 110.4741,204.9857 C110.4111,204.8677 110.3471,204.7567 110.2791,204.6707 C109.6641,203.8617 108.4171,205.3617 108.5771,205.8187 C108.8311,206.5697 109.3301,207.5807 109.4121,208.1727 C109.5131,208.2117 109.6971,208.1297 109.9021,207.9857 C109.7121,207.4617 109.4011,206.9277 109.3811,206.1637" id="Fill-177" fill="#CBCBCB"/>
            <path d="M110.6346,167.8757 L112.2796,167.4257 L112.3066,165.3387 L114.9526,165.3947 L114.8126,167.5107 L115.8726,168.0677 C115.8726,168.0677 118.5726,170.7977 114.8396,171.1327 C112.2926,171.3597 109.9946,169.0157 110.6346,167.8757" id="Fill-179" fill="#EBA376"/>
            <path d="M114.8118,167.5104 L114.9518,165.3944 L112.3068,165.3384 L112.2788,167.4254 L111.2698,167.7024 C112.0558,168.2404 113.0888,168.6064 114.1668,168.5114 C114.9688,168.4364 115.4708,168.2544 115.7698,168.0124 L114.8118,167.5104 Z" id="Fill-181" fill="#EDB389"/>
            <path d="M109.5174,206.236 C108.7474,207.489 110.6454,207.01 112.1744,206.684 C113.9594,206.309 121.9734,204.245 121.4414,202.669 C120.8374,200.877 118.6704,201.451 115.5724,202.284 C112.4784,203.116 109.5174,206.236 109.5174,206.236" id="Fill-183" fill="#4E4B4A"/>
            <path d="M118.2488,202.1579 C118.2488,202.1579 121.9598,213.4579 117.0378,215.3389 C113.4978,216.6859 102.7628,205.7519 102.7628,205.7519 L105.2888,203.6089 C105.2888,203.6089 112.3948,210.0359 115.0418,211.0839 C116.8568,210.9929 114.0958,203.0309 114.0958,203.0309 L118.2488,202.1579 Z" id="Fill-185" fill="#EBA376"/>
            <path d="M114.365,202.7038 C114.365,202.7038 114.802,204.5438 115.158,205.4008 C115.645,203.6238 117.408,202.9328 118.797,204.6198 C118.291,202.8128 118.169,201.4818 118.169,201.4818 L114.365,202.7038 Z" id="Fill-187" fill="#EDB389"/>
            <path d="M105.3455,192.2301 C105.3455,192.2301 102.0605,196.5441 109.3255,206.8431 C109.8675,204.5891 120.3505,201.2881 121.4415,202.6681 C120.2085,197.8071 118.2345,192.2971 118.2345,192.2971 L105.3455,192.2301 Z" id="Fill-189" fill="#9A9695"/>
            <path d="M119.2435,198.9782 C120.1135,199.2072 121.8235,201.9452 119.3455,201.7472 C116.8685,201.5452 113.6185,202.9562 111.0635,204.5682 C113.0545,201.2652 117.5635,198.5382 119.2435,198.9782" id="Fill-191" fill="#BEBBBB"/>
            <path d="M106.2283,192.7331 C106.2283,192.7331 102.8723,196.8441 109.3533,205.3461 C106.6263,199.9631 106.8953,197.8121 109.3163,197.9011 C112.9893,198.0391 117.3823,195.7121 118.8203,194.2261 C111.9673,192.5281 106.2283,192.7331 106.2283,192.7331" id="Fill-193" fill="#7A7876"/>
            <path d="M106.3514,204.4792 C106.1134,203.2842 104.4294,201.8642 102.8964,201.9802 C100.6344,202.6732 97.1954,206.2502 97.3964,209.6542 C97.5864,212.8202 100.0684,213.0812 101.4474,212.0182 C102.5644,211.1632 102.6434,208.4132 105.1414,207.8382 C106.0384,207.8932 106.3264,206.5582 104.6794,206.2502 C104.3894,204.8092 106.3514,204.4792 106.3514,204.4792" id="Fill-195" fill="#DD521C"/>
            <path d="M105.8572,207.3171 C105.8012,207.4011 105.7622,207.4931 105.7282,207.5961 C105.7942,207.5121 105.8402,207.4201 105.8572,207.3171" id="Fill-197" fill="#3C3C3B"/>
            <path d="M105.159,204.9958 C105.479,204.7408 105.878,204.5998 106.123,204.5308 C105.492,203.6038 104.225,202.7868 103.044,202.8708 C100.785,203.5668 97.344,207.1448 97.545,210.5498 C97.548,210.5868 97.553,210.6198 97.556,210.6578 C97.759,211.3968 98.129,211.8918 98.574,212.1988 C98.594,208.8968 101.879,205.5158 104.068,204.8408 C104.432,204.8138 104.802,204.8738 105.159,204.9958" id="Fill-199" fill="#B94018"/>
            <path d="M103.2781,201.9333 C103.2781,201.9333 102.5281,201.1933 101.6501,201.3823 C99.4431,202.3233 97.1291,205.5103 96.5661,207.9383 C95.9991,210.3643 96.9971,211.6783 98.0061,211.5603 C97.7871,208.9873 98.1811,204.7763 103.2781,201.9333" id="Fill-201" fill="#F3F2F3"/>
            <path d="M97.7659,211.5592 C97.8459,211.5752 97.9249,211.5752 98.0069,211.5612 C97.9459,210.8032 97.9329,209.8922 98.0829,208.9252 C97.8369,209.8612 97.7579,210.7572 97.7659,211.5592" id="Fill-203" fill="#BDBDBD"/>
            <path d="M101.4544,202.3376 C101.8084,202.2646 102.1414,202.3376 102.4134,202.4576 C102.6864,202.2796 102.9754,202.1036 103.2774,201.9346 C103.2774,201.9346 102.5274,201.1926 101.6514,201.3816 C99.4434,202.3216 97.1294,205.5116 96.5664,207.9386 C96.5104,208.1686 96.4754,208.3856 96.4484,208.6006 C97.1254,206.2176 99.3334,203.2426 101.4544,202.3376" id="Fill-205" fill="#CBCBCB"/>
            <path d="M104.2537,206.2497 C103.7487,205.3677 102.3197,206.6967 102.4187,207.1757 C102.5767,207.9477 102.9437,209.0147 102.9467,209.6117 C103.2407,209.7677 104.4827,208.9177 104.5887,208.2707 C104.6937,207.6197 104.5197,206.7007 104.2537,206.2497" id="Fill-207" fill="#F3F2F3"/>
            <path d="M103.1766,207.6178 C103.2156,207.2478 103.7876,206.5738 104.4066,206.5878 C104.3616,206.4598 104.3136,206.3428 104.2536,206.2498 C103.7486,205.3678 102.3196,206.6968 102.4186,207.1758 C102.5766,207.9478 102.9436,209.0138 102.9476,209.6118 C103.0416,209.6638 103.2346,209.6058 103.4596,209.4858 C103.3346,208.9458 103.0966,208.3758 103.1766,207.6178" id="Fill-209" fill="#CBCBCB"/>
            <path d="M103.5779,196.0182 C103.5779,196.0182 102.1409,184.9812 103.0319,178.7332 C103.7589,173.6662 105.7879,169.5992 111.0519,167.7602 C113.1159,170.5602 117.2359,169.9482 115.7039,167.9292 C119.9639,171.1322 123.1449,183.1292 123.3929,192.0752 C120.2759,193.1862 119.8339,194.4012 114.8749,195.5702 C108.6419,197.0432 103.5779,196.0182 103.5779,196.0182" id="Fill-211" fill="#ED79AC"/>
            <path d="M115.3143,167.7082 C115.7803,167.9372 116.4423,169.0902 114.3383,169.3242 C113.1303,169.4562 111.3693,168.4902 111.1453,167.7762 C110.5053,167.6422 109.5943,168.0812 109.59928,168.4152 C110.7083,169.8952 112.9603,170.8702 115.1823,170.4712 C117.2333,170.1072 117.4583,168.9482 116.7933,168.3482 C116.0443,167.8482 115.3143,167.7082 115.3143,167.7082" id="Fill-213" fill="#F5CFE2"/>
            <path d="M104.8157,175.3679 C104.8157,175.3679 102.4337,186.3519 104.7167,194.2099 C111.5117,196.0999 117.5147,195.5269 122.6927,189.2919 C106.5977,198.2039 104.5387,185.8359 104.8157,175.3679" id="Fill-215" fill="#DC5391"/>
            <polygon id="Fill-217" fill="#EB6554" points="105.054 219.9489 115.149 217.4279 132.182 224.9989 121.856 228.8869"/>
            <polygon id="Fill-219" fill="#C71113" points="105.054 219.9489 105.054 225.9429 121.856 235.5639 121.856 228.8869"/>
            <polygon id="Fill-221" fill="#E20D18" points="132.1814 224.9977 132.1814 230.9897 121.8554 235.5637 121.8554 228.8887"/>
            <path d="M132.1814,224.9977 C132.1814,224.9977 126.6344,226.7957 121.8554,228.8887 C126.9624,227.6137 132.1814,224.9977 132.1814,224.9977" id="Fill-223" fill="#F19085"/>
            <path d="M105.054,219.9489 C105.054,219.9489 114.368,225.4249 121.856,228.8869 C114.111,224.4189 105.054,219.9489 105.054,219.9489" id="Fill-225" fill="#F19085"/>
            <path d="M121.8562,235.5641 C121.8562,235.5641 121.5872,231.8951 121.8562,228.8871 C122.3892,231.1361 121.8562,235.5641 121.8562,235.5641" id="Fill-227" fill="#F19085"/>
            <polygon id="Fill-229" fill="#66BBE5" points="91.99 192.0055 91.99 201.8095 84.894 205.3855 84.894 195.0275"/>
            <polygon id="Fill-231" fill="#A6DAF1" points="91.99 192.0055 84 189.9815 76.062 192.9775 84.894 195.0275"/>
            <polygon id="Fill-233" fill="#1E8CC7" points="76.0623 192.9772 76.0623 202.5982 84.8933 205.3842 84.8933 195.0282"/>
            <path d="M84.8938,195.028 C84.8938,195.028 89.8498,192.505 91.9898,192.006 C90.0608,193.385 84.8938,195.028 84.8938,195.028" id="Fill-235" fill="#D8EEFB"/>
            <path d="M76.0623,192.9772 C76.0623,192.9772 81.2133,195.0632 84.8933,195.0282 C82.6483,194.2282 76.0623,192.9772 76.0623,192.9772" id="Fill-237" fill="#D8EEFB"/>
            <path d="M84.8938,205.3844 C84.8938,205.3844 85.3528,196.7754 84.8938,195.0284 C84.3308,197.5924 84.8938,205.3844 84.8938,205.3844" id="Fill-239" fill="#D8EEFB"/>
            <path d="M153.0237,212.7829 L148.2937,211.7319 L148.2937,206.4729 C148.2937,204.5819 145.9787,205.0029 145.2437,205.8949 C146.3997,201.4789 152.3937,202.6369 153.2877,203.6359 C154.1807,204.6359 154.1807,209.5229 153.0237,212.7829" id="Fill-241" fill="#68A027"/>
            <path d="M155.5481,196.7487 L156.1251,210.8887 L153.0241,212.7837 L153.0241,207.3147 C153.0241,205.2127 151.2891,203.0037 148.7651,203.9507 C146.2421,204.8957 146.2421,208.4197 146.2421,210.8887 L146.2421,216.8317 L142.5631,219.0907 L142.1421,203.3727 L155.5481,196.7487 Z" id="Fill-243" fill="#B6CC04"/>
            <polygon id="Fill-245" fill="#68A027" points="155.5481 196.7487 147.8721 194.8557 134.5191 201.0067 142.1421 203.3727"/>
            <polygon id="Fill-247" fill="#75B62C" points="134.5193 201.0055 134.9403 216.5155 142.5623 219.0905 142.1423 203.3725"/>
            <path d="M142.1419,203.3727 C142.1419,203.3727 147.3979,200.2027 155.5479,196.7477 C149.9229,200.0597 142.1419,203.3727 142.1419,203.3727" id="Fill-249" fill="#D9E186"/>
            <path d="M134.5193,201.0055 C134.5193,201.0055 137.5843,202.6915 142.1423,203.3725 C139.6543,202.1955 134.5193,201.0055 134.5193,201.0055" id="Fill-251" fill="#D9E186"/>
            <path d="M142.1419,203.3727 C142.1419,203.3727 142.8769,217.3747 142.5629,219.0917 C141.6859,210.0117 142.1419,203.3727 142.1419,203.3727" id="Fill-253" fill="#D9E186"/>
            <polygon id="Fill-255" fill="#EB6554" points="156.9671 189.0221 146.8731 186.4991 129.8391 194.0691 140.1641 197.9591"/>
            <polygon id="Fill-257" fill="#C71113" points="156.9671 189.0221 156.9671 195.0161 140.1641 204.6351 140.1641 197.9591"/>
            <polygon id="Fill-259" fill="#E20D18" points="129.8401 194.069 129.8401 200.062 140.1651 204.634 140.1651 197.96"/>
            <path d="M129.8401,194.069 C129.8401,194.069 135.3881,195.869 140.1651,197.96 C135.0601,196.686 129.8401,194.069 129.8401,194.069" id="Fill-261" fill="#F19085"/>
            <path d="M156.9671,189.0221 C156.9671,189.0221 147.6531,194.4971 140.1641,197.9591 C147.9121,193.4911 156.9671,189.0221 156.9671,189.0221" id="Fill-263" fill="#F19085"/>
            <path d="M140.1648,204.6354 C140.1648,204.6354 140.4338,200.9684 140.1648,197.9594 C139.6328,200.2084 140.1648,204.6354 140.1648,204.6354" id="Fill-265" fill="#F19085"/>
            <polygon id="Fill-267" fill="#66BBE5" points="152.4788 180.5329 152.4788 190.3379 145.3808 193.9119 145.3808 183.5549"/>
            <polygon id="Fill-269" fill="#A6DAF1" points="152.4788 180.5329 144.4858 178.5089 136.5498 181.5049 145.3808 183.5549"/>
            <polygon id="Fill-271" fill="#1E8CC7" points="136.5501 181.5046 136.5501 191.1256 145.3811 193.9106 145.3811 183.5566"/>
            <path d="M145.3811,183.5553 C145.3811,183.5553 150.3371,181.0333 152.4791,180.5333 C150.5481,181.9133 145.3811,183.5553 145.3811,183.5553" id="Fill-273" fill="#D8EEFB"/>
            <path d="M136.5501,181.5046 C136.5501,181.5046 141.7011,183.5896 145.3811,183.5566 C143.1361,182.7536 136.5501,181.5046 136.5501,181.5046" id="Fill-275" fill="#D8EEFB"/>
            <path d="M145.3811,193.9108 C145.3811,193.9108 145.8401,185.3018 145.3811,183.5558 C144.8171,186.1198 145.3811,193.9108 145.3811,193.9108" id="Fill-277" fill="#D8EEFB"/>
            <polygon id="Fill-279" fill="#5A3A80" points="150.2376 171.529 150.2376 179.572 146.5056 182.884 146.5056 174.633"/>
            <polygon id="Fill-281" fill="#855FA4" points="146.5061 174.6315 146.5061 182.8845 137.5691 181.0975 137.5691 173.1585"/>
            <polygon id="Fill-283" fill="#AF8EC1" points="150.2376 171.529 146.5056 174.633 137.5686 173.159"/>
            <path d="M150.2376,171.529 C150.2376,171.529 148.6196,173.589 146.5056,174.633 C147.9916,173.205 150.2376,171.529 150.2376,171.529" id="Fill-285" fill="#CEB1D5"/>
            <path d="M137.5686,173.1598 C137.5686,173.1598 141.7866,174.2468 146.5056,174.6318 C144.3106,173.9648 137.5686,173.1598 137.5686,173.1598" id="Fill-287" fill="#CEB1D5"/>
            <path d="M146.5061,182.8854 C146.5061,182.8854 146.9091,176.2184 146.5061,174.6324 C146.2831,176.4354 146.5061,182.8854 146.5061,182.8854" id="Fill-289" fill="#CEB1D5"/>
            <polygon id="Fill-291" fill="#FDC700" points="146.6106 161.6472 152.1306 171.6342 140.8806 174.2102"/>
            <polygon id="Fill-293" fill="#F39700" points="140.8807 174.2097 135.5187 172.1607 141.5637 160.4897 146.6107 161.6467"/>
            <path d="M146.6106,161.6472 C146.6106,161.6472 144.0196,169.0762 140.8806,174.2102 C143.9446,166.7812 146.6106,161.6472 146.6106,161.6472" id="Fill-295" fill="#FFDB62"/>
            <path d="M132.4295,179.0563 C129.1985,182.1783 120.2055,188.7603 111.7075,181.4403 C112.1095,179.6223 113.4185,179.1153 113.4185,179.1153 C116.0505,181.7383 122.5175,184.8053 131.0895,177.1603 C131.0895,177.1603 131.1965,176.5903 130.8525,175.5233 C130.5095,174.4503 131.1095,174.3223 131.4525,174.6233 C131.8135,174.9363 132.1165,175.7993 132.1165,175.7993 C132.1165,175.7993 133.8075,172.7813 134.5575,172.9523 C135.4395,173.1523 134.3225,174.7513 134.3225,174.7513 C134.3225,174.7513 135.9945,173.1463 136.5495,173.7223 C137.2415,174.4423 135.3075,175.6083 135.3075,175.6083 C135.3075,175.6083 136.8705,174.6233 137.2995,175.3063 C137.7285,175.9943 135.3075,176.8063 135.3075,176.8063 C135.3075,176.8063 136.8485,176.5063 137.0005,176.9993 C137.2295,177.7543 134.7075,178.0463 134.7075,178.0463 L132.4295,179.0563 Z" id="Fill-297" fill="#EBA376"/>
            <path d="M113.7366,182.6481 C113.7366,182.6481 114.8336,183.3471 115.4926,183.5251 C114.3756,182.6651 115.4206,181.4631 116.9986,181.6461 C116.3296,181.3281 115.5066,180.9551 115.5066,180.9551 L113.7366,182.6481 Z" id="Fill-299" fill="#EDB389"/>
            <path d="M112.1531,185.1774 C108.7631,182.4194 105.3751,176.6264 107.7171,174.3694 C110.2561,171.9224 115.3691,176.8964 117.4081,180.0164 C113.9291,182.0414 112.1531,185.1774 112.1531,185.1774" id="Fill-301" fill="#DC5391"/>
            <path d="M116.3431,178.568 C116.3431,178.568 117.1821,179.198 117.4081,180.015 C116.1621,180.83 113.0541,183.471 112.1531,185.177 C111.1851,184.514 110.8061,184.01 110.8061,184.01 C110.8061,184.01 113.6471,180.347 116.3431,178.568" id="Fill-303" fill="#F5CFE2"/>
            <path d="M108.0037,175.3552 C107.5007,175.3222 106.1667,177.9502 110.5737,183.0342 C107.7217,178.2952 109.7707,175.4622 108.0037,175.3552" id="Fill-305" fill="#B2316A"/>
            <path d="M132.0115,127.3347 C135.5835,134.2307 139.5685,156.0867 120.0925,164.3727 C100.7235,172.6137 87.4775,160.3927 82.2115,146.8587 C75.8565,130.5237 87.4675,117.9027 99.0625,114.3707 C117.1665,108.8527 127.2335,118.0967 132.0115,127.3347" id="Fill-307" fill="#EBA376"/>
            <path d="M124.6277,127.3561 C121.6427,126.7301 121.2537,129.9911 123.1967,129.8651 C125.2767,129.7271 127.0697,130.3691 127.3197,130.1471 C127.8647,129.6691 126.3037,127.7101 124.6277,127.3561" id="Fill-309" fill="#000000"/>
            <path d="M98.0164,135.9821 C100.3564,134.0291 102.2334,136.7201 100.4614,137.5241 C98.5574,138.3821 97.2764,139.7891 96.9514,139.7111 C96.2444,139.5431 96.7004,137.0801 98.0164,135.9821" id="Fill-311" fill="#000000"/>
            <path d="M116.8919,145.9611 C116.9289,145.9681 116.9659,145.9681 116.9939,145.9461 C117.9299,145.3821 118.3449,144.4801 118.0989,143.5211 C117.8709,142.6391 117.1209,141.9531 116.3589,141.9211 C115.8809,141.9031 114.9939,142.1221 114.4319,143.7731 C114.4069,143.8501 114.4469,143.9281 114.5249,143.9521 C114.6049,143.9851 114.6769,143.9421 114.7009,143.8661 C115.0749,142.7661 115.6569,142.1771 116.3429,142.2031 C116.9959,142.2271 117.6279,142.8281 117.8249,143.5911 C117.9269,143.9901 118.0369,144.9921 116.8459,145.7021 C116.7819,145.7451 116.7609,145.8281 116.7999,145.8961 C116.8219,145.9331 116.8539,145.9521 116.8919,145.9611" id="Fill-313" fill="#C58B64"/>
            <path d="M101.0374,145.404 C101.0664,145.414 101.0944,145.415 101.1214,145.415 C101.2804,145.404 101.4024,145.266 101.3904,145.104 C101.2194,142.527 102.9274,140.647 104.6264,140.512 C105.9544,140.408 106.8384,141.395 107.0034,143.163 C107.0144,143.319 107.1584,143.439 107.3204,143.423 C107.4784,143.408 107.5954,143.269 107.5794,143.107 C107.3534,140.61 105.8794,139.831 104.5824,139.933 C102.6024,140.091 100.6164,142.222 100.8094,145.145 C100.8214,145.276 100.9174,145.38 101.0374,145.404" id="Fill-315" fill="#000000"/>
            <path d="M120.3514,138.738 C120.3794,138.746 120.4054,138.748 120.4344,138.745 C120.5934,138.736 120.7144,138.597 120.7034,138.439 C120.5404,135.994 122.1574,134.217 123.7604,134.091 C125.0114,133.991 125.8514,134.925 126.0074,136.592 C126.0184,136.752 126.1614,136.871 126.3224,136.853 C126.4784,136.841 126.5984,136.699 126.5814,136.54 C126.3624,134.157 124.9564,133.413 123.7184,133.512 C121.8314,133.662 119.9434,135.692 120.1264,138.471 C120.1354,138.606 120.2284,138.71 120.3514,138.738" id="Fill-317" fill="#000000"/>
            <path d="M107.8084,113.508 C107.8084,113.508 111.1424,120.166 111.9324,126.772 C109.7474,127.844 107.7304,128.224 107.7304,128.224 L102.5344,117.608 C102.5344,117.608 105.9984,125.766 105.8534,128.574 C102.3924,130.413 91.6614,132.422 87.7904,133.279 C88.8694,137.844 88.9884,144.443 87.7144,151.966 C86.2694,152.635 82.3794,153.759 82.3794,153.759 C82.3794,153.759 68.5514,142.044 69.3904,125.799 C69.9334,115.143 86.0034,108.188 86.0034,108.188 C86.0034,108.188 79.6624,108.978 80.3154,106.47 C80.9614,103.968 87.8064,107.055 87.8064,107.055 C87.8064,107.055 85.3804,103.67 87.3764,102.37 C90.2334,100.506 89.7514,106.694 89.7514,106.694 C89.7514,106.694 100.3904,101.787 112.6144,102.542 C123.7174,103.231 132.1714,106.546 132.9034,129.586 C130.7694,126.936 128.0224,121.357 128.0224,121.357 C128.0224,121.357 121.0144,124.278 116.0154,125.48 C113.0384,117.561 107.8084,113.508 107.8084,113.508" id="Fill-319" fill="#000000"/>
            <path d="M71.0564,128.3356 C71.8914,137.5796 73.2614,140.1046 83.0984,153.6226 C85.5254,153.8336 87.9054,146.6306 85.6784,133.9376 C83.2244,146.3176 76.8824,144.3266 71.0564,128.3356" id="Fill-321" fill="#000000"/>
            <path d="M113.8865,102.6413 C105.9695,109.1983 87.4245,112.2443 79.4975,111.8603 C74.9725,114.9293 69.6965,119.7723 69.3895,125.7983 C69.3055,127.4083 69.3715,128.9663 69.5455,130.4763 C93.6275,111.0433 119.3845,111.2143 129.2305,112.3393 C125.9455,105.2983 120.4975,103.2323 113.8865,102.6413" id="Fill-323" fill="#000000"/>
            <path d="M87.1985,149.6525 C87.1985,149.6525 84.9775,146.8685 81.5805,148.3415 C78.0035,149.8905 79.4985,155.2775 83.1295,157.2205 C86.7585,159.1565 90.7665,157.4425 90.4595,154.3905 L87.1985,149.6525 Z" id="Fill-325" fill="#EBA376"/>
            <path d="M82.0979,148.443 C82.9639,148.073 83.7389,147.997 84.4239,148.075 C83.8849,148.034 83.3249,148.108 82.7549,148.381 C79.4639,149.972 81.1259,153.924 83.4289,155.591 C86.5409,157.842 89.7699,156.556 90.4159,154.071 C90.7049,156.91 86.9439,158.51 83.5429,156.708 C80.1409,154.904 78.7359,149.89 82.0979,148.443" id="Fill-327" fill="#C58B64"/>
            <path d="M81.7474,150.0441 C83.6414,148.3221 88.0644,151.7181 86.5234,155.7521 C85.8754,151.8901 84.0914,151.4861 83.4424,153.8961 C82.8424,152.8651 82.9964,151.9021 84.3624,151.2501 C83.4424,149.9591 81.7474,150.0441 81.7474,150.0441" id="Fill-329" fill="#C58B64"/>
            <path d="M117.0623,134.6662 C116.9483,139.3272 120.6433,143.2112 125.3013,143.3272 L125.4293,143.3292 C130.0213,143.3762 133.8503,139.6792 133.9633,135.0872 C134.0203,132.8312 133.1943,130.6882 131.6383,129.0512 C130.0803,127.4142 127.9823,126.4812 125.7233,126.4262 L125.5923,126.4242 C121.0053,126.3802 117.1743,130.0752 117.0623,134.6662 L117.0623,134.6662 Z M125.2803,144.1732 C120.1573,144.0442 116.0893,139.7702 116.2163,134.6452 C116.3433,129.5952 120.5543,125.5292 125.6033,125.5792 L125.7423,125.5792 C128.2283,125.6422 130.5363,126.6672 132.2503,128.4682 C133.9603,130.2682 134.8723,132.6262 134.8083,135.1092 C134.6853,140.1592 130.4733,144.2262 125.4233,144.1752 L125.2803,144.1732 Z" id="Fill-331" fill="#1D70B7"/>
            <path d="M94.4808,141.5715 C94.4248,143.8305 95.2498,145.9755 96.8068,147.6115 C98.3638,149.2485 100.4628,150.1785 102.7208,150.2335 L102.8508,150.2365 C107.4408,150.2815 111.2688,146.5855 111.3828,141.9945 C111.4388,139.7385 110.6128,137.5925 109.0578,135.9565 C107.5008,134.3215 105.3998,133.3895 103.1418,133.3335 L103.0118,133.3305 C98.4228,133.2855 94.5938,136.9815 94.4808,141.5715 L94.4808,141.5715 Z M102.6998,151.0795 C100.2168,151.0185 97.9078,149.9915 96.1918,148.1945 C94.4808,146.3915 93.5738,144.0355 93.6368,141.5525 C93.7628,136.5015 97.9718,132.4355 103.0208,132.4855 L103.1638,132.4885 C105.6458,132.5485 107.9568,133.5755 109.6688,135.3745 C111.3778,137.1735 112.2908,139.5335 112.2278,142.0165 C112.1038,147.0635 107.8908,151.1345 102.8418,151.0815 L102.6998,151.0795 Z" id="Fill-333" fill="#1D70B7"/>
            <path d="M111.597,139.321 C111.648,139.324 111.701,139.315 111.752,139.294 L116.876,137.307 C117.094,137.221 117.201,136.978 117.117,136.758 C117.035,136.543 116.791,136.429 116.571,136.518 L111.446,138.505 C111.229,138.59 111.121,138.834 111.204,139.053 C111.27,139.217 111.428,139.321 111.597,139.321" id="Fill-335" fill="#1D70B7"/>
            <path d="M85.304,147.7253 C85.345,147.7253 85.391,147.7203 85.432,147.7073 L94.527,144.9353 C94.752,144.8663 94.879,144.6323 94.811,144.4083 C94.741,144.1863 94.504,144.0603 94.285,144.1253 L85.185,146.8973 C84.963,146.9663 84.836,147.2013 84.903,147.4253 C84.959,147.6073 85.124,147.7233 85.304,147.7253" id="Fill-337" fill="#1D70B7"/>
            <path d="M131.1805,115.9538 C124.8645,105.6768 109.3705,100.8568 91.2955,109.7598 C74.4455,118.0588 68.8405,130.5858 71.7495,139.9548 C71.8515,140.7108 74.9215,146.5508 76.7045,147.5868 C76.7045,147.5868 76.3345,128.6608 96.4325,118.7358 C114.1185,110.0018 127.6335,114.5488 132.9605,125.7488 C133.3895,124.3948 131.5655,117.4528 131.1805,115.9538" id="Fill-339" fill="#FFD815"/>
            <path d="M231.9031,130.1286 C231.7281,130.0536 231.4621,130.1756 231.4111,130.3596 C231.3541,130.5706 231.4321,130.6506 231.4321,130.6506 C231.4321,130.6506 228.0861,132.2516 222.8441,132.2426 C218.3031,132.2356 214.2421,129.8366 214.2421,129.8366 C214.2421,129.8366 214.3171,129.7496 214.3011,129.6546 C214.2881,129.5756 214.2361,129.4486 214.1171,129.4396 C213.6291,129.4016 213.6921,129.9676 213.8241,130.9626 C213.9131,130.4596 214.0991,130.1456 214.0991,130.1456 L214.2691,130.2046 C214.2691,130.2046 216.6971,140.1066 222.4991,139.8866 C228.3021,139.6686 231.4501,130.9566 231.4501,130.9566 L231.6001,130.9036 C231.6001,130.9036 231.8251,131.1256 231.8541,131.7956 C232.2711,130.8286 232.4581,130.3676 231.9031,130.1286" id="Fill-341" fill="#000000"/>
            <path d="M223.1805,136.3293 C223.4255,136.0313 223.7915,135.7193 223.7915,135.7193 C220.6035,134.2343 218.6115,136.0103 217.7645,137.1473 C218.7885,138.1983 220.4385,140.3263 223.7475,139.5143 C226.9395,138.7303 229.2065,134.8423 229.2065,134.8423 C226.1625,133.3873 223.8495,135.7463 223.1805,136.3293" id="Fill-343" fill="#EA0000"/>
            <path d="M215.0252,130.589 C215.0252,130.589 215.1932,131.759 215.3582,132.062 C217.2202,135.477 221.9122,134.892 230.2112,132.825 C230.5272,132.747 230.8692,131.204 230.8692,131.204 C224.6842,133.06 220.1392,133.06 215.0252,130.589" id="Fill-345" fill="#FFFFFF"/>
            <path d="M116.6521,153.4245 C121.5071,151.7915 122.8311,149.8505 124.6201,148.1655 L124.6731,148.2765 C124.1191,148.8715 123.4161,149.6045 122.3701,150.7025 C122.3701,150.7025 124.3431,158.6315 119.0741,160.1955 C113.8061,161.7605 111.1901,155.8875 109.9931,153.5045 C109.9931,153.5045 113.3261,154.5435 116.6521,153.4245" id="Fill-347" fill="#000000"/>
            <path d="M118.6204,156.6525 C118.3104,156.4395 117.8304,156.2785 117.8304,156.2785 C119.5814,154.3115 121.3214,154.7495 122.5854,154.5425 C122.4994,155.6395 122.4124,158.6785 119.3524,159.9325 C118.1634,160.4205 116.4774,160.4125 115.2224,159.7955 C113.6494,159.0215 112.7434,157.8625 112.4454,157.4335 C114.5004,154.9885 117.8004,156.3045 118.6204,156.6525" id="Fill-349" fill="#EA0000"/>
            <path d="M109.993,153.5041 C109.993,153.5041 114.186,154.4101 116.652,153.4241 C119.119,152.4381 121.065,151.4841 122.065,150.5911 C122.586,151.8911 122.331,151.9401 122.388,152.4501 C122.446,152.9601 117.878,156.2841 110.889,155.2591 C110.396,154.3111 109.993,153.5041 109.993,153.5041" id="Fill-351" fill="#FFFFFF"/>
            <path d="M116.6521,153.4245 C121.5071,151.7915 122.8311,149.8505 124.6201,148.1655 L124.6731,148.2765 C124.1191,148.8715 123.4161,149.6045 122.3701,150.7025 C122.3701,150.7025 124.3431,158.6315 119.0741,160.1955 C113.8061,161.7605 111.1901,155.8875 109.9931,153.5045 C109.9931,153.5045 113.3261,154.5435 116.6521,153.4245 Z" id="Stroke-353" stroke="#000000" stroke-width="0.15"/>
        </g>
    </g>
</svg>