<?xml version="1.0" encoding="UTF-8"?>
<svg width="134px" height="132px" viewBox="0 0 134 132" version="1.1" xmlns="http://www.w3.org/2000/svg" xmlns:xlink="http://www.w3.org/1999/xlink">
    <!-- Generator: Sketch 63.1 (92452) - https://sketch.com -->
    <title>Group 33</title>
    <desc>Created with Sketch.</desc>
    <defs>
        <polygon id="path-1" points="0.68565942 0.970232523 27.359 0.970232523 27.359 27.8141341 0.68565942 27.8141341"/>
    </defs>
    <g id="Page-1" stroke="none" stroke-width="1" fill="none" fill-rule="evenodd">
        <g id="Group-33" transform="translate(0.000000, -1.000000)">
            <g id="Group-19" transform="translate(14.000000, 0.275000)">
                <path d="M98.2222,59.7161 C99.7072,58.3011 100.2922,56.1841 99.7442,54.2071 C99.1952,52.2311 97.6022,50.7161 95.6012,50.2701 C93.5982,49.8221 91.5132,50.5141 90.1762,52.0701 L89.1762,53.1141 C86.3982,51.1821 78.7072,45.4241 62.9262,43.5791 C61.9972,43.4901 61.1092,43.9741 60.6812,44.8031 L52.6792,60.8061 L44.6782,44.8031 C44.2492,43.9741 43.3612,43.4901 42.4332,43.5791 C26.1422,45.4471 18.4942,51.4471 15.9172,53.2921 L15.0052,52.3371 C13.9562,51.2351 12.5032,50.6101 10.9832,50.6041 C8.7642,50.6081 6.7602,51.9311 5.8852,53.9701 C5.0112,56.0091 5.4332,58.3731 6.9592,59.9841 L16.1832,69.6961 L23.8302,77.7651 L21.8732,79.4981 C20.0922,81.0841 19.0222,83.3171 18.9002,85.6971 C18.7802,88.0781 19.6182,90.4091 21.2292,92.1671 L27.8522,99.3471 C28.6952,100.1751 29.1692,101.3101 29.1692,102.4911 C29.1692,103.6741 28.6952,104.8071 27.8522,105.6371 L24.4512,109.0361 L22.8522,107.6371 C22.0072,106.8921 20.7402,106.8921 19.8962,107.6371 L1.5352,124.1741 C0.1612,125.4041 -0.3088,127.3571 0.3512,129.0791 C1.0132,130.8011 2.6692,131.9361 4.5142,131.931117 L34.5432,131.931117 C35.6422,131.9341 36.7022,131.5301 37.5212,130.7961 L41.4772,127.2411 C41.9512,126.8191 42.2202,126.2141 42.2162,125.5791 C42.2112,124.9451 41.9352,124.3431 41.4552,123.9301 L39.8542,122.5291 L44.2112,118.2831 C45.4662,117.0611 47.1492,116.3761 48.9012,116.3721 L53.0792,116.3721 C59.5862,116.3851 65.6882,113.2141 69.4152,107.8811 C71.9902,104.1591 74.7562,100.5771 77.7052,97.1471 C77.9522,96.8661 78.1692,96.5601 78.3522,96.2351 L78.3952,96.1681 L92.7772,80.8101 C95.1592,78.2791 95.0812,74.3081 92.5992,71.8741 C91.4782,70.7621 89.9752,70.1181 88.3982,70.0741 L88.7522,69.6961 L98.2222,59.7161 Z" id="Fill-1" fill="#FDD7AD"/>
                <path d="M89.1763,53.1146 L73.4393,69.6966 L69.8163,73.4966 L56.5473,87.4776 L48.3903,87.4776 L31.4973,69.6966 L15.9173,53.2926 C18.4943,51.4476 26.1423,45.4476 42.4333,43.5796 C43.3613,43.4906 44.2493,43.9736 44.6783,44.8026 L52.6793,60.8056 L60.6813,44.8026 C61.1093,43.9736 61.9973,43.4906 62.9263,43.5796 C78.7073,45.4246 86.3983,51.1816 89.1763,53.1146" id="Fill-3" fill="#F5EFCA"/>
                <path d="M52.6793,94.1458 C51.8173,94.1458 51.0313,93.6448 50.6663,92.8638 L35.1073,59.5238 C34.7563,58.8018 34.8233,57.9478 35.2793,57.2888 C35.7363,56.6268 36.5113,56.2648 37.3103,56.3378 C38.1103,56.4138 38.8073,56.9108 39.1353,57.6438 L52.6793,86.6668 L66.2243,57.6438 C66.7543,56.5498 68.0633,56.0858 69.1633,56.5998 C70.2643,57.1128 70.7473,58.4158 70.2513,59.5238 L54.6933,92.8638 C54.3273,93.6448 53.5423,94.1458 52.6793,94.1458" id="Fill-5" fill="#CBB292"/>
                <path d="M41.4771,127.2415 L37.5211,130.7965 C36.7031,131.5305 35.6421,131.9335 34.5431,131.930517 L4.5141,131.930517 C2.6691,131.9355 1.0131,130.8015 0.3511,129.0795 C-0.3089,127.3565 0.1621,125.4045 1.5361,124.1745 L19.8961,107.6375 C20.7401,106.8915 22.0071,106.8915 22.8521,107.6375 L24.4521,109.0365 L39.8541,122.5285 L41.4561,123.9295 C41.9351,124.3435 42.2111,124.9455 42.2161441,125.5795 C42.2201,126.2145 41.9521,126.8185 41.4771,127.2415" id="Fill-7" fill="#17FFDB"/>
                <path d="M30.4527,127.4857 C29.8647,127.4857 29.2987,127.2507 28.8827,126.8347 L24.9557,122.9097 C24.1137,122.0367 24.1257,120.6507 24.9827,119.7937 C25.8407,118.9357 27.2267,118.9237 28.0987,119.7657 L32.0237,123.6907 C32.6597,124.3277 32.8497,125.2817 32.5057,126.1137 C32.1627,126.9437 31.3517,127.4857 30.4527,127.4857" id="Fill-9" fill="#3D324C"/>
                <path d="M98.2222,59.7161 L88.7522,69.6961 L88.3982,70.0741 L79.3522,79.5861 L79.3522,77.4761 C79.3562,75.2251 78.0012,73.1951 75.9222,72.3321 C73.8432,71.4711 71.4502,71.9471 69.8612,73.5411 L69.8162,73.4961 L73.4392,69.6961 L89.1762,53.1141 L90.1762,52.0701 C91.5132,50.5141 93.5982,49.8221 95.6012,50.2701 C97.6022,50.7161 99.1952,52.2311 99.7442,54.2071 C100.2922,56.1841 99.7072,58.3011 98.2222,59.7161" id="Fill-11" fill="#E64C3C"/>
                <path d="M69.8609,73.5413 C68.8189,74.5863 68.2359,76.0013 68.2389,77.4763 L68.2389,91.3013 L64.2589,95.4783 C62.6269,97.1493 60.4689,98.2103 58.1469,98.4793 C57.7739,98.5493 57.3939,98.5873 57.0129,98.5913 L47.9239,98.5913 C47.5429,98.5873 47.1639,98.5493 46.7899,98.4793 C44.4889,98.2153 42.3469,97.1733 40.7209,95.5233 L23.8309,77.7653 L16.1829,69.6963 L6.9599,59.9833 C5.4739,58.5683 4.8889,56.4513 5.4369,54.4753 C5.9869,52.4973 7.5799,50.9833 9.5809,50.5363 C11.5829,50.0903 13.6679,50.7813 15.0059,52.3373 L15.9179,53.2923 L31.4979,69.6963 L48.3899,87.4783 L56.5479,87.4783 L69.8159,73.4963 L69.8609,73.5413 Z" id="Fill-13" fill="#E64C3C"/>
                <path d="M92.7769,80.8099 L78.3949,96.1679 C79.0189,95.1519 79.3499,93.9829 79.3519,92.7899 L79.3519,79.5859 L88.3979,70.0749 C89.9749,70.1189 91.4779,70.7619 92.5989,71.8739 C95.0819,74.3079 95.1599,78.2799 92.7769,80.8099" id="Fill-15" fill="#F9C795"/>
                <path d="M48.2339,11.9066 L39.3439,11.9066 L39.3439,3.0176 C39.3439,1.7896 38.3479,0.7936 37.1209,0.7936 C35.8929,0.7936 34.8989,1.7896 34.8989,3.0176 L34.8989,11.9066 L26.0069,11.9066 C24.7799,11.9066 23.7859,12.9026 23.7859,14.1316 C23.7859,15.3566 24.7799,16.3526 26.0069,16.3526 L34.8989,16.3526 L34.8989,25.2436 C34.8989,26.4696 35.8929,27.4666 37.1209,27.4666 C38.3479,27.4666 39.3439,26.4696 39.3439,25.2436 L39.3439,16.3526 L48.2339,16.3526 C49.4619,16.3526 50.4579,15.3566 50.4579,14.1316 C50.4579,12.9026 49.4619,11.9066 48.2339,11.9066" id="Fill-17" fill="#FF5364"/>
            </g>
            <g id="Group-25" transform="translate(73.000000, 11.275000)">
                <path d="M24.7974,0.9066 L2.5704,0.9066 C1.3424,0.9066 0.3474,1.9026 0.3474,3.1316 C0.3474,4.3566 1.3424,5.3526 2.5704,5.3526 L24.7974,5.3526 C26.0244,5.3526 27.0194,4.3566 27.0194,3.1316 C27.0194,1.9026 26.0244,0.9066 24.7974,0.9066" id="Fill-20" fill="#3BE5D3"/>
                <g id="Group-24" transform="translate(33.000000, 2.000000)">
                    <mask id="mask-2" fill="white">
                        <use xlink:href="#path-1"/>
                    </mask>
                    <g id="Clip-23"/>
                    <path d="M17.1578,14.386 L26.7158,4.759 C27.2738,4.197 27.4908,3.375 27.2818,2.611 C27.0728,1.844 26.4718,1.247 25.7038,1.044 C24.9348,0.842 24.1178,1.064 23.5578,1.628 L14.0238,11.232 L4.4888,1.628 C3.6228,0.756 2.2168,0.75 1.3438,1.616 C0.4718,2.48 0.4678,3.889 1.3318,4.759 L10.8878,14.386 L1.3318,24.024 C0.4658,24.895 0.4708,26.304 1.3438,27.167 C2.2148,28.033 3.6228,28.03 4.4888,27.157 L14.0238,17.542 L23.5578,27.135 C24.1178,27.699 24.9358,27.92 25.7038,27.718 C26.4728,27.515 27.0748,26.918 27.2828,26.152 C27.4908,25.385 27.2748,24.565 26.7158,24.001 L17.1578,14.386 Z" id="Fill-22" fill="#F29C1F" mask="url(#mask-2)"/>
                </g>
            </g>
            <path d="M88.9058,3.2929 C88.9058,4.5189 87.9108,5.5149 86.6838,5.5149 C85.4558,5.5149 84.4608,4.5189 84.4608,3.2929 C84.4608,2.0639 85.4558,1.0679 86.6838,1.0679 C87.9108,1.0679 88.9058,2.0639 88.9058,3.2929" id="Fill-26" fill="#3BE5D3"/>
            <g id="Group-32" transform="translate(0.000000, 14.275000)">
                <path d="M88.9058,11.2435 C88.9058,12.4705 87.9108,13.4665 86.6838,13.4665 C85.4558,13.4665 84.4608,12.4705 84.4608,11.2435 C84.4608,10.0155 85.4558,9.0195 86.6838,9.0195 C87.9108,9.0195 88.9058,10.0155 88.9058,11.2435" id="Fill-28" fill="#3BE5D3"/>
                <path d="M26.6724,2.3528 C26.6724,1.1248 25.6764,0.1308 24.4484,0.1308 L2.2224,0.1308 C1.3234,0.1308 0.5144,0.6718 0.1694,1.5018 C-0.1736,2.3318 0.0164,3.2888 0.6514,3.9228 L10.1934,13.4658 L0.6514,23.0078 C0.0164,23.6428 -0.1736,24.5998 0.1694,25.4298 C0.5144,26.2598 1.3234,26.8008 2.2224,26.8008 L24.4484,26.8008 C25.6764,26.8008 26.6724,25.8068 26.6724,24.5798 C26.6724,23.3518 25.6764,22.3568 24.4484,22.3568 L7.5874,22.3568 L14.9074,15.0368 C15.7754,14.1698 15.7754,12.7618 14.9074,11.8948 L7.5874,4.5748 L24.4484,4.5748 C25.6764,4.5748 26.6724,3.5808 26.6724,2.3528" id="Fill-30" fill="#65DDB9"/>
            </g>
        </g>
    </g>
</svg>