<svg width="39" height="42" viewBox="0 0 39 42" fill="none" xmlns="http://www.w3.org/2000/svg">
<path d="M24.1539 4.58719V11.6936H14.8477V4.58719C14.8477 2.05406 16.9296 0 19.5008 0C22.0703 0 24.1539 2.05406 24.1539 4.58719Z" fill="#FEC95B"/>
<path d="M20.6865 0.150937C20.3079 0.0525 19.911 0 19.5008 0C16.9296 0 14.8477 2.05406 14.8477 4.58719V11.6936H17.22V4.58719C17.22 2.45848 18.6912 0.668555 20.6865 0.150937Z" fill="#E2AD50"/>
<path d="M28.1724 8.15067C28.9837 8.95047 29.4838 10.0522 29.4838 11.2711C29.4838 13.7075 27.4801 15.6828 25.0088 15.6828H13.9917C12.756 15.6828 11.6376 15.1881 10.8263 14.3916C10.0175 13.5918 9.5166 12.4901 9.5166 11.2711C9.5166 8.83481 11.5203 6.8595 13.9917 6.8595H16.7509H22.2503H25.0088C26.2444 6.8595 27.3636 7.35332 28.1724 8.15067Z" fill="#62DCD2"/>
<path d="M16.3257 14.3908C17.137 15.1881 18.2546 15.6827 19.4911 15.6827H13.9917C12.756 15.6827 11.6376 15.1881 10.8263 14.3908C10.0175 13.5909 9.5166 12.4893 9.5166 11.2703C9.5166 8.83396 11.5203 6.85864 13.9917 6.85864H19.4911C17.0197 6.85864 15.016 8.83396 15.016 11.2703C15.0152 12.4893 15.5169 13.5918 16.3257 14.3908Z" fill="#54CCC0"/>
<path d="M30.6698 16.923C31.4786 17.7228 31.9804 18.8245 31.9804 20.0435C31.9804 22.4798 29.9767 24.4551 27.5053 24.4551H11.4956C10.2599 24.4551 9.14071 23.9605 8.33191 23.1639C7.5206 22.3641 7.02051 21.2625 7.02051 20.0435C7.02051 17.6071 9.02422 15.6318 11.4956 15.6318H13.9919H25.009H27.5053C28.741 15.6318 29.8593 16.1257 30.6698 16.923Z" fill="#FD5D65"/>
<path d="M13.8303 23.1632C14.6391 23.9606 15.7583 24.4552 16.994 24.4552H11.4946C10.2589 24.4552 9.13974 23.9606 8.33093 23.1632C7.51963 22.3634 7.01953 21.2617 7.01953 20.0427C7.01953 17.6064 9.02324 15.6311 11.4946 15.6311H16.994C14.5226 15.6311 12.5189 17.6064 12.5189 20.0427C12.5189 21.2617 13.0199 22.3642 13.8303 23.1632Z" fill="#E54E5C"/>
<path d="M33.7888 25.6955C34.6001 26.4953 35.1002 27.597 35.1002 28.8159C35.1002 31.2523 33.0965 33.2276 30.6252 33.2276H8.37546C7.13978 33.2276 6.02143 32.7329 5.21013 31.9364C4.40132 31.1366 3.90039 30.0349 3.90039 28.8159C3.90039 26.3796 5.9041 24.4043 8.37546 24.4043H11.495H27.5048H30.6243C31.8608 24.4043 32.98 24.8981 33.7888 25.6955Z" fill="#72CDED"/>
<path d="M10.7104 31.9356C11.5217 32.7329 12.6392 33.2275 13.8757 33.2275H8.37629C7.14061 33.2275 6.02226 32.7329 5.21096 31.9356C4.40215 31.1357 3.90039 30.0341 3.90039 28.8151C3.90039 26.3788 5.9041 24.4034 8.37546 24.4034H13.8749C11.4035 24.4034 9.39978 26.3788 9.39978 28.8151C9.39978 30.0341 9.90154 31.1366 10.7104 31.9356Z" fill="#5FBAD3"/>
<path d="M37.6894 34.4687C38.4982 35.2686 38.9992 36.3702 38.9992 37.5892C38.9992 40.0255 36.9955 42.0009 34.5241 42.0009H4.47507C3.23939 42.0009 2.12021 41.5062 1.3114 40.7097C0.500096 39.9091 0 38.8066 0 37.5884C0 35.1521 2.00371 33.1768 4.47507 33.1768H8.37515H30.624H34.5241C35.7606 33.1768 36.879 33.6714 37.6894 34.4687Z" fill="#F4AAB6"/>
<path d="M6.81079 40.7081C7.6196 41.5054 8.73878 42 9.97446 42H4.47507C3.23939 42 2.12021 41.5054 1.3114 40.7081C0.500096 39.9091 0 38.8066 0 37.5884C0 35.1521 2.00371 33.1768 4.47507 33.1768H9.97446C7.5031 33.1768 5.49939 35.1521 5.49939 37.5884C5.49939 38.8066 5.99949 39.9091 6.81079 40.7081Z" fill="#E28B9C"/>
</svg>