<svg width="28" height="35" viewBox="0 0 28 35" fill="none" xmlns="http://www.w3.org/2000/svg">
<path d="M2.54626 34.5882H25.4538V32.0252V7.68474H20.3613V2.56299H2.54626H0V32.0252C0 33.4432 1.1375 34.5882 2.54626 34.5882ZM5.72689 31.3866C4.67251 31.3866 3.81938 30.5278 3.81938 29.4665C3.81938 28.4051 4.67251 27.5464 5.72689 27.5464C6.78127 27.5464 7.63439 28.4051 7.63439 29.4665C7.63439 30.5234 6.78127 31.3866 5.72689 31.3866ZM5.72689 24.3403C4.67251 24.3403 3.81938 23.4816 3.81938 22.4202C3.81938 21.3589 4.67251 20.5001 5.72689 20.5001C6.78127 20.5001 7.63439 21.3589 7.63439 22.4202C7.63439 23.4816 6.78127 24.3403 5.72689 24.3403ZM5.72689 17.2941C4.67251 17.2941 3.81938 16.4353 3.81938 15.374C3.81938 14.3126 4.67251 13.4539 5.72689 13.4539C6.78127 13.4539 7.63439 14.3126 7.63439 15.374C7.63439 16.4353 6.78127 17.2941 5.72689 17.2941Z" fill="#F9ECDE"/>
<path d="M20.3612 7.68482H25.4537V32.0252H28V0H2.54614V2.56308H20.3612V7.68482Z" fill="#66CEDB"/>
<path d="M5.72684 17.2943C6.78033 17.2943 7.63435 16.4347 7.63435 15.3742C7.63435 14.3138 6.78033 13.4541 5.72684 13.4541C4.67335 13.4541 3.81934 14.3138 3.81934 15.3742C3.81934 16.4347 4.67335 17.2943 5.72684 17.2943Z" fill="#66CEDB"/>
<path d="M5.7266 24.3402C6.78008 24.3402 7.6341 23.4806 7.6341 22.4201C7.6341 21.3597 6.78008 20.5 5.7266 20.5C4.67311 20.5 3.81909 21.3597 3.81909 22.4201C3.81909 23.4806 4.67311 24.3402 5.7266 24.3402Z" fill="#F6BF58"/>
<path d="M5.7266 31.3822C6.78008 31.3822 7.6341 30.5225 7.6341 29.4621C7.6341 28.4017 6.78008 27.542 5.7266 27.542C4.67311 27.542 3.81909 28.4017 3.81909 29.4621C3.81909 30.5225 4.67311 31.3822 5.7266 31.3822Z" fill="#66CEDB"/>
<path d="M17.1824 7.04639H3.18237V8.32792H17.1824V7.04639Z" fill="#BCBEC0"/>
<path d="M17.1812 9.60938H3.18115V10.8909H17.1812V9.60938Z" fill="#BCBEC0"/>
<path d="M22.2696 14.7314H10.1814V16.013H22.2696V14.7314Z" fill="#BCBEC0"/>
<path d="M22.2696 21.7773H10.1814V23.0589H22.2696V21.7773Z" fill="#BCBEC0"/>
<path d="M22.2696 28.8237H10.1814V30.1053H22.2696V28.8237Z" fill="#BCBEC0"/>
<path d="M20.3608 2.56299V7.68474H25.4534L20.3608 2.56299Z" fill="#F6BF58"/>
</svg>