<svg width="31" height="36" viewBox="0 0 31 36" fill="none" xmlns="http://www.w3.org/2000/svg">
<g clip-path="url(#clip0)">
<path d="M5.07056 32.0226C4.57018 32.0226 4.15557 31.6331 4.15557 31.1529V3.97282H0.914988C0.409839 3.97735 0 4.36693 0 4.84711V35.1348C0 35.6104 0.409839 36.0045 0.914988 36.0045H25.9294C26.4298 36.0045 26.8444 35.6149 26.8444 35.1348V32.0272H5.07056V32.0226Z" fill="#54DEE2"/>
<path opacity="0.1" d="M2.50192 35.1348V4.84711C2.50192 4.37146 2.91176 3.97735 3.41691 3.97735H0.914988C0.409839 3.97735 0 4.36693 0 4.84711V35.1348C0 35.6104 0.409839 36.0045 0.914988 36.0045H3.41691C2.91176 36 2.50192 35.6104 2.50192 35.1348Z" fill="black"/>
<path d="M5.07124 0C4.56609 0 4.15625 0.389581 4.15625 0.869762V31.1574C4.15625 31.6331 4.56609 32.0272 5.07124 32.0272H30.0857C30.5861 32.0272 31.0007 31.6376 31.0007 31.1574V9.01472C31.0007 8.53907 30.71 7.86863 30.3573 7.53341L23.0755 0.611552C22.7181 0.276331 22.0176 0 21.5124 0H5.07124Z" fill="#BBFFF2"/>
<path opacity="0.1" d="M6.64864 31.1574V0.869762C6.64864 0.394111 7.05848 0 7.56363 0H5.07124C4.56609 0 4.15625 0.389581 4.15625 0.869762V31.1574C4.15625 31.6331 4.56609 32.0272 5.07124 32.0272H7.56363C7.05848 32.0226 6.64864 31.6331 6.64864 31.1574Z" fill="black"/>
<path d="M23.075 0.611556C22.7176 0.271806 22.4316 0.389586 22.4316 0.865237V7.27973C22.4316 7.75538 22.8415 8.14949 23.3466 8.14949H30.0947C30.5951 8.14949 30.719 7.87316 30.3615 7.53794L23.075 0.611556Z" fill="#54DEE2"/>
<path opacity="0.1" d="M24.5904 7.27973V2.05662L23.075 0.616081C22.7176 0.27633 22.4316 0.39411 22.4316 0.869761V7.28426C22.4316 7.75991 22.8415 8.15402 23.3466 8.15402H25.5102C25.0003 8.14949 24.5904 7.75991 24.5904 7.27973Z" fill="black"/>
<path d="M12.5906 8.14949C13.7144 8.14949 14.6255 7.28347 14.6255 6.21518C14.6255 5.14688 13.7144 4.28086 12.5906 4.28086C11.4667 4.28086 10.5557 5.14688 10.5557 6.21518C10.5557 7.28347 11.4667 8.14949 12.5906 8.14949Z" fill="white"/>
<path d="M10.5557 11.9502H24.5998C24.9286 11.9502 25.1955 11.6965 25.1955 11.3839C25.1955 11.0714 24.9286 10.8177 24.5998 10.8177H10.5557C10.2268 10.8177 9.95996 11.0714 9.95996 11.3839C9.95996 11.6965 10.2268 11.9502 10.5557 11.9502Z" fill="#54DEE2"/>
<path d="M10.5557 15.2661H24.5998C24.9286 15.2661 25.1955 15.0125 25.1955 14.6999C25.1955 14.3873 24.9286 14.1336 24.5998 14.1336H10.5557C10.2268 14.1336 9.95996 14.3873 9.95996 14.6999C9.95996 15.0125 10.2268 15.2661 10.5557 15.2661Z" fill="#54DEE2"/>
<path d="M10.5557 18.5776H24.5998C24.9286 18.5776 25.1955 18.3239 25.1955 18.0113C25.1955 17.6988 24.9286 17.4451 24.5998 17.4451H10.5557C10.2268 17.4451 9.95996 17.6988 9.95996 18.0113C9.95996 18.3239 10.2268 18.5776 10.5557 18.5776Z" fill="#54DEE2"/>
<path d="M10.5557 21.8935H24.5998C24.9286 21.8935 25.1955 21.6399 25.1955 21.3273C25.1955 21.0147 24.9286 20.761 24.5998 20.761H10.5557C10.2268 20.761 9.95996 21.0147 9.95996 21.3273C9.95996 21.6399 10.2268 21.8935 10.5557 21.8935Z" fill="#54DEE2"/>
<path d="M24.6 24.0679H22.0361C21.7073 24.0679 21.4404 24.3216 21.4404 24.6342C21.4404 24.9468 21.7073 25.2004 22.0361 25.2004H24.6C24.9288 25.2004 25.1957 24.9468 25.1957 24.6342C25.2005 24.3262 24.9336 24.0679 24.6 24.0679Z" fill="#54DEE2"/>
<path d="M10.5557 25.205H19.7246C20.0534 25.205 20.3203 24.9513 20.3203 24.6387C20.3203 24.3262 20.0534 24.0725 19.7246 24.0725H10.5557C10.2268 24.0725 9.95996 24.3262 9.95996 24.6387C9.95996 24.9513 10.2268 25.205 10.5557 25.205Z" fill="#54DEE2"/>
</g>
<defs>
<clipPath id="clip0">
<rect width="31" height="36" fill="white"/>
</clipPath>
</defs>
</svg>