<svg width="51" height="43" viewBox="0 0 51 43" fill="none" xmlns="http://www.w3.org/2000/svg">
<path d="M31.8632 31.3198H44.1719C46.235 31.3198 47.9623 29.7556 48.1664 27.7021L49.641 12.8333C50.322 5.96027 44.9235 0 38.0171 0C31.1107 0 25.7122 5.96027 26.3941 12.8333L27.8687 27.7021C28.0719 29.7556 29.7992 31.3198 31.8632 31.3198Z" fill="black"/>
<path d="M48.7692 14.7533L49.1383 11.9721C49.1974 11.5238 48.8827 11.1117 48.4344 11.0526C47.9861 10.9925 47.575 11.3082 47.5149 11.7565L47.1172 14.7533H48.7692Z" fill="black"/>
<path d="M49.6022 36.7937V41.9079C49.6022 42.5107 49.1129 42.9991 48.5111 42.9991H26.4316V36.7927C26.4316 33.5011 28.2276 30.6321 30.8906 29.1089C31.0146 29.0374 31.1405 28.9687 31.2683 28.9048C32.472 28.2906 33.8341 27.9453 35.2772 27.9453H40.7567C42.3848 27.9453 43.9128 28.3869 45.2233 29.1547C47.8434 30.6913 49.6022 33.5355 49.6022 36.7937Z" fill="#E7A900"/>
<path d="M38.0167 31.3198C36.8883 31.3198 35.9746 30.4051 35.9746 29.2777V23.5483H40.0597V29.2777C40.0588 30.4051 39.1441 31.3198 38.0167 31.3198Z" fill="#F8C298"/>
<path d="M50.0289 16.6476C50.0289 18.166 48.7975 19.3974 47.2791 19.3974C45.7606 19.3974 44.5293 18.166 44.5293 16.6476C44.5293 15.1291 45.7606 13.8978 47.2791 13.8978C48.7975 13.8978 50.0289 15.1291 50.0289 16.6476Z" fill="#F8C298"/>
<path d="M31.5074 16.6476C31.5074 18.166 30.2761 19.3974 28.7576 19.3974C27.2392 19.3974 26.0078 18.166 26.0078 16.6476C26.0078 15.1291 27.2392 13.8978 28.7576 13.8978C30.2761 13.8978 31.5074 15.1291 31.5074 16.6476Z" fill="#F8C298"/>
<path d="M29.3535 8.87604L30.664 19.3649C31.1276 23.0743 34.2799 25.8574 38.0178 25.8574C41.7557 25.8574 44.909 23.0743 45.3716 19.3649L46.6821 8.87604H29.3535Z" fill="#F8C298"/>
<path d="M33.9932 17.3085C33.5506 17.3085 33.1872 16.9566 33.1748 16.5121L33.1624 16.0762C33.15 15.6241 33.5067 15.2474 33.9588 15.235C34.4119 15.2226 34.7867 15.5793 34.7991 16.0314L34.8115 16.4673C34.8239 16.9194 34.4672 17.2952 34.0151 17.3076C34.0075 17.3085 33.9999 17.3085 33.9932 17.3085Z" fill="black"/>
<path d="M42.0537 17.3085C41.6112 17.3085 41.2478 16.9566 41.2354 16.5121L41.223 16.0762C41.2106 15.6241 41.5673 15.2483 42.0194 15.2359H42.0423C42.4839 15.2359 42.8482 15.5879 42.8597 16.0324L42.8721 16.4683C42.8845 16.9204 42.5278 17.2961 42.0757 17.3085C42.069 17.3085 42.0614 17.3085 42.0537 17.3085Z" fill="black"/>
<path d="M38.0565 23.4863C38.0422 23.4863 38.0279 23.4863 38.0136 23.4863C36.7679 23.4634 35.8952 22.4323 35.859 22.3885C35.7464 22.254 35.7645 22.0527 35.9 21.9411C36.0345 21.8286 36.2348 21.8467 36.3473 21.9812C36.3549 21.9898 37.076 22.8348 38.0298 22.8501C38.6049 22.8577 39.1639 22.564 39.6942 21.9726C39.8115 21.8419 40.0127 21.8314 40.1434 21.9488C40.2741 22.0661 40.2846 22.2673 40.1673 22.398C39.5187 23.12 38.8091 23.4863 38.0565 23.4863Z" fill="black"/>
<path d="M28.0176 7.86597V10.8914C28.0176 10.8914 33.6889 12.9096 37.773 9.16981C37.773 9.16981 39.341 14.1563 46.0901 15.1844C46.6061 15.2627 47.0859 14.9031 47.1545 14.3861L48.0206 7.86597H28.0176Z" fill="black"/>
<path d="M24.5202 34.0591V42.0166C24.5202 42.5594 24.0805 42.9991 23.5378 42.9991H0.98241C0.4397 42.9991 0 42.5594 0 42.0166V34.0591C0 30.8477 2.60291 28.2448 5.81434 28.2448H18.7068C21.9173 28.2457 24.5202 30.8486 24.5202 34.0591Z" fill="#00D08D"/>
<path d="M16.7261 28.2448H8.07422V43H16.7261V28.2448Z" fill="#EBEEF2"/>
<path d="M12.399 31.5192C11.305 31.5192 10.418 30.6312 10.418 29.5372V23.9784H14.381V29.5372C14.38 30.6312 13.493 31.5192 12.399 31.5192Z" fill="#F8C298"/>
<path d="M1.91674 16.226H22.884L23.4372 13.5286C24.8698 6.54209 19.5324 0 12.4009 0C5.26933 0 -0.0681124 6.54209 1.36449 13.5286L1.91674 16.226Z" fill="black"/>
<path d="M24.0543 17.2818C24.0543 18.7554 22.8601 19.9505 21.3865 19.9505C19.9129 19.9505 18.7188 18.7554 18.7188 17.2818C18.7188 15.8082 19.9129 14.6141 21.3865 14.6141C22.8592 14.6141 24.0543 15.8082 24.0543 17.2818Z" fill="#F8C298"/>
<path d="M6.08258 17.2818C6.08258 18.7554 4.88843 19.9505 3.41482 19.9505C1.9412 19.9505 0.746094 18.7554 0.746094 17.2818C0.746094 15.8082 1.94025 14.6141 3.41386 14.6141C4.88748 14.6141 6.08258 15.8082 6.08258 17.2818Z" fill="#F8C298"/>
<path d="M12.4005 26.2179C8.7742 26.2179 5.71442 23.5168 5.26518 19.9181L3.9375 9.29283H20.8626L19.5359 19.9191C19.0857 23.5177 16.0269 26.2179 12.4005 26.2179Z" fill="#F8C298"/>
<path d="M8.49221 17.8665C8.09448 17.8665 7.76637 17.5499 7.75588 17.1493L7.74444 16.7267C7.73299 16.3195 8.05442 15.9809 8.46074 15.9704C8.86706 15.9599 9.20661 16.2804 9.21805 16.6867L9.2295 17.1102C9.23999 17.5174 8.91951 17.856 8.5132 17.8665C8.50557 17.8665 8.49889 17.8665 8.49221 17.8665Z" fill="black"/>
<path d="M16.3164 17.8665C15.9187 17.8665 15.5915 17.5499 15.5801 17.1502L15.5687 16.7277C15.5572 16.3204 15.8786 15.9818 16.285 15.9704C16.6941 15.9599 17.0308 16.2804 17.0423 16.6867L17.0537 17.1092C17.0652 17.5165 16.7437 17.8551 16.3374 17.8665C16.3307 17.8665 16.3231 17.8665 16.3164 17.8665Z" fill="black"/>
<path d="M2.43164 10.0273C2.43164 10.0273 4.22096 11.8023 9.0405 11.931C9.34571 11.9396 9.59847 11.6945 9.59847 11.3893V10.6739C9.59847 10.6739 11.3496 11.8233 15.0609 11.931C15.367 11.9396 15.6207 11.6954 15.6207 11.3893V10.9839C15.6207 10.9839 17.0648 11.8652 21.3912 11.9348C21.6945 11.9396 21.9435 11.6964 21.9435 11.3931V8.38577H2.43164V10.0273Z" fill="black"/>
<path d="M21.4026 12.6712C21.3959 12.6712 21.3883 12.6712 21.3816 12.6712C18.7377 12.6283 17.1124 12.2906 16.2006 12.0064C16.1405 12.1151 16.0632 12.2162 15.9717 12.3049C15.7246 12.5453 15.3832 12.6769 15.0408 12.6664C12.7955 12.6016 11.216 12.1666 10.2689 11.8023C10.205 11.9892 10.0972 12.1609 9.95035 12.304C9.69951 12.5472 9.36854 12.675 9.0204 12.6674C5.93296 12.5844 3.99771 11.8519 2.91801 11.2519C2.56225 11.0545 2.43444 10.6053 2.63188 10.2495C2.82931 9.89373 3.2776 9.76592 3.63336 9.96336C4.5471 10.4708 6.18954 11.0888 8.86303 11.188V10.6739C8.86303 10.4031 9.01087 10.1541 9.24931 10.0254C9.48776 9.89659 9.77676 9.90899 10.0038 10.0578C10.0162 10.0654 11.6033 11.0555 14.8843 11.1871V10.983C14.8843 10.7121 15.0226 10.4584 15.2611 10.3287C15.4967 10.2009 15.7752 10.2056 16.0003 10.3506C16.0909 10.3992 17.4825 11.1098 21.2071 11.1938V10.0273C21.2071 9.61999 21.5371 9.28998 21.9443 9.28998C22.3516 9.28998 22.6816 9.61999 22.6816 10.0273V11.3921C22.6816 11.7374 22.5462 12.0608 22.3001 12.303C22.0588 12.5415 21.7412 12.6712 21.4026 12.6712Z" fill="black"/>
<path d="M12.5581 24.5765C12.5448 24.5765 12.5324 24.5765 12.519 24.5765C11.3974 24.5555 10.6124 23.6284 10.58 23.5883C10.4789 23.4672 10.4951 23.286 10.6172 23.1858C10.7383 23.0847 10.9186 23.101 11.0197 23.2221C11.0263 23.2297 11.6759 23.9908 12.5343 24.0042C13.0522 24.0109 13.5549 23.7467 14.0327 23.2145C14.1386 23.0971 14.3188 23.0867 14.4371 23.1925C14.5544 23.2984 14.5649 23.4787 14.4591 23.5969C13.8734 24.2465 13.2344 24.5765 12.5581 24.5765Z" fill="black"/>
</svg>
