<svg width="48" height="42" viewBox="0 0 48 42" fill="none" xmlns="http://www.w3.org/2000/svg">
<path d="M43.6986 6.71008C43.6986 10.7088 40.6049 13.2822 35.9061 17.1691C35.0899 17.8401 34.2461 18.5397 33.3749 19.3225C33.1211 19.5462 32.7836 19.658 32.4461 19.658C32.1086 19.658 31.7711 19.5462 31.5174 19.3225C30.6449 18.5397 29.8011 17.8401 28.9861 17.1691C24.2874 13.2822 21.1924 10.7088 21.1924 6.71008C21.1924 2.99097 23.9774 0.0820312 27.5224 0.0820312C29.9136 0.0820312 31.4886 1.34079 32.4461 2.62688C33.4024 1.34079 34.9774 0.0820312 37.3686 0.0820312C40.9124 0.0820313 43.6986 2.98972 43.6986 6.71008Z" fill="#D70000"/>
<path d="M9.94 25.1392H1.40625C0.61875 25.1392 0 25.7542 0 26.5371V40.5201C0 41.3029 0.61875 41.918 1.40625 41.918H9.94C10.7275 41.918 11.3462 41.3029 11.3462 40.5201V26.5371C11.3462 25.7542 10.7275 25.1392 9.94 25.1392Z" fill="#18A7FC"/>
<path d="M47.1109 29.0546L40.3222 38.0038C38.4647 40.4654 35.5397 41.9193 32.4447 41.9193H9.5459V25.1392C11.5721 22.8739 14.5259 21.671 17.4509 21.8115C19.6734 21.9233 21.7834 22.7347 23.4709 24.2171C24.0047 24.6645 24.3997 25.1404 25.0747 25.1404H32.4459C34.0209 25.1404 35.2584 26.3992 35.2584 27.9363C35.2584 29.4746 33.9922 30.7334 32.4459 30.7334H23.8934C23.1059 30.7334 22.4871 31.3485 22.4871 32.1313C22.4871 32.9141 23.1059 33.5292 23.8934 33.5292H33.3734C34.5547 33.5292 35.6797 33.0545 36.4672 32.1872L43.0497 24.6359C45.5547 22.0066 49.8684 25.4747 47.1109 29.0546Z" fill="#FED9A8"/>
</svg>