<?xml version="1.0" encoding="UTF-8"?>
<svg width="329px" height="307px" viewBox="0 0 329 307" version="1.1" xmlns="http://www.w3.org/2000/svg" xmlns:xlink="http://www.w3.org/1999/xlink">
    <!-- Generator: Sketch 64 (93537) - https://sketch.com -->
    <title>Group 251</title>
    <desc>Created with Sketch.</desc>
    <defs>
        <polygon id="path-1" points="0.227514236 0.384464491 309.194394 0.384464491 309.194394 304 0.227514236 304"/>
        <polygon id="path-3" points="0.852 0.494 46.2749 0.494 46.2749 10.31 0.852 10.31"/>
        <polygon id="path-5" points="0.904 0.1682803 50.0039554 0.1682803 50.0039554 14.54 0.904 14.54"/>
    </defs>
    <g id="Page-1" stroke="none" stroke-width="1" fill="none" fill-rule="evenodd">
        <g id="Group-251" transform="translate(1.000000, 0.000000)">
            <g id="Group-8" transform="translate(0.000000, 0.115000)">
                <g id="Group-3" transform="translate(18.000000, 2.000000)">
                    <mask id="mask-2" fill="white">
                        <use xlink:href="#path-1"/>
                    </mask>
                    <g id="Clip-2"/>
                    <path d="M0.6797,166.9316 C-8.9613,77.1436 137.8507,-27.3224 222.5097,7.1156 C310.2077,42.7886 342.3327,227.3606 267.0317,284.2496 C189.8457,342.5626 10.9157,262.2686 0.6797,166.9316" id="Fill-1" fill="#E3E3E3" mask="url(#mask-2)"/>
                </g>
                <g id="Group-7">
                    <path d="M1.1689,167.4321 C-8.4711,77.6431 138.3399,-26.8219 222.9989,7.6161 C310.6979,43.2881 342.8229,227.8601 267.5209,284.7491 C190.3359,343.0621 11.4059,262.7661 1.1689,167.4321" id="Fill-4" fill="#FFFFFF"/>
                    <path d="M1.1689,167.4321 C-8.4711,77.6431 138.3399,-26.8219 222.9989,7.6161 C310.6979,43.2881 342.8229,227.8601 267.5209,284.7491 C190.3359,343.0621 11.4059,262.7661 1.1689,167.4321" id="Stroke-6" stroke="#D1D3D4" stroke-width="2"/>
                </g>
            </g>
            <g id="Group-11" transform="translate(197.000000, 234.115000)">
                <mask id="mask-4" fill="white">
                    <use xlink:href="#path-3"/>
                </mask>
                <g id="Clip-10"/>
                <path d="M14.0298,0.9687 C13.2448,0.9967 5.7828,1.9377 2.2618,4.2587 C-0.6722,6.1917 0.6748,7.9347 9.1078,7.3537 C17.5458,6.7757 31.0768,4.8377 28.4428,7.5477 C25.8038,10.2557 39.8648,12.7727 45.4888,5.8067 C51.1118,-1.1593 25.1038,0.5817 14.0298,0.9687" id="Fill-9" fill="#E3E3E3" mask="url(#mask-4)"/>
            </g>
            <g id="Group-14" transform="translate(106.000000, 233.115000)">
                <mask id="mask-6" fill="white">
                    <use xlink:href="#path-5"/>
                </mask>
                <g id="Clip-13"/>
                <path d="M35.7588,0.8642 C36.6068,0.9062 44.6718,2.2812 48.4788,5.6802 C51.6498,8.5102 50.1958,11.0622 41.0788,10.2122 C31.9588,9.3632 17.3308,6.5302 20.1798,10.4952 C23.0318,14.4622 7.8328,18.1442 1.7528,7.9472 C-4.3242,-2.2498 23.7888,0.2992 35.7588,0.8642" id="Fill-12" fill="#E3E3E3" mask="url(#mask-6)"/>
            </g>
            <path d="M135.4258,158.1916 C133.8468,153.3936 125.8138,154.4056 120.0828,154.8976 C114.3528,155.3916 110.6668,156.5886 109.0398,161.4986 C107.5228,166.0766 103.7838,173.7106 103.9388,179.2736 C104.0688,183.9186 104.7898,188.1306 112.3748,189.9416 C119.9628,191.7536 135.7638,193.4176 136.6048,185.8446 C137.4458,178.2746 136.9418,162.7976 135.4258,158.1916" id="Fill-15" fill="#52B26A"/>
            <path d="M132.9272,230.1315 C132.9272,230.1315 132.3692,219.5275 132.0162,204.3015 C129.8102,204.7745 128.1932,205.2095 128.1932,205.2095 C128.1932,205.2095 128.6592,213.9605 129.2562,231.9185 C132.0472,233.5765 132.9272,230.1315 132.9272,230.1315" id="Fill-17" fill="#B27A47"/>
            <path d="M132.0454,211.4928 L132.1544,209.1708 L128.6234,209.1288 L128.6784,212.2338 C128.6784,212.2338 129.4864,208.9348 132.0454,211.4928" id="Fill-19" fill="#9E6D3E"/>
            <path d="M117.271,230.1315 C117.271,230.1315 117.684,217.8275 118.181,204.3015 C120.388,204.7745 122.005,205.2095 122.005,205.2095 C122.005,205.2095 121.549,214.1155 120.942,231.9185 C118.15,233.5765 117.271,230.1315 117.271,230.1315" id="Fill-21" fill="#B27A47"/>
            <path d="M118.229,211.9587 L118.125,209.6347 L121.65,209.5947 L121.317,212.4907 C121.317,212.4907 120.79,209.3987 118.229,211.9587" id="Fill-23" fill="#9E6D3E"/>
            <path d="M136.9536,190.7155 C136.9536,190.7155 138.0366,200.1475 139.1186,208.3395 C134.6356,211.7395 126.2886,209.9585 126.2886,209.9585 L125.1276,201.0715 C125.1276,201.0715 124.2016,205.8625 123.5836,209.7295 C118.3276,211.7365 110.9836,208.6475 110.9836,208.6475 C110.9836,208.6475 112.2216,197.9815 113.3026,190.2515 C121.6506,190.2515 136.9536,190.7155 136.9536,190.7155" id="Fill-25" fill="#8A175D"/>
            <path d="M136.7227,192.8005 L137.1847,198.2125 C137.1847,198.2125 122.2707,191.5665 112.8397,198.2905 C113.5357,192.9545 113.7677,191.6435 113.7677,191.6435 L136.7227,192.8005 Z" id="Fill-27" fill="#690F45"/>
            <path d="M130.9878,161.34 C130.9878,161.34 141.1148,165.405 157.6528,152.206 C158.9418,152.995 160.5218,152.344 162.4268,151.06 C164.0648,150.571 165.0898,149.959 164.7708,149.37 C164.4418,148.761 162.6748,149.453 162.2138,149.562 C162.2698,149.51 164.3458,148.431 164.7838,148.154 C165.8048,147.528 165.3368,146.477 164.3578,146.861 C163.5388,147.177 161.7138,148.04 161.6158,148.079 C161.6868,148.011 163.6628,146.583 164.0358,146.324 C165.1208,145.568 164.4288,144.252 163.1688,145.097 C162.3098,145.672 160.8408,146.736 160.6888,146.789 C160.7098,146.713 161.5968,145.663 162.0828,145.001 C162.8768,143.916 162.0578,143.09 160.9528,144.162 C160.0808,144.999 157.8928,146.923 157.8928,146.923 C157.8928,146.923 157.7098,144.937 156.6138,145.052 C155.5138,145.176 155.9468,148.632 155.9468,148.632 C155.9468,148.632 146.2798,159.577 131.4158,156.951 C128.0378,158.154 130.9878,161.34 130.9878,161.34" id="Fill-29" fill="#B27A47"/>
            <path d="M139.5903,157.5065 C139.7443,158.1415 140.0953,159.5765 140.4073,160.7965 C141.2563,160.7085 142.5923,160.4405 144.2683,159.7095 C143.5333,159.6735 142.5723,159.4795 142.3203,158.7625 C141.9893,157.7975 142.6743,157.0175 143.2543,156.6095 C141.9413,157.1495 141.1783,157.2615 139.5903,157.5065" id="Fill-31" fill="#9E6D3E"/>
            <path d="M158.354,149.4787 C158.346,149.4747 158.338,149.4727 158.334,149.4637 C158.281,149.4217 158.279,149.3367 158.325,149.2857 C159.109,148.4337 158.51,147.4307 158.033,146.9677 C157.98,146.9227 157.98,146.8417 158.03,146.7887 C158.082,146.7407 158.161,146.7407 158.209,146.7887 C158.749,147.3117 159.425,148.4617 158.51,149.4567 C158.474,149.5057 158.398,149.5117 158.354,149.4787" id="Fill-33" fill="#9E6D3E"/>
            <path d="M108.2969,164.9489 C108.2969,164.9489 101.9249,173.3869 98.2709,185.8609 C95.8159,187.3199 94.2539,191.7159 95.3249,192.0199 C95.0989,193.3279 95.9379,193.7709 96.3679,192.9509 C96.5419,194.2269 97.4429,194.4069 97.9809,193.4949 C98.4959,194.9899 99.5419,193.5479 99.7469,192.8149 C100.0039,191.9059 100.3579,189.2139 100.3579,189.2139 C100.3579,189.2139 101.7349,190.5639 102.3339,189.9549 C102.9369,189.3429 100.9199,186.9909 100.9199,186.9909 C100.9199,186.9909 104.6849,174.8309 111.0209,166.8439 C110.3329,165.2009 108.2969,164.9489 108.2969,164.9489" id="Fill-35" fill="#B27A47"/>
            <path d="M104.3877,171.8854 C104.3877,171.8814 104.3897,171.8804 104.3897,171.8764 C105.0897,170.3094 105.9477,168.7644 107.0147,167.3904 C107.0277,167.3704 107.0397,167.3514 107.0517,167.3354 L109.5217,168.7364 C108.6997,169.7244 107.8147,170.9844 106.9747,172.5114 C106.7537,171.5294 105.7537,170.7404 104.3877,171.8854" id="Fill-37" fill="#9E6D3E"/>
            <path d="M95.3066,192.0407 C95.3536,192.0357 95.3946,191.9987 95.4066,191.9557 C95.5466,191.2927 95.8326,190.4577 96.0476,190.0897 C96.0786,190.0357 96.0646,189.9687 96.0096,189.9367 C95.9556,189.9037 95.8916,189.9257 95.8596,189.9757 C95.6336,190.3617 95.3336,191.2277 95.1886,191.9057 C95.1806,191.9687 95.2156,192.0237 95.2746,192.0357 C95.2896,192.0387 95.2986,192.0417 95.3066,192.0407" id="Fill-39" fill="#9E6D3E"/>
            <path d="M96.356,193.148116 C96.416,193.1431 96.46,193.0921 96.457,193.0311 C96.398,191.8861 96.74,190.5041 96.937,190.2211 C96.971,190.1721 96.959,190.1031 96.91,190.0671 C96.861,190.0301 96.795,190.0441 96.754,190.0921 C96.508,190.4481 96.18,191.9081 96.237,193.0411 C96.245,193.1021 96.293,193.1491 96.354,193.148116 L96.356,193.148116 Z" id="Fill-41" fill="#9E6D3E"/>
            <path d="M97.9888,193.6061 C97.9888,193.6041 97.9938,193.6041 97.9968,193.6041 C98.0578,193.5881 98.0948,193.5391 98.0918,193.4741 C97.8768,192.1291 98.4118,190.2331 98.4178,190.2151 C98.4348,190.1581 98.3988,190.0951 98.3448,190.0811 C98.2778,190.0641 98.2238,190.0971 98.2048,190.1531 C98.1818,190.2331 97.6528,192.1191 97.8718,193.5131 C97.8838,193.5691 97.9348,193.6091 97.9888,193.6061" id="Fill-43" fill="#9E6D3E"/>
            <path d="M116.7632,157.694 C116.7632,157.694 119.5602,156.911 121.3542,156.156 C121.3102,154.25 120.7032,152.182 120.7032,152.182 L124.1192,151.443 C124.1192,151.443 124.7432,154.501 124.8392,155.743 C127.4262,156.109 130.8732,156.36 130.8732,156.36 C130.8732,156.36 133.4872,164.045 124.6692,164.686 C122.3462,164.856 116.7652,161.329 116.7632,157.694" id="Fill-45" fill="#B27A47"/>
            <path d="M123.9307,151.9924 L121.5487,152.6294 C121.5487,152.6294 121.8497,154.0864 122.0137,155.6454 C122.9577,154.4714 123.8007,154.3754 124.4477,155.2974 C124.2487,153.9854 123.9307,151.9924 123.9307,151.9924" id="Fill-47" fill="#9E6D3E"/>
            <path d="M117.7646,157.2858 C117.0566,157.6348 114.3896,158.1388 111.3466,159.1228 C108.6506,160.9228 106.4196,163.9918 104.4466,166.8908 C105.0866,167.9928 107.4616,170.4268 109.2596,171.2948 C110.5346,169.9618 112.5746,167.8818 113.5866,166.8908 C113.5466,174.3588 112.1426,184.3378 108.3996,189.7108 C113.3956,196.1058 135.7636,195.1768 141.0506,191.5588 C139.9646,188.9678 137.8916,174.2458 136.4126,165.0528 C136.3756,164.8238 139.8436,164.7418 141.9196,163.1608 C142.0206,158.6078 140.8836,157.2078 140.7606,156.7248 C137.8916,156.7248 131.2186,156.3978 129.8636,156.2428 C131.4536,163.7098 118.8996,166.8878 117.7646,157.2858" id="Fill-49" fill="#CD8F00"/>
            <path d="M126.1226,164.7809 C126.1226,165.2319 125.7596,165.5949 125.3106,165.5949 C124.8626,165.5949 124.5016,165.2319 124.5016,164.7809 C124.5016,164.3339 124.8626,163.9719 125.3106,163.9719 C125.7596,163.9719 126.1226,164.3339 126.1226,164.7809" id="Fill-51" fill="#FFFFFF"/>
            <path d="M126.5469,168.2443 C126.5469,168.6933 126.1839,169.0563 125.7349,169.0563 C125.2859,169.0563 124.9209,168.6933 124.9209,168.2443 C124.9209,167.7963 125.2859,167.4323 125.7349,167.4323 C126.1839,167.4323 126.5469,167.7963 126.5469,168.2443" id="Fill-53" fill="#FFFFFF"/>
            <path d="M113.938,168.8034 C115.307,174.5714 115.521,178.3034 114.858,185.0284 C114.325,190.5054 122.889,192.1884 139.674,191.0174 C135.327,192.8064 117.042,195.3464 110.245,189.5074 C115.521,178.5674 113.938,168.8034 113.938,168.8034" id="Fill-55" fill="#B98207"/>
            <path d="M119.3696,156.841 C119.8356,159.314 120.6456,161.13 124.8986,163.197 C123.0426,164.59 121.1966,165.885 121.1966,165.885 C121.1966,165.885 116.2596,161.66 115.9506,157.798 C117.4016,157.132 119.3696,156.841 119.3696,156.841" id="Fill-57" fill="#FFFFFF"/>
            <path d="M127.7778,156.0881 C128.2978,157.2481 127.9498,161.0731 124.8988,163.1971 C126.7028,163.9411 129.1968,164.9281 129.1968,164.9281 C129.1968,164.9281 132.9358,161.1301 131.6588,156.2611 C129.8048,155.8841 127.7778,156.0881 127.7778,156.0881" id="Fill-59" fill="#FFFFFF"/>
            <path d="M138.7886,156.6096 C139.3106,157.6526 140.0356,162.2326 140.1526,164.2026 C142.0956,163.8556 142.6746,163.1606 142.6746,163.1606 C142.6746,163.1606 141.8626,157.8246 141.1676,156.7256 C139.7766,156.5526 138.7886,156.6096 138.7886,156.6096" id="Fill-61" fill="#FFFFFF"/>
            <path d="M104.6797,166.486 C105.4867,167.329 107.5777,169.422 110.6517,170.06 C109.6457,171.219 108.8737,171.84 108.8737,171.84 C108.8737,171.84 105.5497,171.219 103.5207,168.862 C103.8257,167.493 104.6797,166.486 104.6797,166.486" id="Fill-63" fill="#FFFFFF"/>
            <path d="M132.396,156.1647 C132.396,156.1647 136.414,166.8687 137.807,174.4057 C139.082,164.7807 136.647,156.3967 136.647,156.3967 L132.396,156.1647 Z" id="Fill-65" fill="#38914D"/>
            <path d="M115.5151,157.9421 C115.5151,157.9421 113.9191,168.4941 112.9381,175.2761 C111.4281,170.6381 111.2561,158.9871 111.2561,158.9871 C111.2561,158.9871 113.8941,158.0281 115.5151,157.9421" id="Fill-67" fill="#38914D"/>
            <path d="M117.1831,230.026 C117.1831,230.026 116.9981,230.922 116.9801,231.217 C115.0881,230.96 112.9791,233.032 113.1281,237.33 C116.8641,239.319 123.5071,237.992 123.5071,237.992 C123.5071,237.992 125.2601,233.711 121.0681,231.563 C121.1561,231.069 121.2421,230.405 121.2421,230.405 C121.2421,230.405 118.7721,230.945 117.1831,230.026" id="Fill-69" fill="#964745"/>
            <path d="M113.7935,234.4313 C117.2705,237.7663 123.0095,235.9103 123.3005,235.0383 C123.7495,236.6193 122.8905,237.7803 122.8905,237.7803 C122.8905,237.7803 116.6055,238.8513 113.3295,237.1003 C113.2885,235.9733 113.4925,235.2143 113.7935,234.4313" id="Fill-71" fill="#7C3836"/>
            <path d="M113.1279,235.7926 C114.5099,236.4556 120.5969,237.4796 123.8659,236.2516 C124.7499,237.3426 123.9709,238.2786 123.4559,238.5556 C121.4949,239.3186 116.1739,239.8486 113.0599,237.8376 C112.4609,236.9506 113.1279,235.7926 113.1279,235.7926" id="Fill-73" fill="#F0F0F0"/>
            <path d="M113.0103,236.7653 C116.1243,238.7743 121.4443,238.2463 123.4033,237.4813 C123.6563,237.3463 123.9713,237.0523 124.1243,236.6613 C124.5563,237.5693 123.9063,238.3123 123.4563,238.5553 C121.4953,239.3193 116.1743,239.8473 113.0603,237.8373 C112.7633,237.4003 112.7793,236.8963 112.8693,236.4933 C112.9013,236.5853 112.9473,236.6793 113.0103,236.7653" id="Fill-75" fill="#CDCDCD"/>
            <path d="M117.8418,231.7204 C117.9048,231.7374 117.9728,231.7274 118.0308,231.6834 C119.1708,230.8284 119.8658,231.6794 119.8978,231.7144 C119.9678,231.8084 120.1048,231.8244 120.1958,231.7474 C120.2898,231.6784 120.3018,231.5444 120.2318,231.4494 C120.2188,231.4384 119.2448,230.2424 117.7738,231.3414 C117.6758,231.4104 117.6618,231.5444 117.7288,231.6404 C117.7598,231.6784 117.8008,231.7034 117.8418,231.7204" id="Fill-77" fill="#EDE4E4"/>
            <path d="M117.2354,232.9274 C117.3134,232.9474 117.4054,232.9354 117.4764,232.8784 C118.9634,231.7724 119.8664,232.8774 119.9074,232.9224 C119.9994,233.0444 120.1754,233.0674 120.2924,232.9724 C120.4164,232.8734 120.4334,232.7004 120.3424,232.5774 C120.3234,232.5664 119.0594,231.0104 117.1444,232.4384 C117.0234,232.5294 116.9994,232.7004 117.0904,232.8244 C117.1244,232.8774 117.1774,232.9084 117.2354,232.9274" id="Fill-79" fill="#EDE4E4"/>
            <path d="M129.2002,230.2712 C129.2002,230.2712 129.2782,232.9742 129.8162,236.2062 C132.5772,238.0472 140.4002,238.0932 143.1102,237.0732 C144.7462,235.4402 143.9272,231.0422 140.6052,229.7172 C137.2812,228.3842 134.9822,230.9392 134.3182,231.6062 C133.8582,231.3492 133.5712,231.2172 133.5712,231.2172 L133.2172,229.6552 C133.2172,229.6552 131.6432,230.3222 129.2002,230.2712" id="Fill-81" fill="#964745"/>
            <path d="M132.2515,230.4753 L132.2715,230.5393 C131.9195,230.8383 129.6485,231.6483 130.7205,234.1413 C135.4455,238.2873 143.1975,233.4893 143.2125,233.4763 C143.3575,233.9123 143.9155,235.4593 142.8845,236.4293 C140.3665,237.3233 132.8505,237.4773 130.2835,235.8703 C130.1425,234.3463 129.4425,230.9843 129.4425,230.9843 C131.7175,231.0243 132.2515,230.4753 132.2515,230.4753" id="Fill-83" fill="#7C3836"/>
            <path d="M129.6631,234.8796 C130.7391,235.5946 136.6171,237.2296 143.9781,235.2886 C144.4891,236.7686 143.5181,237.5356 143.5181,237.5356 C143.5181,237.5356 136.3151,239.6306 129.7671,236.9736 C129.1561,236.5646 129.6631,234.8796 129.6631,234.8796" id="Fill-85" fill="#F0F0F0"/>
            <path d="M129.6631,234.8796 C129.7331,234.9246 129.8211,234.9716 129.9261,235.0256 C129.9231,235.3926 129.9891,235.7416 130.2301,235.9006 C136.7721,238.5596 143.9751,236.4606 143.9751,236.4606 C143.9751,236.4606 144.0341,236.4176 144.1131,236.3256 C144.0341,237.1256 143.5181,237.5356 143.5181,237.5356 C143.5181,237.5356 136.3151,239.6306 129.7671,236.9736 C129.1561,236.5646 129.6631,234.8796 129.6631,234.8796" id="Fill-87" fill="#CDCDCD"/>
            <path d="M131.4331,232.2878 C131.4981,232.2778 131.5551,232.2358 131.5871,232.1758 C132.2431,230.9088 133.2401,231.3718 133.2791,231.3888 C133.3861,231.4418 133.5111,231.3988 133.5631,231.2918 C133.6161,231.1828 133.5701,231.0568 133.4611,231.0058 C133.4521,231.0008 132.0481,230.3508 131.2071,231.9788 C131.1531,232.0858 131.1921,232.2148 131.2981,232.2678 C131.3431,232.2888 131.3871,232.2938 131.4331,232.2878" id="Fill-89" fill="#EDE4E4"/>
            <path d="M133.73,233.2135 C133.777,233.1635 133.798,233.0975 133.786,233.0275 C133.526,231.6275 134.592,231.3765 134.637,231.3675 C134.755,231.3435 134.827,231.2285 134.802,231.1155 C134.778,231.0005 134.665,230.9295 134.548,230.9525 C134.536,230.9535 133.031,231.3015 133.362,233.1055 C133.386,233.2245 133.498,233.2995 133.611,233.2775 C133.66,233.2685 133.699,233.2475 133.73,233.2135" id="Fill-91" fill="#EDE4E4"/>
            <path d="M149.8076,110.4328 C152.9886,118.9218 154.5736,144.8008 130.8506,151.6958 C107.2606,158.5578 93.6126,142.5568 89.3876,126.1388 C84.2926,106.3308 99.4986,93.3208 113.4286,90.8348 C135.1726,86.9548 145.5536,99.0648 149.8076,110.4328" id="Fill-93" fill="#B27A47"/>
            <path d="M139.0015,109.4821 C135.4425,109.6071 135.9145,113.4111 138.0805,112.7251 C140.4015,111.9861 142.6105,112.2131 142.8325,111.8901 C143.3145,111.1971 140.9985,109.4141 139.0015,109.4821" id="Fill-95" fill="#392921"/>
            <path d="M111.2314,114.695 C114.4374,113.153 115.7924,116.732 113.5594,117.137 C111.1614,117.565 109.3104,118.791 108.9634,118.613 C108.2144,118.221 109.4284,115.562 111.2314,114.695" id="Fill-97" fill="#392921"/>
            <path d="M129.7002,129.9191 C129.7392,129.9311 129.7842,129.9341 129.8202,129.9161 C130.9822,129.3911 131.5902,128.4031 131.4372,127.2621 C131.2952,126.2031 130.5212,125.3051 129.6442,125.1621 C129.0912,125.0761 128.0342,125.2031 127.1542,127.0441 C127.1112,127.1281 127.1492,127.2231 127.2342,127.2621 C127.3252,127.3101 127.4132,127.2731 127.4532,127.1901 C128.0382,125.9671 128.7942,125.3621 129.5862,125.4891 C130.3402,125.6071 130.9882,126.3901 131.1142,127.3011 C131.1732,127.7801 131.1632,128.9551 129.6842,129.6101 C129.6032,129.6541 129.5672,129.7461 129.6002,129.8321 C129.6242,129.8741 129.6572,129.9021 129.7002,129.9191" id="Fill-99" fill="#9E6D3E"/>
            <path d="M134.7979,119.0402 C134.1679,121.8782 135.8239,124.6562 138.4999,125.2522 C141.1789,125.8502 143.8599,124.0342 144.4889,121.1942 C145.1199,118.3592 143.4609,115.5812 140.7859,114.9832 C138.1099,114.3892 135.4279,116.2052 134.7979,119.0402" id="Fill-101" fill="#FFFFFF"/>
            <path d="M136.1636,121.1354 C136.4286,122.6834 137.8196,123.7454 139.2886,123.5014 C140.7556,123.2544 141.7306,121.7984 141.4756,120.2504 C141.2166,118.6944 139.8186,117.6414 138.3486,117.8794 C136.8866,118.1274 135.9036,119.5834 136.1636,121.1354" id="Fill-103" fill="#1D1D1B"/>
            <path d="M137.2705,121.0627 C137.4225,121.9917 138.2585,122.6277 139.1395,122.4857 C140.0095,122.3347 140.5945,121.4657 140.4425,120.5357 C140.2875,119.6097 139.4515,118.9737 138.5765,119.1167 C137.6975,119.2647 137.1125,120.1367 137.2705,121.0627" id="Fill-105" fill="#1D1D1B"/>
            <path d="M138.9097,119.7751 C138.9727,120.1701 139.3277,120.4361 139.6987,120.3761 C140.0647,120.3121 140.3187,119.9451 140.2497,119.5531 C140.1857,119.1621 139.8327,118.8901 139.4597,118.9511 C139.0907,119.0141 138.8427,119.3811 138.9097,119.7751" id="Fill-107" fill="#FFFFFF"/>
            <path d="M137.4585,122.1188 C137.4965,122.3568 137.7115,122.5188 137.9375,122.4808 C138.1625,122.4418 138.3105,122.2218 138.2715,121.9838 C138.2295,121.7438 138.0175,121.5778 137.7935,121.6208 C137.5715,121.6568 137.4175,121.8808 137.4585,122.1188" id="Fill-109" fill="#FFFFFF"/>
            <path d="M109.0815,123.3293 C108.4085,126.3633 110.1815,129.3403 113.0445,129.9773 C115.9085,130.6123 118.7805,128.6733 119.4515,125.6393 C120.1265,122.6043 118.3525,119.6273 115.4895,118.9903 C112.6245,118.3553 109.7555,120.2963 109.0815,123.3293" id="Fill-111" fill="#FFFFFF"/>
            <path d="M110.5425,125.5676 C110.8245,127.2296 112.3155,128.3656 113.8835,128.1016 C115.4565,127.8396 116.5015,126.2826 116.2265,124.6256 C115.9485,122.9626 114.4535,121.8306 112.8845,122.0896 C111.3175,122.3526 110.2655,123.9086 110.5425,125.5676" id="Fill-113" fill="#1D1D1B"/>
            <path d="M111.7271,125.4933 C111.8911,126.4883 112.7841,127.1643 113.7301,127.0143 C114.6631,126.8543 115.2861,125.9223 115.1221,124.9293 C114.9561,123.9383 114.0621,123.2593 113.1271,123.4113 C112.1861,123.5703 111.5591,124.4993 111.7271,125.4933" id="Fill-115" fill="#1D1D1B"/>
            <path d="M113.4844,124.1179 C113.5494,124.5379 113.9284,124.8269 114.3244,124.7589 C114.7184,124.6899 114.9894,124.2979 114.9184,123.8749 C114.8484,123.4559 114.4704,123.1679 114.0704,123.2309 C113.6774,123.3019 113.4114,123.6979 113.4844,124.1179" id="Fill-117" fill="#FFFFFF"/>
            <path d="M111.9282,126.6208 C111.9712,126.8788 112.1992,127.0498 112.4412,127.0118 C112.6802,126.9678 112.8412,126.7318 112.8002,126.4768 C112.7542,126.2258 112.5282,126.0458 112.2862,126.0868 C112.0492,126.1298 111.8832,126.3688 111.9282,126.6208" id="Fill-119" fill="#FFFFFF"/>
            <path d="M123.6836,91.0495 C123.6836,91.0495 126.6226,99.2285 126.6196,106.9935 C123.9396,107.9335 121.5476,108.0925 121.5476,108.0925 L117.0016,95.0685 C117.0016,95.0685 119.8846,105.0055 119.3246,108.2395 C115.0586,109.8875 102.3426,110.7245 97.7406,111.1805 C98.3576,116.6195 97.5796,124.2855 95.0546,132.8265 C93.2876,133.3975 88.6236,134.1625 88.6236,134.1625 C88.6236,134.1625 74.2286,118.6645 77.4576,99.9565 C79.5686,87.6865 99.1546,81.8585 99.1546,81.8585 C99.1546,81.8585 91.6986,81.8935 92.8016,79.0765 C93.8976,76.2655 101.4006,80.7925 101.4006,80.7925 C101.4006,80.7925 99.0586,76.5355 101.5526,75.3065 C105.1226,73.5435 103.7026,80.6485 103.7026,80.6485 C103.7026,80.6485 116.7156,76.4375 130.7726,79.0135 C143.5456,81.3525 152.8816,86.3675 150.5286,113.1665 C148.4236,109.8025 146.0156,102.9525 146.0156,102.9525 C146.0156,102.9525 138.6836,105.2375 132.7276,105.9355 C130.3746,96.3435 123.6836,91.0495 123.6836,91.0495" id="Fill-121" fill="#4B372E"/>
            <path d="M79.0361,103.1286 C78.7201,113.9576 79.9551,117.0716 89.4781,134.1036 C92.2621,134.6846 96.0201,126.6686 95.2031,111.6516 C90.6371,125.6546 83.5671,122.4666 79.0361,103.1286" id="Fill-123" fill="#392921"/>
            <path d="M77.1704,102.0939 C77.1364,102.4219 77.1054,102.7489 77.0824,103.0749 C77.0634,103.3089 77.0484,103.5419 77.0384,103.7759 C77.0224,104.0509 77.0144,104.3259 77.0064,104.6019 C76.9994,104.8409 76.9914,105.0809 76.9904,105.3199 C76.9904,105.3449 76.9914,105.3699 76.9914,105.3979 C106.5064,86.9089 136.7844,89.4609 148.9964,92.0599 C146.4974,85.0229 141.7124,81.8999 135.7354,80.1579 C134.5774,79.8359 133.4074,79.5519 132.2354,79.3019 C122.1504,85.8019 100.2384,86.7549 91.1034,85.2119 C90.0514,85.7529 88.9604,86.3649 87.8734,87.0459 C87.8424,87.0659 87.8104,87.0849 87.7794,87.1039 C87.4664,87.3009 87.1544,87.5039 86.8424,87.7139 C86.7714,87.7589 86.7024,87.8059 86.6334,87.8539 C86.3574,88.0409 86.0854,88.2309 85.8154,88.4269 C85.7284,88.4909 85.6404,88.5529 85.5534,88.6159 C85.2974,88.8019 85.0444,88.9959 84.7954,89.1909 C84.7044,89.2629 84.6124,89.3339 84.5234,89.4049 C84.2704,89.6059 84.0194,89.8159 83.7744,90.0269 C83.6944,90.0929 83.6144,90.1589 83.5364,90.2269 C83.2414,90.4819 82.9544,90.7479 82.6714,91.0149 C82.6464,91.0409 82.6194,91.0609 82.5944,91.0849 C82.2874,91.3809 81.9904,91.6839 81.6964,91.9949 C81.6344,92.0639 81.5744,92.1359 81.5094,92.2079 C81.2954,92.4429 81.0844,92.6819 80.8814,92.9259 C80.7834,93.0409 80.6944,93.1609 80.6014,93.2779 C80.4374,93.4839 80.2754,93.6899 80.1214,93.9019 C80.0244,94.0389 79.9304,94.1739 79.8364,94.3129 C79.6984,94.5149 79.5634,94.7189 79.4344,94.9239 C79.3444,95.0709 79.2564,95.2189 79.1684,95.3659 C79.0494,95.5749 78.9324,95.7839 78.8214,95.9979 C78.7454,96.1479 78.6634,96.3009 78.5924,96.4559 C78.4864,96.6769 78.3894,96.9009 78.2964,97.1269 C78.2324,97.2779 78.1674,97.4279 78.1094,97.5809 C78.0144,97.8319 77.9344,98.0899 77.8534,98.3469 C77.8134,98.4809 77.7654,98.6119 77.7294,98.7469 C77.6194,99.1439 77.5274,99.5469 77.4574,99.9559 C77.3654,100.4859 77.2924,101.0139 77.2274,101.5389 C77.2064,101.7249 77.1874,101.9089 77.1704,102.0939" id="Fill-125" fill="#5A463D"/>
            <path d="M94.7788,130.0705 C94.7788,130.0705 92.5938,126.5365 88.4518,127.7735 C84.0918,129.0705 85.0758,135.5185 89.0118,138.2755 C92.9508,141.0215 97.8338,139.5915 97.8988,136.0155 L94.7788,130.0705 Z" id="Fill-127" fill="#B27A47"/>
            <path d="M89.0361,127.9631 C90.0931,127.6531 91.0011,127.6741 91.7831,127.8581 C91.1651,127.7341 90.5041,127.7441 89.8051,127.9841 C85.7731,129.3701 87.1511,134.1771 89.5861,136.4331 C92.8821,139.4691 96.8001,138.4261 97.8931,135.6381 C97.8331,138.9671 93.2551,140.2961 89.5661,137.7401 C85.8721,135.1771 84.9421,129.1721 89.0361,127.9631" id="Fill-129" fill="#9E6D3E"/>
            <path d="M88.4077,129.7678 C90.8437,128.0378 95.4967,132.5878 93.1507,137.0478 C92.9357,132.4808 90.9277,131.7668 89.8387,134.4658 C89.2867,133.1868 89.5987,132.0958 91.2737,131.5288 C90.3867,129.9058 88.4077,129.7678 88.4077,129.7678" id="Fill-131" fill="#9E6D3E"/>
            <path d="M240.5044,140.2692 C237.2274,145.8542 226.2814,162.7642 234.2334,174.0822 C225.3154,178.5432 211.0744,176.4942 197.9194,173.1262 C199.7554,160.5852 194.3124,154.9542 192.1674,150.9752 C190.0254,146.9982 240.5044,140.2692 240.5044,140.2692" id="Fill-133" fill="#5C302D"/>
            <path d="M197.4502,165.612 C199.0292,160.816 207.0622,161.825 212.7932,162.321 C218.5242,162.816 224.0172,163.278 224.2482,167.916 C224.4882,172.734 228.6532,179.975 229.5812,186.001 C230.2862,190.591 229.2832,195.091 221.6972,196.901 C214.1102,198.711 197.1142,200.841 196.2712,193.268 C195.4272,185.696 195.9332,170.221 197.4502,165.612" id="Fill-135" fill="#58C0D7"/>
            <path d="M200.0293,210.277 C197.5283,213.048 197.2273,216.753 198.8543,219.866 C201.2523,224.464 206.9093,227.227 209.4033,228.253 C210.9083,225.506 210.9833,224.484 210.9833,224.484 C210.9833,224.485 204.8703,221.61 203.3243,217.892 C202.7813,216.589 202.2723,215.055 203.3653,213.029 C201.8553,211.453 200.0293,210.277 200.0293,210.277" id="Fill-137" fill="#EBA376"/>
            <path d="M202.6299,214.6305 C202.6299,214.6305 202.1439,215.2295 202.4399,216.9915 C201.1549,214.8565 199.1119,213.5615 198.0909,216.0475 C197.9129,214.6745 199.0959,212.1265 199.8179,211.3575 C201.0209,212.3265 202.6299,214.6305 202.6299,214.6305" id="Fill-139" fill="#EDB389"/>
            <path d="M205.6968,220.8708 C205.6968,220.8708 205.2708,223.5998 202.9288,224.6108 C206.7808,227.3758 209.0458,228.2968 210.4208,228.7888 C210.2308,230.5358 210.1748,232.8498 211.2498,233.2378 C212.3188,233.6188 214.1178,228.7628 214.0778,225.9878 C213.0268,225.4748 212.3008,225.0268 211.1398,224.4078 C207.9558,222.7198 205.6968,220.8708 205.6968,220.8708" id="Fill-141" fill="#FFFFFF"/>
            <path d="M213.3721,225.6012 C213.3851,227.2482 212.8671,232.5182 211.0531,232.5182 C210.0971,232.5152 210.3501,229.4152 210.3501,229.4152 C210.3501,229.4152 209.5091,235.3512 210.6951,236.3132 C211.7791,237.1862 214.1621,235.6312 214.9431,232.9692 C215.7231,230.3112 215.9691,227.6422 215.2551,226.8582 C214.4641,225.9922 213.3721,225.6012 213.3721,225.6012" id="Fill-143" fill="#964745"/>
            <path d="M217.8481,211.7272 C217.6631,215.4562 219.7761,218.5122 223.0081,219.8972 C227.7731,221.9342 233.9031,220.4962 236.4821,219.7092 C235.9101,216.6342 235.3231,215.7912 235.3231,215.7912 C235.3231,215.7912 228.7661,217.4372 225.2181,215.5392 C223.9731,214.8732 222.6061,214.0072 222.1731,211.7472 C220.0071,211.4782 217.8481,211.7272 217.8481,211.7272" id="Fill-145" fill="#EBA376"/>
            <path d="M221.5103,211.8727 C221.5103,211.8727 221.5403,213.1507 222.9033,214.3087 C220.5423,213.5057 218.4753,213.5507 219.2983,216.1077 C218.2763,215.1757 217.9233,212.9667 217.9823,211.9107 C219.5263,211.8837 221.5103,211.8727 221.5103,211.8727" id="Fill-147" fill="#EDB389"/>
            <path d="M228.9365,216.3395 C228.9365,216.3395 230.3375,218.7305 229.1625,220.9865 C233.8965,220.6915 236.2305,219.9715 237.6105,219.4815 C238.5655,220.9575 239.9925,222.7825 241.0635,222.4005 C242.1375,222.0195 240.4545,217.1225 238.6645,214.9955 C237.5305,215.2705 236.6805,215.3795 235.3945,215.6375 C231.8545,216.3435 228.9365,216.3395 228.9365,216.3395" id="Fill-149" fill="#FFFFFF"/>
            <path d="M237.876,215.1462 C238.929,216.4112 241.863,220.8212 240.455,221.9672 C239.714,222.5732 237.949,220.0102 237.949,220.0102 C237.949,220.0102 241.051,225.1392 242.583,225.135202 C243.973,225.1252 244.837,222.4112 243.755,219.8582 C242.677,217.3062 241.178,215.0842 240.127,214.9292 C238.968,214.7582 237.876,215.1462 237.876,215.1462" id="Fill-151" fill="#964745"/>
            <path d="M218.0913,168.9118 C218.0913,168.9118 232.6703,166.2378 243.6543,153.7988 C245.1563,154.3378 246.6463,153.3298 248.3353,151.5958 C249.9173,150.7418 250.8463,149.8908 250.3933,149.3528 C249.9243,148.7948 248.2483,149.8848 247.8003,150.0938 C247.8433,150.0308 249.7513,148.4728 250.1483,148.0998 C251.0653,147.2318 250.3543,146.2458 249.4313,146.8468 C248.6543,147.3518 246.9533,148.6318 246.8603,148.6948 C246.9243,148.6048 248.6553,146.7108 248.9813,146.3698 C249.9383,145.3498 248.9493,144.1458 247.8273,145.2888 C247.0633,146.0608 245.7733,147.4738 245.6313,147.5608 C245.6313,147.4758 246.3223,146.2018 246.6803,145.4208 C247.2723,144.1328 246.2543,143.4508 245.3393,144.7878 C244.6203,145.8458 242.7783,148.2928 242.7783,148.2928 C242.7783,148.2928 242.1603,146.2798 241.0523,146.6378 C239.9453,146.9958 241.1343,150.4768 241.1343,150.4768 C241.1343,150.4768 233.0133,160.6838 217.5983,164.2918 C214.3683,166.2548 218.0913,168.9118 218.0913,168.9118" id="Fill-153" fill="#EBA376"/>
            <path d="M226.3403,166.0427 C223.7623,166.9367 222.0983,167.2417 222.0983,167.2417 C222.0983,167.2417 218.7903,164.8797 221.6623,163.1367 C223.1613,162.7857 224.5673,162.3537 225.9113,161.8817 C224.3703,162.7017 221.9083,166.3587 226.3403,166.0427" id="Fill-155" fill="#EDB389"/>
            <path d="M243.8955,150.8327 C243.8535,150.8507 243.8105,150.8477 243.7715,150.8227 C243.7085,150.7877 243.6905,150.7077 243.7265,150.6447 C244.3535,149.5987 243.5175,148.6817 242.9275,148.3077 C242.8655,148.2687 242.8485,148.1907 242.8855,148.1247 C242.9265,148.0647 243.0085,148.0477 243.0665,148.0877 C243.7385,148.5117 244.6835,149.5557 243.9525,150.7777 C243.9405,150.8027 243.9155,150.8187 243.8955,150.8327" id="Fill-157" fill="#D2754E"/>
            <path d="M200.4814,168.4333 C200.4814,168.4333 188.9934,168.9453 177.1464,150.0663 C175.5864,150.4023 174.2434,149.2103 172.7934,147.2673 C171.3374,146.2083 170.5304,145.2463 171.0484,144.7703 C171.5884,144.2793 173.1084,145.5823 173.5284,145.8503 C173.4914,145.7813 171.8054,143.9863 171.4614,143.5593 C170.6664,142.5793 171.5014,141.6993 172.3374,142.4173 C173.0414,143.0163 174.5584,144.5133 174.6384,144.5863 C174.5904,144.4923 173.1214,142.3863 172.8424,141.9993 C172.0304,140.8693 173.1704,139.8023 174.1344,141.0813 C174.7874,141.9543 175.8774,143.5213 176.0114,143.6253 C176.0194,143.5383 175.4974,142.1893 175.2504,141.3623 C174.8364,140.0093 175.9384,139.4723 176.6644,140.9143 C177.2394,142.0583 178.7394,144.7263 178.7394,144.7263 C178.7394,144.7263 179.6164,142.8153 180.6664,143.3193 C181.7194,143.8183 180.0834,147.1123 180.0834,147.1123 C180.0834,147.1123 185.8884,161.3593 201.5864,163.9173 C204.5214,166.2903 200.4814,168.4333 200.4814,168.4333" id="Fill-159" fill="#EBA376"/>
            <path d="M195.8394,162.6711 C195.5724,163.3231 194.9644,164.8071 194.4294,166.0651 C193.5374,165.8301 192.1474,165.3261 190.4714,164.2801 C191.2694,164.3561 192.3224,164.3081 192.7104,163.5741 C193.2224,162.5951 191.9334,161.1981 191.3804,160.6671 C192.7004,161.4601 194.1764,162.1481 195.8394,162.6711" id="Fill-161" fill="#EDB389"/>
            <path d="M177.3979,147.1135 C177.3349,147.1295 177.2749,147.0955 177.2449,147.0395 C176.6859,145.7305 177.7549,144.8175 178.4769,144.4855 C178.5459,144.4585 178.6229,144.4855 178.6559,144.5505 C178.6869,144.6175 178.6559,144.6975 178.5899,144.7265 C177.9519,145.0195 177.0069,145.8105 177.4899,146.9335 C177.5179,147.0005 177.4849,147.0795 177.4209,147.1055 C177.4119,147.1105 177.4089,147.1125 177.3979,147.1135" id="Fill-163" fill="#D2754E"/>
            <path d="M210.5317,157.5666 C210.5317,157.5666 210.2947,161.7686 210.2487,162.9226 C214.6707,164.0116 217.1627,164.1786 217.1627,164.1786 L215.9337,170.7746 L201.0227,170.5186 L199.8897,162.9416 C199.8897,162.9416 202.8567,163.2156 206.8247,162.7376 C206.9147,160.3856 207.0007,157.2336 207.0007,157.2336 L210.5317,157.5666 Z" id="Fill-165" fill="#EBA376"/>
            <path d="M206.9463,162.1491 C207.0243,160.0961 207.0973,157.3441 207.0973,157.3441 L210.1793,157.6331 C210.1793,157.6331 209.9733,161.3051 209.9333,162.3121 C209.2203,161.2101 207.8903,161.3271 206.9463,162.1491" id="Fill-167" fill="#EDB389"/>
            <path d="M180.9585,117.4411 C177.8905,126.0351 176.7095,152.1121 200.6995,158.6761 C224.5505,165.2051 238.0355,148.8851 242.0295,132.2871 C246.8475,112.2681 231.3285,99.4131 217.2705,97.1311 C195.3205,93.5731 185.0615,105.9281 180.9585,117.4411" id="Fill-169" fill="#EBA376"/>
            <path d="M192.7739,114.9699 C196.3509,115.2299 195.7309,119.0409 193.5789,118.2679 C191.2719,117.4359 189.0389,117.5829 188.8309,117.2489 C188.3689,116.5349 190.7669,114.8269 192.7739,114.9699" id="Fill-171" fill="#5C302D"/>
            <path d="M222.0986,120.4089 C218.7636,119.0969 217.6696,122.7929 219.9436,123.0319 C222.3846,123.2839 224.3376,124.3749 224.6676,124.1699 C225.3976,123.7179 223.9726,121.1439 222.0986,120.4089" id="Fill-173" fill="#5C302D"/>
            <path d="M201.5117,136.7331 C201.4687,136.7491 201.4257,136.7511 201.3897,136.7321 C200.2107,136.2271 199.5807,135.2391 199.7207,134.0841 C199.8457,133.0221 200.6067,132.1011 201.4917,131.9461 C202.0457,131.8481 203.1117,131.9621 204.0267,133.7971 C204.0697,133.8841 204.0307,133.9831 203.9497,134.0221 C203.8597,134.0721 203.7667,134.0331 203.7257,133.9501 C203.1227,132.7301 202.3487,132.1331 201.5557,132.2741 C200.7977,132.4051 200.1577,133.2021 200.0487,134.1221 C199.9957,134.6061 200.0237,135.7851 201.5177,136.4241 C201.6037,136.4641 201.6397,136.5581 201.6077,136.6471 C201.5847,136.6881 201.5547,136.7181 201.5117,136.7331" id="Fill-175" fill="#D2754E"/>
            <path d="M214.0156,126.59 C211.5466,128.792 211.2306,132.467 213.3136,134.798 C215.3896,137.126 219.0786,137.226 221.5436,135.026 C224.0086,132.819 224.3266,129.151 222.2486,126.822 C220.1706,124.492 216.4816,124.391 214.0156,126.59" id="Fill-177" fill="#FFFFFF"/>
            <path d="M215.1934,130.0138 C214.8134,131.7648 215.8484,133.4728 217.4974,133.8318 C219.1524,134.1888 220.7984,133.0658 221.1814,131.3128 C221.5624,129.5568 220.5304,127.8478 218.8814,127.4908 C217.2254,127.1298 215.5784,128.2598 215.1934,130.0138" id="Fill-179" fill="#1D1D1B"/>
            <path d="M216.7212,130.1672 C216.4872,131.2502 217.1232,132.3132 218.1512,132.5362 C219.1692,132.7552 220.1902,132.0592 220.4312,130.9762 C220.6632,129.8912 220.0252,128.8292 219.0002,128.6112 C217.9822,128.3852 216.9612,129.0852 216.7212,130.1672" id="Fill-181" fill="#1D1D1B"/>
            <path d="M217.6543,128.5309 C217.5583,128.9759 217.8233,129.4089 218.2383,129.4989 C218.6583,129.5899 219.0793,129.3049 219.1763,128.8619 C219.2703,128.4169 219.0113,127.9809 218.5903,127.8849 C218.1733,127.7989 217.7553,128.0829 217.6543,128.5309" id="Fill-183" fill="#FFFFFF"/>
            <path d="M218.4023,132.2223 C218.3503,132.4903 218.5033,132.7563 218.7563,132.8153 C219.0133,132.8643 219.2653,132.6923 219.3283,132.4263 C219.3833,132.1543 219.2263,131.8953 218.9703,131.8413 C218.7163,131.7813 218.4643,131.9543 218.4023,132.2223" id="Fill-185" fill="#FFFFFF"/>
            <path d="M197.353,125.1144 C197.846,128.0164 196.032,130.7464 193.298,131.2154 C190.556,131.6844 187.935,129.7134 187.435,126.8084 C186.94,123.9064 188.76,121.1784 191.496,120.7084 C194.236,120.2404 196.857,122.2134 197.353,125.1144" id="Fill-187" fill="#FFFFFF"/>
            <path d="M195.9448,126.2175 C195.6028,127.7745 194.1328,128.7765 192.6658,128.4555 C191.1928,128.1365 190.2748,126.6155 190.6138,125.0535 C190.9518,123.4985 192.4198,122.4935 193.8868,122.8155 C195.3598,123.1355 196.2798,124.6585 195.9448,126.2175" id="Fill-189" fill="#1D1D1B"/>
            <path d="M195.2612,125.8888 C195.0572,126.8178 194.1802,127.4188 193.3002,127.2298 C192.4192,127.0328 191.8712,126.1238 192.0742,125.1918 C192.2792,124.2588 193.1532,123.6568 194.0352,123.8538 C194.9142,124.0408 195.4632,124.9528 195.2612,125.8888" id="Fill-191" fill="#1D1D1B"/>
            <path d="M194.375,123.9743 C194.286,124.3683 193.911,124.6233 193.543,124.5413 C193.171,124.4623 192.94,124.0733 193.022,123.6793 C193.111,123.2853 193.482,123.0323 193.852,123.1093 C194.222,123.1923 194.456,123.5783 194.375,123.9743" id="Fill-193" fill="#FFFFFF"/>
            <path d="M194.4502,127.2853 C194.3932,127.5223 194.1722,127.6753 193.9412,127.6253 C193.7222,127.5763 193.5762,127.3423 193.6302,127.1043 C193.6832,126.8683 193.9102,126.7133 194.1322,126.7613 C194.3602,126.8093 194.5042,127.0413 194.4502,127.2853" id="Fill-195" fill="#FFFFFF"/>
            <path d="M191.4722,102.6227 C191.4722,102.6227 207.4882,116.8627 233.8612,119.2897 C233.3282,124.7757 233.7542,130.5527 236.4352,139.1117 C238.2212,139.6607 242.9252,140.3537 242.9252,140.3537 C242.9252,140.3537 257.1682,124.5287 253.6262,105.7427 C251.3042,93.4197 231.4952,87.8727 231.4952,87.8727 C231.4952,87.8727 239.0032,87.7857 237.8472,84.9697 C236.6972,82.1557 229.2172,86.8347 229.2172,86.8347 C229.2172,86.8347 231.5042,82.5117 228.9772,81.3097 C225.3542,79.5967 226.8942,86.7247 226.8942,86.7247 C226.8942,86.7247 213.7292,82.6937 199.6202,85.5087 C186.8002,88.0637 177.4832,93.2637 180.2772,120.2017 C183.2482,110.5397 191.4722,102.6227 191.4722,102.6227" id="Fill-197" fill="#5C302D"/>
            <path d="M252.1196,112.322 C252.6066,123.218 248.0376,129.781 241.0046,140.89 C237.3776,137.037 235.2096,134.481 235.7886,119.35 C240.6096,133.371 247.8616,131.86 252.1196,112.322" id="Fill-199" fill="#502B27"/>
            <path d="M253.1958,104.1218 C253.1148,103.8678 253.0308,103.6128 252.9298,103.3648 C252.8678,103.2118 252.7988,103.0558 252.7318,102.9018 C252.6348,102.6788 252.5378,102.4568 252.4298,102.2418 C252.3508,102.0838 252.2658,101.9268 252.1868,101.7698 C252.0718,101.5648 251.9548,101.3568 251.8308,101.1568 C251.7408,101.0038 251.6478,100.8548 251.5528,100.7028 C251.4228,100.5038 251.2848,100.3088 251.1468,100.1088 C251.0458,99.9668 250.9468,99.8218 250.8428,99.6858 C250.6888,99.4858 250.5308,99.2838 250.3698,99.0858 C250.2658,98.9638 250.1668,98.8358 250.0578,98.7118 C249.8688,98.4888 249.6648,98.2678 249.4628,98.0478 C249.3798,97.9628 249.3058,97.8748 249.2228,97.7888 C248.9318,97.4878 248.6298,97.1908 248.3198,96.9028 C248.2648,96.8508 248.2018,96.8008 248.1448,96.7468 C247.8888,96.5128 247.6328,96.2838 247.3658,96.0578 C247.2618,95.9708 247.1538,95.8848 247.0508,95.7968 C246.8268,95.6138 246.5988,95.4288 246.3698,95.2548 C246.2498,95.1598 246.1328,95.0738 246.0158,94.9868 C245.7898,94.8138 245.5608,94.6458 245.3288,94.4818 C245.2128,94.3968 245.0948,94.3168 244.9768,94.2328 C244.7388,94.0678 244.5018,93.9068 244.2588,93.7478 C244.1458,93.6768 244.0398,93.6038 243.9298,93.5318 C243.6668,93.3658 243.4048,93.1978 243.1428,93.0388 C243.0538,92.9858 242.9678,92.9298 242.8808,92.8768 C242.5618,92.6878 242.2488,92.5058 241.9348,92.3288 C241.9018,92.3068 241.8648,92.2828 241.8258,92.2648 C241.0938,91.8538 240.3618,91.4658 239.6548,91.1128 C230.4828,92.8178 208.4118,92.2058 198.1538,85.8248 C196.8428,86.1198 195.5378,86.4648 194.2618,86.8578 C188.4388,88.7318 183.8078,91.9768 181.4638,98.9928 C193.5208,96.1638 223.9528,92.9338 254.1798,111.2128 L254.1798,111.1498 C254.1748,110.8788 254.1608,110.6078 254.1488,110.3318 C254.1368,110.0988 254.1238,109.8678 254.1128,109.6308 C254.0918,109.3608 254.0678,109.0928 254.0478,108.8278 C254.0218,108.5388 253.9898,108.2498 253.9578,107.9608 C253.9298,107.7458 253.9048,107.5278 253.8738,107.3118 C253.8058,106.7898 253.7248,106.2678 253.6258,105.7428 C253.5488,105.3308 253.4498,104.9298 253.3348,104.5318 C253.2908,104.3938 253.2428,104.2588 253.1958,104.1218" id="Fill-201" fill="#6C3835"/>
            <path d="M236.6694,136.3356 C236.6694,136.3356 238.8134,132.7406 242.9984,133.9186 C247.4094,135.1526 246.5194,141.6646 242.6014,144.5006 C238.6794,147.3306 233.7444,145.9656 233.6204,142.3666 L236.6694,136.3356 Z" id="Fill-203" fill="#EBA376"/>
            <path d="M242.4106,134.1193 C241.3466,133.8243 240.4296,133.8623 239.6436,134.0593 C240.2666,133.9233 240.9326,133.9233 241.6386,134.1533 C245.7206,135.4843 244.4126,140.3463 241.9956,142.6503 C238.7266,145.7623 234.7666,144.7763 233.6166,141.9853 C233.7316,145.3343 238.3616,146.6043 242.0356,143.9693 C245.7166,141.3283 246.5526,135.2703 242.4106,134.1193" id="Fill-205" fill="#EDB389"/>
            <path d="M243.0752,135.9279 C240.5982,134.2199 235.9842,138.8779 238.4112,143.3269 C238.5632,138.7309 240.5712,137.9749 241.7142,140.6769 C242.2462,139.3819 241.9142,138.2889 240.2192,137.7409 C241.0872,136.0959 243.0752,135.9279 243.0752,135.9279" id="Fill-207" fill="#DA9967"/>
            <path d="M208.3818,128.4494 C207.7178,135.1394 212.3068,141.0894 218.6098,141.7184 C224.9118,142.3424 230.5798,137.4104 231.2448,130.7184 C231.9078,124.0324 227.3198,118.0814 221.0158,117.4554 C214.7128,116.8304 209.0418,121.7634 208.3818,128.4494 M207.1108,128.3264 C207.8438,120.9394 214.1398,115.4924 221.1428,116.1884 C228.1448,116.8824 233.2478,123.4614 232.5148,130.8464 C231.7808,138.2344 225.4848,143.6834 218.4808,142.9894 C211.4788,142.2914 206.3768,135.7144 207.1108,128.3264" id="Fill-209" fill="#E84F36"/>
            <path d="M179.6123,122.7927 C178.9853,129.0847 183.3003,134.6827 189.2353,135.2717 C195.1633,135.8617 200.4973,131.2187 201.1203,124.9277 C201.7453,118.6347 197.4293,113.0387 191.5003,112.4477 C185.5673,111.8607 180.2373,116.5007 179.6123,122.7927 M178.3413,122.6667 C179.0353,115.6717 184.9923,110.5197 191.6263,111.1737 C198.2553,111.8367 203.0863,118.0577 202.3913,125.0527 C201.6963,132.0477 195.7373,137.2037 189.1083,136.5477 C182.4773,135.8867 177.6473,129.6627 178.3413,122.6667" id="Fill-211" fill="#E84F36"/>
            <path d="M207.4146,129.3014 C207.7176,129.3304 208.0086,129.1404 208.0896,128.8334 C208.1816,128.4934 207.9756,128.1404 207.6366,128.0504 L201.6996,126.4644 C201.3636,126.3754 201.0086,126.5734 200.9186,126.9174 C200.8276,127.2604 201.0286,127.6084 201.3706,127.6984 L207.3096,129.2844 C207.3456,129.2934 207.3776,129.2994 207.4146,129.3014" id="Fill-213" fill="#E84F36"/>
            <path d="M242.2642,133.3737 C242.4512,133.3317 242.6132,133.2027 242.6972,133.0177 C242.8412,132.6927 242.6982,132.3167 242.3782,132.1747 L232.1562,127.5577 C231.8332,127.4127 231.4562,127.5557 231.3092,127.8797 C231.1642,128.1967 231.3092,128.5757 231.6272,128.7227 L241.8542,133.3397 C241.9892,133.3957 242.1332,133.4097 242.2642,133.3737" id="Fill-215" fill="#E84F36"/>
            <path d="M195.3418,197.4235 C195.3418,197.4235 193.9498,202.7605 193.4878,212.4965 C212.2688,218.7565 227.5728,209.5975 227.5728,209.5975 C227.5728,209.5975 221.6728,203.7145 219.9848,196.0975 C211.6628,196.7575 195.3418,197.4235 195.3418,197.4235" id="Fill-217" fill="#1B5AA5"/>
            <path d="M196.0073,197.152 L195.1953,203.294 C195.1953,203.294 205.5953,197.878 221.9743,203.526 C219.6583,199.586 219.4273,197.419 219.4273,197.419 L196.0073,197.152 Z" id="Fill-219" fill="#134C8E"/>
            <path d="M214.3555,163.8591 C215.5165,164.0341 217.9505,163.9741 221.0225,163.1081 C221.6195,164.5911 222.5315,166.7011 223.2255,169.2511 C222.7315,169.7471 220.7335,170.4091 218.7615,171.8011 C218.8025,179.2701 220.7755,190.3161 224.5175,195.6911 C219.5225,202.0851 197.5015,200.9241 192.2135,197.3081 C191.8715,187.1041 193.4165,180.9201 195.9805,169.5981 C195.3425,169.3671 194.3475,169.0381 192.2725,167.4541 C193.5485,163.9181 194.6485,162.4691 195.2265,161.8331 C198.3015,162.1781 202.4155,162.7571 203.1695,162.7001 C201.5795,170.1661 212.3865,171.8011 214.3555,163.8591" id="Fill-221" fill="#93539C"/>
            <path d="M217.2549,174.8161 C215.8869,180.5861 217.3959,184.2831 218.0579,191.0061 C218.5929,196.4871 210.0309,198.1671 193.2409,196.9961 C197.5909,198.7851 215.8739,201.3281 222.6709,195.4871 C217.3959,184.5461 217.2549,174.8161 217.2549,174.8161" id="Fill-223" fill="#76437C"/>
            <path d="M212.8491,163.3366 C212.3871,165.8096 211.5361,167.0656 207.2851,169.1346 C208.8491,170.4676 210.6471,171.8006 210.6471,171.8006 C210.6471,171.8006 215.8441,167.6646 216.1541,163.8016 C215.0531,163.6286 212.8491,163.3366 212.8491,163.3366" id="Fill-225" fill="#FFFFFF"/>
            <path d="M204.8496,162.7575 C204.3276,163.9185 204.2306,167.0075 207.2836,169.1345 C205.4756,169.8795 202.7626,170.8165 202.7626,170.8165 C202.7626,170.8165 200.1536,167.3365 201.4296,162.4685 C203.0526,162.4095 204.8496,162.7575 204.8496,162.7575" id="Fill-227" fill="#FFFFFF"/>
            <path d="M196.6172,161.717 C195.8432,162.586 194.1122,166.855 193.4882,168.728 C192.0962,167.917 191.5002,167.16 191.5002,167.16 C191.5002,167.16 193.6752,162.22 194.6322,161.339 C196.0192,161.537 196.6172,161.717 196.6172,161.717" id="Fill-229" fill="#FFFFFF"/>
            <path d="M220.7334,162.8732 C221.3634,163.8562 222.5514,167.8842 222.8784,169.8312 C224.0954,169.3102 225.1434,168.7332 225.1434,168.7332 C225.1434,168.7332 223.5134,163.4882 222.7034,162.4692 C221.6624,162.7572 220.7334,162.8732 220.7334,162.8732" id="Fill-231" fill="#FFFFFF"/>
            <path d="M201.0239,162.4103 C201.0239,162.4103 195.9149,171.0543 194.0359,178.4853 C193.3929,168.7983 197.1409,162.0063 197.1409,162.0063 L201.0239,162.4103 Z" id="Fill-233" fill="#24AAC2"/>
            <path d="M216.7334,163.8019 C216.7334,163.8019 216.2874,171.2199 219.6914,180.7289 C220.3854,173.6179 219.8064,163.3979 219.8064,163.3979 C219.8064,163.3979 218.3554,163.5129 216.7334,163.8019" id="Fill-235" fill="#24AAC2"/>
            <path d="M129.7051,137.319 C135.7951,135.47 137.5121,133.109 139.7951,131.082 L139.8571,131.222 C139.1471,131.941 138.2471,132.825 136.9071,134.15 C136.9071,134.15 139.0641,144.07 132.4631,145.819 C125.8611,147.567 122.8301,140.176 121.4311,137.172 C121.4311,137.172 125.5331,138.585 129.7051,137.319" id="Fill-237" fill="#000000"/>
            <path d="M132.0298,141.4006 C131.6518,141.1246 131.0618,140.9076 131.0618,140.9076 C133.3098,138.5286 135.4548,139.1366 137.0328,138.9266 C136.8848,140.2866 136.6638,144.0576 132.8168,145.5026 C131.3228,146.0636 129.2288,145.9906 127.6938,145.1776 C125.7688,144.1586 124.6868,142.6866 124.3318,142.1416 C126.9738,139.1826 131.0238,140.9386 132.0298,141.4006" id="Fill-239" fill="#EA0000"/>
            <path d="M121.4312,137.1716 C121.4312,137.1716 126.6052,138.4526 129.7052,137.3186 C132.8052,136.1856 135.2572,135.0716 136.5322,133.9996 C137.1302,135.6346 136.8122,135.6856 136.8652,136.3206 C136.9182,136.9566 131.1212,140.9156 122.4792,139.3846 C121.9012,138.1886 121.4312,137.1716 121.4312,137.1716" id="Fill-241" fill="#FFFFFF"/>
            <path d="M129.7051,137.319 C135.7951,135.47 137.5121,133.109 139.7951,131.082 L139.8571,131.222 C139.1471,131.941 138.2471,132.825 136.9071,134.15 C136.9071,134.15 139.0641,144.07 132.4631,145.819 C125.8611,147.567 122.8301,140.176 121.4311,137.172 C121.4311,137.172 125.5331,138.585 129.7051,137.319 Z" id="Stroke-243" stroke="#000000" stroke-width="0.15"/>
            <path d="M210.7871,143.5578 C210.6121,143.4818 210.3461,143.6048 210.2951,143.7888 C210.2381,143.9988 210.3161,144.0798 210.3161,144.0798 C210.3161,144.0798 206.9701,145.6808 201.7281,145.6718 C197.1871,145.6648 193.1261,143.2658 193.1261,143.2658 C193.1261,143.2658 193.2011,143.1788 193.1851,143.0828 C193.1721,143.0048 193.1201,142.8778 193.0011,142.8688 C192.5131,142.8298 192.5761,143.3968 192.7081,144.3908 C192.7971,143.8878 192.9831,143.5748 192.9831,143.5748 L193.1531,143.6328 C193.1531,143.6328 195.5811,153.5348 201.3831,153.3158 C207.1861,153.0968 210.3341,144.3858 210.3341,144.3858 L210.4841,144.3328 C210.4841,144.3328 210.7091,144.5548 210.7371,145.2248 C211.1551,144.2568 211.3421,143.7968 210.7871,143.5578" id="Fill-245" fill="#000000"/>
            <path d="M202.0649,149.7599 C202.3099,149.4619 202.6759,149.1499 202.6759,149.1499 C199.4879,147.6649 197.4959,149.4389 196.6489,150.5759 C197.6729,151.6269 199.3229,153.7559 202.6319,152.9429 C205.8239,152.1589 208.0909,148.2709 208.0909,148.2709 C205.0469,146.8169 202.7339,149.1769 202.0649,149.7599" id="Fill-247" fill="#EA0000"/>
            <path d="M193.9097,144.0182 C193.9097,144.0182 194.0777,145.1872 194.2427,145.4912 C196.1047,148.9062 200.7967,148.3202 209.0957,146.2542 C209.4117,146.1752 209.7537,144.6322 209.7537,144.6322 C203.5687,146.4892 199.0237,146.4892 193.9097,144.0182" id="Fill-249" fill="#FFFFFF"/>
        </g>
    </g>
</svg>