<svg width="38" height="36" viewBox="0 0 38 36" fill="none" xmlns="http://www.w3.org/2000/svg">
<g clip-path="url(#clip0)">
<path d="M0 9.07413V33.0773C0 34.6916 1.33191 36.0047 2.96935 36.0047H35.0354C36.6729 36.0047 38.0048 34.6916 38.0048 33.0773V9.07413H0Z" fill="#D8DCE1"/>
<path d="M35.0354 0.880119H2.96935C1.33191 0.880119 0 2.19323 0 3.80756V9.07413H38V3.80756C38 2.19323 36.6681 0.880119 35.0354 0.880119ZM4.75 6.7303C3.76658 6.7303 2.96935 5.94431 2.96935 4.97477C2.96935 4.00523 3.76658 3.21925 4.75 3.21925C5.73342 3.21925 6.53065 4.00523 6.53065 4.97477C6.53065 5.94431 5.73342 6.7303 4.75 6.7303ZM33.25 6.7303C32.2666 6.7303 31.4693 5.94431 31.4693 4.97477C31.4693 4.00523 32.2666 3.21925 33.25 3.21925C34.2334 3.21925 35.0307 4.00523 35.0307 4.97477C35.0354 5.94431 34.2334 6.7303 33.25 6.7303Z" fill="#FF4F19"/>
<path d="M18.9995 14.3407C17.6914 14.3407 16.6221 15.3902 16.6221 16.6798C16.6221 17.9694 17.6866 19.0237 18.9995 19.0237C20.3075 19.0237 21.3721 17.9741 21.3721 16.6798C21.3768 15.3902 20.3123 14.3407 18.9995 14.3407Z" fill="white"/>
<path d="M13.061 14.3407C11.7529 14.3407 10.6836 15.3902 10.6836 16.6798C10.6836 17.9694 11.7482 19.0237 13.061 19.0237C14.369 19.0237 15.4336 17.9741 15.4336 16.6798C15.4384 15.3902 14.3738 14.3407 13.061 14.3407Z" fill="white"/>
<path d="M7.12739 14.3407C5.81935 14.3407 4.75 15.3902 4.75 16.6798C4.75 17.9694 5.81457 19.0237 7.12739 19.0237C8.43543 19.0237 9.5 17.9741 9.5 16.6798C9.5 15.3902 8.43543 14.3407 7.12739 14.3407Z" fill="white"/>
<path d="M24.9389 14.3407C23.6309 14.3407 22.5615 15.3902 22.5615 16.6798C22.5615 17.9694 23.6261 19.0237 24.9389 19.0237C26.247 19.0237 27.3115 17.9741 27.3115 16.6798C27.3115 15.3902 26.247 14.3407 24.9389 14.3407Z" fill="white"/>
<path d="M30.8774 19.0237C32.1854 19.0237 33.25 17.9741 33.25 16.6798C33.25 15.3902 32.1854 14.3407 30.8774 14.3407C29.5693 14.3407 28.5 15.3902 28.5 16.6798C28.5 17.9741 29.5646 19.0237 30.8774 19.0237Z" fill="white"/>
<path d="M18.9995 20.1956C17.6914 20.1956 16.6221 21.2451 16.6221 22.5347C16.6221 23.8243 17.6866 24.8785 18.9995 24.8785C20.3075 24.8785 21.3721 23.829 21.3721 22.5347C21.3768 21.2451 20.3123 20.1956 18.9995 20.1956Z" fill="white"/>
<path d="M13.061 20.1956C11.7529 20.1956 10.6836 21.2451 10.6836 22.5347C10.6836 23.8243 11.7482 24.8785 13.061 24.8785C14.369 24.8785 15.4336 23.829 15.4336 22.5347C15.4384 21.2451 14.3738 20.1956 13.061 20.1956Z" fill="white"/>
<path d="M7.12739 20.1956C5.81935 20.1956 4.75 21.2451 4.75 22.5347C4.75 23.8243 5.81457 24.8785 7.12739 24.8785C8.43543 24.8785 9.5 23.829 9.5 22.5347C9.5 21.2451 8.43543 20.1956 7.12739 20.1956Z" fill="white"/>
<path d="M24.9389 20.1956C23.6309 20.1956 22.5615 21.2451 22.5615 22.5347C22.5615 23.8243 23.6261 24.8785 24.9389 24.8785C26.247 24.8785 27.3115 23.829 27.3115 22.5347C27.3115 21.2451 26.247 20.1956 24.9389 20.1956Z" fill="white"/>
<path d="M30.8774 20.1956C29.5693 20.1956 28.5 21.2451 28.5 22.5347C28.5 23.8243 29.5646 24.8785 30.8774 24.8785C32.1854 24.8785 33.25 23.829 33.25 22.5347C33.25 21.2451 32.1854 20.1956 30.8774 20.1956Z" fill="white"/>
<path d="M18.9995 26.0505C17.6914 26.0505 16.6221 27.1 16.6221 28.3896C16.6221 29.6792 17.6866 30.7334 18.9995 30.7334C20.3075 30.7334 21.3721 29.6839 21.3721 28.3896C21.3768 27.1 20.3123 26.0505 18.9995 26.0505Z" fill="white"/>
<path d="M13.061 26.0505C11.7529 26.0505 10.6836 27.1 10.6836 28.3896C10.6836 29.6792 11.7482 30.7334 13.061 30.7334C14.369 30.7334 15.4336 29.6839 15.4336 28.3896C15.4384 27.1 14.3738 26.0505 13.061 26.0505Z" fill="white"/>
<path d="M7.12739 26.0505C5.81935 26.0505 4.75 27.1 4.75 28.3896C4.75 29.6792 5.81457 30.7334 7.12739 30.7334C8.43543 30.7334 9.5 29.6839 9.5 28.3896C9.5 27.1 8.43543 26.0505 7.12739 26.0505Z" fill="white"/>
<path d="M24.9389 26.0505C23.6309 26.0505 22.5615 27.1 22.5615 28.3896C22.5615 29.6792 23.6261 30.7334 24.9389 30.7334C26.247 30.7334 27.3115 29.6839 27.3115 28.3896C27.3115 27.1 26.247 26.0505 24.9389 26.0505Z" fill="white"/>
<path d="M30.8774 26.0505C29.5693 26.0505 28.5 27.1 28.5 28.3896C28.5 29.6792 29.5646 30.7334 30.8774 30.7334C32.1854 30.7334 33.25 29.6839 33.25 28.3896C33.25 27.1 32.1854 26.0505 30.8774 26.0505Z" fill="white"/>
<path d="M4.75014 5.85488C4.25843 5.85488 3.85742 5.45954 3.85742 4.97477V0.880115C3.8622 0.395346 4.25843 0 4.75014 0C5.24184 0 5.64285 0.395346 5.64285 0.880115V4.97947C5.64285 5.45954 5.24184 5.85488 4.75014 5.85488Z" fill="#5C546A"/>
<path d="M33.2501 5.85488C32.7584 5.85488 32.3574 5.45954 32.3574 4.97477V0.880115C32.3574 0.395346 32.7584 0 33.2501 0C33.7418 0 34.1428 0.395346 34.1428 0.880115V4.97947C34.1428 5.45954 33.7418 5.85488 33.2501 5.85488Z" fill="#5C546A"/>
<path d="M9.5 16.6845C9.5 17.9788 8.43543 19.0284 7.12739 19.0284C5.81457 19.0284 4.75 17.9788 4.75 16.6845C4.75 15.3902 5.81457 14.3454 7.12739 14.3454C8.43543 14.3407 9.5 15.3902 9.5 16.6845Z" fill="#FFD200"/>
<path d="M21.377 28.3896C21.377 29.6839 20.3124 30.7334 19.0043 30.7334C17.6915 30.7334 16.627 29.6839 16.627 28.3896C16.627 27.0953 17.6915 26.0505 19.0043 26.0505C20.3124 26.0505 21.377 27.1 21.377 28.3896Z" fill="#FF9600"/>
<path d="M27.3115 22.5394C27.3115 23.8337 26.247 24.8832 24.9389 24.8832C23.6261 24.8832 22.5615 23.8337 22.5615 22.5394C22.5615 21.2451 23.6261 20.2003 24.9389 20.2003C26.2517 20.1956 27.3115 21.2451 27.3115 22.5394Z" fill="#FF4F19"/>
</g>
<defs>
<clipPath id="clip0">
<rect width="38" height="36" fill="white"/>
</clipPath>
</defs>
</svg>
