<svg width="42" height="34" viewBox="0 0 42 34" fill="none" xmlns="http://www.w3.org/2000/svg">
<path d="M32.3685 4.85317C32.3308 4.85317 32.2922 4.8499 32.2545 4.84255L12.4054 1.25538C12.0601 1.19245 11.8312 0.863892 11.8935 0.519805C11.9559 0.175719 12.2865 -0.0514928 12.6318 0.0106226L32.4809 3.59779C32.8263 3.66072 33.0551 3.98928 32.992 4.33336C32.937 4.63822 32.6696 4.85317 32.3685 4.85317Z" fill="#2E3C51"/>
<path fill-rule="evenodd" clip-rule="evenodd" d="M35.6591 8.01447V4.21971C35.6591 3.77019 35.29 3.4024 34.8396 3.4024H33.1842C32.7339 3.4024 32.3672 3.77019 32.3672 4.21971V8.01447L33.879 9.02548L35.6591 8.01447Z" fill="#B3B3B3"/>
<path fill-rule="evenodd" clip-rule="evenodd" d="M25.8137 6.40443C25.8137 5.88626 25.3896 5.46289 24.8695 5.46289C19.056 5.46289 13.2441 5.46289 7.43051 5.46289C6.91043 5.46289 6.48633 5.88626 6.48633 6.40443V8.01534L15.9823 9.78563L25.8129 8.01534L25.8137 6.40443Z" fill="#B3B3B3"/>
<path fill-rule="evenodd" clip-rule="evenodd" d="M3.32965 8.0145C1.49707 8.0145 0 9.50853 0 11.3369V30.6531C0 32.4814 1.49707 33.9746 3.32965 33.9746H38.6704C40.5005 33.9746 42 32.4806 42 30.6531V11.3369C42 9.50853 40.5005 8.01531 38.6704 8.01531C26.889 8.0145 15.1085 8.0145 3.32965 8.0145Z" fill="#E6E6E6"/>
<path d="M19.7821 5.46289H12.519V8.01534H19.7821V5.46289Z" fill="#EB5757"/>
<path fill-rule="evenodd" clip-rule="evenodd" d="M37.0274 11.7145H28.1901C27.7258 11.7145 27.3452 12.0945 27.3452 12.5579V16.284C27.3452 16.7474 27.7258 17.1275 28.1901 17.1275H37.0274C37.4917 17.1275 37.8731 16.7474 37.8731 16.284V12.5579C37.8723 12.0945 37.4917 11.7145 37.0274 11.7145Z" fill="#BAE0F2"/>
<path d="M32.7896 30.7348C32.3958 30.7348 31.9996 30.6792 31.61 30.5673C30.523 30.2551 29.624 29.5383 29.0777 28.551C27.9481 26.5134 28.6913 23.9405 30.7355 22.8151C31.7248 22.27 32.8683 22.1425 33.9544 22.4547C35.0413 22.7677 35.9412 23.4837 36.4875 24.4718C37.6155 26.5102 36.8714 29.0839 34.8297 30.2077C34.1948 30.5566 33.4959 30.734 32.7896 30.7348Z" fill="#616D80"/>
<path fill-rule="evenodd" clip-rule="evenodd" d="M35.8213 26.9491C36.0641 25.2744 34.8993 23.7199 33.2201 23.4771C31.5409 23.2369 29.9848 24.3974 29.742 26.0721C29.4991 27.7468 30.6648 29.3021 32.3432 29.544C34.0223 29.7843 35.5785 28.6237 35.8213 26.9491Z" fill="#B3B3B3"/>
<path fill-rule="evenodd" clip-rule="evenodd" d="M17.2454 30.3973C15.4563 31.1051 13.586 31.2694 11.8182 30.9694C11.5532 30.9245 11.2891 30.8689 11.029 30.8043C11.0159 30.8011 11.0036 30.7986 10.9905 30.7937C10.9232 30.7765 10.8543 30.7586 10.7871 30.7389C10.7222 30.721 10.6574 30.7022 10.5926 30.6826C10.5812 30.6793 10.5688 30.676 10.5574 30.6719C10.5163 30.6589 10.4745 30.6466 10.4335 30.6327C9.11854 30.2142 7.89381 29.5301 6.84463 28.618C6.68549 28.4799 6.53045 28.3369 6.38033 28.1889C6.33357 28.1424 6.28764 28.0966 6.2417 28.0492C6.13916 27.9446 6.0399 27.8375 5.94311 27.728L5.94475 27.7264C5.17283 26.8649 4.53709 25.8572 4.08592 24.7211C3.9801 24.4555 3.8874 24.189 3.80619 23.9202C3.80537 23.9177 3.80455 23.9152 3.80373 23.9128C3.7824 23.8425 3.76107 23.7706 3.74221 23.6995C3.72744 23.6496 3.71432 23.6014 3.70119 23.5515C3.68807 23.505 3.67658 23.46 3.66674 23.4134C3.66264 23.3987 3.65936 23.3848 3.65607 23.3701C3.64541 23.3284 3.63557 23.2867 3.62654 23.2459C3.62408 23.2352 3.62162 23.2263 3.61998 23.2173C3.60111 23.1298 3.58225 23.0432 3.5642 22.9557C3.55518 22.9091 3.54697 22.8642 3.53795 22.8176C3.42557 22.2103 3.37061 21.6006 3.37061 20.9958C3.37061 16.9706 5.79709 13.1644 9.77561 11.5911C11.6106 10.8653 13.531 10.7108 15.339 11.0435C15.7836 11.1244 16.2216 11.2355 16.6498 11.3753C17.9771 11.806 19.2108 12.5089 20.2633 13.4439C20.5775 13.7226 20.8761 14.0217 21.1558 14.3421C21.8933 15.1856 22.5019 16.1664 22.94 17.2664C23.0302 17.4945 23.1122 17.7241 23.1853 17.9554C23.3272 18.4025 23.4354 18.8528 23.5117 19.3032C24.2968 23.9161 21.7801 28.6058 17.2454 30.3973Z" fill="#616D80"/>
<path fill-rule="evenodd" clip-rule="evenodd" d="M12.4581 30.3303C13.2407 30.6588 14.0668 30.8893 14.9125 31.0144C13.8715 31.1623 12.8265 31.1419 11.8175 30.971C11.5681 30.9285 11.3204 30.877 11.0751 30.8158C10.8594 30.7618 10.6461 30.7013 10.4336 30.6335C9.11866 30.2142 7.89393 29.5301 6.84475 28.618C6.68561 28.4799 6.53057 28.3369 6.37963 28.1889C6.22951 28.041 6.0835 27.8873 5.94159 27.7288C5.16967 26.8673 4.53557 25.8588 4.0844 24.7219C3.97858 24.4563 3.88588 24.1898 3.80467 23.9209C3.69311 23.5556 3.60369 23.187 3.53561 22.8176C3.06885 20.297 3.59467 17.7437 4.90389 15.6449C5.45432 14.763 6.14174 13.9596 6.95385 13.2747C7.77252 12.5816 8.71916 12.0079 9.77326 11.5919C11.4918 10.9135 13.2826 10.7345 14.9864 10.9854C14.203 11.0949 13.4196 11.2976 12.6534 11.6017C8.98576 13.0532 6.63721 16.4009 6.29186 20.0673C6.26315 20.3787 6.24838 20.6926 6.24838 21.0072C6.24838 21.2925 6.25987 21.5777 6.2853 21.8654C6.36733 22.8249 6.58963 23.791 6.96369 24.7333C7.14826 25.1992 7.36483 25.6438 7.60928 26.0656C7.71674 26.2552 7.83158 26.4391 7.95053 26.6197C8.06948 26.7979 8.19498 26.9728 8.32459 27.142C9.13588 28.2028 10.1375 29.0773 11.2621 29.7336C11.4533 29.8456 11.6469 29.951 11.8446 30.0491C12.0447 30.1505 12.2506 30.2436 12.4581 30.3303Z" fill="#3F4C63"/>
<path fill-rule="evenodd" clip-rule="evenodd" d="M33.5409 23.5426C33.5409 23.5426 33.5409 23.5426 33.5409 23.5409V23.5426ZM31.2628 26.0721C31.3342 25.5719 31.5253 25.1167 31.8002 24.7301C32.221 24.1449 32.837 23.7216 33.54 23.5417C33.4851 23.5262 33.4277 23.514 33.3702 23.5025C33.321 23.4927 33.2718 23.4854 33.2201 23.4772C32.8707 23.4281 32.5245 23.4379 32.1947 23.5025C32.1849 23.505 32.1726 23.5066 32.1627 23.5091C31.8568 23.572 31.5647 23.6807 31.2957 23.8286C31.2546 23.8523 31.2128 23.876 31.1734 23.8997C30.8117 24.122 30.4983 24.4179 30.253 24.7685C30.016 25.1118 29.8462 25.5057 29.7633 25.9373C29.7551 25.983 29.7477 26.028 29.7412 26.073C29.6919 26.4121 29.7001 26.7448 29.7592 27.0619C29.7608 27.0717 29.7608 27.0799 29.7633 27.088C29.8248 27.4092 29.9372 27.7125 30.0931 27.992C30.1152 28.0312 30.1366 28.0713 30.1603 28.1105C30.3835 28.4726 30.6821 28.7905 31.0373 29.0341C31.3769 29.2686 31.7682 29.4362 32.1947 29.5187C32.2439 29.5285 32.2932 29.5359 32.3424 29.5441C32.6803 29.5915 33.0142 29.5833 33.3317 29.5261C33.3432 29.5244 33.3555 29.522 33.3653 29.5204C33.4244 29.5089 33.4843 29.495 33.5409 29.4787C32.0397 29.0986 31.0364 27.6389 31.2628 26.0721Z" fill="#888B99"/>
<path fill-rule="evenodd" clip-rule="evenodd" d="M29.944 16.2832V12.5571C29.944 12.4255 29.9751 12.3013 30.0276 12.1893C30.1671 11.9074 30.4567 11.7137 30.7897 11.7137H28.1901C27.7258 11.7137 27.3452 12.0937 27.3452 12.5571V16.2832C27.3452 16.7466 27.7258 17.1267 28.1901 17.1267H30.7897C30.3246 17.1267 29.944 16.7474 29.944 16.2832Z" fill="#93BAF0"/>
<path fill-rule="evenodd" clip-rule="evenodd" d="M33.6826 8.01447V4.21971C33.6826 3.77019 34.0493 3.4024 34.4997 3.4024H33.1847C32.7344 3.4024 32.3677 3.77019 32.3677 4.21971V8.01447H33.6826Z" fill="#888B99"/>
<path fill-rule="evenodd" clip-rule="evenodd" d="M8.40553 8.01452V6.40443C8.40553 5.88626 8.83209 5.46289 9.34971 5.46289H7.431C6.91092 5.46289 6.48682 5.88626 6.48682 6.40443V8.01534L8.40553 8.01452Z" fill="#888B99"/>
<path fill-rule="evenodd" clip-rule="evenodd" d="M0 11.3369V30.6531C0 32.4814 1.49707 33.9746 3.32965 33.9746H5.22703C3.39691 33.9746 1.89738 32.4806 1.89738 30.6531V11.3369C1.89738 9.50854 3.39691 8.01532 5.22703 8.01532H3.32965C1.49707 8.0145 0 9.50854 0 11.3369Z" fill="#B3B3B3"/>
<path d="M21.1526 14.3437C21.1493 14.3478 21.1452 14.3511 21.142 14.3552L8.32375 27.1419L6.84391 28.6188C6.68477 28.4807 6.52973 28.3377 6.37961 28.1897C6.33285 28.1431 6.28691 28.0974 6.24098 28.05C6.13844 27.9453 6.03918 27.8383 5.94238 27.7288L5.94402 27.7271L7.61008 26.0655L20.2429 13.461C20.2486 13.4553 20.2544 13.4496 20.2601 13.4447C20.5751 13.7234 20.8729 14.0233 21.1526 14.3437Z" fill="#2E3C51"/>
<path d="M16.6469 11.3769C16.6239 11.4962 16.5648 11.6107 16.4729 11.7022L6.28467 21.8662L4.39467 23.7518C4.27162 23.876 4.10838 23.9381 3.94596 23.9381C3.89838 23.9381 3.8508 23.9332 3.80486 23.921C3.80404 23.9185 3.80322 23.9161 3.8024 23.9136C3.78107 23.8425 3.76057 23.7714 3.74088 23.7003C3.72611 23.6504 3.71299 23.6022 3.69986 23.5524C3.68756 23.5058 3.67525 23.4608 3.66541 23.4142C3.66131 23.3995 3.65803 23.3856 3.65475 23.3717C3.64408 23.3292 3.63424 23.2884 3.62521 23.2467C3.62275 23.2361 3.62029 23.2271 3.61865 23.2181C3.59896 23.1306 3.58092 23.0432 3.56287 22.9557C3.55385 22.9091 3.54482 22.8642 3.53662 22.8176L6.29205 20.0673L15.3368 11.0435C15.7806 11.126 16.2187 11.2363 16.6469 11.3769Z" fill="#2E3C51"/>
<path d="M23.5092 19.3048L12.458 30.3303L11.8181 30.9695L11.8165 30.9711C11.5671 30.9286 11.3194 30.8771 11.0741 30.8158C11.0593 30.8117 11.0437 30.8084 11.0282 30.8044C11.015 30.8011 11.0027 30.7986 10.9896 30.7937C10.9223 30.7766 10.8534 30.7586 10.7862 30.739C10.7214 30.721 10.6566 30.7022 10.5918 30.6826C10.5803 30.6793 10.568 30.676 10.5565 30.672C10.5155 30.6605 10.4736 30.6474 10.4326 30.6344V30.6335C10.463 30.5551 10.5097 30.4823 10.5737 30.4186L11.2611 29.7329L22.9014 18.1181C22.9818 18.038 23.0786 17.9832 23.1819 17.9563C23.3238 18.4033 23.4321 18.8537 23.5092 19.3048Z" fill="#2E3C51"/>
<path d="M30.0562 20.8144H30.0275C29.6764 20.8144 29.3926 20.5308 29.3926 20.1818C29.3926 19.832 29.6764 19.5484 30.0275 19.5484H30.0562C30.4073 19.5484 30.6911 19.832 30.6911 20.1818C30.6911 20.5308 30.4073 20.8144 30.0562 20.8144Z" fill="#BF3961"/>
<path d="M32.6073 20.8144H32.5811C32.23 20.8144 31.9453 20.5308 31.9453 20.1818C31.9453 19.832 32.23 19.5484 32.5811 19.5484H32.6073C32.9584 19.5484 33.2422 19.832 33.2422 20.1818C33.2422 20.5308 32.9576 20.8144 32.6073 20.8144Z" fill="#55CF63"/>
<path d="M35.161 20.8168H35.1348C34.7837 20.8168 34.499 20.5332 34.499 20.1842C34.499 19.8344 34.7837 19.5516 35.1348 19.5516H35.161C35.5121 19.5516 35.7959 19.8344 35.7959 20.1842C35.7959 20.5332 35.5121 20.8168 35.161 20.8168Z" fill="#EDCF56"/>
<path d="M31.7492 25.5964C31.531 25.5964 31.3201 25.4812 31.2077 25.2777L30.1545 23.3668C29.9904 23.0693 30.0995 22.6958 30.3981 22.5332C30.6967 22.3697 31.0716 22.4784 31.2356 22.7759L32.2889 24.6876C32.453 24.9851 32.3439 25.3586 32.0453 25.522C31.951 25.5727 31.8492 25.5964 31.7492 25.5964Z" fill="#EB5757"/>
<path d="M29.4863 14.0495C29.4863 14.3887 29.762 14.6641 30.1032 14.6641C30.4436 14.6641 30.7201 14.3895 30.7201 14.0495V11.8689C30.7201 11.815 30.7127 11.7635 30.6996 11.7145H29.5068C29.4937 11.7643 29.4863 11.815 29.4863 11.8689V14.0495Z" fill="#EB5757"/>
<path d="M31.9907 14.0495C31.9907 14.3887 32.2672 14.6641 32.6076 14.6641C32.948 14.6641 33.2245 14.3895 33.2245 14.0495V11.8689C33.2245 11.815 33.2171 11.7635 33.204 11.7145H32.0112C31.9981 11.7643 31.9907 11.815 31.9907 11.8689V14.0495Z" fill="#EB5757"/>
<path d="M34.4974 14.0495C34.4974 14.3887 34.7738 14.6641 35.1143 14.6641C35.4547 14.6641 35.7303 14.3895 35.7303 14.0495V11.8689C35.7303 11.815 35.7229 11.7635 35.7098 11.7145H34.5171C34.504 11.7643 34.4966 11.815 34.4966 11.8689V14.0495H34.4974Z" fill="#EB5757"/>
</svg>
