<?xml version="1.0" encoding="UTF-8"?>
<svg width="328px" height="307px" viewBox="0 0 328 307" version="1.1" xmlns="http://www.w3.org/2000/svg" xmlns:xlink="http://www.w3.org/1999/xlink">
    <!-- Generator: Sketch 64 (93537) - https://sketch.com -->
    <title>Group 320</title>
    <desc>Created with Sketch.</desc>
    <defs>
        <polygon id="path-1" points="0.361352538 0.13 60.5864633 0.13 60.5864633 17.759 0.361352538 17.759"/>
        <polygon id="path-3" points="0.57 0.13 60.793 0.13 60.793 17.759 0.57 17.759"/>
    </defs>
    <g id="Page-1" stroke="none" stroke-width="1" fill="none" fill-rule="evenodd">
        <g id="Group-320" transform="translate(1.000000, 0.000000)">
            <g id="Group-7" transform="translate(0.000000, 0.115000)">
                <path d="M18.2322,168.9313 C8.5912,79.1433 155.4022,-25.3227 240.0622,9.1153 C327.7592,44.7883 359.8852,229.3603 284.5842,286.2493 C207.3982,344.5623 28.4682,264.2683 18.2322,168.9313" id="Fill-1" fill="#E3E3E3"/>
                <g id="Group-6">
                    <path d="M0.7209,167.4317 C-8.9191,77.6427 137.8919,-26.8223 222.5529,7.6157 C310.2489,43.2877 342.3749,227.8597 267.0729,284.7487 C189.8879,343.0617 10.9579,262.7667 0.7209,167.4317" id="Fill-3" fill="#FFFFFF"/>
                    <path d="M0.7209,167.4317 C-8.9191,77.6427 137.8919,-26.8223 222.5529,7.6157 C310.2489,43.2877 342.3749,227.8597 267.0729,284.7487 C189.8879,343.0617 10.9579,262.7667 0.7209,167.4317" id="Stroke-5" stroke="#D1D3D4" stroke-width="2"/>
                </g>
            </g>
            <g id="Group-10" transform="translate(118.000000, 253.115000)">
                <mask id="mask-2" fill="white">
                    <use xlink:href="#path-1"/>
                </mask>
                <g id="Clip-9"/>
                <path d="M43.113,0.984 C44.153,1.035 54.047,2.722 58.716,6.891 C62.605,10.361 60.822,13.492 49.638,12.449 C38.454,11.409 20.511,7.933 24.007,12.797 C27.503,17.662 8.861,22.179 1.404,9.671 C-6.053,-2.837 28.432,0.29 43.113,0.984" id="Fill-8" fill="#E3E3E3" mask="url(#mask-2)"/>
            </g>
            <g id="Group-13" transform="translate(179.000000, 253.115000)">
                <mask id="mask-4" fill="white">
                    <use xlink:href="#path-3"/>
                </mask>
                <g id="Clip-12"/>
                <path d="M18.0427,0.984 C17.0027,1.035 7.1097,2.722 2.4417,6.891 C-1.4493,10.361 0.3337,13.492 11.5187,12.449 C22.7037,11.409 40.6467,7.933 37.1497,12.797 C33.6537,17.662 52.2947,22.179 59.7527,9.671 C67.2087,-2.837 32.7237,0.29 18.0427,0.984" id="Fill-11" fill="#E3E3E3" mask="url(#mask-4)"/>
            </g>
            <path d="M209.0085,128.8607 C209.7855,128.2877 217.4935,129.5227 219.4075,131.0887 C221.3225,132.6547 228.7255,165.6177 225.0195,169.6447 C221.3155,173.6727 203.1245,178.9177 195.6735,171.1067 C188.2225,163.2967 209.0085,128.8607 209.0085,128.8607" id="Fill-14" fill="#3C74BA"/>
            <path d="M207.5769,133.7386 C208.2809,133.2266 215.2579,134.3316 216.9899,135.7306 C218.7229,137.1326 225.4279,166.6136 222.0739,170.2156 C218.7219,173.8176 202.2569,178.5056 195.5129,171.5196 C188.7659,164.5336 207.5769,133.7386 207.5769,133.7386" id="Fill-16" fill="#274873"/>
            <path d="M104.137,102.057 C106.723,106.591 110.608,117.231 109.486,122.296 C108.779,125.48 104.677,123.396 104.677,123.396 C104.677,123.396 107.763,133.227 114.684,129.481 C122.741,125.118 136.371,123.033 142.97,126.057 C145.921,127.41 150.673,125.593 150.568,121.681 C146.645,124.603 144.912,121.855 145.635,117.886 C146.55,112.861 152.092,103.618 153.346,96.945 C154.487,90.859 153.016,79.199 143.391,72.723 C137.622,68.839 120.726,73.947 108.181,75.502 C96.591,86.641 104.137,102.057 104.137,102.057" id="Fill-18" fill="#4B372E"/>
            <path d="M146.0935,110.6952 C146.0935,110.6952 139.5125,126.0442 148.9895,123.5942 C146.9475,125.8902 144.1745,125.3352 141.2835,124.4632 C138.6565,123.6702 136.1595,123.0692 128.1465,123.8932 C121.1465,124.6132 116.2715,127.7032 113.9115,128.3802 C111.5525,129.0582 109.0295,128.8062 106.2725,125.0162 C112.4035,126.0772 116.0755,123.1182 113.3065,119.1192 C110.5325,115.1202 108.3345,108.6792 108.3345,108.6792 L146.0935,110.6952 Z" id="Fill-20" fill="#392921"/>
            <path d="M129.1452,126.8544 C128.9242,125.8594 128.8292,123.1394 128.7752,122.2174 C130.7112,122.4244 133.9822,122.2004 133.9822,122.2004 C133.9822,122.2004 134.0392,124.9934 134.2162,126.2974 C136.7112,126.5024 138.0722,126.8794 138.0722,126.8794 C138.9632,128.2524 138.6012,131.4084 135.4802,132.1374 C130.9812,133.1874 126.9832,130.4204 126.3412,127.6744 C127.4742,127.3334 128.1452,127.0574 129.1452,126.8544" id="Fill-22" fill="#B27A47"/>
            <path d="M129.3318,125.0594 C129.1758,124.2654 129.0308,123.4174 128.9948,122.8004 C130.9308,123.0074 133.9818,122.7344 133.9818,122.7344 C133.9818,122.7344 134.0188,123.6834 134.1188,124.7224 C133.8608,125.2204 130.4428,125.3344 129.3318,125.0594" id="Fill-24" fill="#B27A47"/>
            <path d="M149.5554,100.8783 C149.5554,100.8783 150.0354,98.1383 152.4204,98.0553 C154.9344,97.9723 155.6204,102.3473 154.0844,104.9563 C152.5504,107.5613 149.7404,107.6693 149.0384,105.3743 L149.5554,100.8783 Z" id="Fill-26" fill="#B27A47"/>
            <path d="M152.1531,98.3021 C151.5471,98.3251 151.0741,98.5311 150.7031,98.8181 C151.0021,98.6081 151.3451,98.4711 151.7561,98.4781 C154.1141,98.5231 154.2941,101.9171 153.4451,103.8821 C152.2951,106.5451 150.0611,106.6971 148.9681,105.1281 C149.6231,107.2651 152.2551,107.1581 153.7011,104.7271 C155.1451,102.2921 154.5091,98.2191 152.1531,98.3021" id="Fill-28" fill="#9F6E3F"/>
            <path d="M152.8191,99.3378 C151.2271,98.7348 149.6501,102.6548 151.7031,105.0338 C150.9651,102.0438 151.8801,101.1568 152.9481,102.6708 C152.9991,101.7288 152.6341,101.0888 151.6511,101.0758 C151.8091,99.8418 152.8191,99.3378 152.8191,99.3378" id="Fill-30" fill="#DA9967"/>
            <path d="M150.2273,109.3617 C146.5753,117.1037 140.5583,122.9387 133.1073,123.4277 C125.5303,123.9247 114.9243,118.7017 110.9263,109.8247 C105.5753,97.9457 109.9583,77.6037 130.0713,77.8807 C150.1793,78.1597 156.5353,95.9747 150.2273,109.3617" id="Fill-32" fill="#B27A47"/>
            <path d="M139.3757,99.306 C139.4807,101.327 141.1137,102.887 143.0217,102.788 C144.9297,102.691 146.3947,100.972 146.2877,98.95 C146.1867,96.927 144.5507,95.368 142.6457,95.467 C140.7347,95.566 139.2717,97.283 139.3757,99.306" id="Fill-34" fill="#FFFFFF"/>
            <path d="M145.4792,99.5668 C145.2162,101.1148 143.8302,102.1718 142.3672,101.9268 C140.9032,101.6838 139.9282,100.2338 140.1842,98.6888 C140.4452,97.1388 141.8362,96.0848 143.2982,96.3278 C144.7572,96.5718 145.7382,98.0208 145.4792,99.5668" id="Fill-36" fill="#1D1D1B"/>
            <path d="M144.3767,99.4979 C144.2237,100.4249 143.3917,101.0549 142.5107,100.9149 C141.6407,100.7669 141.0617,99.8969 141.2137,98.9719 C141.3677,98.0499 142.2017,97.4169 143.0727,97.5589 C143.9497,97.7059 144.5327,98.5719 144.3767,99.4979" id="Fill-38" fill="#1D1D1B"/>
            <path d="M142.74,98.2167 C142.678,98.6077 142.325,98.8787 141.957,98.8127 C141.59,98.7487 141.338,98.3847 141.403,97.9917 C141.469,97.6007 141.82,97.3327 142.194,97.3907 C142.558,97.4557 142.807,97.8257 142.74,98.2167" id="Fill-40" fill="#FFFFFF"/>
            <path d="M144.1892,100.5482 C144.1482,100.7892 143.9372,100.9472 143.7102,100.9122 C143.4882,100.8722 143.3382,100.6512 143.3772,100.4152 C143.4192,100.1802 143.6292,100.0122 143.8542,100.0502 C144.0752,100.0912 144.2312,100.3132 144.1892,100.5482" id="Fill-42" fill="#FFFFFF"/>
            <path d="M127.6843,100.4545 C127.7903,102.5745 126.2583,104.3755 124.2573,104.4795 C122.2563,104.5815 120.5443,102.9475 120.4383,100.8275 C120.3263,98.7065 121.8623,96.9055 123.8633,96.8035 C125.8663,96.6995 127.5733,98.3345 127.6843,100.4545" id="Fill-44" fill="#FFFFFF"/>
            <path d="M126.7077,101.2533 C126.4447,102.8013 125.0577,103.8593 123.5937,103.6143 C122.1307,103.3703 121.1557,101.9203 121.4127,100.3753 C121.6717,98.8253 123.0647,97.7723 124.5257,98.0153 C125.9847,98.2583 126.9647,99.7073 126.7077,101.2533" id="Fill-46" fill="#1D1D1B"/>
            <path d="M125.6042,101.1849 C125.4512,102.1119 124.6192,102.7409 123.7382,102.6019 C122.8682,102.4529 122.2892,101.5839 122.4422,100.6589 C122.5962,99.7359 123.4292,99.1029 124.3002,99.2459 C125.1772,99.3929 125.7602,100.2589 125.6042,101.1849" id="Fill-48" fill="#1D1D1B"/>
            <path d="M123.9675,99.9032 C123.9055,100.2942 123.5535,100.5652 123.1845,100.5002 C122.8185,100.4352 122.5665,100.0712 122.6305,99.6782 C122.6965,99.2872 123.0465,99.0192 123.4205,99.0772 C123.7865,99.1422 124.0355,99.5122 123.9675,99.9032" id="Fill-50" fill="#FFFFFF"/>
            <path d="M125.4167,102.2347 C125.3767,102.4757 125.1647,102.6337 124.9387,102.5987 C124.7157,102.5587 124.5667,102.3377 124.6037,102.1017 C124.6477,101.8667 124.8577,101.6997 125.0827,101.7377 C125.3037,101.7777 125.4587,101.9997 125.4167,102.2347" id="Fill-52" fill="#FFFFFF"/>
            <path d="M134.3816,107.3495 C134.3816,107.3495 135.8176,106.0265 134.2186,104.3055 C135.9966,104.5675 136.5236,106.6805 134.3816,107.3495" id="Fill-54" fill="#9E6D3E"/>
            <path d="M122.9558,81.5961 C122.9558,81.5961 130.1858,86.1441 139.8108,87.9101 C151.1258,89.9911 153.6098,97.0041 150.8448,106.3571 C154.2408,102.2801 155.3888,93.5791 152.6758,82.5891 C149.6788,70.4421 130.2048,63.1991 117.8798,71.6381 C110.7868,71.4761 106.4808,75.5291 104.5648,79.5541 C101.2198,86.5851 104.1868,99.0861 109.6318,105.9261 C109.6508,99.3541 111.4508,95.4711 115.8998,92.2291 C120.3498,88.9861 122.0768,86.8441 122.9558,81.5961" id="Fill-56" fill="#4B372E"/>
            <path d="M121.5085,71.7616 C121.5085,71.7616 125.9055,67.6726 137.8655,71.4546 C135.0025,71.2506 129.2775,71.2506 129.2775,71.2506 C129.2775,71.2506 134.3905,71.5566 142.3635,75.9536 C135.2075,73.8056 127.3375,73.1936 124.5765,74.4196 C125.8045,73.1936 132.2435,72.9876 132.2435,72.9876 C132.2435,72.9876 125.3945,70.6366 121.5085,71.7616" id="Fill-58" fill="#7A6153"/>
            <path d="M117.7253,73.1927 C115.0693,73.0907 107.7063,75.4427 105.5603,84.1317 C110.2623,78.4077 112.5123,78.8167 112.5123,78.8167 C112.5123,78.8167 106.1753,84.6427 104.7423,92.4127 C109.4463,85.3577 118.0353,79.1217 118.0353,79.1217 C118.0353,79.1217 114.5553,83.0077 113.5353,85.6637 C117.4183,81.5757 122.6343,77.1807 122.6343,77.1807 C122.6343,77.1807 118.2373,76.8737 114.3523,80.3497 C115.6823,76.9757 120.1803,75.6457 120.1803,75.6457 C120.1803,75.6457 113.5353,76.0557 112.0013,77.1807 C115.2743,74.8297 117.7253,73.1927 117.7253,73.1927" id="Fill-60" fill="#7A6153"/>
            <path d="M142.9509,93.2548 C141.9909,93.2918 141.5349,91.5778 143.2369,91.5698 C145.6389,91.5588 146.4339,93.8058 146.4339,93.8058 C146.4339,93.8058 145.4849,93.1598 142.9509,93.2548" id="Fill-62" fill="#5B4338"/>
            <path d="M122.6667,94.3754 C123.5227,94.1894 124.0347,92.4734 122.3437,92.6604 C120.0497,92.9174 119.5167,95.5034 119.5167,95.5034 C119.5167,95.5034 120.3227,94.8784 122.6667,94.3754" id="Fill-64" fill="#5B4338"/>
            <path d="M126.5788,78.5765 C126.5788,78.5765 132.4248,81.6425 138.3738,83.1315 C144.3268,84.6235 146.8558,86.5475 148.4448,88.4285 C146.1718,84.0835 141.8988,82.6925 138.2578,81.3625 C139.9868,80.6225 144.7098,82.5065 144.7098,82.5065 C144.7098,82.5065 140.7588,78.0625 133.4898,77.1805 C135.6678,78.5025 137.4138,79.6415 137.4138,79.6415 C137.4138,79.6415 130.5968,78.1205 126.5788,78.5765" id="Fill-66" fill="#7A6153"/>
            <path d="M121.0535,83.2176 C121.0535,83.2176 115.7975,87.5346 110.8115,92.7756 C113.8555,86.6166 118.0705,83.9366 121.0535,83.2176" id="Fill-68" fill="#7A6153"/>
            <path d="M111.0095,103.0165 C111.0095,103.0165 109.9295,99.5805 106.8565,99.8805 C103.6155,100.1995 103.4755,105.9265 105.8875,109.0145 C108.3005,112.0975 111.9205,111.7605 112.4315,108.6965 L111.0095,103.0165 Z" id="Fill-70" fill="#B27A47"/>
            <path d="M107.2429,100.1522 C108.0239,100.0782 108.6649,100.2642 109.1869,100.5682 C108.7719,100.3462 108.3039,100.2312 107.7829,100.3092 C104.7629,100.7672 105.1059,105.1522 106.5289,107.5282 C108.4519,110.7502 111.3459,110.5682 112.4809,108.3692 C112.0049,111.2222 108.6089,111.5292 106.3419,108.6552 C104.0779,105.7752 104.2049,100.4432 107.2429,100.1522" id="Fill-72" fill="#9F6E3F"/>
            <path d="M106.5647,101.5912 C108.5037,100.5492 111.1887,105.3122 108.9597,108.7102 C109.3977,104.7492 108.0767,103.7672 106.9597,105.8902 C106.7387,104.6902 107.0967,103.8072 108.3517,103.6242 C107.9427,102.0682 106.5647,101.5912 106.5647,101.5912" id="Fill-74" fill="#9F6E3F"/>
            <path d="M155.99,246.2211 C154.851,245.1091 153.799,244.4481 152.947,244.0511 C152.382,244.1141 151.856,244.2041 151.372,244.3261 C152.14,244.5011 153.707,245.0541 155.502,246.8071 L155.99,246.2211 Z" id="Fill-76" fill="#F2CFAD"/>
            <path d="M125.8816,131.0966 C125.1046,130.5236 117.3966,131.7586 115.4836,133.3246 C113.5686,134.8906 106.1646,167.8536 109.8696,171.8806 C113.5746,175.9096 131.7646,181.1536 139.2166,173.3436 C146.6676,165.5326 125.8816,131.0966 125.8816,131.0966" id="Fill-78" fill="#829129"/>
            <path d="M127.3132,135.9755 C126.6092,135.4625 119.6332,136.5675 117.8992,137.9685 C116.1672,139.3695 109.4612,168.8505 112.8152,172.4525 C116.1682,176.0535 132.6342,180.7425 139.3772,173.7565 C146.1242,166.7705 127.3132,135.9755 127.3132,135.9755" id="Fill-80" fill="#5D642F"/>
            <path d="M139.7224,208.1669 L139.7704,208.1669 C138.8654,193.3239 137.6764,170.2739 135.7364,163.0899 C134.9744,160.2629 126.0744,165.0109 127.2724,169.8299 C128.6684,175.4529 132.0794,196.2259 132.7274,204.4329 C132.8314,205.7599 132.9194,207.1449 132.9954,208.5579 L133.0154,208.5589 C133.7264,219.9629 137.6674,256.9249 137.6674,256.9249 C137.8994,259.2289 142.6694,258.4009 143.0764,257.4739 C143.2654,257.0429 140.4654,221.0629 139.7224,208.1669" id="Fill-82" fill="#2C3035"/>
            <path d="M151.1179,207.4667 C151.1389,207.4647 151.1599,207.4627 151.1799,207.4607 C150.9519,206.1437 147.3359,171.6827 147.0469,167.6907 C146.8349,164.7757 137.6949,166.8597 138.3769,171.7737 C139.4379,179.4257 143.1559,196.9587 144.4949,205.4437 C144.6089,206.2867 144.7189,207.0727 144.8219,207.7877 C146.8399,221.6447 151.3169,256.5407 151.3169,256.5407 C152.2299,261.8067 157.2359,257.6897 157.222925,256.6827 C157.1909,254.3097 153.5209,222.7527 151.1179,207.4667" id="Fill-84" fill="#313843"/>
            <path d="M140.2077,182.3915 C141.8787,181.2535 144.1307,180.8525 146.1727,181.5145 C147.2117,181.8505 147.9927,182.4985 148.5867,183.2875 C147.8247,175.9105 147.1637,169.3065 147.0457,167.6905 C146.8347,164.7755 137.6947,166.8595 138.3767,171.7735 C138.7407,174.4025 139.4197,178.1975 140.2077,182.3915" id="Fill-86" fill="#2C3035"/>
            <path d="M125.9841,190.0658 C134.9071,191.0248 144.0601,190.0138 152.7651,187.8238 C153.4351,187.6548 154.1021,187.4768 154.7671,187.2928 C151.5051,175.9288 145.9291,143.8938 145.0121,140.2588 C142.8691,131.7698 143.3741,129.3648 142.7471,129.0048 C141.2251,128.1318 135.9381,125.8098 131.4011,126.2848 C129.1551,126.5198 121.8351,130.6938 121.9301,131.2898 C124.0361,144.2418 125.1721,177.9568 125.9841,190.0658" id="Fill-88" fill="#FFD95F"/>
            <path d="M145.1804,140.9012 C145.1404,142.1632 145.0884,143.4272 145.0384,144.6892 C145.1734,146.1472 145.2924,147.6052 145.4154,149.0652 C145.8094,153.7312 146.2324,158.4032 147.0624,163.0182 C147.9124,167.7442 148.5954,183.7052 149.8624,188.3392 C149.8764,188.3902 149.8914,188.4432 149.9054,188.4952 C150.8644,188.2852 151.8174,188.0622 152.7654,187.8232 C153.4354,187.6552 154.1024,187.4762 154.7674,187.2942 C151.6614,176.4762 146.5124,145.8702 145.1804,140.9012" id="Fill-90" fill="#F8B300"/>
            <path d="M125.0808,130.3671 C126.6588,129.4161 128.3978,128.8241 130.1958,128.4361 C130.1798,128.2461 130.1628,128.0581 130.1458,127.8681 C130.0738,127.0631 130.6488,126.5841 131.2908,126.4821 C131.3298,126.4111 131.3768,126.3451 131.4288,126.2821 L131.3998,126.2841 C129.1538,126.5191 121.8338,130.6941 121.9318,131.2891 C122.0458,131.9911 122.1578,132.7211 122.2698,133.4731 C122.8518,132.2151 123.8268,131.1221 125.0808,130.3671" id="Fill-92" fill="#F8B300"/>
            <path d="M134.0759,127.7836 C134.0879,127.8466 134.0979,127.9116 134.1099,127.9756 C134.6909,127.9826 135.2729,128.0286 135.8459,128.1156 C136.4419,128.1306 138.6799,128.9046 139.7019,129.4766 C140.7069,130.0396 141.3959,130.5216 142.2869,131.2306 C142.7149,131.5716 143.6469,132.3726 143.9599,132.7916 C143.6359,130.5096 142.9639,129.0796 142.6059,128.8746 C141.3299,128.1396 137.5299,126.5146 133.6129,126.2546 C133.7619,126.4496 133.8649,126.6846 133.9149,126.9416 C133.9689,127.2226 134.0229,127.5026 134.0759,127.7836" id="Fill-94" fill="#F8B300"/>
            <path d="M133.697,129.4149 C135.227,129.0099 136.747,128.1229 137.783,126.9959 C135.954,126.4019 133.628,125.9629 131.357,126.2009 C130.422,126.2999 128.434,127.1779 126.851,128.0869 C128.296,129.7509 131.849,129.9039 133.697,129.4149" id="Fill-96" fill="#B27A47"/>
            <path d="M133.7273,127.8505 C131.8103,128.4255 129.6893,128.4455 128.0303,127.4325 C127.5933,127.6565 127.1603,127.8955 126.7523,128.1375 C128.2293,129.8945 131.8513,130.0675 133.7333,129.5575 C135.2903,129.1345 136.8363,128.2045 137.8903,127.0205 C137.3343,126.8325 136.7363,126.6605 136.1073,126.5155 C135.4093,127.1175 134.6063,127.5865 133.7273,127.8505" id="Fill-98" fill="#FFFFFF"/>
            <path d="M164.2165,262.0209 C160.9925,261.8109 157.7645,261.4569 154.5795,260.9759 C153.4085,260.7999 152.0415,260.5549 150.8805,260.3379 C150.8045,259.6449 150.9785,257.6069 151.4185,257.4899 C152.4755,257.2079 161.5835,257.9629 163.7845,257.6569 C167.2705,257.1709 170.3485,256.3249 171.5305,257.4099 C172.8675,258.6339 172.6895,261.1129 172.2725,262.0269 C169.6755,262.4399 166.7385,262.1859 164.2165,262.0209" id="Fill-100" fill="#FFFFFF"/>
            <path d="M172.1843,258.3216 C172.4163,259.5466 172.1293,260.7546 171.6083,261.4316 C171.2993,261.8336 166.8573,262.1346 166.5223,262.1696 C168.4313,262.2766 170.4353,262.3186 172.2723,262.0266 C172.6013,261.3036 173.1533,258.7746 172.1843,258.3216" id="Fill-102" fill="#E9E6E2"/>
            <path d="M150.6882,257.2865 C150.6882,257.2865 150.9662,255.7055 153.7862,255.1735 C156.6042,254.6425 157.6422,255.0205 157.6422,255.0205 L157.6312,256.7435 C160.2682,256.5185 162.9552,256.2955 164.0062,256.1465 C167.5002,255.6515 170.1802,256.0005 171.3652,257.1115 C172.7082,258.3685 172.9342,259.6965 172.5172,260.6345 C169.9142,261.0555 166.9712,260.7915 164.4422,260.6215 C161.2112,260.4015 157.9752,260.0355 154.7832,259.5405 C153.6092,259.3585 152.2372,259.1065 151.0752,258.8845 C151.0252,258.4415 150.9742,258.0155 151.0472,257.7275 L150.6882,257.2865 Z" id="Fill-104" fill="#333545"/>
            <path d="M166.9372,258.6156 C168.1692,257.9826 170.0232,257.2416 171.5692,257.2246 C172.7872,258.4746 172.9842,259.7706 172.5752,260.6996 C170.3032,261.0686 167.5912,261.2786 165.2892,261.1186 C165.2902,260.6006 165.7912,259.2056 166.9372,258.6156" id="Fill-106" fill="#FFFFFF"/>
            <path d="M171.5691,257.225 C171.4921,257.226 171.4151,257.23 171.3361,257.235 C172.3391,258.377 172.3861,259.609 171.9641,260.784 C172.1691,260.759 172.3731,260.732 172.5741,260.7 C172.9841,259.771 172.7881,258.475 171.5691,257.225" id="Fill-108" fill="#E9E6E2"/>
            <path d="M164.4304,257.8539 C165.3984,256.8999 166.3164,256.3039 167.0684,255.9289 C167.5894,255.9339 168.0784,255.9659 168.5314,256.0249 C167.8384,256.2189 166.4424,256.7699 164.9174,258.2759 L164.4304,257.8539 Z" id="Fill-110" fill="#FFFFFF"/>
            <path d="M161.9763,257.7123 C162.6733,257.0233 163.3453,256.5223 163.9483,256.1543 C163.9673,256.1523 163.9893,256.1493 164.0063,256.1473 C164.6383,256.0583 165.2423,255.9963 165.8173,255.9613 C165.0683,256.2123 163.8143,256.7973 162.4633,258.1333 L161.9763,257.7123 Z" id="Fill-112" fill="#FFFFFF"/>
            <path d="M159.7087,257.7445 C160.2657,257.1945 160.8057,256.7655 161.3087,256.4275 C161.8747,256.3755 162.3927,256.3275 162.8397,256.2815 C162.1137,256.6175 161.1837,257.1895 160.1947,258.1665 L159.7087,257.7445 Z" id="Fill-114" fill="#FFFFFF"/>
            <path d="M157.655,257.5121 C157.983,257.1881 158.307,256.9081 158.62,256.6591 C159.042,256.6231 159.46,256.5871 159.867,256.5521 C159.336,256.8871 158.75,257.3321 158.142,257.9331 L157.655,257.5121 Z" id="Fill-116" fill="#FFFFFF"/>
            <path d="M155.7458,257.099 C156.4198,256.571 157.0578,256.178 157.6358,255.888 L157.6328,256.605 C157.1778,256.854 156.6888,257.167 156.1758,257.569 L155.7458,257.099 Z" id="Fill-118" fill="#FFFFFF"/>
            <path d="M157.0427,256.183 C157.1817,256.044 160.8637,254.427 161.4387,254.359 C162.0147,254.292 162.2057,256.008 162.2557,256.392 C162.3047,256.778 157.4337,256.625 157.4337,256.625 L157.0057,256.185 L157.7807,256.299 C157.7807,256.299 161.2837,256.238 161.2727,255.97 C161.2637,255.704 161.2847,255.346 160.9477,255.36 C160.6107,255.373 157.7557,256.245 157.7557,256.245 L157.0427,256.183 Z" id="Fill-120" fill="#FFFFFF"/>
            <path d="M158.1111,256.3871 C158.0021,256.5521 154.6471,258.9081 154.0801,259.0951 C153.5101,259.2831 152.9121,257.6521 152.7711,257.2871 C152.6291,256.9221 157.6101,256.0391 157.6101,256.0391 L158.1481,256.3771 L157.3341,256.4311 C157.3341,256.4311 153.7931,257.2321 153.8661,257.4911 C153.9411,257.7471 154.0021,258.1021 154.3411,258.0171 C154.6801,257.9331 157.3741,256.4781 157.3741,256.4781 L158.1111,256.3871 Z" id="Fill-122" fill="#FFFFFF"/>
            <path d="M160.1853,253.2699 C160.1853,253.2699 159.1593,254.2529 158.5503,255.0239 C157.9423,255.7939 157.8633,256.2319 157.8633,256.2319 L157.3313,256.5249 C157.3313,256.5249 157.6723,255.3039 158.0593,254.4149 C158.5273,253.3349 159.1413,252.7219 159.2653,252.6389 C159.3903,252.5549 160.2233,253.1499 160.1853,253.2699" id="Fill-124" fill="#FFFFFF"/>
            <path d="M130.3855,262.6908 C133.6065,262.4478 136.8305,262.0598 140.0085,261.5478 C141.1775,261.3598 142.5435,261.1008 143.7015,260.8728 C143.7705,260.1788 143.5705,258.1428 143.1295,258.0298 C142.0705,257.7588 132.9705,258.6068 130.7665,258.3218 C127.2755,257.8718 124.1875,257.0578 123.0195,258.1518 C121.6965,259.3908 121.9035,261.8678 122.3305,262.7778 C124.9325,263.1648 127.8645,262.8798 130.3855,262.6908" id="Fill-126" fill="#FFFFFF"/>
            <path d="M122.3757,259.0726 C122.1567,260.2996 122.4627,261.4996 122.9877,262.1756 C123.3067,262.5866 127.7457,262.8306 128.0807,262.8626 C126.1737,262.9886 124.1697,263.0516 122.3297,262.7776 C121.9917,262.0586 121.4107,259.5346 122.3757,259.0726" id="Fill-128" fill="#E9E6E2"/>
            <path d="M143.8572,257.8197 C143.8572,257.8197 143.5612,256.2407 140.7352,255.7377 C137.9122,255.2347 136.8782,255.6237 136.8782,255.6237 L136.9092,257.3457 C134.2692,257.1487 131.5822,256.9527 130.5272,256.8147 C127.0282,256.3547 124.3512,256.7297 123.1792,257.8537 C121.8532,259.1257 121.6402,260.4547 122.0682,261.3867 C124.6772,261.7817 127.6162,261.4897 130.1432,261.2927 C133.3722,261.0417 136.6022,260.6417 139.7912,260.1147 C140.9612,259.9207 142.3302,259.6547 143.4912,259.4217 C143.5352,258.9777 143.5812,258.5507 143.5032,258.2647 L143.8572,257.8197 Z" id="Fill-130" fill="#333545"/>
            <path d="M127.6257,259.3129 C126.3857,258.6919 124.5247,257.9699 122.9787,257.9689 C121.7737,259.2309 121.5917,260.5289 122.0127,261.4529 C124.2887,261.7989 126.8417,262.0719 129.1417,261.8879 C129.1347,261.3719 128.7787,259.8899 127.6257,259.3129" id="Fill-132" fill="#FFFFFF"/>
            <path d="M122.9783,257.9691 C123.0553,257.9691 123.1323,257.9721 123.2113,257.9761 C122.2213,259.1291 122.1883,260.3611 122.6243,261.5321 C122.4183,261.5081 122.2143,261.4841 122.0123,261.4531 C121.5923,260.5301 121.7743,259.2311 122.9783,257.9691" id="Fill-134" fill="#E9E6E2"/>
            <path d="M130.1228,258.5258 C129.1448,257.5808 128.2208,256.9948 127.4628,256.6278 C126.9398,256.6378 126.4528,256.6748 126.0028,256.7388 C126.6958,256.9258 128.0998,257.4618 129.6398,258.9518 L130.1228,258.5258 Z" id="Fill-136" fill="#FFFFFF"/>
            <path d="M132.5759,258.3588 C131.8709,257.6768 131.1929,257.1838 130.5849,256.8208 C130.5669,256.8188 130.5459,256.8158 130.5269,256.8138 C129.8939,256.7308 129.2899,256.6758 128.7149,256.6468 C129.4669,256.8898 130.7269,257.4628 132.0939,258.7848 L132.5759,258.3588 Z" id="Fill-138" fill="#FFFFFF"/>
            <path d="M134.8445,258.3685 C134.2815,257.8245 133.7355,257.3995 133.2285,257.0655 C132.6605,257.0215 132.1435,256.9775 131.6965,256.9365 C132.4245,257.2655 133.3635,257.8295 134.3615,258.7935 L134.8445,258.3685 Z" id="Fill-140" fill="#FFFFFF"/>
            <path d="M136.8943,258.1156 C136.5623,257.7936 136.2363,257.5166 135.9203,257.2716 C135.4963,257.2406 135.0783,257.2106 134.6703,257.1786 C135.2063,257.5086 135.7973,257.9466 136.4123,258.5416 L136.8943,258.1156 Z" id="Fill-142" fill="#FFFFFF"/>
            <path d="M138.7986,257.682 C138.1186,257.161 137.4746,256.776 136.8936,256.491 L136.9066,257.207 C137.3626,257.453 137.8556,257.761 138.3726,258.158 L138.7986,257.682 Z" id="Fill-144" fill="#FFFFFF"/>
            <path d="M137.4919,256.7806 C137.3499,256.6426 133.6499,255.0626 133.0739,255.0006 C132.4989,254.9386 132.3269,256.6576 132.2809,257.0416 C132.2369,257.4266 137.1049,257.2256 137.1049,257.2256 L137.5269,256.7816 L136.7549,256.9026 C136.7549,256.9026 133.2509,256.8776 133.2579,256.6106 C133.2639,256.3436 133.2399,255.9856 133.5759,255.9956 C133.9129,256.0066 136.7799,256.8476 136.7799,256.8476 L137.4919,256.7806 Z" id="Fill-146" fill="#FFFFFF"/>
            <path d="M136.4245,256.9955 C136.5355,257.1585 139.9175,259.4805 140.4885,259.6625 C141.0585,259.8445 141.6395,258.2065 141.7775,257.8405 C141.9125,257.4745 136.9215,256.6415 136.9215,256.6415 L136.3885,256.9855 L137.2025,257.0305 C137.2025,257.0305 140.7535,257.7955 140.6825,258.0555 C140.6115,258.3125 140.5535,258.6675 140.2145,258.5865 C139.8745,258.5065 137.1635,257.0795 137.1635,257.0795 L136.4245,256.9955 Z" id="Fill-148" fill="#FFFFFF"/>
            <path d="M134.3142,253.8988 C134.3142,253.8988 135.3522,254.8718 135.9692,255.6358 C136.5872,256.3998 136.6712,256.8368 136.6712,256.8368 L137.2062,257.1258 C137.2062,257.1258 136.8512,255.9078 136.4552,255.0218 C135.9732,253.9488 135.3522,253.3398 135.2262,253.2578 C135.1002,253.1758 134.2752,253.7798 134.3142,253.8988" id="Fill-150" fill="#FFFFFF"/>
            <path d="M143.7351,165.3675 C144.3381,165.9105 145.6921,166.5445 146.2851,167.0955 C146.9111,165.5235 149.0551,158.7845 148.6541,158.3385 C148.1701,157.7965 142.4811,163.7355 142.5151,164.2485 C142.5201,164.3315 142.7121,163.9895 142.7231,164.0695 C142.9371,164.4005 143.5131,165.0415 143.7351,165.3675" id="Fill-152" fill="#B27A47"/>
            <path d="M148.654,158.3383 C148.402,158.0573 146.746,159.5243 145.217,161.0723 C145.678,161.3863 146.06,161.8073 146.319,162.2963 C146.782,163.1693 146.723,163.9743 146.516,164.8943 C146.403,165.4013 146.271,165.9033 146.147,166.4073 C146.107,166.5673 146.069,166.7273 146.031,166.8873 C146.125,166.9583 146.211,167.0273 146.285,167.0963 C146.911,165.5243 149.055,158.7853 148.654,158.3383" id="Fill-154" fill="#9F6E3F"/>
            <path d="M146.5896,167.2616 L140.9336,162.0846 L140.3766,162.6966 L146.6906,168.5326 L146.7126,168.5066 C146.6456,168.1936 146.5866,167.5226 146.5896,167.2616" id="Fill-156" fill="#F8B300"/>
            <path d="M145.6648,146.9178 C146.0648,147.4988 147.2218,150.7428 147.2218,150.7428 C147.2218,150.7428 145.0658,156.6198 144.0148,159.3898 C145.6858,161.2928 147.8098,162.7658 150.1618,163.8788 C151.2038,161.5728 153.7078,152.4838 152.5918,149.0878 C151.3878,145.4218 143.5248,128.5528 142.8928,129.0548 C142.2608,129.5588 142.5588,137.7358 142.5588,137.7358 C142.5588,137.7358 145.2628,146.3378 145.6648,146.9178" id="Fill-158" fill="#FFD95F"/>
            <path d="M152.5915,149.0878 C151.3875,145.4218 143.4885,128.4958 142.8855,129.0318 C142.7055,129.1928 142.4825,129.9718 142.5275,131.5948 C142.5405,131.6128 144.9595,135.6218 145.9965,137.4208 C146.9335,139.0488 147.9875,141.0838 148.7835,142.7808 C148.8595,142.9148 148.9335,143.0508 149.0055,143.1918 C150.2385,145.5458 152.0545,149.1258 152.3855,151.7588 C152.4765,152.4698 152.4935,153.1938 152.4615,153.9238 C152.8495,152.0308 152.9785,150.2628 152.5915,149.0878" id="Fill-160" fill="#F8B300"/>
            <path d="M147.196,150.5038 L151.824,149.9568 L151.434,149.4828 L147.058,149.9968 C147.094,150.1698 147.195,150.3348 147.196,150.5038" id="Fill-162" fill="#F8B300"/>
            <path d="M147.1755,150.7782 L150.8415,151.8982 L150.7785,151.4242 L147.2025,150.3322 C147.2055,150.4822 147.1995,150.6312 147.1755,150.7782" id="Fill-164" fill="#F8B300"/>
            <path d="M81.5935,112.1996 C81.5975,112.2316 81.8825,114.2786 81.8825,114.3056 C82.7585,114.6096 85.4665,115.4826 88.2575,113.9636 L89.0575,112.9736 C89.0365,111.8086 87.5305,108.5986 86.6905,108.0566 L82.5325,108.1446 C81.3065,108.0666 81.2955,108.8196 81.5035,111.1876 L81.5935,112.1996 Z" id="Fill-166" fill="#B27A47"/>
            <path d="M83.3,108.4589 L77.658,104.3969 C77.313,104.3259 76.968,104.3359 76.655,104.5629 C76.009,105.0299 75.996,105.9109 76.427,106.4949 C76.51,106.5719 76.597,106.6459 76.689,106.7109 L82.614,110.9729 C83.373,111.5199 84.138,111.3969 84.325,110.7019 C84.514,110.0069 84.053,109.0009 83.3,108.4589" id="Fill-168" fill="#B27A47"/>
            <path d="M87.8093,109.7474 C88.2533,110.6394 88.2793,112.2364 87.7353,112.5564 C87.1883,112.8774 86.3873,112.4114 85.9413,111.5184 L82.9133,105.4864 C82.4653,104.5934 82.5473,103.6114 83.0913,103.2944 C83.6353,102.9734 84.4373,103.4374 84.8823,104.3324 L87.8093,109.7474 Z" id="Fill-170" fill="#B27A47"/>
            <path d="M82.2522,109.9647 L76.2862,108.4537 C76.2172,108.4747 75.6212,108.3787 75.5552,108.4057 C74.9362,108.6527 74.4162,109.4717 74.7422,110.1597 C74.8422,110.3737 75.0312,110.5577 75.2412,110.7227 C75.4522,110.8547 75.6802,110.9587 75.9142,111.0167 L82.6682,112.7077 C83.5292,112.9247 84.1342,112.4857 84.0192,111.7267 C83.9022,110.9677 83.1112,110.1797 82.2522,109.9647" id="Fill-172" fill="#B27A47"/>
            <path d="M83.7073,112.0922 L78.2973,112.3382 C78.0203,112.3642 77.6383,112.4552 77.2803,112.5942 C76.9913,112.7362 76.6943,112.9362 76.6073,113.2452 C76.4453,113.8202 76.8403,114.3112 77.3113,114.6342 C77.6643,114.8112 78.0483,114.9062 78.4033,114.8722 L85.2883,114.7352 C86.0633,114.6602 85.5663,113.5662 85.1823,112.8452 L85.8093,113.1282 C85.4273,112.4082 84.4803,112.0182 83.7073,112.0922" id="Fill-174" fill="#B27A47"/>
            <path d="M92.1077,113.4686 L89.6967,111.2486 C89.6967,111.2486 88.2827,111.6376 87.5807,113.1006 C86.4647,115.4246 86.4716995,116.4626 86.4716995,116.4626 L90.0457,118.5616 C90.0457,118.5616 92.5027,114.2816 92.1077,113.4686" id="Fill-176" fill="#F8B300"/>
            <path d="M89.7561,120.827 C89.7461,120.731 87.7501,119.921 88.1321,118.476 C88.6731,116.434 89.3651,115.429 90.9201,113.442 C92.1291,111.983 93.9321,112.684 94.1781,112.994 C96.8561,116.386 102.6091,120.301 106.9291,122.645 C116.0701,127.602 124.6531,129.279 125.2831,130.43 C125.3651,130.579 126.2161,131.849 126.3581,131.92 C126.4471,133.76 125.9251,136.031 124.7141,136.887 C123.4981,136.468 114.0621,133.813 104.1451,129.228 C99.1191,126.904 92.6981,123.65 89.7561,120.827" id="Fill-178" fill="#FFD95F"/>
            <path d="M121.5847,135.722 C116.9187,133.537 112.0777,131.819 107.3847,129.708 C103.2037,127.826 99.1057,125.544 95.2017,123.105 C92.7877,121.596 90.3677,119.884 88.3267,117.811 C88.2577,118.022 88.1927,118.242 88.1307,118.476 C87.7497,119.92 89.7467,120.731 89.7547,120.827 C92.6977,123.65 99.1187,126.904 104.1457,129.228 C111.8987,132.812 119.3567,135.218 122.8247,136.297 C122.4107,136.106 121.9967,135.914 121.5847,135.722" id="Fill-180" fill="#F8B300"/>
            <path d="M122.1365,128.4857 L126.8525,128.0877 C126.8525,128.0877 131.8665,135.1897 131.9475,143.4937 C132.0045,149.5607 125.3895,171.3057 123.7105,174.1527 C122.0325,177.0007 121.9495,168.3177 121.9495,168.3177 C121.9495,168.3177 127.8295,149.0067 127.7685,142.5897 C127.7055,136.1727 122.1365,128.4857 122.1365,128.4857" id="Fill-182" fill="#2C3035"/>
            <path d="M211.154,258.1722 C212.039,257.8902 219.241,258.2122 222.005,257.9832 C222.485,258.0602 222.967,258.1402 223.448,258.2242 C225.646,258.6092 227.946,258.9382 230.126,259.5892 C230.468,259.7942 230.8,260.0482 230.963,260.3982 C230.968,260.9802 230.886,261.4962 230.766,261.8192 C228.375,262.3062 225.634,262.1642 223.283,262.0932 C220.277,262.0022 217.259,261.7722 214.276,261.4202 L210.805,260.9352 C210.697,260.2692 210.752,258.3002 211.154,258.1722" id="Fill-184" fill="#FFFFFF"/>
            <path d="M211.0437,257.5599 C211.0507,257.5669 211.0377,257.5359 211.0777,257.5089 C212.5737,257.8609 213.7727,257.7759 214.7347,257.3549 C215.1897,257.3399 214.7907,256.7989 215.9137,256.9259 L217.0537,256.9139 C217.9307,256.8039 218.2727,256.9179 219.0887,256.8129 C219.1057,256.8119 219.7627,256.8079 219.7807,256.8059 C222.6387,256.6109 225.8257,256.6529 228.5827,257.6259 C230.0437,258.1419 230.5227,259.1079 230.9567,260.3509 C230.9437,260.3909 230.9327,260.4309 230.9187,260.4689 C228.5157,260.9649 225.7587,260.8149 223.3917,260.7389 C220.3677,260.6409 217.3317,260.4009 214.3307,260.0349 C213.2277,259.9009 211.9357,259.7059 210.8387,259.5339 C210.7697,259.1079 210.7727,258.6979 210.8277,258.4169 L211.0437,257.5599 Z" id="Fill-186" fill="#E19300"/>
            <path d="M204.1335,258.3158 C203.2265,258.1078 196.0815,259.0188 193.3065,259.0168 C192.8335,259.1348 192.3625,259.2528 191.8925,259.3778 C189.7365,259.9408 187.4755,260.4578 185.3645,261.2848 C185.0405,261.5168 184.7345,261.7978 184.6045,262.1598 C184.6525,262.7388 184.7795,263.2478 184.9295,263.5588 C187.3585,263.8478 190.0735,263.4818 192.4105,263.2168 C195.3975,262.8798 198.3815,262.4028 201.3215,261.8058 L204.7345,261.0388 C204.7675,260.5478 204.2915,258.3518 204.1335,258.3158" id="Fill-188" fill="#FFFFFF"/>
            <path d="M204.1872,257.6957 C204.1492,257.6907 204.1142,257.6877 204.0772,257.6837 C203.8652,257.4507 202.4352,257.5627 201.5032,257.4317 C201.0502,257.4557 200.8582,257.3007 200.3622,257.2787 L199.2222,257.2897 C198.3392,257.2527 196.0562,257.4877 195.2332,257.4507 C195.2162,257.4507 194.9252,257.4947 194.9082,257.4957 C192.0412,257.5347 189.7352,258.0417 187.0762,259.2387 C185.6682,259.8727 184.9252,260.8387 184.6062,262.1117 C184.6212,262.1507 184.6362,262.1897 184.6542,262.2267 C187.0942,262.5227 189.8272,262.1467 192.1782,261.8777 C195.1812,261.5317 198.1832,261.0427 201.1402,260.4317 C202.2272,260.2077 203.4962,259.9087 204.5722,259.6447 C204.6042,259.2127 204.5502,258.8307 204.4562,258.5757 L204.1872,257.6957 Z" id="Fill-190" fill="#E19300"/>
            <path d="M219.782,249.3295 C219.331,247.7995 218.102,246.7395 217.915,244.4175 C217.785,242.8045 218.784,241.4965 218.779,239.6435 C218.769,235.9865 217.027,227.5945 217.021,223.8855 C217.014,218.8495 216.58,195.4345 216.931,190.4025 C217.055,188.6165 217.948,182.6085 217.33,181.0315 C216.495,178.9035 216.256,172.5715 215.931,171.0205 L206.064,173.2505 L194.114,171.8855 C193.864,173.4515 194.519,176.2875 194.513,179.4405 C194.508,181.7715 193.354,185.9035 193.445,187.0105 C193.998,193.7425 194.963,218.7335 195.196,223.7645 C195.366,227.4685 194.763,236.2905 194.927,239.9445 C195.009,241.7945 196.07,243.0495 196.016,244.6665 C195.94,246.9965 194.762,248.1185 194.385,249.6705 C194.028,251.1385 195.431,255.0275 196.114,257.2235 C197.73,257.4565 198.935,257.4885 200.569,257.5645 C202.524,257.6545 203.334,257.9545 204.86,257.7425 C205.008,257.1375 205.234,255.9825 205.369,255.1205 C205.641,253.3945 205.272,252.1995 204.74,250.5425 C203.826,247.6995 205.539,247.6565 205.286,244.9285 C205.019,242.0495 204.843,238.9905 204.647,236.0755 C204.109,228.1195 203.901,203.7725 204.475,195.8175 C204.59,194.2255 204.865,189.0375 205.67,189.1945 C206.168,189.0245 207.182,194.3825 207.384,196.0645 C208.335,203.9785 209.047,228.3145 208.888,236.2865 C208.829,239.2095 208.799,242.2725 208.67,245.1625 C208.547,247.9015 210.26,247.8535 209.482,250.7415 C209.028,252.4245 208.716,253.6375 209.071,255.3475 C209.196,255.9545 209.5,257.1325 209.767,258.1095 C211.193,258.0615 212.575,257.8885 214.009,257.6215 C215.785,257.2915 217.603,256.9515 219.347,256.4065 C219.733,254.1215 220.3,251.0895 219.782,249.3295" id="Fill-192" fill="#6280A0"/>
            <path d="M205.3591,176.579 L205.2221,176.593 L205.2131,176.447 L204.6581,176.503 L204.7071,176.944 L204.8971,179.156 C204.9041,179.398 205.0171,183.425 205.0941,185.849 C205.0091,185.759 204.8651,185.659 204.7391,185.558 L204.7341,185.553 C204.4331,185.217 204.2621,185.015 204.0301,184.674 C203.7951,184.339 203.6371,184.014 203.6161,183.838 C203.6111,183.812 203.6071,183.785 203.6041,183.757 C203.5371,183.162 203.5011,181.436 203.4861,179.884 C203.4681,178.328 203.4701,176.931 203.4691,176.928 L203.3271,176.935 C203.3271,176.846 203.3271,176.797 203.3261,176.796 L202.8441,176.826 C202.8451,176.834 202.8361,182.414 202.9821,183.721 C202.9871,183.759 202.9921,183.792 202.9951,183.822 C203.0501,184.169 203.2791,184.47 203.4971,184.883 C203.8441,185.545 204.4111,186.131 204.8721,186.541 C205.3411,186.976 205.7421,187.254 205.7681,187.273 C205.7041,185.434 205.5231,179.238 205.5221,179.229 L205.5221,179.222 L205.3591,176.579 Z" id="Fill-194" fill="#ADC5D3"/>
            <path d="M217.5759,183.2303 C217.0589,182.8943 216.3779,182.3883 215.7679,181.7333 C215.0619,180.9753 214.2599,179.8873 213.6389,178.9933 C213.0179,178.0983 211.3889,175.0253 211.3889,175.0233 L211.4769,175.0053 C211.2239,175.0313 210.9709,175.0623 210.7169,175.0843 L210.7179,175.0903 L210.6509,175.1193 L212.0439,177.7013 C212.2029,178.0003 213.8309,180.7203 215.3019,182.2993 C216.1209,183.1773 217.0439,183.7923 217.5949,184.1213 L217.5759,183.2303 Z" id="Fill-196" fill="#ADC5D3"/>
            <path d="M197.4636,224.3094 C197.4746,224.4984 197.4856,224.6874 197.4986,224.8764 L201.5066,226.4314 C201.5306,226.3024 201.5596,226.1744 201.5926,226.0484 C201.6056,226.0064 201.6196,225.9674 201.6316,225.9254 L197.4636,224.3094 Z" id="Fill-198" fill="#89A8B9"/>
            <path d="M197.5515,226.4364 C197.5655,226.5844 197.5785,226.7314 197.5935,226.8794 L201.3215,227.4304 C201.3345,227.2864 201.3475,227.1434 201.3625,226.9984 L197.5515,226.4364 Z" id="Fill-200" fill="#89A8B9"/>
            <path d="M205.4587,189.266 L205.4587,189.227 L200.4967,187.672 C200.5147,187.849 200.5337,188.024 200.5537,188.201 L205.2357,189.668 C205.2937,189.524 205.3687,189.39 205.4587,189.266" id="Fill-202" fill="#89A8B9"/>
            <path d="M205.2722,189.5868 L201.7182,189.8238 C201.7642,189.9558 201.8092,190.0878 201.8562,190.2198 L205.1352,190.0018 C205.1652,189.8568 205.2112,189.7178 205.2722,189.5868" id="Fill-204" fill="#89A8B9"/>
            <path d="M216.1169,223.9476 L211.7959,225.7886 C211.8109,225.8296 211.8279,225.8676 211.8419,225.9096 C211.8829,226.0346 211.9169,226.1606 211.9489,226.2866 L216.0779,224.5276 C216.0919,224.3346 216.1039,224.1406 216.1169,223.9476" id="Fill-206" fill="#89A8B9"/>
            <path d="M216.0329,225.9403 L212.1019,226.6783 C212.1219,226.8213 212.1419,226.9653 212.1639,227.1073 L216.0069,226.3853 C216.0149,226.2363 216.0239,226.0883 216.0329,225.9403" id="Fill-208" fill="#89A8B9"/>
            <path d="M192.321,170.3143 C192.411,172.0393 192.801,173.7513 193.436,175.3663 C196.455,175.7433 201.085,175.5373 204.593,175.5033 C210.577,175.4473 214.409,175.3863 216.43,174.5713 C216.652,173.0803 216.836,171.5843 216.941,170.0803 L192.321,170.3143 Z" id="Fill-210" fill="#A41008"/>
            <path d="M191.1404,173.1737 C193.4314,174.2477 199.9704,173.9047 204.5784,173.8607 C213.1564,173.7797 217.3144,173.6927 218.0514,171.3847 C219.2364,170.3867 217.5244,152.4917 215.9434,144.0157 C214.1624,134.4737 214.4824,130.0287 213.8504,129.5747 C212.3184,128.4757 208.7714,126.6797 202.7444,126.5047 C199.9214,126.4217 191.4224,129.8507 191.3994,130.5207 C190.1144,168.0347 189.8334,172.7487 191.1404,173.1737" id="Fill-212" fill="#B10F0B"/>
            <path d="M195.3425,130.0082 C197.4935,129.2772 199.8865,129.1542 202.1465,129.2372 C206.2845,129.3862 211.7035,129.5372 214.4345,133.0532 C214.2375,130.9122 214.1505,129.7912 213.8495,129.5752 C212.3185,128.4752 208.7715,126.6802 202.7445,126.5042 C199.9205,126.4212 191.4225,129.8512 191.4005,130.5202 C191.3785,131.1422 191.3575,131.7552 191.3365,132.3582 C192.4515,131.3212 193.8085,130.5292 195.3425,130.0082" id="Fill-214" fill="#A41008"/>
            <path d="M190.8425,140.4154 C190.8045,140.3124 190.7715,140.2084 190.7355,140.1054 C191.6105,157.9214 190.7975,172.2584 191.0855,174.1604 C191.0465,174.7934 191.4975,175.2474 192.2125,175.5764 C193.6835,164.9144 194.5635,154.9174 192.5205,142.6484 C191.7705,142.1204 191.1775,141.3384 190.8425,140.4154" id="Fill-216" fill="#A41008"/>
            <path d="M200.7702,127.2211 C200.3542,126.9951 200.3752,118.1161 200.3752,118.1161 L207.0392,117.6101 L206.8802,126.8171 C206.8802,126.8171 204.1662,129.0731 200.7702,127.2211" id="Fill-218" fill="#EBA376"/>
            <path d="M208.946,256.4164 C209.27,256.3314 220.238,253.5164 220.726,253.511394 C221.215,253.5064 220.838,256.5504 220.838,256.5504 C220.838,256.5504 209.86,258.4614 209.535,258.3824 C209.208,258.3044 208.946,256.4164 208.946,256.4164" id="Fill-220" fill="#89A8B9"/>
            <path d="M205.9411,256.2601 C205.6101,256.2001 194.4611,254.2361 193.9741,254.2681 C193.4861,254.3011 194.0931,257.3061 194.0931,257.3061 C194.0931,257.3061 205.1821,258.3701 205.5031,258.2661 C205.8221,258.1621 205.9411,256.2601 205.9411,256.2601" id="Fill-222" fill="#89A8B9"/>
            <path d="M189.447,186.9183 C188.918,184.8013 188.587,182.6193 188.414,180.4193 C189.488,180.2543 190.558,180.0783 191.628,179.8863 C191.777,181.9893 192.079,184.0563 192.574,186.0313 C191.516,186.2803 190.478,186.5863 189.447,186.9183" id="Fill-224" fill="#F3A775"/>
            <path d="M192.5124,188.1337 C192.3454,187.4067 191.6914,186.7937 191.0524,186.7697 C190.4134,186.7417 190.0324,187.3107 190.2004,188.0427 L191.5134,193.7557 C191.6834,194.4857 192.3364,195.0957 192.9754,195.1237 C193.6154,195.1497 193.9964,194.5797 193.8294,193.8517 L192.5124,188.1337 Z" id="Fill-226" fill="#EBA376"/>
            <path d="M191.9783,187.6107 C191.8983,186.8937 191.3023,186.2107 190.6453,186.0857 C189.9883,185.9617 189.5233,186.4437 189.6053,187.1627 L190.2373,192.7977 C190.3183,193.5197 190.9143,194.1997 191.5693,194.3237 C192.2253,194.4477 192.6923,193.9657 192.6123,193.2477 L191.9783,187.6107 Z" id="Fill-228" fill="#EBA376"/>
            <path d="M189.0339,188.3978 C189.0099,188.3858 188.6889,188.0628 188.6679,188.0558 C188.4599,185.4628 188.0109,182.4258 190.2229,181.5438 L190.5869,181.6418 C192.1569,182.0408 193.8999,185.0148 194.0359,185.8088 L192.7019,188.6748 C192.3149,189.6558 191.6929,189.4768 189.8299,188.7208 L189.0339,188.3978 Z" id="Fill-230" fill="#EBA376"/>
            <path d="M190.6853,183.2909 C189.0223,183.9619 188.7733,186.1279 188.6343,187.6719 C188.4213,185.1709 188.1183,182.3829 190.2243,181.5439 L190.5863,181.6419 C191.2193,181.8019 191.8793,182.3809 192.4523,183.0679 C191.8703,182.9559 191.2203,183.0739 190.6853,183.2909" id="Fill-232" fill="#F3A775"/>
            <path d="M193.3943,184.411 C192.9973,183.728 191.8613,183.05 191.3343,183.302 C190.8033,183.555 190.7013,184.315 191.0983,184.999 L193.7803,189.632 C194.1763,190.316 194.9273,190.664 195.4543,190.412 C195.9813,190.16 196.0863,189.401 195.6863,188.716 L193.3943,184.411 Z" id="Fill-234" fill="#EBA376"/>
            <polygon id="Fill-236" fill="#A41008" points="192.3552 181.1346 186.8342 182.3456 186.1682 179.2516 191.6862 178.0406"/>
            <path d="M185.3513,179.9222 C184.5253,179.7802 185.0583,165.4942 185.7973,155.9332 C186.5363,146.3712 188.1903,135.2122 189.1553,132.7942 C190.1203,130.3762 192.8543,133.0882 193.1183,137.2342 C193.3783,141.3782 191.6723,160.1332 191.7853,163.8472 C191.8953,167.5632 192.8693,177.4272 192.7053,177.9972 C192.5433,178.5662 187.9973,180.3772 185.3513,179.9222" id="Fill-238" fill="#B10F0B"/>
            <path d="M185.9031,156.1468 C186.4881,153.2478 188.4681,139.3328 189.7151,135.4568 C190.4271,133.2408 191.9081,131.6008 192.3661,131.1558 C191.8751,129.3078 189.6781,131.2968 189.2651,132.3338 C188.3001,134.7518 186.5361,146.3708 185.7981,155.9328 C185.7671,156.3188 185.7371,156.7128 185.7101,157.1138 C185.7731,156.7918 185.8391,156.4688 185.9031,156.1468" id="Fill-240" fill="#A41008"/>
            <path d="M191.7517,160.7816 C191.7557,160.7336 191.7627,160.6896 191.7687,160.6416 L186.9207,159.7196 L186.4777,160.2056 L191.7397,161.2076 C191.7387,161.0656 191.7407,160.9236 191.7517,160.7816" id="Fill-242" fill="#A41008"/>
            <path d="M191.7585,161.8099 L187.7245,161.8519 L187.4995,162.3259 L191.7835,162.2809 C191.7755,162.1239 191.7675,161.9669 191.7585,161.8099" id="Fill-244" fill="#A41008"/>
            <path d="M261.7029,94.6879 C261.7079,94.7229 261.9889,96.9879 261.9949,97.0179 C261.1159,97.6029 258.3749,99.3399 254.8469,98.5569 L253.6749,97.7419 C253.3569,96.4939 254.0919,92.6249 254.8609,91.7959 L259.4829,90.6489 C260.8159,90.1989 261.0489,90.9979 261.5079,93.5829 L261.7029,94.6879 Z" id="Fill-246" fill="#EBA376"/>
            <path d="M258.7273,91.2133 L263.7843,85.2023 C264.1453,85.0223 264.5293,84.9303 264.9403,85.0773 C265.7913,85.3813 266.0623,86.3163 265.7543,87.0673 C265.6863,87.1743 265.6123,87.2803 265.5293,87.3773 L260.2173,93.6863 C259.5363,94.4953 258.6553,94.5933 258.2463,93.9073 C257.8353,93.2253 258.0523,92.0133 258.7273,91.2133" id="Fill-248" fill="#EBA376"/>
            <path d="M254.116,93.933 C253.884,95.015 254.319,96.725 255.015,96.903 C255.712,97.081 256.463,96.345 256.696,95.261 L258.289,87.931 C258.524,86.846 258.149,85.826 257.456,85.649 C256.76,85.471 256.009,86.204 255.777,87.29 L254.116,93.933 Z" id="Fill-250" fill="#EBA376"/>
            <path d="M260.324,92.5038 L266.481,89.1128 C266.563,89.1128 267.195,88.8348 267.275,88.8418 C268.031,88.9208 268.845,89.6378 268.685,90.4678 C268.637,90.7258 268.48,90.9778 268.298,91.2178 C268.101,91.4208 267.88,91.5988 267.636,91.7318 L260.663,95.5498 C259.772,96.0378 258.977,95.7528 258.883,94.9078 C258.79,94.0658 259.437,92.9898 260.324,92.5038" id="Fill-252" fill="#EBA376"/>
            <path d="M259.3337,95.2045 L265.3867,93.8505 C265.7007,93.7955 266.1487,93.7795 266.5867,93.8195 C266.9457,93.8855 267.3347,94.0085 267.5197,94.3115 C267.8647,94.8765 267.5717,95.5165 267.1457,96.0025 C266.8077,96.2955 266.4087,96.5125 266.0077,96.5815 L258.3547,98.4925 C257.4767,98.6435 257.7067,97.3305 257.9217,96.4475 L257.3107,96.9355 C257.5217,96.0555 258.4567,95.3575 259.3337,95.2045" id="Fill-254" fill="#EBA376"/>
            <path d="M250.3679,98.8832 L252.3889,95.7981989 C252.3889,95.7981989 254.0639,95.7902 255.2659,97.1382 C257.1769,99.2792 257.4719,100.3892 257.4719,100.3892 L254.1299,103.6922 C254.1299,103.6922 250.1679,99.8662 250.3679,98.8832" id="Fill-256" fill="#A41008"/>
            <path d="M256.1609,107.0052 C256.1459,106.8982 257.6089,106.0892 256.7919,103.3542 C256.1219,101.1132 255.4069,99.8092 253.1669,98.0832 C251.4459,96.8332 249.7639,98.9222 249.4779,99.2612 C239.5839,111.0472 217.7909,127.4382 216.8299,128.2332 C216.6809,128.3562 209.7149,131.9392 213.1889,129.8522 C213.5599,131.8512 214.1369,135.2122 215.7059,135.8142 C223.6399,135.7912 250.7149,114.6252 256.1609,107.0052" id="Fill-258" fill="#B10F0B"/>
            <path d="M225.6316,112.0687 C221.5206,116.6197 211.0686,127.9837 196.7586,122.4147 C183.9486,117.4307 183.6266,98.7277 189.7806,83.2647 C194.5956,71.1637 222.1546,78.9527 228.1566,91.3997 C229.8916,95.5717 231.7856,105.2567 225.6316,112.0687" id="Fill-260" fill="#EBA376"/>
            <path d="M201.7986,102.266 C200.0006,100.121 196.8836,101.449 199.3626,104.161 C199.1926,102.72 200.0006,101.566 201.7986,102.266" id="Fill-262" fill="#C38963"/>
            <path d="M207.9636,98.6464 C207.2226,100.7594 208.2336,103.0384 210.2316,103.7374 C212.2286,104.4414 214.4466,103.2934 215.1876,101.1824 C215.9276,99.0684 214.9126,96.7894 212.9166,96.0864 C210.9226,95.3894 208.7026,96.5344 207.9636,98.6464" id="Fill-264" fill="#FFFFFF"/>
            <path d="M209.0202,100.8871 C209.2742,102.3811 210.6132,103.4021 212.0242,103.1651 C213.4372,102.9291 214.3772,101.5301 214.1302,100.0401 C213.8792,98.5451 212.5362,97.5281 211.1242,97.7621 C209.7172,97.9971 208.7712,99.3951 209.0202,100.8871" id="Fill-266" fill="#1D1D1B"/>
            <path d="M210.0847,100.8202 C210.2317,101.7152 211.0347,102.3222 211.8867,102.1892 C212.7247,102.0442 213.2827,101.2062 213.1377,100.3132 C212.9877,99.4222 212.1847,98.8122 211.3437,98.9482 C210.4967,99.0912 209.9347,99.9272 210.0847,100.8202" id="Fill-268" fill="#1D1D1B"/>
            <path d="M211.6648,99.5843 C211.7228,99.9613 212.0638,100.2223 212.4208,100.1603 C212.7738,100.0983 213.0168,99.7463 212.9538,99.3663 C212.8908,98.9893 212.5528,98.7303 212.1918,98.7863 C211.8388,98.8503 211.5988,99.2063 211.6648,99.5843" id="Fill-270" fill="#FFFFFF"/>
            <path d="M210.2663,101.8339 C210.3043,102.0659 210.5093,102.2199 210.7263,102.1869 C210.9423,102.1459 211.0863,101.9339 211.0503,101.7059 C211.0093,101.4789 210.8063,101.3169 210.5893,101.3539 C210.3743,101.3939 210.2253,101.6079 210.2663,101.8339" id="Fill-272" fill="#FFFFFF"/>
            <path d="M214.1658,93.9095 C212.6628,93.7225 213.3468,91.8155 214.5968,92.0685 C216.8508,92.5265 217.5988,95.4215 217.5988,95.4215 C217.5988,95.4215 215.9368,94.1275 214.1658,93.9095" id="Fill-274" fill="#333332"/>
            <path d="M194.7126,90.5829 C195.9916,91.1189 196.3156,89.2929 195.2076,88.9279 C193.2076,88.2659 191.3006,90.2289 191.3006,90.2289 C191.3006,90.2289 193.2076,89.9529 194.7126,90.5829" id="Fill-276" fill="#333332"/>
            <path d="M189.8669,95.6713 C189.5939,97.7353 190.9529,99.6183 192.8969,99.8783 C194.8499,100.1383 196.6529,98.6713 196.9249,96.6063 C197.2009,94.5423 195.8379,92.6593 193.8899,92.4033 C191.9399,92.1423 190.1399,93.6073 189.8669,95.6713" id="Fill-278" fill="#FFFFFF"/>
            <path d="M190.9031,96.9447 C191.1571,98.4387 192.4961,99.4587 193.9061,99.2207 C195.3201,98.9867 196.2591,97.5877 196.0111,96.0967 C195.7611,94.6017 194.4181,93.5857 193.0071,93.8187 C191.5991,94.0547 190.6531,95.4527 190.9031,96.9447" id="Fill-280" fill="#1D1D1B"/>
            <path d="M191.9665,96.8778 C192.1135,97.7728 192.9165,98.3798 193.7675,98.2458 C194.6055,98.1018 195.1655,97.2638 195.0185,96.3708 C194.8705,95.4798 194.0655,94.8698 193.2245,95.0058 C192.3795,95.1488 191.8155,95.9838 191.9665,96.8778" id="Fill-282" fill="#1D1D1B"/>
            <path d="M193.5466,95.641 C193.6056,96.019 193.9456,96.28 194.3016,96.218 C194.6556,96.155 194.8996,95.804 194.8346,95.424 C194.7736,95.047 194.4346,94.787 194.0746,94.844 C193.7196,94.908 193.4816,95.264 193.5466,95.641" id="Fill-284" fill="#FFFFFF"/>
            <path d="M192.1482,97.8915 C192.1862,98.1235 192.3912,98.2775 192.6092,98.2435 C192.8242,98.2035 192.9692,97.9915 192.9312,97.7635 C192.8902,97.5365 192.6872,97.3745 192.4712,97.4115 C192.2572,97.4515 192.1072,97.6645 192.1482,97.8915" id="Fill-286" fill="#FFFFFF"/>
            <path d="M225.2722,105.4901 C225.2722,105.4901 226.7872,102.5791 229.4972,103.3341 C232.3542,104.1331 231.5732,109.2951 228.9202,111.6811 C226.2672,114.0671 223.0722,113.1911 223.0982,110.3611 L225.2722,105.4901 Z" id="Fill-288" fill="#EBA376"/>
            <path d="M229.1052,103.5145 C228.4172,103.3275 227.8132,103.3915 227.2952,103.5815 C227.7042,103.4495 228.1402,103.4195 228.5972,103.5725 C231.2342,104.4605 230.2332,108.3405 228.5782,110.2485 C226.3412,112.8345 223.7782,112.2125 223.1062,110.0615 C223.0822,112.6935 226.0812,113.5085 228.5692,111.2875 C231.0562,109.0615 231.7862,104.2575 229.1052,103.5145" id="Fill-290" fill="#C38963"/>
            <path d="M229.487,104.9144 C227.914,103.6724 224.75,107.5194 226.21,110.9254 C226.445,107.2994 227.787,106.6294 228.452,108.7084 C228.841,107.6674 228.66,106.8184 227.562,106.4554 C228.175,105.1244 229.487,104.9144 229.487,104.9144" id="Fill-292" fill="#C38963"/>
            <path d="M225.8923,105.8929 C225.8923,105.8929 224.5133,105.1639 223.0163,105.0029 C228.2803,97.7159 227.4123,92.8199 223.8263,89.9839 C216.3763,89.2129 198.5013,85.4339 194.8003,81.0389 C189.7403,84.6419 187.8643,89.4389 186.7033,92.7379 C186.3073,89.4729 188.7983,83.7289 188.8093,79.6199 C188.8193,75.5099 189.7103,70.6259 194.5573,68.6899 C199.4033,66.7549 202.5823,67.4139 204.9213,68.8579 C212.2753,63.5419 221.9193,66.8299 223.0863,68.5799 C220.5913,67.8479 219.9953,71.7659 223.7763,73.7099 C227.5553,75.6549 240.3813,81.9689 235.6883,87.7969 C236.0123,92.8169 230.5853,97.9179 230.3433,103.9099 C227.9553,102.9789 225.8923,105.8929 225.8923,105.8929" id="Fill-294" fill="#4B372E"/>
            <path d="M218.6023,69.4999 C218.1193,71.7669 221.3573,74.7629 227.4283,77.7589 C233.1453,80.5779 233.9063,84.0739 233.1773,85.6919 C232.0433,81.7259 224.8373,78.8099 220.0603,78.0009 C221.4373,79.4579 225.5663,81.8059 225.5663,81.8059 C225.5663,81.8059 214.3123,79.7829 210.4253,73.0629 C213.9893,75.0849 214.9593,75.0849 219.4953,75.9769 C219.4953,75.9769 215.5273,72.6569 218.6023,69.4999" id="Fill-296" fill="#7A6153"/>
            <path d="M217.0652,68.0424 C217.0652,68.0424 208.7262,65.9374 203.7862,71.1184 C207.0262,70.1464 214.4742,70.1464 214.4742,70.1464 C214.4742,70.1464 212.2892,69.2564 208.9702,69.1754 C212.0442,67.7184 217.0652,68.0424 217.0652,68.0424" id="Fill-298" fill="#7A6153"/>
            <path d="M202.3308,70.0668 C202.3308,70.0668 198.7668,68.0428 193.9098,70.1468 C195.4458,70.1468 198.2828,70.4708 198.2828,70.4708 C198.2828,70.4708 195.5278,71.7668 193.0178,74.4388 C195.8518,72.4968 202.3308,70.0668 202.3308,70.0668" id="Fill-300" fill="#7A6153"/>
            <path d="M196.4997,75.8158 C196.4997,75.8158 203.1397,85.4508 225.4857,88.2828 C228.8857,89.7398 232.1247,98.2418 223.7057,104.6388 C228.9667,97.3518 228.2617,92.2538 224.6757,89.4168 C217.2287,88.6488 198.5017,84.0978 194.8007,79.7008 C189.7397,83.3038 187.8637,89.4388 186.7027,92.7378 C186.7027,92.7378 187.4307,80.5918 196.4997,75.8158" id="Fill-302" fill="#392921"/>
            <path d="M213.8493,129.8568 L212.5133,129.0298 L210.7033,128.2248 C210.7033,128.2248 205.3863,135.6438 205.3063,143.9838 C205.2483,150.0748 217.1683,167.0938 218.8473,169.9528 C220.5273,172.8118 220.6103,164.0938 220.6103,164.0938 C220.6103,164.0938 209.4233,149.5188 209.4853,143.0748 C209.5463,136.6308 213.8493,129.8568 213.8493,129.8568" id="Fill-304" fill="#2C3035"/>
            <path d="M134.4128,112.5209 C138.9688,111.5429 140.3638,109.9249 142.1528,108.5849 L142.1898,108.6909 C141.6278,109.1719 140.9178,109.7619 139.8598,110.6469 C139.8598,110.6469 140.8298,118.0159 135.9078,118.8899 C130.9858,119.7639 129.2238,114.1879 128.3858,111.9109 C128.3858,111.9109 131.2928,113.1909 134.4128,112.5209" id="Fill-306" fill="#000000"/>
            <path d="M135.8601,115.64 C135.6011,115.416 135.1841,115.222 135.1841,115.222 C136.9681,113.623 138.4971,114.197 139.6611,114.14 C139.4691,115.122 139.0801,117.86 136.1851,118.68 C135.0611,118.998 133.5381,118.818 132.4671,118.132 C131.1261,117.271 130.4251,116.132 130.2001,115.713 C132.3071,113.715 135.1541,115.242 135.8601,115.64" id="Fill-308" fill="#EA0000"/>
            <path d="M128.3865,111.9105 C128.3865,111.9105 132.0815,113.1595 134.4125,112.5205 C136.7425,111.8825 138.6005,111.2195 139.5955,110.5145 C139.9325,111.7435 139.6975,111.7625 139.6975,112.2285 C139.6975,112.6955 135.2275,115.2315 129.0165,113.5885 C128.6665,112.6815 128.3865,111.9105 128.3865,111.9105" id="Fill-310" fill="#FFFFFF"/>
            <path d="M134.4128,112.5209 C138.9688,111.5429 140.3638,109.9249 142.1528,108.5849 L142.1898,108.6909 C141.6278,109.1719 140.9178,109.7619 139.8598,110.6469 C139.8598,110.6469 140.8298,118.0159 135.9078,118.8899 C130.9858,119.7639 129.2238,114.1879 128.3858,111.9109 C128.3858,111.9109 131.2928,113.1909 134.4128,112.5209 Z" id="Stroke-312" stroke="#000000" stroke-width="0.15"/>
            <path d="M208.9792,110.0531 C208.8192,109.9761 208.5682,110.0721 208.5142,110.2331 C208.4532,110.4171 208.5222,110.4931 208.5222,110.4931 C208.5222,110.4931 205.3572,111.7441 200.4902,111.4631 C196.2742,111.2191 192.5932,108.8701 192.5932,108.8701 C192.5932,108.8701 192.6662,108.7961 192.6542,108.7101 C192.6452,108.6391 192.6012,108.5241 192.4912,108.5091 C192.0392,108.4491 192.0772,108.9571 192.1632,109.8501 C192.2642,109.4071 192.4482,109.1371 192.4482,109.1371 L192.6042,109.1981 C192.6042,109.1981 194.4932,118.1451 199.8892,118.2541 C205.2842,118.3621 208.5282,110.7671 208.5282,110.7671 L208.6692,110.7281 C208.6692,110.7281 208.8702,110.9371 208.8722,111.5351 C209.2952,110.6951 209.4862,110.2951 208.9792,110.0531" id="Fill-314" fill="#000000"/>
            <path d="M200.6531,115.12 C200.8911,114.868 201.2421,114.608 201.2421,114.608 C198.3381,113.119 196.4231,114.597 195.5941,115.566 C196.5061,116.555 197.9601,118.537 201.0611,117.987 C204.0541,117.455 206.3021,114.11 206.3021,114.11 C203.5301,112.656 201.2961,114.636 200.6531,115.12" id="Fill-316" fill="#EA0000"/>
            <path d="M193.2927,109.5809 C193.2927,109.5809 193.4047,110.6319 193.5477,110.9099 C195.1497,114.0499 199.5277,113.7729 207.3097,112.3669 C207.6057,112.3129 207.9807,110.9559 207.9807,110.9559 C202.1697,112.2869 197.9497,112.0489 193.2927,109.5809" id="Fill-318" fill="#FFFFFF"/>
        </g>
    </g>
</svg>