<svg width="80" height="54" viewBox="0 0 80 54" fill="none" xmlns="http://www.w3.org/2000/svg">
<path d="M66.123 28.7138L65.8445 31.2187L65.6568 32.9062H42.0318L41.8441 31.2187L41.5656 28.7138C41.3181 26.4845 41.6524 24.229 42.5359 22.1674C43.3142 20.3504 43.6677 18.3798 43.5695 16.4056L43.4229 13.4862C43.3524 12.0739 43.5697 10.662 44.0616 9.3363C44.5536 8.01056 45.3098 6.79864 46.2844 5.77414C47.2591 4.74963 48.4318 3.93392 49.7314 3.37654C51.0309 2.81916 52.4302 2.53174 53.8443 2.53174C55.2584 2.53174 56.6577 2.81916 57.9572 3.37654C59.2568 3.93392 60.4295 4.74963 61.4042 5.77414C62.3788 6.79864 63.135 8.01056 63.627 9.3363C64.1189 10.662 64.3362 12.0739 64.2657 13.4862L64.1191 16.4056C64.0209 18.3798 64.3744 20.3504 65.1527 22.1674C66.0365 24.229 66.3708 26.4845 66.123 28.7138Z" fill="black"/>
<path d="M66.1223 28.7139L65.8439 31.2188H56.3749V21.9375L58.0624 18.5625V11.8125C58.0613 9.77846 57.3928 7.80098 56.1593 6.18361C54.9258 4.56624 53.1957 3.39837 51.2344 2.85926C52.819 2.45251 54.477 2.42364 56.0748 2.77498C57.6727 3.12632 59.1656 3.84804 60.4335 4.88201C61.7013 5.91598 62.7085 7.23328 63.3741 8.72779C64.0396 10.2223 64.3448 11.8522 64.265 13.4863L64.1184 16.4057C64.0203 18.3799 64.3738 20.3504 65.152 22.1674C66.0359 24.229 66.3702 26.4845 66.1223 28.7139Z" fill="black"/>
<path d="M58.4 29.5312C58.2449 29.5313 58.0912 29.5008 57.9479 29.4415C57.8045 29.3822 57.6743 29.2952 57.5645 29.1855C57.4548 29.0757 57.3678 28.9455 57.3085 28.8021C57.2492 28.6588 57.2187 28.5051 57.2188 28.35V22.7812H50.4688V28.35C50.4688 28.5051 50.4383 28.6588 50.379 28.8021C50.3197 28.9455 50.2327 29.0757 50.123 29.1855C50.0133 29.2952 49.883 29.3822 49.7396 29.4415C49.5963 29.5008 49.4426 29.5313 49.2875 29.5312H47.9375V34.5938H59.75V29.5312H58.4Z" fill="#FEC9A3"/>
<path d="M54.3525 27C55.3973 26.9885 56.4074 26.624 57.2188 25.9657V22.7812H50.4688V25.9654C51.28 26.6238 52.2902 26.9884 53.335 27H54.3525Z" fill="#FEB784"/>
<path d="M61.4375 13.5V17.7188C61.4375 19.7327 60.6374 21.6642 59.2133 23.0883C57.7892 24.5124 55.8577 25.3125 53.8438 25.3125C51.8298 25.3125 49.8983 24.5124 48.4742 23.0883C47.0501 21.6642 46.25 19.7327 46.25 17.7188V13.5C47.909 12.3944 49.2506 10.8748 50.1418 9.09141L50.4688 8.4375L50.9476 8.83723C53.044 10.5842 55.4607 11.906 58.0625 12.729C59.1644 13.0783 60.2932 13.3361 61.4375 13.5Z" fill="#FEC9A3"/>
<path d="M53.6152 22.88C54.4405 22.88 55.2024 22.3981 55.5563 21.6524C55.667 21.419 55.5676 21.1399 55.3342 21.0292C55.1007 20.9184 54.8218 21.0178 54.711 21.2512C54.5112 21.6723 54.0811 21.9443 53.6152 21.9443C53.1493 21.9443 52.7191 21.6723 52.5193 21.2512C52.4085 21.0179 52.1295 20.9184 51.8961 21.0292C51.6627 21.14 51.5632 21.419 51.674 21.6524C52.0281 22.3981 52.79 22.88 53.6152 22.88Z" fill="black"/>
<path d="M61.4376 13.5V17.7187C61.4372 19.4813 60.824 21.1889 59.703 22.549C58.582 23.9092 57.023 24.8373 55.293 25.1743C56.1714 24.312 56.8689 23.283 57.3445 22.1477C57.8201 21.0123 58.0642 19.7934 58.0626 18.5625V12.729C59.1645 13.0783 60.2933 13.3361 61.4376 13.5Z" fill="#FEC093"/>
<path d="M50.0469 16.875C49.7966 16.875 49.5519 16.8008 49.3437 16.6617C49.1356 16.5226 48.9734 16.325 48.8776 16.0937C48.7818 15.8624 48.7567 15.608 48.8056 15.3625C48.8544 15.117 48.9749 14.8914 49.1519 14.7144C49.3289 14.5374 49.5545 14.4169 49.8 14.3681C50.0455 14.3192 50.2999 14.3443 50.5312 14.4401C50.7625 14.5359 50.9601 14.6981 51.0992 14.9062C51.2383 15.1144 51.3125 15.3591 51.3125 15.6094C51.3121 15.9449 51.1787 16.2666 50.9414 16.5039C50.7041 16.7412 50.3824 16.8746 50.0469 16.875Z" fill="black"/>
<path d="M57.6406 16.875C57.3903 16.875 57.1456 16.8008 56.9375 16.6617C56.7294 16.5226 56.5671 16.325 56.4713 16.0937C56.3755 15.8624 56.3505 15.608 56.3993 15.3625C56.4482 15.117 56.5687 14.8914 56.7457 14.7144C56.9227 14.5374 57.1482 14.4169 57.3937 14.3681C57.6392 14.3192 57.8937 14.3443 58.125 14.4401C58.3562 14.5359 58.5539 14.6981 58.693 14.9062C58.832 15.1144 58.9062 15.3591 58.9062 15.6094C58.9059 15.9449 58.7724 16.2666 58.5352 16.5039C58.2979 16.7412 57.9762 16.8746 57.6406 16.875Z" fill="black"/>
<path d="M49.625 32.9062H58.0625V38.8125H49.625V32.9062Z" fill="#E0E0DE"/>
<path d="M71.0313 51.4339C70.4327 51.5336 69.8182 51.4175 69.2973 51.1064C68.7763 50.7952 68.3828 50.3091 68.1868 49.7348L62.6139 39.2797C62.9687 40.3406 63.0468 41.4744 62.8408 42.5739C62.6348 43.6734 62.1516 44.702 61.4368 45.5625V52.3125H46.2493V45.5625C45.5242 44.6921 45.036 43.6493 44.832 42.535C44.628 41.4206 44.7152 40.2725 45.0849 39.2017L39.4213 49.7348C39.2039 50.3741 38.7427 50.9016 38.1383 51.2025C37.5338 51.5033 36.8349 51.5532 36.1938 51.3412C35.5528 51.1293 35.0214 50.6726 34.7154 50.0707C34.4095 49.4688 34.3537 48.7703 34.5602 48.1275L40.7555 32.7069C41.1319 31.7691 41.7805 30.9654 42.6177 30.3994C43.455 29.8334 44.4425 29.5311 45.453 29.5313H48.7806L53.8431 38.8125L58.9056 29.5313H62.2205C63.2339 29.532 64.2238 29.8365 65.0623 30.4056C65.9009 30.9748 66.5495 31.7822 66.9244 32.7238L73.0489 48.1275C73.1608 48.4775 73.1961 48.8474 73.1524 49.2122C73.1087 49.577 72.987 49.9281 72.7956 50.2417C72.6042 50.5554 72.3476 50.8242 72.0432 51.0299C71.7388 51.2356 71.3937 51.3734 71.0313 51.4339Z" fill="#EC8C8C"/>
<path d="M33.8287 48.4112L34.4372 40.5H39.4997V48.629C39.4997 49.3822 39.2006 50.1045 38.668 50.637C38.1354 51.1696 37.4131 51.4688 36.66 51.4688C36.2687 51.4688 35.8817 51.3879 35.5231 51.2313C35.1646 51.0746 34.8423 50.8456 34.5764 50.5585C34.3106 50.2714 34.1069 49.9325 33.9783 49.563C33.8496 49.1934 33.7987 48.8013 33.8287 48.4112Z" fill="#F59898"/>
<path d="M36.4225 28.1916C36.1841 28.2513 35.9621 28.3637 35.7729 28.5205C35.5837 28.6774 35.4321 28.8748 35.3294 29.0981C35.2267 29.3214 35.1755 29.5649 35.1795 29.8107C35.1835 30.0564 35.2426 30.2981 35.3525 30.518L36.125 32.0624H33.1013C32.3154 32.0624 31.5403 31.8794 30.8373 31.5279L29.9965 31.1075C29.8422 31.0304 29.6706 30.9939 29.4982 31.0017C29.3258 31.0094 29.1583 31.0611 29.0115 31.1519C28.8647 31.2426 28.7435 31.3693 28.6594 31.5201C28.5754 31.6708 28.5313 31.8405 28.5312 32.0131V34.3944C28.5313 34.7078 28.6185 35.015 28.7833 35.2816C28.9481 35.5482 29.1838 35.7636 29.4641 35.9037L30.8373 36.5904C31.5403 36.9419 32.3154 37.1249 33.1013 37.1249H39.5V32.0624L38.3446 29.1739C38.1971 28.8055 37.9211 28.503 37.5677 28.3224C37.2144 28.1418 36.8075 28.0953 36.4225 28.1916Z" fill="#FEC9A3"/>
<path d="M34.4375 37.125H39.5V40.5H34.4375V37.125Z" fill="#E0E0DE"/>
<path d="M71.032 51.434C70.4334 51.5337 69.8189 51.4176 69.2979 51.1064C68.777 50.7953 68.3834 50.3092 68.1875 49.7349L62.6145 39.2798C62.9693 40.3406 63.0474 41.4745 62.8415 42.574C62.6355 43.6734 62.1522 44.7021 61.4375 45.5626V52.3126H46.5273C53.4914 47.7648 59.3671 41.9935 64.2988 29.9785C65.4979 30.5173 66.4399 31.5021 66.925 32.7239L73.0496 48.1276C73.1614 48.4775 73.1967 48.8475 73.153 49.2123C73.1093 49.5771 72.9876 49.9282 72.7963 50.2418C72.6049 50.5554 72.3483 50.8242 72.0439 51.0299C71.7394 51.2356 71.3943 51.3735 71.032 51.434Z" fill="#E07F7F"/>
<path d="M65.6562 48.9375L57.2188 47.25V35.4375L65.6562 37.125V48.9375Z" fill="#A36548"/>
<path d="M69.0312 48.9375L77.4688 47.25V35.4375L69.0312 37.125V48.9375Z" fill="#8F4D2E"/>
<path d="M65.6562 37.125H69.0312V48.9375H65.6562V37.125Z" fill="#95573A"/>
<path d="M67.3438 37.125C67.3437 36.4177 67.0928 35.7333 66.6357 35.1936C66.1785 34.6539 65.5447 34.2939 64.847 34.1776L57.2188 32.9062V35.4375L65.6562 37.125H67.3438C67.3438 36.4177 67.5947 35.7333 68.0518 35.1936C68.509 34.6539 69.1428 34.2939 69.8405 34.1776L77.4688 32.9062V35.4375L69.0312 37.125H67.3438Z" fill="#D4BD81"/>
<path d="M75.9199 48.8568L72.5449 49.4194C72.4241 49.4395 72.3003 49.4331 72.1821 49.4006C72.064 49.368 71.9544 49.3101 71.8609 49.2309C71.7674 49.1517 71.6922 49.0531 71.6407 48.9419C71.5892 48.8307 71.5625 48.7097 71.5625 48.5871V45.451C71.5625 45.1911 71.6547 44.9395 71.8227 44.7411C71.9907 44.5428 72.2237 44.4104 72.4801 44.3676L75.3459 43.89C75.5032 43.8637 75.6644 43.8721 75.8183 43.9144C75.9721 43.9568 76.1148 44.0321 76.2366 44.1353C76.3583 44.2384 76.4561 44.3668 76.5232 44.5115C76.5903 44.6563 76.625 44.8139 76.625 44.9735V48.0246C76.625 48.2243 76.5541 48.4175 76.425 48.5699C76.2959 48.7223 76.117 48.824 75.9199 48.8568Z" fill="#FEC9A3"/>
<g clip-path="url(#clip0)">
<path d="M8.16022 32.9778L8.1498 32.9778C7.25334 32.9778 6.52696 32.2508 6.52696 31.3549C6.52696 30.4585 7.25334 29.7314 8.1498 29.7314C8.16148 29.7314 8.17311 29.7314 8.18479 29.732L23.0453 29.7321C23.057 29.7314 23.0686 29.7314 23.0803 29.7314C23.9767 29.7314 24.7031 30.4584 24.7031 31.3549C24.7031 32.2508 23.9767 32.9778 23.0803 32.9778L23.0699 32.9778" fill="#F1B986"/>
<path d="M8.53338 25.4936C13.2544 25.036 17.9754 25.036 22.6964 25.4936C23.0628 28.429 23.1707 31.3643 23.0202 34.2997C22.9106 36.4365 21.2007 38.1373 19.0635 38.2382C16.7644 38.3468 14.4654 38.3468 12.1663 38.2382C10.0291 38.1373 8.31922 36.4365 8.20963 34.2997C8.05911 31.3643 8.16701 28.429 8.53338 25.4936Z" fill="#F1D0A5"/>
<path d="M22.6965 25.4929C20.3364 25.264 17.9756 25.1499 15.6148 25.1499C16.81 25.1499 18.0052 25.2654 19.2004 25.4964C19.3864 28.4601 19.4406 31.4238 19.3645 34.3868C19.3145 36.337 18.6017 37.9272 17.6665 38.29C18.132 38.2773 18.5983 38.2597 19.0638 38.2378C21.2006 38.1372 22.9106 36.4363 23.0205 34.2994C23.1705 31.364 23.0627 28.4284 22.6965 25.4929Z" fill="#F1B986"/>
<path d="M15.6152 35.88C16.4405 35.88 17.2024 35.3981 17.5563 34.6524C17.667 34.419 17.5676 34.1399 17.3342 34.0292C17.1007 33.9184 16.8218 34.0178 16.711 34.2512C16.5112 34.6723 16.0811 34.9443 15.6152 34.9443C15.1493 34.9443 14.7191 34.6723 14.5193 34.2512C14.4085 34.0179 14.1295 33.9184 13.8961 34.0292C13.6627 34.14 13.5632 34.419 13.674 34.6524C14.0281 35.3981 14.79 35.88 15.6152 35.88Z" fill="black"/>
<path d="M19.0704 32.726C18.6972 32.726 18.3947 32.2757 18.3947 31.7202C18.3947 31.1647 18.6972 30.7144 19.0704 30.7144C19.4436 30.7144 19.7461 31.1647 19.7461 31.7202C19.7461 32.2757 19.4436 32.726 19.0704 32.726Z" fill="#454045"/>
<path d="M12.1602 32.726C11.7871 32.726 11.4845 32.2757 11.4845 31.7202C11.4845 31.1647 11.7871 30.7144 12.1602 30.7144C12.5334 30.7144 12.8359 31.1647 12.8359 31.7202C12.8359 32.2757 12.5334 32.726 12.1602 32.726Z" fill="#454045"/>
<path d="M11.6813 27.9344C14.3948 28.9826 18.2494 28.5204 20.192 26.5778C20.192 26.5778 20.6533 29.7318 23.0432 29.7318L24.0854 30.0823C26.8689 19.1562 20.9319 22.0756 20.9319 22.0756C20.3714 20.9893 19.5549 20.5397 18.7019 20.4312C18.6268 20.4219 18.5517 20.4149 18.4761 20.4103C18.4701 20.4103 18.4641 20.4098 18.458 20.4094C17.8571 20.3774 17.2489 20.4993 16.7083 20.6732C16.5201 20.7339 16.3398 20.8007 16.171 20.8698C15.4918 21.1475 14.9971 21.4595 14.8933 21.5263C14.8798 21.5355 14.8729 21.5402 14.8729 21.5402C14.2618 20.7316 13.679 20 13.0383 20C12.7754 20 12.5937 20.1006 12.4718 20.2615C12.0096 20.8675 12.3893 22.3246 12.4199 22.4391L12.4212 22.4442C12.4208 22.4433 12.4203 22.4414 12.4194 22.4391L12.4161 22.4308C12.3341 22.2239 11.4161 20 9.76984 20C9.666 20 9.57282 20.0097 9.48981 20.0283C8.26265 20.2995 9.22322 22.446 9.32894 22.6732L9.33172 22.6797C9.33451 22.6853 9.33638 22.6894 9.33729 22.6912C9.28492 22.6245 7.22965 20.0153 6.31637 21.2123C6.31588 21.2132 6.31588 21.2132 6.31546 21.2137C5.39417 22.428 8.96917 26.8866 11.6813 27.9344Z" fill="#1D1D1B"/>
<path d="M6.31753 21.2122L6.31801 21.2122C6.7798 20.7509 8.37927 22.9285 9.33984 22.6925L9.33288 22.6795C9.33567 22.6851 9.33754 22.6893 9.33845 22.6911C9.28602 22.6244 7.23082 20.0152 6.31753 21.2122Z" fill="black"/>
<path d="M9.49142 20.0283C10.1851 19.8707 10.8281 21.1911 11.1915 22.1285C11.3672 22.5818 11.9114 22.7637 12.3246 22.5075L12.4238 22.446L12.4229 22.4442L12.4215 22.4391L12.421 22.4391L12.4178 22.4307C12.3357 22.2239 11.4177 20 9.77145 20C9.66761 20 9.57437 20.0097 9.49142 20.0283Z" fill="black"/>
<path d="M18.7038 20.4312C20.689 20.7812 21.4392 25.3325 20.1939 26.5778C20.1939 26.5778 20.6552 29.7318 23.0452 29.7318L24.0873 30.0823C26.8709 19.1562 20.9338 22.0756 20.9338 22.0756C20.3733 20.9893 19.5569 20.5397 18.7038 20.4312Z" fill="black"/>
<path d="M12.4746 20.2615C13.1723 19.5638 13.6373 23.142 15.2081 23.715C16.7788 24.288 16.9258 23.5555 16.9258 23.5555L16.9258 23.555C16.1525 23.269 15.4997 22.3649 14.8762 21.5396C14.8757 21.5401 14.8757 21.5401 14.8757 21.5401C14.8567 21.5146 14.8376 21.4896 14.8186 21.4646C14.795 21.4326 14.7704 21.4006 14.7463 21.3691C14.1816 20.6314 13.6364 20 13.0411 20C12.7782 20 12.5965 20.1006 12.4746 20.2615Z" fill="black"/>
<path d="M18.4587 20.4096C18.4653 20.4096 18.4719 20.4096 18.4785 20.4101C18.4724 20.4101 18.4663 20.4096 18.4601 20.4092L18.4587 20.4096Z" fill="black"/>
<path d="M6.23257 34.7598L14.3399 36.5168L14.34 36.5169L14.34 36.5167L16.6609 36.5167L16.6609 36.5168L16.6611 36.5167L24.7683 34.7597C25.5952 34.5801 26.377 35.2107 26.377 36.0566L26.377 45.8169C26.377 46.4416 25.941 46.9821 25.3307 47.1143L16.6611 48.9931L16.6609 48.9931L16.6609 48.9931L14.34 48.9931L14.34 48.9931L14.3399 48.9931L5.67021 47.1143C5.0599 46.9821 4.62397 46.4416 4.62397 45.8169L4.62397 36.0566C4.62397 35.2107 5.40575 34.5802 6.23257 34.7598Z" fill="#DFEAEF"/>
<path d="M3.75058 37.0249L3.75058 47.5687C3.75058 48.2436 4.22151 48.8274 4.88081 48.9702L14.2463 50.9998L15.4551 50.2353L15.4551 38.3192L14.2463 37.522L5.48827 35.624C4.59509 35.43 3.75058 36.1111 3.75058 37.0249Z" fill="#DA4A54"/>
<path d="M15.4557 38.3193L15.4556 50.2353L16.7543 50.9999L26.1198 48.9702C26.7791 48.8274 27.25 48.2436 27.25 47.5687L27.25 37.0249C27.25 36.1112 26.4054 35.43 25.5122 35.624L16.7543 37.522L15.4557 38.3193Z" fill="#C32430"/>
<path d="M16.7539 50.9999L16.7539 37.522L14.2467 37.522L14.2467 50.9999" fill="#DD636E"/>
<path d="M11.0834 41.0873C11.2988 41.0873 11.4926 40.9377 11.5401 40.7185C11.5948 40.4661 11.4345 40.217 11.182 40.1622L6.00185 39.0395C5.74912 38.9848 5.50028 39.1451 5.44554 39.3976C5.39081 39.6501 5.55114 39.8992 5.80362 39.9539L10.9838 41.0766C11.0172 41.0839 11.0505 41.0873 11.0834 41.0873Z" fill="#454045"/>
<path d="M11.0834 42.8261C11.2988 42.8261 11.4926 42.6764 11.5401 42.4573C11.5948 42.2048 11.4345 41.9557 11.182 41.901L6.00185 40.7783C5.74912 40.7236 5.50028 40.8839 5.44554 41.1364C5.39081 41.3888 5.55114 41.6379 5.80362 41.6927L10.9838 42.8154C11.0172 42.8227 11.0505 42.8261 11.0834 42.8261Z" fill="#454045"/>
<path d="M27.5067 42.1204L27.9971 42.1204C28.7215 42.1204 29.3086 41.5332 29.3086 40.809L29.3086 39.6318C29.3086 38.9074 28.7214 38.3203 27.9971 38.3203L27.5067 38.3203C26.7823 38.3203 26.1952 38.9075 26.1952 39.6318L26.1952 40.809C26.1952 41.5333 26.7824 42.1204 27.5067 42.1204Z" fill="#F1D0A5"/>
<path d="M27.2546 42.0949C27.3357 42.1118 27.4205 42.1199 27.5066 42.1199L27.9975 42.1199C28.7217 42.1199 29.3086 41.5323 29.3086 40.8081L29.3086 39.6311C29.3086 38.9063 28.7217 38.3193 27.9975 38.3193L27.5066 38.3193C27.4205 38.3193 27.3357 38.3275 27.2546 38.3443C27.8578 38.4616 28.3131 38.993 28.3131 39.6311L28.3131 40.8081C28.3131 41.4463 27.8578 41.9777 27.2546 42.0949Z" fill="#F1B986"/>
<path d="M3.00274 42.1204L3.49324 42.1204C4.21756 42.1204 4.80469 41.5332 4.80469 40.809L4.80469 39.6318C4.80469 38.9074 4.2175 38.3203 3.49324 38.3203L3.00274 38.3203C2.27842 38.3203 1.69129 38.9075 1.69129 39.6318L1.69129 40.809C1.69129 41.5333 2.27848 42.1204 3.00274 42.1204Z" fill="#F1D0A5"/>
<path d="M2.75069 42.0949C2.83176 42.1117 2.91659 42.1199 3.00269 42.1199L3.4936 42.1199C4.21774 42.1199 4.80469 41.5323 4.80469 40.8081L4.80469 39.6311C4.80469 38.9063 4.21774 38.3193 3.4936 38.3193L3.00269 38.3193C2.91659 38.3193 2.83176 38.3275 2.75069 38.3443C3.35386 38.4616 3.80917 38.993 3.80917 39.6311L3.80917 40.8081C3.80917 41.4463 3.35386 41.9777 2.75069 42.0949Z" fill="#F1B986"/>
</g>
<defs>
<clipPath id="clip0">
<rect width="31" height="31" fill="white" transform="matrix(-1 -8.74228e-08 -8.74228e-08 1 31 20)"/>
</clipPath>
</defs>
</svg>
