<svg width="39" height="40" viewBox="0 0 39 40" fill="none" xmlns="http://www.w3.org/2000/svg">
<path d="M30.1496 0.308468C29.9479 -0.00565598 29.531 -0.0937916 29.2195 0.109598L16.1657 8.66553L8.47213 2.84745C8.32981 2.74011 8.14938 2.69378 7.97343 2.71864C7.79636 2.74463 7.63722 2.83954 7.53075 2.98305C7.42429 3.12655 7.37834 3.30847 7.403 3.48587C7.42877 3.6644 7.52291 3.82485 7.66524 3.9322L15.7342 10.0339C15.7443 10.0418 15.7566 10.0429 15.7667 10.0497C15.807 10.0768 15.8507 10.0994 15.8956 10.1175C15.9135 10.1254 15.9314 10.1333 15.9494 10.139C16.0088 10.1571 16.0704 10.1672 16.132 10.1684H16.1376C16.2273 10.1661 16.317 10.1458 16.3988 10.1073C16.4178 10.0994 16.4358 10.0915 16.4537 10.0814C16.4705 10.0746 16.4873 10.0667 16.5041 10.0588L29.9524 1.24519C30.2628 1.0418 30.3513 0.622593 30.1496 0.308468Z" fill="#FF3051"/>
<path d="M1.34483 11.5254H37.6552C38.4004 11.5254 39 12.1299 39 12.8814V35.9322C39 36.6836 38.4004 37.2881 37.6552 37.2881H1.34483C0.599569 37.2881 0 36.6836 0 35.9322V12.8814C0 12.1299 0.599569 11.5254 1.34483 11.5254Z" fill="#C2DFF6"/>
<path d="M1.34483 35.9322V12.8814C1.34707 12.1333 1.94776 11.5277 2.68966 11.5254H1.34483C0.602931 11.5277 0.00224138 12.1333 0 12.8814V35.9322C0.00224138 36.6802 0.602931 37.2859 1.34483 37.2881H2.68966C1.94776 37.2859 1.34707 36.6802 1.34483 35.9322Z" fill="#9BC9FF"/>
<path d="M35.6379 31.1864C35.6379 31.9356 35.0361 32.5424 34.2931 32.5424C33.5501 32.5424 32.9482 31.9356 32.9482 31.1864C32.9482 30.4373 33.5501 29.8305 34.2931 29.8305C35.0361 29.8305 35.6379 30.4373 35.6379 31.1864Z" fill="#FF3051"/>
<path d="M3.3623 38.644C3.3623 39.3932 3.96412 40 4.70713 40H6.05196C6.79498 40 7.39679 39.3932 7.39679 38.644V37.2881H3.3623V38.644Z" fill="#6D6E71"/>
<path d="M31.6035 38.644C31.6035 39.3932 32.2053 40 32.9483 40H34.2932C35.0362 40 35.638 39.3932 35.638 38.644V37.2881H31.6035V38.644Z" fill="#6D6E71"/>
<path d="M35.6379 25.7627C35.6379 26.5119 35.0361 27.1186 34.2931 27.1186C33.5501 27.1186 32.9482 26.5119 32.9482 25.7627C32.9482 25.0135 33.5501 24.4068 34.2931 24.4068C35.0361 24.4068 35.6379 25.0135 35.6379 25.7627Z" fill="#9CDD05"/>
<path d="M4.03428 14.2373H28.2412C28.9864 14.2373 29.586 14.8418 29.586 15.5932V33.2203C29.586 33.9717 28.9864 34.5763 28.2412 34.5763H4.03428C3.28902 34.5763 2.68945 33.9717 2.68945 33.2203V15.5932C2.68945 14.8418 3.28902 14.2373 4.03428 14.2373Z" fill="#2488FF"/>
<path d="M22.1894 10.8474C22.1894 10.0983 21.5876 9.49152 20.8446 9.49152H11.4308C10.6877 9.49152 10.0859 10.0983 10.0859 10.8474V11.5254H22.1894V10.8474Z" fill="#6D6E71"/>
<path d="M2.68945 16.9492V33.2203C2.68945 33.9695 3.29126 34.5763 4.03428 34.5763H20.1722C10.5085 34.5763 2.68945 27.4418 2.68945 16.9492Z" fill="#006DF0"/>
<path d="M34.2932 29.1525C33.4414 29.1559 32.6839 29.6983 32.3992 30.5085H31.6035V31.8644H32.3992C32.6794 32.6768 33.4392 33.2203 34.2932 33.2203C35.146 33.2203 35.9058 32.6757 36.186 31.8644H36.9828V30.5085H36.186C35.9025 29.6983 35.1449 29.1559 34.2932 29.1525ZM34.2932 31.8644C34.0208 31.8644 33.7765 31.6994 33.6723 31.4463C33.5681 31.1932 33.6264 30.9017 33.818 30.7073C34.0096 30.5141 34.2999 30.4554 34.5509 30.5604C34.802 30.6655 34.9656 30.913 34.9656 31.1864C34.9656 31.5604 34.6641 31.8644 34.2932 31.8644Z" fill="#E52B49"/>
<path d="M34.2932 23.7288C33.4414 23.7322 32.6839 24.2746 32.3992 25.0848H31.6035V26.4407H32.3992C32.6794 27.2531 33.4392 27.7966 34.2932 27.7966C35.146 27.7966 35.9058 27.252 36.186 26.4407H36.9828V25.0848H36.186C35.9025 24.2746 35.1449 23.7322 34.2932 23.7288ZM34.2932 26.4407C34.0208 26.4407 33.7765 26.2757 33.6723 26.0226C33.5681 25.7695 33.6264 25.478 33.818 25.2836C34.0096 25.0904 34.2999 25.0316 34.5509 25.1367C34.802 25.2418 34.9656 25.4893 34.9656 25.7627C34.9656 26.1367 34.6641 26.4407 34.2932 26.4407Z" fill="#5EAC24"/>
<path d="M33.6212 18.9831H32.2764V20.339H33.6212V18.9831Z" fill="#F1F2F2"/>
<path d="M36.3106 18.9831H34.9658V20.339H36.3106V18.9831Z" fill="#F1F2F2"/>
<path d="M33.6212 21.0169H32.2764V22.3728H33.6212V21.0169Z" fill="#F1F2F2"/>
<path d="M36.3106 21.0169H34.9658V22.3728H36.3106V21.0169Z" fill="#F1F2F2"/>
<path d="M33.6212 16.9492H32.2764V18.3051H33.6212V16.9492Z" fill="#F1F2F2"/>
<path d="M36.3106 16.9492H34.9658V18.3051H36.3106V16.9492Z" fill="#F1F2F2"/>
<path d="M33.6212 14.9152H32.2764V16.2712H33.6212V14.9152Z" fill="#F1F2F2"/>
<path d="M36.3106 14.9152H34.9658V16.2712H36.3106V14.9152Z" fill="#F1F2F2"/>
</svg>
