<svg width="47" height="37" viewBox="0 0 47 37" fill="none" xmlns="http://www.w3.org/2000/svg">
<g clip-path="url(#clip0)">
<path d="M47 27.7512V1.98605C47 0.890804 46.1074 0 45.01 0H1.99004C0.89259 0 0 0.890804 0 1.98605V27.7512H47Z" fill="#E6E7E8"/>
<path d="M47 26.0475H0V27.7512H47V26.0475Z" fill="#8BCAFF"/>
<path d="M0 27.7512V35.0724C0 36.1384 0.868203 37 1.93638 37H45.0685C46.1367 37 47.0049 36.1335 47.0049 35.0724V27.7512H0Z" fill="#8C808A"/>
<path d="M45.0685 35.2963H1.93638C0.868203 35.2963 0 34.4347 0 33.3687V35.0724C0 36.1384 0.868203 37 1.93638 37H45.0685C46.1367 37 47.0049 36.1336 47.0049 35.0724V33.3687C47 34.4347 46.1367 35.2963 45.0685 35.2963Z" fill="#7B7179"/>
<path d="M41.669 33.0522H5.33615C4.94595 33.0522 4.62891 32.7358 4.62891 32.3464C4.62891 31.957 4.94595 31.6406 5.33615 31.6406H41.669C42.0592 31.6406 42.3762 31.957 42.3762 32.3464C42.3762 32.7358 42.0592 33.0522 41.669 33.0522Z" fill="white"/>
<path d="M19.3201 31.6406H5.33615C4.94595 31.6406 4.62891 31.957 4.62891 32.3464C4.62891 32.7358 4.94595 33.0522 5.33615 33.0522H19.3201V31.6406Z" fill="#8BCAFF"/>
<path d="M21.505 32.3756C21.505 33.578 20.5247 34.5564 19.3199 34.5564C18.1152 34.5564 17.1348 33.578 17.1348 32.3756C17.1348 31.1733 18.1152 30.1949 19.3199 30.1949C20.5247 30.1949 21.505 31.1684 21.505 32.3756Z" fill="#FF4755"/>
<path d="M19.3199 32.8526C18.4176 32.8526 17.642 32.3026 17.3104 31.5237C17.1982 31.7866 17.1396 32.0738 17.1396 32.3756C17.1396 33.5779 18.12 34.5564 19.3248 34.5564C20.5295 34.5564 21.5099 33.5779 21.5099 32.3756C21.5099 32.0738 21.4465 31.7866 21.3392 31.5237C20.9978 32.3026 20.2223 32.8526 19.3199 32.8526Z" fill="#FC2B3A"/>
<path d="M30.002 7.29193C33.6017 10.8843 33.6017 16.7062 30.002 20.2986C26.4024 23.8911 20.5689 23.8911 16.9693 20.2986C13.3696 16.7062 13.3696 10.8843 16.9693 7.29193C20.564 3.6995 26.4024 3.6995 30.002 7.29193Z" fill="#FF4755"/>
<path d="M23.4852 21.2917C18.6808 21.2917 14.7397 17.6262 14.3056 12.9434C14.2812 13.2258 14.2666 13.5081 14.2666 13.7953C14.2666 18.8773 18.393 22.9954 23.4852 22.9954C28.5773 22.9954 32.7037 18.8773 32.7037 13.7953C32.7037 13.5081 32.6891 13.2258 32.6647 12.9434C32.2355 17.6262 28.2895 21.2917 23.4852 21.2917Z" fill="#FC2B3A"/>
<path d="M21.7244 18.298L27.5482 14.618C27.9726 14.3502 27.9726 13.732 27.5482 13.4594L21.7244 9.77938C21.266 9.49218 20.6709 9.81832 20.6709 10.3586V17.7187C20.6709 18.2591 21.2708 18.5852 21.7244 18.298Z" fill="#E6E2E6"/>
<path d="M27.5531 13.4545L27.1239 13.1819L21.7293 16.5894C21.2708 16.8766 20.6758 16.5504 20.6758 16.0101V17.7138C20.6758 18.2542 21.2708 18.5803 21.7293 18.2931L27.5531 14.6131C27.9775 14.3453 27.9775 13.7271 27.5531 13.4545Z" fill="#D8D1D7"/>
</g>
<defs>
<clipPath id="clip0">
<rect width="47" height="37" fill="white"/>
</clipPath>
</defs>
</svg>
